<?xml version="1.0" encoding="utf-8"?>
<!-- Generator: Adobe Illustrator 19.2.1, SVG Export Plug-In . SVG Version: 6.00 Build 0)  -->
<svg version="1.1" id="Layer_1" xmlns="http://www.w3.org/2000/svg" xmlns:xlink="http://www.w3.org/1999/xlink" x="0px" y="0px"
	 viewBox="0 0 63.8 57.3" style="enable-background:new 0 0 63.8 57.3;" xml:space="preserve">
<style type="text/css">
	.st0{fill:#FFFFFF;}
</style>
<path class="st0" d="M54.8,0L54.8,0c-0.1,0-0.2,0-0.2,0c-0.1,0-0.2,0-0.2,0c-0.1,0-0.1,0-0.2,0S54.1,0,54,0c0,0,0,0-0.1,0
	s-0.1,0.1-0.2,0.1s-0.1,0.1-0.2,0.1s-0.1,0.1-0.2,0.1c0,0-0.1,0-0.1,0.1l0,0l0,0l-8.3,7.9c-1,0.9-1,2.4-0.1,3.4s2.4,1,3.4,0.1
	l3.9-3.6C49.2,33.1,28,52.5,2.4,52.5c-1.3,0-2.4,1.1-2.4,2.4s1.1,2.4,2.4,2.4c28.2,0,51.5-21.4,54.5-48.9l2.8,3.2
	c0.9,1,2.4,1.1,3.3,0.2c0.5-0.5,0.8-1.1,0.8-1.8c0-0.6-0.2-1.1-0.6-1.6l-6.7-7.6l0,0l0,0l0,0c-0.1-0.1-0.1-0.1-0.2-0.2
	c-0.1,0-0.1-0.1-0.2-0.1S56,0.4,55.9,0.4s-0.1-0.1-0.2-0.1l0,0c-0.1,0-0.1,0-0.2-0.1c-0.1,0-0.1-0.1-0.2-0.1s-0.1,0-0.2,0
	C55,0,55,0,54.8,0C54.9,0,54.9,0,54.8,0z"/>
</svg>
