<svg id="cards" xmlns="http://www.w3.org/2000/svg" viewBox="0 0 64 200"><defs><style>.cls-1{fill:#0c489c;}.cls-2,.cls-8{fill:#fff;}.cls-3{fill:#084d95;}.cls-4{fill:#0073a5;}.cls-5{fill:#13457c;}.cls-6{fill:#fbb231;}.cls-6,.cls-7,.cls-8{fill-rule:evenodd;}.cls-7{fill:#ec1c2e;}.cls-9{fill:none;stroke:#fff;stroke-miterlimit:2.61;stroke-width:0.22px;}.cls-10{fill:#3957a7;}.cls-11{fill:#f9a533;}</style></defs><title>beehive_card_logos</title><g id="jcb"><rect class="cls-1" y="160" width="64" height="40" rx="2.13" ry="2.13"/><path class="cls-2" d="M43.14,181.36c.08,2.33.16,4.74,0,7.11a3.22,3.22,0,0,1-1.51,2.37,4.58,4.58,0,0,1-2.33.51l-3.09,0,0-19.78a3.35,3.35,0,0,1,2.37-2.8,42.9,42.9,0,0,1,4.51-.16l.08,1v11.23l0,0Z"/><path class="cls-2" d="M20.76,180.62v-9.33a3.38,3.38,0,0,1,2.06-2.41c1.52-.47,3.26-.19,4.82-.23.08,1.52,0,3.42,0,4.74l.08,12.16c-.2,1.87.51,4.39-1.83,5.44-1.48.74-3.46.27-5.13.43l0-.27V180.62Z"/><path class="cls-2" d="M35.41,169.93l0,18.92a3.44,3.44,0,0,1-1.94,2.21c-1.48.5-3.3.27-4.93.27l-.08-19.93A3,3,0,0,1,30,169.16a3.92,3.92,0,0,1,2-.54h3.3Z"/><path class="cls-1" d="M20.76,181a3.38,3.38,0,0,0,2.53,1.48c1.28.12,3,.23,3.81-1,.58-.62.23-1.48.35-2.29l0-1.48a14.28,14.28,0,0,0-2.25,0c-.43,1.59.7,3.38-1.13,4.2a2,2,0,0,1-1.48-.23c-.7-.16-.31-1.28-1.24-1l-.54-.08Z"/><path class="cls-1" d="M35.1,177.74a3.9,3.9,0,0,1,0,.7c-1.16-.31-2.6-.66-3.65.19a1.94,1.94,0,0,0,.62,3.19,5.56,5.56,0,0,0,3-.2,1.13,1.13,0,0,1,0,.62H30.63a2.31,2.31,0,0,1-1.75-1.36,2.39,2.39,0,0,1,.39-2.37,2.27,2.27,0,0,1,1.86-.82Z"/><path class="cls-1" d="M43.14,181.36a1.3,1.3,0,0,1-1,1H36.73l-.19-.08c0-1.55,0-3,0-4.55H40c1.09.12,2.29-.35,2.8.66a1,1,0,0,1-.16,1.09c-.16.27-.51.31-.58.5a1.61,1.61,0,0,1,1,.89Zm-4.66-3.19a3.76,3.76,0,0,0,0,1.48c.82,0,1.87.27,2.41-.35a.77.77,0,0,0,0-.82C40.19,177.94,39.26,178.29,38.48,178.17Zm2.1,2.14a10.23,10.23,0,0,0-2.18,0,7.19,7.19,0,0,0,.08,1.59,5.21,5.21,0,0,0,2.33-.23.83.83,0,0,0,.23-.78A.81.81,0,0,0,40.58,180.31Z"/></g><g id="diners-club"><rect class="cls-3" y="120" width="64" height="40" rx="2.13" ry="2.13"/><path class="cls-2" d="M33.53,141.82a6.87,6.87,0,0,0,6.92-6.56,6.76,6.76,0,0,0-6.92-6.67H30.42a6.52,6.52,0,0,0-6.67,6.67,6.63,6.63,0,0,0,6.67,6.56Z"/><path class="cls-3" d="M31.81,138.77v-7.17a3.84,3.84,0,0,1,0,7.17m-5.21-3.58a3.85,3.85,0,0,1,2.46-3.58v7.16a3.84,3.84,0,0,1-2.46-3.58m3.84-6.06a6.06,6.06,0,1,0,6.06,6.06,6.06,6.06,0,0,0-6.06-6.06"/><path class="cls-2" d="M17,146.33c0,.54.39.6.73.6a2,2,0,0,0,2-2.18,2.1,2.1,0,0,0-2.19-2.25c-.29,0-.42,0-.55,0Zm-.68-3.28c0-.63-.33-.59-.64-.59v-.18h2a2.55,2.55,0,0,1,2.8,2.45c0,.69-.41,2.43-2.88,2.43h-2V147c.42,0,.62-.06.64-.53Z"/><path class="cls-2" d="M21.48,142.88a.34.34,0,0,1,0-.69.34.34,0,0,1,.34.34.35.35,0,0,1-.34.35M20.73,147h.13c.2,0,.34,0,.34-.23v-1.9c0-.31-.1-.35-.36-.49v-.11c.33-.1.72-.23.75-.25a.24.24,0,0,1,.13,0s0,0,0,.1v2.69c0,.23.15.23.35.23h.12v.18h-1.5Z"/><path class="cls-2" d="M22.89,144.89c0-.26-.08-.33-.4-.46v-.13a9.2,9.2,0,0,0,.92-.34s0,0,0,.07v.45a2.06,2.06,0,0,1,1.21-.52c.59,0,.8.43.8,1v1.8c0,.23.15.23.35.23h.13v.18h-1.5V147h.12c.2,0,.34,0,.34-.23v-1.81c0-.4-.24-.59-.64-.59a1.87,1.87,0,0,0-.81.34v2.07c0,.23.16.23.35.23h.13v.18h-1.5V147h.13c.2,0,.33,0,.33-.23Z"/><path class="cls-2" d="M27.71,145c.18,0,.2-.09.2-.18a.59.59,0,0,0-.61-.64c-.43,0-.72.31-.8.82Zm-1.24.22a1.77,1.77,0,0,0,0,.41,1.17,1.17,0,0,0,1,1.21,1.34,1.34,0,0,0,.94-.47l.1.1a1.64,1.64,0,0,1-1.29.79,1.4,1.4,0,0,1-1.34-1.52c0-1.37.92-1.78,1.41-1.78a1.11,1.11,0,0,1,1.18,1.1.89.89,0,0,1,0,.13l-.06,0Z"/><path class="cls-2" d="M28.67,147h.19c.2,0,.34,0,.34-.23v-2c0-.22-.26-.26-.36-.32v-.1c.51-.22.79-.4.85-.4s.06,0,.06.09v.63h0c.17-.27.47-.72.89-.72a.38.38,0,0,1,.4.37.34.34,0,0,1-.33.36c-.22,0-.22-.17-.46-.17a.59.59,0,0,0-.51.58v1.64c0,.23.14.23.34.23h.39v.18H28.67Z"/><path class="cls-2" d="M31.36,146.18a.92.92,0,0,0,.88.85.49.49,0,0,0,.57-.5c0-.83-1.52-.56-1.52-1.69a1,1,0,0,1,1.08-.9,1.84,1.84,0,0,1,.8.2l0,.71h-.16a.72.72,0,0,0-.76-.69.49.49,0,0,0-.55.46c0,.82,1.62.57,1.62,1.66,0,.46-.37,1-1.2,1a1.84,1.84,0,0,1-.85-.24l-.08-.8Z"/><path class="cls-2" d="M39.69,143.54h-.18a1.33,1.33,0,0,0-1.5-1.15,2,2,0,0,0-2,2.22A2.28,2.28,0,0,0,38.12,147a1.42,1.42,0,0,0,1.41-1.21l.16,0-.16,1a3.93,3.93,0,0,1-1.55.37,2.49,2.49,0,0,1-2.67-2.63A2.57,2.57,0,0,1,38,142.17a5.06,5.06,0,0,1,1.65.37Z"/><path class="cls-2" d="M39.94,147h.13c.2,0,.34,0,.34-.23v-3.9c0-.46-.1-.47-.37-.55v-.11a4.37,4.37,0,0,0,.72-.3.7.7,0,0,1,.15-.08s.06,0,.06.1v4.83c0,.23.15.23.35.23h.12v.18h-1.5Z"/><path class="cls-2" d="M44.43,146.77c0,.13.08.13.2.13h.28V147a7.25,7.25,0,0,0-1,.22l0,0v-.57a1.89,1.89,0,0,1-1.24.59.75.75,0,0,1-.77-.83v-1.79c0-.18,0-.36-.42-.39v-.13l.9,0c.08,0,.08,0,.08.2v1.8c0,.21,0,.81.61.81a1.57,1.57,0,0,0,.85-.43v-1.88c0-.14-.34-.22-.59-.29v-.13c.63,0,1-.1,1.09-.1s.06,0,.06.13Z"/><path class="cls-2" d="M45.82,146.37a.75.75,0,0,0,.72.71c.75,0,1.06-.74,1.06-1.36a1.33,1.33,0,0,0-1.12-1.38,1.08,1.08,0,0,0-.66.33Zm0-1.9a1.77,1.77,0,0,1,1-.5,1.36,1.36,0,0,1,1.3,1.47,1.77,1.77,0,0,1-1.67,1.83,2.07,2.07,0,0,1-1-.24l-.21.16-.15-.08a8.31,8.31,0,0,0,.1-1.25v-3c0-.46-.11-.47-.37-.55v-.11a4.43,4.43,0,0,0,.72-.3.67.67,0,0,1,.15-.08s.05,0,.05.1Z"/><path class="cls-2" d="M15.64,151.22h.05c.14,0,.28,0,.28-.22v-2c0-.2-.14-.22-.28-.22h-.05v-.11l.56,0,.6,0v.11h-.05c-.14,0-.28,0-.28.22v2c0,.2.15.22.28.22h.05v.11l-.6,0-.56,0Z"/><path class="cls-2" d="M16.79,151.32v-.08h0c-.14,0-.3,0-.3-.23v-2c0-.21.16-.23.3-.23h0v-.08l-.58,0-.55,0v.08h0c.14,0,.3,0,.3.23v2c0,.21-.16.23-.3.23h0v.08l.54,0,.58,0m0,0H15.63v-.15h.07c.14,0,.26,0,.27-.2v-2c0-.19-.13-.2-.27-.2h-.07v-.15h1.19v.15h-.07c-.14,0-.27,0-.27.2v2c0,.19.13.2.27.2h.07v.15Z"/><path class="cls-2" d="M19.42,150.59h0v-1.43a.31.31,0,0,0-.33-.36H19v-.11l.53,0,.47,0v.11H20c-.16,0-.34,0-.34.48V151a2.49,2.49,0,0,0,0,.38H19.5l-2-2.18v1.57c0,.33.06.45.36.45H18v.11l-.49,0-.52,0v-.11H17c.26,0,.34-.18.34-.48v-1.6a.34.34,0,0,0-.35-.34h0v-.11l.44,0,.34,0Z"/><path class="cls-2" d="M19.41,150.58h0Zm0,0h0Zm.08.79h.13a2.43,2.43,0,0,1,0-.37v-1.73c0-.46.19-.5.35-.5h0v-.08l-.45,0-.52,0v.08h.07a.33.33,0,0,1,.35.37v1.44h0l-1.69-1.91-.34,0-.42,0v.08h0a.36.36,0,0,1,.36.36v1.6c0,.3-.08.5-.36.5h0v.08l.5,0,.47,0v-.08h0c-.3,0-.37-.13-.37-.46v-1.61Zm.14,0h-.16l-1.93-2.15v1.53c0,.33.05.43.34.43H18v.15h-1v-.15H17c.25,0,.32-.16.33-.47v-1.6a.33.33,0,0,0-.33-.33h-.07v-.15h.81l1.67,1.88v-1.4c0-.3-.21-.34-.32-.34H19v-.15h1v.15H20c-.16,0-.32,0-.32.47V151a2.57,2.57,0,0,0,0,.38v0Z"/><path class="cls-2" d="M20.58,148.87c-.29,0-.3.07-.35.35h-.11c0-.11,0-.21,0-.32a2.47,2.47,0,0,0,0-.32h.09c0,.11.13.11.23.11h2c.1,0,.2,0,.21-.12l.09,0c0,.1,0,.21,0,.31s0,.21,0,.31l-.11,0c0-.14,0-.37-.28-.37H21.7v2c0,.29.13.33.32.33h.07v.11l-.62,0-.64,0v-.11h.07c.21,0,.32,0,.32-.32v-2Z"/><path class="cls-2" d="M22.08,151.35H20.8v-.15h.09c.21,0,.29,0,.3-.3v-2h-.61v0h.64v2c0,.31-.12.34-.33.34h-.06v.08h1.23v-.08H22c-.18,0-.33,0-.33-.34v-2h.64c.25,0,.29.22.3.36l.08,0c0-.1,0-.2,0-.3s0-.19,0-.29h-.06c0,.11-.12.12-.22.11h-2c-.09,0-.19,0-.22-.11H20.2a2.42,2.42,0,0,1,0,.31c0,.1,0,.2,0,.31h.08c.05-.27.08-.35.37-.35v0c-.28,0-.28.05-.34.33H20.1v0c0-.11,0-.21,0-.32a2.14,2.14,0,0,0,0-.32v0h.12c0,.1.1.1.19.1h2c.11,0,.18,0,.19-.1v0h0l.11,0v0c0,.1,0,.2,0,.31s0,.2,0,.31h0l-.13,0v0c0-.14,0-.35-.27-.35h-.61v2c0,.29.12.31.3.31h.09v.15Z"/><path class="cls-2" d="M22.89,151.22h.05c.14,0,.28,0,.28-.22v-2c0-.2-.14-.22-.28-.22h-.05v-.11l.95,0,1,0c0,.16,0,.42,0,.58l-.11,0c0-.25-.06-.44-.46-.44h-.53v1h.45c.23,0,.28-.13.3-.34h.11c0,.15,0,.3,0,.45s0,.29,0,.43l-.11,0c0-.23,0-.38-.3-.38h-.46v.89c0,.25.22.25.46.25.46,0,.66,0,.77-.46l.11,0c-.05.2-.1.4-.13.61l-1,0-1,0Z"/><path class="cls-2" d="M24.91,151.32c0-.19.08-.38.12-.58l-.07,0c-.11.43-.33.46-.78.46-.24,0-.48,0-.48-.26V150h.47c.27,0,.29.16.31.37l.08,0c0-.14,0-.28,0-.42s0-.29,0-.43h-.08c0,.2-.08.34-.31.34h-.47v-1h.55c.4,0,.46.2.48.44l.08,0c0-.11,0-.25,0-.37s0-.13,0-.18l-1,0-.93,0v.08h0c.13,0,.3,0,.3.23v2c0,.21-.16.23-.3.23h0v.08h2m0,0H22.87v-.15h.07c.14,0,.26,0,.26-.2v-2c0-.19-.13-.2-.26-.2h-.07v-.15h2v0c0,.06,0,.13,0,.2s0,.28,0,.38h0l-.13,0v0c0-.25-.05-.43-.45-.43h-.51v1h.44c.22,0,.26-.11.28-.32v0h.15v0c0,.15,0,.3,0,.44s0,.29,0,.43h0l-.13,0v0c0-.23,0-.36-.28-.36h-.44v.87c0,.23.2.23.45.23.46,0,.64,0,.76-.45h0l.12,0v0c0,.2-.09.4-.13.6h0Z"/><path class="cls-2" d="M26.05,150h.19c.38,0,.58-.14.58-.59a.52.52,0,0,0-.56-.56h-.22Zm-.49-.88c0-.28-.15-.29-.27-.29h-.07v-.11l.59,0,.61,0c.48,0,.91.13.91.67a.72.72,0,0,1-.53.67l.65,1a.42.42,0,0,0,.37.23v.11l-.37,0-.36,0a10.49,10.49,0,0,1-.79-1.23h-.25v.81c0,.29.14.3.31.3h.07v.11l-.65,0-.55,0v-.11h.07c.14,0,.27-.07.27-.21Z"/><path class="cls-2" d="M26.24,150c.38,0,.57-.13.57-.58a.5.5,0,0,0-.54-.54h-.2V150Zm-.19,0h0v-1.16h.23a.54.54,0,0,1,.57.57c0,.45-.22.61-.6.61Zm0,.1h.27a11.77,11.77,0,0,0,.78,1.23l.36,0h.36v-.08a.43.43,0,0,1-.37-.23l-.66-1h0a.7.7,0,0,0,.52-.65c0-.53-.41-.65-.89-.65l-.61,0-.57,0v.08h.05c.12,0,.29,0,.29.31V151c0,.15-.14.22-.29.22h-.05v.08h1.17v-.08h-.05c-.17,0-.33,0-.33-.32v-.83Zm1.77,1.27h-.74a10.66,10.66,0,0,1-.79-1.23h-.23v.8c0,.29.12.28.3.29h.09v.15H25.21v-.15h.08c.14,0,.25-.06.25-.19v-1.93c0-.27-.13-.27-.25-.27h-.08v-.15h1.22c.48,0,.92.13.92.69a.73.73,0,0,1-.52.68l.64,1a.41.41,0,0,0,.36.22h0v.13Z"/><path class="cls-2" d="M30.41,150.59h0v-1.43a.31.31,0,0,0-.33-.36H30v-.11l.53,0,.47,0v.11h-.06c-.16,0-.34,0-.34.48V151a2.62,2.62,0,0,0,0,.38h-.14l-2-2.18v1.57c0,.33.06.45.36.45h.06v.11l-.49,0-.52,0v-.11H28c.26,0,.34-.18.34-.48v-1.6a.34.34,0,0,0-.35-.34h0v-.11l.44,0,.34,0Z"/><path class="cls-2" d="M30.4,150.58h0Zm0,0h0Zm.08.79h.13a2.56,2.56,0,0,1,0-.37v-1.73c0-.46.19-.5.36-.5h0v-.08l-.45,0-.52,0v.08h.07a.33.33,0,0,1,.35.37v1.44h0l-1.69-1.91-.34,0-.42,0v.08h0a.36.36,0,0,1,.36.36v1.6c0,.31-.09.5-.36.5h0v.08h1v-.08h0c-.3,0-.37-.13-.38-.46v-1.61Zm.14,0h-.16l-1.93-2.15v1.53c0,.33.05.43.34.43H29v.15h-1v-.15H28c.25,0,.32-.16.33-.47v-1.6a.33.33,0,0,0-.33-.33h-.07v-.15h.81l1.67,1.88v-1.4c0-.3-.2-.34-.31-.34H30v-.15h1v.15h-.07c-.16,0-.32,0-.32.47V151a2.46,2.46,0,0,0,0,.38v0Z"/><path class="cls-2" d="M32.17,149.11h0l-.35,1.08h.71Zm-.56,1.69a1.57,1.57,0,0,0-.08.3c0,.11.16.13.29.13h0v.11l-.46,0-.41,0v-.11h0a.34.34,0,0,0,.33-.25l.61-1.75a3.14,3.14,0,0,0,.14-.47,2,2,0,0,0,.35-.16h.06l0,.09.7,2c0,.13.09.27.14.39a.24.24,0,0,0,.25.15h0v.11l-.53,0-.57,0v-.11h0c.09,0,.24,0,.24-.11a1.16,1.16,0,0,0-.08-.28l-.15-.44h-.86Z"/><path class="cls-2" d="M32.15,149.11h0Zm-.32,1.06h.67l-.33-1Zm0,0,.36-1.11h0v0h0v0h0l.36,1.11Zm.78,1.12h1.06v-.08h0a.26.26,0,0,1-.27-.16c0-.12-.1-.26-.14-.39l-.7-2,0-.09h0a1.43,1.43,0,0,1-.34.15,3.22,3.22,0,0,1-.14.47L31.36,151a.36.36,0,0,1-.35.26h0v.08h.84v-.08h0c-.12,0-.3,0-.3-.15a1.58,1.58,0,0,1,.08-.3h0l.13-.41h.89l.15.45a1.19,1.19,0,0,1,.08.28c0,.12-.17.12-.25.13h0Zm1.08,0H32.53v-.15h.06c.09,0,.22,0,.22-.09a1.17,1.17,0,0,0-.08-.27l-.14-.43h-.84l-.12.38a1.62,1.62,0,0,0-.08.29c0,.09.14.12.27.12h.06v.15H31v-.15h0a.32.32,0,0,0,.31-.23l.61-1.75a4.64,4.64,0,0,0,.15-.48,2,2,0,0,0,.34-.16h0a0,0,0,0,1,0,0l0,.1.7,2c0,.13.09.27.14.39a.22.22,0,0,0,.24.14h0v.15Z"/><path class="cls-2" d="M33.81,148.87c-.29,0-.3.07-.35.35h-.11c0-.11,0-.21,0-.32a2.31,2.31,0,0,0,0-.32h.09c0,.11.13.11.23.11h2c.1,0,.2,0,.2-.12l.09,0c0,.1,0,.21,0,.31s0,.21,0,.31l-.11,0c0-.14,0-.37-.28-.37h-.62v2c0,.29.13.33.32.33h.07v.11l-.62,0-.64,0v-.11h.07c.21,0,.32,0,.32-.32v-2Z"/><path class="cls-2" d="M35.31,151.35H34v-.15h.09c.21,0,.29,0,.3-.3v-2h-.61v0h.64v2c0,.31-.12.34-.33.34h-.06v.08l.63,0,.6,0v-.08h-.06c-.18,0-.33,0-.33-.34v-2h.64c.26,0,.29.22.3.36l.08,0c0-.1,0-.2,0-.3s0-.2,0-.29h-.06c0,.11-.12.12-.22.11h-2c-.09,0-.19,0-.22-.11h-.06a2.1,2.1,0,0,1,0,.31c0,.11,0,.21,0,.31h.08c0-.27.08-.35.37-.35v0c-.28,0-.28.05-.34.33h-.15v0c0-.11,0-.21,0-.32a2.14,2.14,0,0,0,0-.32v0h.12c0,.1.1.1.19.1h2c.1,0,.18,0,.19-.1v0h0l.11,0v0c0,.1,0,.2,0,.31s0,.2,0,.31h0l-.14,0v0c0-.14,0-.35-.27-.35h-.61v2c0,.29.12.31.3.31h.09v.15Z"/><path class="cls-2" d="M36.13,151.22h.05c.14,0,.28,0,.28-.22v-2c0-.2-.14-.22-.28-.22h-.05v-.11l.56,0,.6,0v.11h-.05c-.14,0-.28,0-.28.22v2c0,.2.14.22.28.22h.05v.11l-.6,0-.56,0Z"/><path class="cls-2" d="M37.28,151.32v-.08h0c-.14,0-.3,0-.3-.23v-2c0-.21.16-.23.3-.23h0v-.08l-.58,0-.55,0v.08h0c.13,0,.3,0,.3.23v2c0,.21-.16.23-.3.23h0v.08h1.13m0,0H36.11v-.15h.07c.14,0,.26,0,.26-.2v-2c0-.19-.13-.2-.26-.2h-.07v-.15h1.19v.15h-.07c-.14,0-.27,0-.27.2v2c0,.19.13.2.27.2h.07v.15Z"/><path class="cls-2" d="M38.87,151.23c.74,0,.87-.65.87-1.21s-.3-1.23-.93-1.23-.86.59-.86,1.1c0,.68.31,1.33.93,1.33m-.06-2.6a1.33,1.33,0,0,1,1.46,1.31,1.39,1.39,0,0,1-1.44,1.46A1.34,1.34,0,0,1,37.41,150a1.38,1.38,0,0,1,1.4-1.4"/><path class="cls-2" d="M37.92,149.9c0-.51.2-1.12.88-1.12s.95.69.95,1.25-.13,1.22-.88,1.22v0c.72,0,.85-.63.85-1.19s-.3-1.21-.92-1.21-.85.58-.85,1.09c0,.68.31,1.31.91,1.32v0c-.63,0-.94-.66-.95-1.35m-.53.13a1.4,1.4,0,0,1,1.42-1.42v0A1.37,1.37,0,0,0,37.42,150a1.33,1.33,0,0,0,1.41,1.35,1.38,1.38,0,0,0,1.42-1.44,1.32,1.32,0,0,0-1.44-1.3v0a1.35,1.35,0,0,1,1.47,1.33,1.41,1.41,0,0,1-1.46,1.47A1.36,1.36,0,0,1,37.39,150"/><path class="cls-2" d="M42.83,150.59h0v-1.43a.31.31,0,0,0-.33-.36h-.08v-.11l.53,0,.47,0v.11h-.06c-.16,0-.34,0-.34.48V151a2.37,2.37,0,0,0,0,.38h-.14l-2-2.18v1.57c0,.33.06.45.36.45h.06v.11l-.49,0-.52,0v-.11h.05c.26,0,.34-.18.34-.48v-1.6a.34.34,0,0,0-.35-.34h0v-.11l.44,0,.34,0Z"/><path class="cls-2" d="M42.82,150.58h0Zm0,0h0Zm.08.79H43a2.73,2.73,0,0,1,0-.37v-1.73c0-.46.19-.5.35-.5h0v-.08l-.45,0-.51,0v.08h.07a.33.33,0,0,1,.35.37v1.44h0l-1.69-1.91-.34,0-.42,0v.08h0a.36.36,0,0,1,.36.36v1.6c0,.3-.08.5-.36.5h0v.08h1v-.08h0c-.3,0-.37-.13-.37-.46v-1.61Zm.14,0H42.9L41,149.25v1.53c0,.33.06.42.34.43h.08v.15h-1v-.15h.07c.25,0,.32-.16.32-.47v-1.6a.32.32,0,0,0-.33-.33h-.07v-.15h.81l1.67,1.88v-1.4c0-.3-.2-.34-.31-.34h-.1v-.15h1v.15h-.07c-.16,0-.32,0-.32.47V151a2.45,2.45,0,0,0,0,.38v0Z"/><path class="cls-2" d="M44.6,149.11h0l-.35,1.08h.71ZM44,150.79a1.63,1.63,0,0,0-.08.3c0,.11.16.13.29.13h0v.11l-.46,0-.41,0v-.11h0a.34.34,0,0,0,.33-.25l.61-1.75a3.13,3.13,0,0,0,.14-.47,2,2,0,0,0,.35-.16h.06l0,.09.7,2c0,.13.09.27.14.39a.24.24,0,0,0,.25.15h0v.11l-.53,0-.57,0v-.11h0c.09,0,.24,0,.24-.11a1.19,1.19,0,0,0-.08-.28L45,150.4h-.86Z"/><path class="cls-2" d="M44.58,149.11h0Zm-.32,1.06h.67l-.33-1Zm0,0,.36-1.11h0v0h0v0h0L45,150.2Zm.78,1.12h1.06v-.08h0a.26.26,0,0,1-.27-.16c-.05-.12-.1-.26-.14-.39l-.7-2,0-.09h0a1.43,1.43,0,0,1-.34.15,3.22,3.22,0,0,1-.14.47L43.78,151a.36.36,0,0,1-.35.26h0v.08h.84v-.08h0c-.12,0-.3,0-.3-.15a1.62,1.62,0,0,1,.08-.3h0l.13-.41H45l.15.45a1.15,1.15,0,0,1,.08.28c0,.12-.17.12-.25.13h0Zm1.08,0H45v-.15H45c.09,0,.22,0,.22-.09a1.18,1.18,0,0,0-.08-.27l-.14-.43h-.84l-.12.38a1.46,1.46,0,0,0-.08.29c0,.09.14.12.27.12h.06v.15h-.9v-.15h0a.33.33,0,0,0,.32-.24l.61-1.75a4.65,4.65,0,0,0,.15-.48,2,2,0,0,0,.35-.16h0a0,0,0,0,1,0,0l0,.09.7,2c0,.13.09.27.14.39a.22.22,0,0,0,.24.14h0v.15Z"/><path class="cls-2" d="M47,151c0,.15.11.2.23.21a2.72,2.72,0,0,0,.5,0,.54.54,0,0,0,.36-.21.86.86,0,0,0,.12-.27h.11c0,.22-.1.43-.14.65l-1,0-1,0v-.11h.05c.14,0,.29,0,.29-.26v-2c0-.2-.15-.22-.29-.22H46.2v-.11l.6,0,.58,0v.11h-.1c-.14,0-.26,0-.26.21Z"/><path class="cls-2" d="M48.2,151.32c0-.21.09-.41.13-.61h-.08a.88.88,0,0,1-.12.27.57.57,0,0,1-.38.21l-.29,0h-.21c-.12,0-.24-.07-.24-.23v-2c0-.21.13-.22.28-.22h.08v-.08l-.56,0-.59,0v.08h0c.14,0,.3,0,.3.23v2c0,.25-.17.27-.3.27h0v.08h2m0,0h-2v-.15h.07c.14,0,.27,0,.27-.24v-2c0-.19-.13-.2-.27-.2h-.07v-.15H47.4v.15h-.11c-.15,0-.24,0-.24.19v2c0,.14.09.18.21.2h.5a.53.53,0,0,0,.35-.2.82.82,0,0,0,.11-.27h.15v0c0,.22-.1.43-.14.65h0Z"/></g><g id="american-express"><rect class="cls-4" y="80" width="64" height="40" rx="2.13" ry="2.13"/><path class="cls-2" d="M19.86,99.07v-.64l-.31.64H16.9l-.33-.69v.69h-5L11,97.68H10l-.62,1.39H6.85V94.89l1.88-4.26h3.6l.51,1.21v-1.2h4.41l1,2,.95-2H33.09A2.37,2.37,0,0,1,34.3,91v-.33H37.8v.46a2.86,2.86,0,0,1,1.56-.46h6.19l.54,1.22V90.63h4l.72,1.22V90.63h3.79v8.45H50.67l-.91-1.47v1.46H44.92l-.68-1.51h-.95l-.64,1.51H39.72a3.79,3.79,0,0,1-1.91-.6v.6H32v-2c0-.29-.22-.27-.22-.27h-.21v2.24Z"/><path class="cls-2" d="M16.95,100.9h7.66l1.11,1.25,1.13-1.25h5.89a2.71,2.71,0,0,1,1.08.29v-.29h5.25a2.68,2.68,0,0,1,1.22.33v-.33H47v.31a2.29,2.29,0,0,1,1.13-.31h4.39v.31a2.68,2.68,0,0,1,1.14-.31h3.45v8a1.9,1.9,0,0,1-1.39.51H51.2v-.25a2.33,2.33,0,0,1-1.09.25H38v-2.06c0-.2-.09-.24-.27-.24h-.17v2.3H33.81v-2.28a2.54,2.54,0,0,1-1.12.23H31.34v2.06H26.69l-1.06-1.29-1.13,1.29H16.95Z"/><polygon class="cls-4" points="41.09 102.17 45.9 102.17 45.9 103.46 42.57 103.46 42.57 104.58 45.81 104.58 45.81 105.72 42.57 105.72 42.57 106.9 45.9 106.9 45.9 108.16 41.09 108.16 41.09 102.17"/><path class="cls-4" d="M55.19,104.5c1.81.09,2,1,2,2a1.75,1.75,0,0,1-1.89,1.73H52.18V106.9h2.41c.41,0,1,0,1-.58,0-.27-.11-.45-.54-.49-.19,0-.91-.07-1-.07-1.63,0-2-.86-2-1.84a1.65,1.65,0,0,1,1.75-1.74h3.09v1.28H54.61c-.51,0-1.07-.06-1.07.52,0,.37.27.44.62.48Z"/><path class="cls-4" d="M49.65,104.5c1.81.09,2,1,2,2a1.75,1.75,0,0,1-1.89,1.73H46.64V106.9H49c.41,0,1,0,1-.58,0-.27-.11-.45-.54-.49-.19,0-.91-.07-1-.07-1.63,0-2-.86-2-1.84a1.65,1.65,0,0,1,1.75-1.74h3.09v1.28H49.07c-.52,0-1.07-.06-1.07.52,0,.37.28.44.62.48Z"/><path class="cls-4" d="M32.22,102.18H27.05L25.37,104l-1.63-1.87h-5.8v6h5.61l1.77-2,1.72,2h2.82v-2h2c.76,0,2.15,0,2.15-2.13A1.66,1.66,0,0,0,32.22,102.18Zm-9.43,4.72H19.39v-1.18h3.24v-1.14H19.39v-1.12H23l1.43,1.63Zm5.62.7-2.11-2.5,2.11-2.34Zm3.32-2.69H29.89v-1.44h1.84a.72.72,0,1,1,0,1.44Z"/><path class="cls-4" d="M39.32,105.44a1.63,1.63,0,0,0,1-1.66,1.58,1.58,0,0,0-1.76-1.6H34.75v6h1.47v-2.11h1.93c.51,0,.71.51.72,1l0,1.1h1.43l-.05-1.23C40.28,106,40,105.52,39.32,105.44Zm-1.27-.62H36.22v-1.36h1.84a.71.71,0,0,1,.81.69C38.87,104.56,38.65,104.82,38.05,104.82Z"/><rect class="cls-4" x="35.34" y="91.83" width="1.47" height="6"/><polygon class="cls-4" points="23.3 91.83 28.1 91.83 28.1 93.12 24.77 93.12 24.77 94.25 28.01 94.25 28.01 95.38 24.77 95.38 24.77 96.57 28.1 96.57 28.1 97.83 23.3 97.83 23.3 91.83"/><path class="cls-4" d="M33.55,95.1a1.63,1.63,0,0,0,1-1.66,1.58,1.58,0,0,0-1.76-1.6H29v6h1.47V95.71h1.93c.51,0,.71.51.72,1l0,1.1h1.43l-.05-1.23C34.51,95.63,34.25,95.18,33.55,95.1Zm-1.27-.62H30.45V93.12h1.84a.71.71,0,0,1,.81.69C33.1,94.21,32.88,94.48,32.28,94.48Z"/><path class="cls-4" d="M19.91,91.83l-1.8,4-1.8-4H14V97.6l-2.57-5.77H9.48l-2.62,6H8.41L9,96.49h2.94l.58,1.34h3V93.38l2,4.45h1.34l2-4.37v4.37h1.47v-6ZM9.54,95.19l.88-2.09.91,2.09Z"/><path class="cls-4" d="M52,91.83V96L49.5,91.83H47.33v5.63l-2.51-5.62H42.88l-2,4.64s-.86,0-.94,0c-.35-.07-.91-.32-.91-1.38v-.43c0-1.4.76-1.51,1.74-1.51h.91v-1.3H39.72c-.67,0-2.12.51-2.17,3,0,1.66.69,3,2.32,3h1.94l.57-1.34h2.93l.58,1.34h2.9V93.44l2.65,4.39h2v-6ZM43,95.2l.88-2.09.92,2.09Z"/></g><g id="mastercard"><rect class="cls-5" y="40" width="64" height="40" rx="2.13" ry="2.13"/><polygon class="cls-6" points="39.68 71.48 40.27 71.47 40.86 71.42 41.43 71.35 42 71.25 42.55 71.12 43.1 70.97 43.63 70.78 44.16 70.58 44.67 70.35 45.16 70.1 45.65 69.82 46.11 69.52 46.56 69.2 47 68.86 47.41 68.5 47.81 68.11 48.2 67.71 48.56 67.3 48.9 66.86 49.22 66.41 49.52 65.94 49.8 65.46 50.05 64.97 50.28 64.46 50.48 63.93 50.67 63.4 50.82 62.85 50.95 62.3 51.05 61.73 51.13 61.16 51.17 60.57 51.18 59.98 51.17 59.39 51.13 58.81 51.05 58.24 50.95 57.67 50.82 57.12 50.67 56.58 50.48 56.04 50.28 55.52 50.05 55.02 49.8 54.52 49.52 54.05 49.22 53.58 48.9 53.13 48.56 52.7 48.2 52.28 47.81 51.88 47.41 51.5 47 51.14 46.56 50.8 46.11 50.48 45.65 50.18 45.16 49.91 44.67 49.65 44.16 49.42 43.63 49.22 43.1 49.03 42.55 48.88 42 48.75 41.43 48.65 40.86 48.58 40.27 48.53 39.68 48.52 39.09 48.53 38.51 48.58 37.93 48.65 37.37 48.75 36.81 48.88 36.27 49.03 35.74 49.22 35.21 49.42 34.71 49.65 34.22 49.91 33.73 50.18 33.27 50.48 32.82 50.8 32.39 51.14 31.97 51.5 31.57 51.88 31.19 52.28 30.83 52.7 30.49 53.13 30.18 53.58 29.88 54.05 29.6 54.52 29.35 55.02 29.12 55.52 28.91 56.04 28.73 56.58 28.58 57.12 28.45 57.67 28.35 58.24 28.28 58.81 28.23 59.39 28.22 59.98 28.23 60.57 28.28 61.16 28.35 61.73 28.45 62.3 28.58 62.85 28.73 63.4 28.91 63.93 29.12 64.46 29.35 64.97 29.6 65.46 29.88 65.94 30.18 66.41 30.49 66.86 30.83 67.3 31.19 67.71 31.57 68.11 31.97 68.5 32.39 68.86 32.82 69.2 33.27 69.52 33.73 69.82 34.22 70.1 34.71 70.35 35.21 70.58 35.74 70.78 36.27 70.97 36.81 71.12 37.37 71.25 37.93 71.35 38.51 71.42 39.09 71.47 39.68 71.48 39.68 71.48 39.68 71.48"/><polygon class="cls-7" points="24.32 71.48 24.91 71.47 25.49 71.42 26.07 71.35 26.63 71.25 27.19 71.12 27.73 70.97 28.26 70.78 28.79 70.58 29.29 70.35 29.79 70.1 30.26 69.82 30.73 69.52 31.18 69.2 31.61 68.86 32.03 68.5 32.43 68.11 32.8 67.71 33.17 67.3 33.51 66.86 33.82 66.41 34.12 65.94 34.4 65.46 34.65 64.97 34.88 64.46 35.09 63.93 35.27 63.4 35.42 62.85 35.55 62.3 35.65 61.73 35.72 61.16 35.76 60.57 35.78 59.98 35.76 59.39 35.72 58.81 35.65 58.24 35.55 57.67 35.42 57.12 35.27 56.58 35.09 56.04 34.88 55.52 34.65 55.02 34.4 54.52 34.12 54.05 33.82 53.58 33.51 53.13 33.17 52.7 32.8 52.28 32.43 51.88 32.03 51.5 31.61 51.14 31.18 50.8 30.73 50.48 30.26 50.18 29.79 49.91 29.29 49.65 28.79 49.42 28.26 49.22 27.73 49.03 27.19 48.88 26.63 48.75 26.07 48.65 25.49 48.58 24.91 48.53 24.32 48.52 23.73 48.53 23.14 48.58 22.57 48.65 22 48.75 21.45 48.88 20.9 49.03 20.36 49.22 19.84 49.42 19.33 49.65 18.84 49.91 18.36 50.18 17.89 50.48 17.44 50.8 17 51.14 16.58 51.5 16.18 51.88 15.8 52.28 15.44 52.7 15.1 53.13 14.78 53.58 14.48 54.05 14.2 54.52 13.95 55.02 13.72 55.52 13.51 56.04 13.33 56.58 13.18 57.12 13.05 57.67 12.95 58.24 12.87 58.81 12.83 59.39 12.82 59.98 12.83 60.57 12.87 61.16 12.95 61.73 13.05 62.3 13.18 62.85 13.33 63.4 13.51 63.93 13.72 64.46 13.95 64.97 14.2 65.46 14.48 65.94 14.78 66.41 15.1 66.86 15.44 67.3 15.8 67.71 16.18 68.11 16.58 68.5 17 68.86 17.44 69.2 17.89 69.52 18.36 69.82 18.84 70.1 19.33 70.35 19.84 70.58 20.36 70.78 20.9 70.97 21.45 71.12 22 71.25 22.57 71.35 23.14 71.42 23.73 71.47 24.32 71.48 24.32 71.48 24.32 71.48"/><polygon class="cls-6" points="30.66 52.92 36.76 52.92 36.76 52.3 31.18 52.3 30.66 52.92 30.66 52.92 30.66 52.92"/><polygon class="cls-6" points="29.74 54.31 36.76 54.31 36.76 53.69 30.11 53.69 29.74 54.31 29.74 54.31 29.74 54.31"/><polygon class="cls-6" points="29.06 55.69 36.76 55.69 36.76 55.07 29.33 55.07 29.06 55.69 29.06 55.69 29.06 55.69"/><polygon class="cls-6" points="28.59 57.08 36.76 57.08 36.76 56.45 28.79 56.45 28.59 57.08 28.59 57.08 28.59 57.08"/><polygon class="cls-6" points="28.86 63.78 36.78 63.78 36.78 63.16 28.67 63.16 28.86 63.78 28.86 63.78 28.86 63.78"/><polygon class="cls-6" points="29.45 65.17 36.78 65.17 36.78 64.54 29.16 64.54 29.45 65.17 29.45 65.17 29.45 65.17"/><polygon class="cls-6" points="30.27 66.55 36.78 66.55 36.78 65.92 29.88 65.92 30.27 66.55 30.27 66.55 30.27 66.55"/><polygon class="cls-6" points="31.4 67.93 36.78 67.93 36.78 67.31 30.85 67.31 31.4 67.93 31.4 67.93 31.4 67.93"/><polygon class="cls-6" points="28.32 58.46 36.76 58.46 36.76 57.84 28.44 57.84 28.32 58.46 28.32 58.46 28.32 58.46"/><polygon class="cls-6" points="33.46 62.4 36.68 62.4 36.68 61.77 33.58 61.77 33.46 62.4 33.46 62.4 33.46 62.4"/><polygon class="cls-6" points="33.72 61.01 36.68 61.01 36.68 60.39 33.83 60.39 33.72 61.01 33.72 61.01 33.72 61.01"/><polygon class="cls-6" points="28.1 60.39 28.94 60.39 28.94 61.01 28.14 61.01 28.1 60.39 28.1 60.39 28.1 60.39"/><polygon class="cls-8" points="26.54 59.63 26.49 59.63 26.43 59.62 26.38 59.61 26.33 59.6 26.29 59.6 26.24 59.59 26.19 59.58 26.13 59.57 26.08 59.56 26.02 59.56 25.95 59.56 25.87 59.55 25.79 59.55 25.7 59.56 25.6 59.56 25.49 59.57 25.41 59.58 25.34 59.6 25.27 59.62 25.21 59.64 25.16 59.67 25.11 59.7 25.07 59.74 25.04 59.77 25.01 59.82 24.99 59.86 24.98 59.91 24.98 59.95 25 60 25.01 60.05 25.04 60.1 25.08 60.15 25.16 60.23 25.25 60.28 25.36 60.34 25.48 60.38 25.6 60.42 25.73 60.46 25.86 60.51 25.98 60.56 26.1 60.62 26.2 60.7 26.3 60.8 26.38 60.92 26.45 61.07 26.48 61.24 26.5 61.45 26.48 61.7 26.46 61.88 26.41 62.04 26.35 62.18 26.27 62.31 26.18 62.42 26.08 62.52 25.97 62.6 25.85 62.68 25.73 62.74 25.6 62.79 25.47 62.83 25.33 62.86 25.2 62.88 25.07 62.89 24.95 62.9 24.83 62.9 24.66 62.9 24.5 62.9 24.37 62.9 24.24 62.9 24.13 62.89 24.02 62.88 23.93 62.88 23.84 62.87 23.76 62.86 23.68 62.84 23.61 62.83 23.54 62.81 23.48 62.8 23.42 62.77 23.36 62.75 23.29 62.73 23.46 61.87 23.5 61.88 23.54 61.89 23.59 61.9 23.66 61.92 23.73 61.94 23.81 61.95 23.89 61.97 23.99 61.98 24.08 62 24.18 62.02 24.29 62.03 24.4 62.04 24.51 62.04 24.62 62.05 24.73 62.05 24.85 62.04 24.96 62.02 25.05 61.99 25.12 61.95 25.17 61.89 25.21 61.84 25.24 61.78 25.26 61.71 25.28 61.66 25.28 61.54 25.25 61.45 25.18 61.37 25.09 61.3 24.97 61.25 24.83 61.19 24.68 61.13 24.53 61.07 24.38 61 24.23 60.92 24.09 60.82 23.97 60.7 23.87 60.55 23.8 60.38 23.77 60.17 23.77 59.92 23.79 59.77 23.82 59.63 23.86 59.49 23.91 59.37 23.97 59.26 24.04 59.15 24.12 59.06 24.21 58.97 24.33 58.9 24.45 58.84 24.59 58.78 24.75 58.74 24.92 58.7 25.11 58.67 25.32 58.66 25.55 58.65 25.69 58.65 25.82 58.66 25.94 58.66 26.05 58.67 26.15 58.67 26.24 58.68 26.31 58.69 26.38 58.7 26.45 58.7 26.5 58.72 26.55 58.72 26.6 58.73 26.64 58.74 26.67 58.74 26.71 58.75 26.74 58.76 26.54 59.63 26.54 59.63 26.54 59.63"/><polyline class="cls-9" points="26.54 59.63 26.54 59.63 26.49 59.63 26.43 59.62 26.38 59.61 26.33 59.6 26.29 59.6 26.24 59.59 26.19 59.58 26.13 59.57 26.08 59.56 26.02 59.56 25.95 59.56 25.87 59.55 25.79 59.55 25.7 59.56 25.6 59.56 25.49 59.57 25.49 59.57 25.41 59.58 25.34 59.6 25.27 59.62 25.21 59.64 25.16 59.67 25.11 59.7 25.07 59.74 25.04 59.77 25.01 59.82 24.99 59.86 24.98 59.91 24.98 59.95 25 60 25.01 60.05 25.04 60.1 25.08 60.15 25.08 60.15 25.16 60.23 25.25 60.28 25.36 60.34 25.48 60.38 25.6 60.42 25.73 60.46 25.86 60.51 25.98 60.56 26.1 60.62 26.2 60.7 26.3 60.8 26.38 60.92 26.45 61.07 26.48 61.24 26.5 61.45 26.48 61.7 26.48 61.7 26.46 61.88 26.41 62.04 26.35 62.18 26.27 62.31 26.18 62.42 26.08 62.52 25.97 62.6 25.85 62.68 25.73 62.74 25.6 62.79 25.47 62.83 25.33 62.86 25.2 62.88 25.07 62.89 24.95 62.9 24.83 62.9 24.83 62.9 24.66 62.9 24.5 62.9 24.37 62.9 24.24 62.9 24.13 62.89 24.02 62.88 23.93 62.88 23.84 62.87 23.76 62.86 23.68 62.84 23.61 62.83 23.54 62.81 23.48 62.8 23.42 62.77 23.36 62.75 23.29 62.73 23.46 61.87 23.46 61.87 23.5 61.88 23.54 61.89 23.59 61.9 23.66 61.92 23.73 61.94 23.81 61.95 23.89 61.97 23.99 61.98 24.08 62 24.18 62.02 24.29 62.03 24.4 62.04 24.51 62.04 24.62 62.05 24.73 62.05 24.85 62.04 24.85 62.04 24.96 62.02 25.05 61.99 25.12 61.95 25.17 61.89 25.21 61.84 25.24 61.78 25.26 61.71 25.28 61.66 25.28 61.66 25.28 61.54 25.25 61.45 25.18 61.37 25.09 61.3 24.97 61.25 24.83 61.19 24.68 61.13 24.53 61.07 24.38 61 24.23 60.92 24.09 60.82 23.97 60.7 23.87 60.55 23.8 60.38 23.77 60.17 23.77 59.92 23.77 59.92 23.79 59.77 23.82 59.63 23.86 59.49 23.91 59.37 23.97 59.26 24.04 59.15 24.12 59.06 24.21 58.97 24.33 58.9 24.45 58.84 24.59 58.78 24.75 58.74 24.92 58.7 25.11 58.67 25.32 58.66 25.55 58.65 25.55 58.65 25.69 58.65 25.82 58.66 25.94 58.66 26.05 58.67 26.15 58.67 26.24 58.68 26.31 58.69 26.38 58.7 26.45 58.7 26.5 58.72 26.55 58.72 26.6 58.73 26.64 58.74 26.67 58.74 26.71 58.75 26.74 58.76 26.54 59.63"/><polygon class="cls-8" points="27.46 57.8 28.53 57.8 28.37 58.74 29.02 58.74 28.88 59.61 28.2 59.59 27.83 61.75 27.82 61.83 27.84 61.9 27.88 61.95 27.93 61.99 28 62.02 28.08 62.04 28.16 62.05 28.26 62.06 28.34 62.06 28.42 62.05 28.49 62.04 28.55 62.02 28.6 62.01 28.64 62 28.66 61.99 28.67 61.98 28.53 62.71 28.51 62.73 28.48 62.74 28.45 62.76 28.42 62.77 28.4 62.78 28.37 62.8 28.33 62.81 28.3 62.82 28.26 62.83 28.22 62.84 28.17 62.84 28.13 62.85 28.07 62.86 28.02 62.87 27.96 62.88 27.89 62.88 27.6 62.88 27.44 62.87 27.3 62.86 27.18 62.83 27.08 62.81 26.99 62.77 26.91 62.73 26.85 62.69 26.8 62.64 26.76 62.58 26.73 62.52 26.71 62.45 26.7 62.38 26.7 62.3 26.7 62.21 26.71 62.12 26.72 62.02 27.46 57.8 27.46 57.8 27.46 57.8"/><polyline class="cls-9" points="27.46 57.8 28.53 57.8 28.37 58.74 29.02 58.74 28.88 59.61 28.2 59.59 27.83 61.75 27.83 61.75 27.82 61.83 27.84 61.9 27.88 61.95 27.93 61.99 28 62.02 28.08 62.04 28.16 62.05 28.26 62.06 28.26 62.06 28.34 62.06 28.42 62.05 28.49 62.04 28.55 62.02 28.6 62.01 28.64 62 28.66 61.99 28.67 61.98 28.53 62.71 28.53 62.71 28.51 62.73 28.48 62.74 28.45 62.76 28.42 62.77 28.4 62.78 28.37 62.8 28.33 62.81 28.3 62.82 28.26 62.83 28.22 62.84 28.17 62.84 28.13 62.85 28.07 62.86 28.02 62.87 27.96 62.88 27.89 62.88 27.6 62.88 27.6 62.88 27.44 62.87 27.3 62.86 27.18 62.83 27.08 62.81 26.99 62.77 26.91 62.73 26.85 62.69 26.8 62.64 26.76 62.58 26.73 62.52 26.71 62.45 26.7 62.38 26.7 62.3 26.7 62.21 26.71 62.12 26.72 62.02 27.46 57.8"/><polyline class="cls-9" points="29.88 61.07 29.88 61.07 29.87 61.14 29.86 61.21 29.87 61.28 29.88 61.35 29.91 61.43 29.94 61.5 29.98 61.57 30.03 61.64 30.09 61.7 30.14 61.76 30.21 61.82 30.28 61.87 30.34 61.91 30.42 61.94 30.5 61.97 30.58 61.98 30.58 61.98 30.68 62 30.77 62.01 30.88 62.02 30.98 62.03 31.08 62.04 31.18 62.04 31.28 62.03 31.39 62.02 31.49 62.01 31.6 61.99 31.7 61.97 31.81 61.93 31.92 61.89 32.03 61.84 32.14 61.78 32.25 61.71 32.1 62.67 32.1 62.67 32.03 62.7 31.97 62.73 31.91 62.75 31.85 62.78 31.8 62.8 31.73 62.81 31.67 62.83 31.6 62.84 31.54 62.85 31.46 62.86 31.38 62.87 31.29 62.88 31.19 62.88 31.08 62.88 30.96 62.88 30.83 62.88 30.83 62.88 30.64 62.88 30.45 62.86 30.26 62.83 30.06 62.79 29.87 62.73 29.69 62.66 29.52 62.56 29.35 62.45 29.2 62.31 29.07 62.16 28.96 61.98 28.87 61.77 28.8 61.54 28.76 61.28 28.75 61 28.77 60.68 28.77 60.68 28.78 60.56 28.8 60.41 28.84 60.26 28.88 60.1 28.94 59.93 29 59.77 29.09 59.6 29.2 59.43 29.33 59.28 29.48 59.13 29.65 59 29.84 58.88 30.07 58.79 30.32 58.72 30.6 58.67 30.91 58.65 30.91 58.65 31.06 58.66 31.22 58.67 31.38 58.7 31.54 58.74 31.69 58.8 31.84 58.87 31.98 58.96 32.11 59.07 32.23 59.2 32.33 59.36 32.4 59.53 32.46 59.74 32.49 59.97 32.49 60.23 32.46 60.53 32.41 60.85 32.39 61.09 29.56 61.09 29.74 60.33 31.44 60.33 31.44 60.33 31.45 60.23 31.44 60.14 31.43 60.05 31.42 59.98 31.39 59.9 31.36 59.84 31.32 59.78 31.29 59.72 31.24 59.68 31.19 59.64 31.13 59.6 31.07 59.57 31.01 59.55 30.95 59.53 30.88 59.52 30.82 59.51 30.82 59.51 30.74 59.52 30.67 59.53 30.61 59.55 30.54 59.57 30.47 59.6 30.41 59.63 30.36 59.68 30.31 59.72 30.26 59.78 30.21 59.84 30.17 59.9 30.13 59.96 30.1 60.03 30.07 60.11 30.05 60.19 30.03 60.27 29.88 61.07"/><polygon class="cls-8" points="39.12 58.97 39.06 58.94 39.01 58.92 38.96 58.89 38.9 58.86 38.84 58.84 38.78 58.82 38.71 58.79 38.64 58.77 38.57 58.75 38.49 58.74 38.41 58.72 38.33 58.71 38.24 58.7 38.15 58.69 38.06 58.69 37.96 58.69 37.87 58.69 37.77 58.7 37.66 58.71 37.55 58.73 37.45 58.76 37.34 58.81 37.23 58.86 37.12 58.93 37.02 59.02 36.91 59.12 36.82 59.24 36.73 59.38 36.64 59.55 36.56 59.75 36.49 59.96 36.42 60.21 36.4 60.35 36.38 60.49 36.38 60.62 36.38 60.75 36.39 60.88 36.42 61.01 36.45 61.13 36.5 61.24 36.55 61.35 36.62 61.45 36.71 61.54 36.8 61.62 36.9 61.69 37.02 61.74 37.15 61.8 37.3 61.83 37.35 61.84 37.41 61.85 37.48 61.86 37.56 61.87 37.64 61.88 37.73 61.88 37.83 61.88 37.93 61.87 38.03 61.86 38.13 61.84 38.22 61.81 38.32 61.78 38.42 61.74 38.51 61.69 38.59 61.63 38.66 61.56 38.49 62.59 38.47 62.61 38.44 62.63 38.41 62.66 38.38 62.68 38.34 62.71 38.28 62.74 38.22 62.77 38.15 62.79 38.06 62.82 37.96 62.84 37.84 62.85 37.71 62.87 37.56 62.88 37.38 62.88 37.19 62.88 36.97 62.87 36.79 62.84 36.61 62.81 36.43 62.75 36.26 62.67 36.09 62.58 35.92 62.46 35.77 62.33 35.63 62.17 35.5 62 35.39 61.8 35.3 61.59 35.23 61.35 35.18 61.09 35.16 60.82 35.17 60.51 35.21 60.19 35.25 60.03 35.28 59.88 35.32 59.73 35.36 59.58 35.4 59.45 35.45 59.31 35.5 59.19 35.55 59.06 35.61 58.95 35.67 58.83 35.74 58.72 35.81 58.62 35.88 58.53 35.95 58.43 36.03 58.35 36.11 58.27 36.2 58.19 36.29 58.12 36.38 58.05 36.48 57.99 36.59 57.93 36.69 57.88 36.8 57.83 36.91 57.79 37.03 57.75 37.15 57.72 37.27 57.69 37.41 57.67 37.54 57.65 37.68 57.64 37.82 57.63 37.96 57.62 38.09 57.63 38.21 57.64 38.32 57.65 38.44 57.66 38.55 57.68 38.65 57.7 38.75 57.72 38.85 57.74 38.94 57.77 39.01 57.79 39.09 57.81 39.15 57.84 39.2 57.86 39.25 57.87 39.28 57.89 39.31 57.9 39.12 58.97 39.12 58.97 39.12 58.97"/><polyline class="cls-9" points="39.12 58.97 39.12 58.97 39.06 58.94 39.01 58.92 38.96 58.89 38.9 58.86 38.84 58.84 38.78 58.82 38.71 58.79 38.64 58.77 38.57 58.75 38.49 58.74 38.41 58.72 38.33 58.71 38.24 58.7 38.15 58.69 38.06 58.69 37.96 58.69 37.96 58.69 37.87 58.69 37.77 58.7 37.66 58.71 37.55 58.73 37.45 58.76 37.34 58.81 37.23 58.86 37.12 58.93 37.02 59.02 36.91 59.12 36.82 59.24 36.73 59.38 36.64 59.55 36.56 59.75 36.49 59.96 36.42 60.21 36.42 60.21 36.4 60.35 36.38 60.49 36.38 60.62 36.38 60.75 36.39 60.88 36.42 61.01 36.45 61.13 36.5 61.24 36.55 61.35 36.62 61.45 36.71 61.54 36.8 61.62 36.9 61.69 37.02 61.74 37.15 61.8 37.3 61.83 37.3 61.83 37.35 61.84 37.41 61.85 37.48 61.86 37.56 61.87 37.64 61.88 37.73 61.88 37.83 61.88 37.93 61.87 38.03 61.86 38.13 61.84 38.22 61.81 38.32 61.78 38.42 61.74 38.51 61.69 38.59 61.63 38.66 61.56 38.49 62.59 38.49 62.59 38.47 62.61 38.44 62.63 38.41 62.66 38.38 62.68 38.34 62.71 38.28 62.74 38.22 62.77 38.15 62.79 38.06 62.82 37.96 62.84 37.84 62.85 37.71 62.87 37.56 62.88 37.38 62.88 37.19 62.88 36.97 62.87 36.97 62.87 36.79 62.84 36.61 62.81 36.43 62.75 36.26 62.67 36.09 62.58 35.92 62.46 35.77 62.33 35.63 62.17 35.5 62 35.39 61.8 35.3 61.59 35.23 61.35 35.18 61.09 35.16 60.82 35.17 60.51 35.21 60.19 35.21 60.19 35.25 60.03 35.28 59.88 35.32 59.73 35.36 59.58 35.4 59.45 35.45 59.31 35.5 59.19 35.55 59.06 35.61 58.95 35.67 58.83 35.74 58.72 35.81 58.62 35.88 58.53 35.95 58.43 36.03 58.35 36.11 58.27 36.2 58.19 36.29 58.12 36.38 58.05 36.48 57.99 36.59 57.93 36.69 57.88 36.8 57.83 36.91 57.79 37.03 57.75 37.15 57.72 37.27 57.69 37.41 57.67 37.54 57.65 37.68 57.64 37.82 57.63 37.96 57.62 37.96 57.62 38.09 57.63 38.21 57.64 38.32 57.65 38.44 57.66 38.55 57.68 38.65 57.7 38.75 57.72 38.85 57.74 38.94 57.77 39.01 57.79 39.09 57.81 39.15 57.84 39.2 57.86 39.25 57.87 39.28 57.89 39.31 57.9 39.12 58.97"/><polygon class="cls-8" points="48.65 62.88 47.58 62.88 47.66 62.45 47.66 62.41 47.59 62.49 47.53 62.56 47.46 62.62 47.39 62.68 47.32 62.73 47.25 62.77 47.18 62.81 47.11 62.84 47.03 62.87 46.96 62.89 46.89 62.91 46.81 62.92 46.73 62.93 46.66 62.94 46.58 62.94 46.5 62.94 46.3 62.93 46.12 62.88 45.95 62.82 45.79 62.73 45.65 62.62 45.53 62.48 45.42 62.34 45.33 62.18 45.25 62 45.19 61.82 45.15 61.63 45.11 61.44 45.1 61.24 45.11 61.04 45.13 60.84 45.16 60.64 45.22 60.41 45.29 60.2 45.37 60 45.47 59.81 45.57 59.64 45.68 59.48 45.8 59.34 45.93 59.22 46.07 59.1 46.21 59.01 46.36 58.92 46.5 58.86 46.66 58.8 46.81 58.77 46.97 58.74 47.13 58.74 47.24 58.74 47.35 58.75 47.45 58.77 47.54 58.8 47.63 58.83 47.71 58.86 47.79 58.91 47.86 58.95 47.92 58.99 47.98 59.05 48.03 59.1 48.07 59.15 48.11 59.2 48.15 59.25 48.18 59.29 48.2 59.34 48.2 59.34 48.47 57.82 49.53 57.82 48.65 62.88 48.65 62.88 48.65 62.88"/><polyline class="cls-9" points="48.65 62.88 47.58 62.88 47.66 62.45 47.66 62.41 47.66 62.41 47.59 62.49 47.53 62.56 47.46 62.62 47.39 62.68 47.32 62.73 47.25 62.77 47.18 62.81 47.11 62.84 47.03 62.87 46.96 62.89 46.89 62.91 46.81 62.92 46.73 62.93 46.66 62.94 46.58 62.94 46.5 62.94 46.5 62.94 46.3 62.93 46.12 62.88 45.95 62.82 45.79 62.73 45.65 62.62 45.53 62.48 45.42 62.34 45.33 62.18 45.25 62 45.19 61.82 45.15 61.63 45.11 61.44 45.1 61.24 45.11 61.04 45.13 60.84 45.16 60.64 45.16 60.64 45.22 60.41 45.29 60.2 45.37 60 45.47 59.81 45.57 59.64 45.68 59.48 45.8 59.34 45.93 59.22 46.07 59.1 46.21 59.01 46.36 58.92 46.5 58.86 46.66 58.8 46.81 58.77 46.97 58.74 47.13 58.74 47.13 58.74 47.24 58.74 47.35 58.75 47.45 58.77 47.54 58.8 47.63 58.83 47.71 58.86 47.79 58.91 47.86 58.95 47.92 58.99 47.98 59.05 48.03 59.1 48.07 59.15 48.11 59.2 48.15 59.25 48.18 59.29 48.2 59.34 48.2 59.34 48.47 57.82 49.53 57.82 48.65 62.88"/><polygon class="cls-6" points="46.9 61.95 47 61.94 47.1 61.92 47.2 61.89 47.29 61.85 47.37 61.8 47.45 61.74 47.52 61.68 47.59 61.6 47.64 61.53 47.7 61.44 47.75 61.35 47.79 61.26 47.83 61.16 47.86 61.06 47.89 60.96 47.91 60.85 47.92 60.75 47.94 60.63 47.94 60.53 47.93 60.42 47.92 60.32 47.91 60.22 47.88 60.13 47.85 60.04 47.81 59.96 47.76 59.89 47.71 59.83 47.66 59.77 47.59 59.73 47.52 59.7 47.45 59.68 47.36 59.67 47.26 59.68 47.16 59.69 47.07 59.72 46.98 59.76 46.91 59.81 46.83 59.88 46.76 59.94 46.7 60.01 46.64 60.1 46.59 60.19 46.53 60.28 46.49 60.38 46.45 60.49 46.42 60.59 46.39 60.7 46.37 60.82 46.35 60.99 46.36 61.17 46.38 61.36 46.43 61.54 46.51 61.7 46.61 61.83 46.74 61.92 46.9 61.95 46.9 61.95 46.9 61.95"/><polygon class="cls-8" points="23.11 62.02 22.95 62.88 21.98 62.88 22.01 62.73 22.03 62.58 22.04 62.47 22.06 62.41 22 62.48 21.94 62.54 21.87 62.6 21.79 62.65 21.69 62.71 21.6 62.75 21.5 62.8 21.39 62.84 21.28 62.87 21.17 62.9 21.05 62.92 20.94 62.94 20.82 62.95 20.71 62.95 20.61 62.94 20.5 62.92 20.36 62.89 20.24 62.85 20.13 62.8 20.04 62.74 19.95 62.68 19.87 62.61 19.81 62.53 19.76 62.46 19.71 62.38 19.67 62.29 19.64 62.21 19.62 62.12 19.6 62.03 19.59 61.94 19.58 61.86 19.58 61.77 19.59 61.62 19.62 61.48 19.66 61.34 19.71 61.21 19.77 61.09 19.84 60.98 19.92 60.87 20.01 60.77 20.11 60.68 20.22 60.6 20.33 60.52 20.45 60.46 20.57 60.41 20.7 60.37 20.83 60.33 20.96 60.31 20.97 60.31 20.99 60.3 21.02 60.3 21.06 60.3 21.11 60.29 21.16 60.28 21.22 60.28 21.29 60.27 21.35 60.26 21.42 60.25 21.49 60.25 21.55 60.24 21.61 60.24 21.67 60.23 21.72 60.23 21.77 60.23 21.86 60.23 21.95 60.23 22.03 60.24 22.12 60.24 22.19 60.24 22.24 60.25 22.28 60.25 22.29 60.25 22.3 60.22 22.32 60.15 22.34 60.07 22.35 60 22.34 59.91 22.3 59.84 22.25 59.77 22.19 59.71 22.12 59.66 22.04 59.62 21.95 59.6 21.84 59.59 21.73 59.59 21.62 59.58 21.5 59.58 21.38 59.59 21.25 59.6 21.12 59.61 21 59.62 20.88 59.63 20.76 59.65 20.65 59.67 20.55 59.69 20.46 59.71 20.37 59.73 20.3 59.75 20.25 59.78 20.21 59.8 20.48 58.87 20.57 58.84 20.65 58.81 20.75 58.78 20.84 58.76 20.93 58.74 21.03 58.72 21.13 58.71 21.24 58.7 21.34 58.69 21.46 58.69 21.57 58.69 21.69 58.69 21.82 58.69 21.95 58.69 22.08 58.69 22.22 58.69 22.32 58.7 22.44 58.72 22.56 58.75 22.68 58.78 22.8 58.83 22.92 58.88 23.04 58.95 23.14 59.02 23.24 59.11 23.33 59.2 23.41 59.3 23.46 59.42 23.5 59.55 23.52 59.68 23.52 59.82 23.5 59.98 23.11 62.02 23.11 62.02 23.11 62.02"/><polyline class="cls-9" points="23.11 62.02 22.95 62.88 21.98 62.88 21.98 62.88 22.01 62.73 22.03 62.58 22.04 62.47 22.06 62.41 22.06 62.41 22 62.48 21.94 62.54 21.87 62.6 21.79 62.65 21.69 62.71 21.6 62.75 21.5 62.8 21.39 62.84 21.28 62.87 21.17 62.9 21.05 62.92 20.94 62.94 20.82 62.95 20.71 62.95 20.61 62.94 20.5 62.92 20.5 62.92 20.36 62.89 20.24 62.85 20.13 62.8 20.04 62.74 19.95 62.68 19.87 62.61 19.81 62.53 19.76 62.46 19.71 62.38 19.67 62.29 19.64 62.21 19.62 62.12 19.6 62.03 19.59 61.94 19.58 61.86 19.58 61.77 19.58 61.77 19.59 61.62 19.62 61.48 19.66 61.34 19.71 61.21 19.77 61.09 19.84 60.98 19.92 60.87 20.01 60.77 20.11 60.68 20.22 60.6 20.33 60.52 20.45 60.46 20.57 60.41 20.7 60.37 20.83 60.33 20.96 60.31 20.96 60.31 20.97 60.31 20.99 60.3 21.02 60.3 21.06 60.3 21.11 60.29 21.16 60.28 21.22 60.28 21.29 60.27 21.35 60.26 21.42 60.25 21.49 60.25 21.55 60.24 21.61 60.24 21.67 60.23 21.72 60.23 21.77 60.23 21.77 60.23 21.86 60.23 21.95 60.23 22.03 60.24 22.12 60.24 22.19 60.24 22.24 60.25 22.28 60.25 22.29 60.25 22.29 60.25 22.3 60.22 22.32 60.15 22.34 60.07 22.35 60 22.35 60 22.34 59.91 22.3 59.84 22.25 59.77 22.19 59.71 22.12 59.66 22.04 59.62 21.95 59.6 21.84 59.59 21.84 59.59 21.73 59.59 21.62 59.58 21.5 59.58 21.38 59.59 21.25 59.6 21.12 59.61 21 59.62 20.88 59.63 20.76 59.65 20.65 59.67 20.55 59.69 20.46 59.71 20.37 59.73 20.3 59.75 20.25 59.78 20.21 59.8 20.48 58.87 20.48 58.87 20.57 58.84 20.65 58.81 20.75 58.78 20.84 58.76 20.93 58.74 21.03 58.72 21.13 58.71 21.24 58.7 21.34 58.69 21.46 58.69 21.57 58.69 21.69 58.69 21.82 58.69 21.95 58.69 22.08 58.69 22.22 58.69 22.22 58.69 22.32 58.7 22.44 58.72 22.56 58.75 22.68 58.78 22.8 58.83 22.92 58.88 23.04 58.95 23.14 59.02 23.24 59.11 23.33 59.2 23.41 59.3 23.46 59.42 23.5 59.55 23.52 59.68 23.52 59.82 23.5 59.98 23.11 62.02"/><polygon class="cls-7" points="22.18 61.01 22.17 60.99 22.16 60.98 22.14 60.96 22.1 60.95 22.05 60.95 22 60.94 21.95 60.94 21.89 60.94 21.82 60.95 21.76 60.95 21.7 60.96 21.64 60.97 21.58 60.98 21.52 60.99 21.48 61 21.43 61.01 21.41 61.02 21.38 61.03 21.33 61.05 21.29 61.07 21.24 61.09 21.19 61.12 21.14 61.15 21.08 61.18 21.03 61.22 20.98 61.25 20.93 61.3 20.89 61.35 20.85 61.4 20.82 61.45 20.8 61.51 20.79 61.58 20.79 61.71 20.81 61.81 20.84 61.89 20.89 61.95 20.95 61.98 21.02 62.01 21.08 62.02 21.14 62.02 21.26 62.02 21.36 62.01 21.46 61.99 21.55 61.97 21.63 61.94 21.7 61.91 21.77 61.87 21.83 61.83 21.88 61.79 21.93 61.74 21.96 61.7 22 61.66 22.02 61.61 22.05 61.56 22.07 61.52 22.08 61.48 22.11 61.37 22.14 61.24 22.16 61.11 22.18 61.01 22.18 61.01 22.18 61.01"/><polygon class="cls-8" points="14.96 62.88 13.91 62.88 14.79 57.8 16.62 57.8 16.79 60.82 18.06 57.8 19.97 57.8 19.07 62.88 18.02 62.88 18.69 59.09 18.64 59.09 17.07 62.88 15.88 62.88 15.87 62.73 15.85 62.3 15.81 61.7 15.77 61.01 15.73 60.32 15.7 59.71 15.67 59.27 15.66 59.09 15.65 59.09 15.63 59.09 15.6 59.09 15.6 59.09 14.96 62.88 14.96 62.88 14.96 62.88"/><polyline class="cls-9" points="14.96 62.88 13.91 62.88 14.79 57.8 16.62 57.8 16.79 60.82 18.06 57.8 19.97 57.8 19.07 62.88 18.02 62.88 18.69 59.09 18.64 59.09 17.07 62.88 15.88 62.88 15.88 62.88 15.87 62.73 15.85 62.3 15.81 61.7 15.77 61.01 15.73 60.32 15.7 59.71 15.67 59.27 15.66 59.09 15.66 59.09 15.65 59.09 15.63 59.09 15.6 59.09 15.6 59.09 14.96 62.88"/><polygon class="cls-8" points="42.33 62.02 42.17 62.88 41.2 62.88 41.21 62.73 41.21 62.59 41.21 62.48 41.22 62.44 41.17 62.49 41.11 62.55 41.04 62.6 40.97 62.66 40.88 62.71 40.79 62.76 40.7 62.8 40.6 62.84 40.49 62.87 40.38 62.9 40.28 62.92 40.17 62.94 40.05 62.95 39.95 62.95 39.84 62.94 39.74 62.92 39.6 62.89 39.48 62.85 39.37 62.8 39.27 62.74 39.18 62.68 39.11 62.61 39.05 62.53 38.99 62.46 38.94 62.38 38.91 62.29 38.88 62.21 38.86 62.12 38.84 62.03 38.83 61.94 38.82 61.86 38.82 61.77 38.83 61.62 38.85 61.48 38.89 61.34 38.94 61.21 39 61.09 39.07 60.98 39.15 60.87 39.24 60.77 39.34 60.68 39.45 60.6 39.56 60.52 39.68 60.46 39.8 60.41 39.93 60.37 40.05 60.33 40.19 60.31 40.2 60.31 40.22 60.3 40.24 60.3 40.28 60.3 40.33 60.29 40.38 60.28 40.44 60.28 40.51 60.27 40.57 60.26 40.64 60.25 40.71 60.25 40.77 60.24 40.84 60.24 40.89 60.23 40.94 60.23 40.98 60.23 41.08 60.23 41.17 60.23 41.26 60.24 41.35 60.24 41.42 60.24 41.48 60.25 41.52 60.25 41.53 60.25 41.54 60.22 41.55 60.15 41.56 60.07 41.57 60 41.55 59.91 41.52 59.84 41.47 59.77 41.41 59.71 41.35 59.66 41.26 59.62 41.18 59.6 41.09 59.59 40.98 59.59 40.86 59.58 40.74 59.58 40.62 59.59 40.49 59.6 40.37 59.61 40.24 59.62 40.12 59.63 40.01 59.65 39.89 59.67 39.79 59.69 39.7 59.71 39.61 59.73 39.54 59.75 39.49 59.78 39.45 59.8 39.72 58.87 39.8 58.84 39.89 58.81 39.98 58.78 40.08 58.76 40.17 58.74 40.27 58.72 40.37 58.71 40.47 58.7 40.58 58.69 40.7 58.69 40.81 58.69 40.93 58.69 41.05 58.69 41.17 58.69 41.3 58.69 41.44 58.69 41.54 58.7 41.66 58.72 41.78 58.75 41.9 58.78 42.02 58.83 42.14 58.88 42.26 58.95 42.37 59.02 42.47 59.11 42.55 59.2 42.63 59.3 42.69 59.42 42.73 59.55 42.76 59.68 42.76 59.82 42.74 59.98 42.33 62.02 42.33 62.02 42.33 62.02"/><polygon class="cls-8" points="42.17 62.91 42.2 62.89 42.36 62.03 42.31 62.02 42.15 62.88 42.17 62.86 42.17 62.91 42.19 62.91 42.2 62.89 42.17 62.91 42.17 62.91 42.17 62.91"/><polygon class="cls-8" points="41.18 62.88 41.2 62.91 42.17 62.91 42.17 62.86 41.2 62.86 41.23 62.88 41.18 62.88 41.17 62.91 41.2 62.91 41.18 62.88 41.18 62.88 41.18 62.88"/><polygon class="cls-8" points="41.24 62.45 41.21 62.42 41.19 62.48 41.19 62.59 41.19 62.73 41.18 62.88 41.23 62.88 41.23 62.73 41.24 62.59 41.24 62.48 41.24 62.45 41.2 62.42 41.24 62.45 41.24 62.45 41.24 62.45"/><polygon class="cls-8" points="39.73 62.95 39.73 62.95 39.84 62.96 39.95 62.97 40.05 62.97 40.17 62.96 40.28 62.95 40.39 62.93 40.5 62.9 40.6 62.87 40.7 62.83 40.8 62.78 40.9 62.73 40.98 62.68 41.06 62.62 41.13 62.57 41.19 62.51 41.24 62.45 41.2 62.42 41.15 62.48 41.1 62.53 41.03 62.59 40.95 62.64 40.87 62.69 40.78 62.73 40.69 62.78 40.59 62.82 40.49 62.85 40.38 62.88 40.27 62.9 40.17 62.91 40.05 62.92 39.95 62.93 39.84 62.91 39.74 62.9 39.74 62.9 39.73 62.95 39.73 62.95 39.73 62.95"/><polygon class="cls-8" points="38.8 61.77 38.8 61.77 38.8 61.86 38.81 61.94 38.82 62.04 38.84 62.13 38.85 62.21 38.89 62.3 38.92 62.39 38.97 62.47 39.03 62.55 39.09 62.62 39.16 62.7 39.25 62.76 39.35 62.82 39.47 62.87 39.59 62.91 39.73 62.95 39.74 62.9 39.6 62.87 39.48 62.83 39.38 62.78 39.28 62.72 39.2 62.66 39.13 62.59 39.06 62.52 39.01 62.45 38.97 62.37 38.93 62.28 38.9 62.2 38.88 62.12 38.87 62.03 38.85 61.94 38.85 61.86 38.85 61.77 38.85 61.77 38.8 61.77 38.8 61.77 38.8 61.77"/><polygon class="cls-8" points="40.19 60.28 40.19 60.28 40.05 60.31 39.92 60.34 39.79 60.39 39.67 60.44 39.55 60.5 39.43 60.58 39.33 60.66 39.23 60.75 39.13 60.85 39.05 60.96 38.98 61.08 38.92 61.2 38.87 61.34 38.83 61.47 38.81 61.62 38.8 61.77 38.85 61.77 38.85 61.62 38.88 61.48 38.91 61.35 38.96 61.22 39.02 61.1 39.09 60.99 39.17 60.88 39.26 60.78 39.36 60.7 39.46 60.62 39.57 60.55 39.69 60.49 39.81 60.43 39.94 60.39 40.06 60.35 40.19 60.33 40.19 60.33 40.19 60.28 40.19 60.28 40.19 60.28"/><polygon class="cls-8" points="40.98 60.2 40.98 60.2 40.94 60.2 40.89 60.21 40.84 60.22 40.77 60.22 40.71 60.23 40.64 60.23 40.57 60.24 40.51 60.25 40.44 60.25 40.38 60.26 40.33 60.27 40.28 60.27 40.24 60.28 40.21 60.28 40.2 60.28 40.19 60.28 40.19 60.33 40.2 60.33 40.22 60.33 40.24 60.32 40.28 60.32 40.33 60.31 40.38 60.31 40.44 60.3 40.51 60.29 40.57 60.28 40.64 60.28 40.71 60.27 40.77 60.27 40.84 60.26 40.89 60.26 40.94 60.26 40.98 60.26 40.98 60.26 40.98 60.2 40.98 60.2 40.98 60.2"/><polygon class="cls-8" points="41.51 60.25 41.53 60.23 41.52 60.23 41.48 60.22 41.42 60.22 41.35 60.21 41.26 60.21 41.17 60.21 41.08 60.2 40.98 60.2 40.98 60.26 41.08 60.26 41.17 60.26 41.26 60.27 41.35 60.27 41.42 60.27 41.48 60.27 41.52 60.27 41.53 60.27 41.55 60.25 41.53 60.27 41.55 60.28 41.55 60.25 41.51 60.25 41.51 60.25 41.51 60.25"/><polygon class="cls-8" points="41.55 60 41.54 60 41.54 60.07 41.53 60.15 41.52 60.22 41.51 60.25 41.55 60.25 41.56 60.23 41.57 60.16 41.59 60.07 41.6 60 41.59 60 41.55 60 41.55 60 41.55 60"/><polygon class="cls-8" points="41.09 59.62 41.09 59.62 41.17 59.62 41.26 59.65 41.33 59.68 41.4 59.73 41.45 59.78 41.5 59.85 41.53 59.92 41.55 60 41.59 60 41.58 59.91 41.55 59.82 41.49 59.75 41.43 59.69 41.36 59.63 41.27 59.6 41.18 59.58 41.09 59.56 41.09 59.57 41.09 59.62 41.09 59.62 41.09 59.62"/><polygon class="cls-8" points="39.42 59.8 39.46 59.82 39.5 59.8 39.55 59.78 39.62 59.75 39.7 59.73 39.8 59.71 39.9 59.69 40.01 59.67 40.12 59.66 40.24 59.64 40.37 59.63 40.49 59.62 40.62 59.61 40.74 59.61 40.86 59.61 40.98 59.61 41.09 59.62 41.09 59.57 40.98 59.56 40.86 59.56 40.74 59.56 40.62 59.56 40.49 59.57 40.37 59.58 40.24 59.6 40.12 59.61 40 59.63 39.89 59.65 39.79 59.67 39.7 59.69 39.61 59.71 39.54 59.73 39.48 59.76 39.43 59.79 39.47 59.81 39.42 59.8 39.42 59.8 39.42 59.8"/><polygon class="cls-8" points="39.71 58.85 39.7 58.87 39.42 59.8 39.47 59.81 39.74 58.88 39.73 58.9 39.71 58.85 39.7 58.85 39.7 58.87 39.71 58.85 39.71 58.85 39.71 58.85"/><polygon class="cls-8" points="41.44 58.67 41.44 58.67 41.3 58.66 41.17 58.66 41.05 58.66 40.93 58.66 40.81 58.66 40.7 58.67 40.58 58.67 40.47 58.68 40.37 58.69 40.27 58.7 40.17 58.72 40.07 58.74 39.98 58.76 39.88 58.78 39.8 58.81 39.71 58.85 39.73 58.9 39.81 58.86 39.9 58.83 39.99 58.8 40.08 58.78 40.18 58.76 40.27 58.75 40.37 58.73 40.47 58.72 40.58 58.72 40.7 58.71 40.81 58.71 40.93 58.71 41.05 58.71 41.17 58.71 41.3 58.72 41.44 58.72 41.44 58.72 41.44 58.67 41.44 58.67 41.44 58.67"/><polygon class="cls-8" points="42.76 59.98 42.76 59.98 42.78 59.82 42.78 59.68 42.76 59.54 42.71 59.41 42.65 59.29 42.57 59.19 42.48 59.09 42.38 59 42.27 58.93 42.16 58.86 42.03 58.81 41.91 58.76 41.78 58.72 41.66 58.7 41.54 58.68 41.44 58.67 41.44 58.72 41.54 58.72 41.66 58.74 41.77 58.77 41.9 58.81 42.02 58.85 42.13 58.91 42.25 58.97 42.35 59.04 42.45 59.13 42.53 59.22 42.61 59.32 42.67 59.43 42.71 59.55 42.74 59.68 42.74 59.82 42.72 59.98 42.72 59.98 42.76 59.98 42.76 59.98 42.76 59.98"/><polygon class="cls-8" points="42.36 62.03 42.36 62.03 42.76 59.98 42.72 59.98 42.31 62.02 42.31 62.02 42.36 62.03 42.36 62.03 42.36 62.03"/><polygon class="cls-6" points="41.4 61.01 41.39 60.99 41.37 60.97 41.35 60.96 41.31 60.95 41.26 60.94 41.21 60.94 41.16 60.94 41.1 60.94 41.03 60.95 40.97 60.96 40.91 60.97 40.85 60.98 40.8 60.99 40.74 60.99 40.7 61.01 40.66 61.01 40.63 61.02 40.6 61.03 40.56 61.04 40.52 61.06 40.47 61.08 40.42 61.1 40.37 61.13 40.31 61.16 40.27 61.2 40.22 61.24 40.17 61.28 40.13 61.34 40.09 61.39 40.07 61.45 40.04 61.51 40.03 61.58 40.03 61.71 40.05 61.81 40.08 61.89 40.13 61.95 40.18 61.98 40.25 62.01 40.31 62.02 40.38 62.02 40.5 62.02 40.6 62.01 40.71 61.99 40.8 61.96 40.88 61.93 40.95 61.9 41.02 61.86 41.09 61.81 41.14 61.77 41.19 61.72 41.23 61.67 41.26 61.62 41.29 61.58 41.31 61.53 41.33 61.48 41.34 61.44 41.35 61.33 41.37 61.22 41.39 61.11 41.4 61.01 41.4 61.01 41.4 61.01"/><polygon class="cls-8" points="49.37 62.35 49.38 62.26 49.41 62.16 49.47 62.07 49.53 61.98 49.61 61.92 49.71 61.87 49.81 61.84 49.92 61.83 50.03 61.84 50.13 61.87 50.22 61.92 50.3 61.98 50.37 62.07 50.42 62.16 50.45 62.26 50.46 62.35 50.34 62.35 50.34 62.28 50.32 62.2 50.28 62.12 50.23 62.05 50.16 62 50.09 61.96 50.01 61.94 49.92 61.93 49.83 61.94 49.74 61.96 49.67 62 49.61 62.05 49.56 62.12 49.52 62.2 49.49 62.28 49.49 62.35 49.37 62.35 49.37 62.35 49.37 62.35"/><polygon class="cls-8" points="49.72 62.35 49.72 62.12 49.94 62.12 49.98 62.13 50.03 62.13 50.06 62.14 50.08 62.16 50.1 62.18 50.12 62.21 50.13 62.23 50.13 62.26 50.13 62.3 50.12 62.32 50.11 62.35 50.1 62.35 49.94 62.35 49.95 62.35 49.98 62.35 50 62.34 50.02 62.33 50.04 62.32 50.05 62.31 50.05 62.29 50.05 62.26 50.05 62.24 50.04 62.23 50.03 62.22 50.02 62.21 50 62.21 49.98 62.2 49.96 62.2 49.94 62.2 49.82 62.2 49.82 62.35 49.72 62.35 49.72 62.35 49.72 62.35"/><polygon class="cls-8" points="49.37 62.35 49.37 62.38 49.38 62.49 49.41 62.59 49.47 62.69 49.53 62.76 49.61 62.83 49.71 62.88 49.81 62.91 49.92 62.92 50.03 62.91 50.13 62.88 50.22 62.83 50.3 62.76 50.37 62.69 50.42 62.59 50.45 62.49 50.46 62.38 50.46 62.35 50.34 62.35 50.35 62.38 50.34 62.47 50.32 62.55 50.28 62.63 50.23 62.69 50.16 62.75 50.09 62.79 50.01 62.82 49.92 62.83 49.83 62.82 49.74 62.79 49.67 62.75 49.61 62.69 49.56 62.63 49.52 62.55 49.49 62.47 49.49 62.38 49.49 62.35 49.37 62.35 49.37 62.35 49.37 62.35"/><polygon class="cls-8" points="49.72 62.35 49.72 62.59 49.82 62.59 49.82 62.4 49.92 62.4 50.03 62.59 50.11 62.59 49.99 62.4 50.02 62.4 50.05 62.39 50.07 62.38 50.09 62.37 50.1 62.35 49.94 62.35 49.92 62.36 49.82 62.36 49.82 62.35 49.72 62.35 49.72 62.35 49.72 62.35"/><path class="cls-9" d="M49.37,62.38h0v-.11l0-.1.05-.09.07-.08.08-.07.09,0,.1,0H50l.1,0,.09,0,.08.07.07.08.05.09,0,.1v.11h0v.11l0,.1-.05.09-.07.08-.08.07-.09.05-.1,0h-.22l-.1,0-.09-.05-.08-.07-.07-.08-.05-.09,0-.1v-.11m.45.21h-.1v-.47h.33l0,0,0,0v.08h0v.1l0,0H50l.12.19H50l-.12-.19h-.1v.19m.1-.23H50v0h0v0h-.22v.15h.1m0,.47H50l.09,0,.07,0,.06-.05.05-.07,0-.07,0-.09v-.09h0v-.09l0-.09,0-.08-.05-.07L50.16,62l-.07,0-.09,0h-.18l-.08,0-.07,0-.06.05,0,.07,0,.08,0,.09v.09h0v.09l0,.09,0,.07,0,.07.06.05.07,0,.08,0h.09"/><polygon class="cls-8" points="42.62 62.88 43.72 62.88 43.72 62.88 44.11 60.68 44.12 60.59 44.15 60.51 44.17 60.42 44.2 60.34 44.24 60.25 44.28 60.17 44.34 60.09 44.4 60.02 44.47 59.96 44.55 59.89 44.63 59.84 44.73 59.79 44.85 59.75 44.97 59.72 45.11 59.7 45.26 59.69 45.31 59.69 45.34 59.69 45.35 59.69 45.35 59.69 45.53 58.69 45.42 58.7 45.31 58.71 45.22 58.73 45.13 58.76 45.04 58.79 44.96 58.83 44.88 58.87 44.81 58.92 44.74 58.97 44.67 59.03 44.61 59.09 44.55 59.15 44.49 59.22 44.43 59.29 44.37 59.36 44.32 59.44 44.44 58.74 43.35 58.74 42.62 62.88 42.62 62.88 42.62 62.88 42.62 62.88"/><polyline class="cls-9" points="42.62 62.88 43.72 62.88 43.72 62.88 44.11 60.68 44.11 60.68 44.12 60.59 44.15 60.51 44.17 60.42 44.2 60.34 44.24 60.25 44.28 60.17 44.34 60.09 44.4 60.02 44.47 59.96 44.55 59.89 44.63 59.84 44.73 59.79 44.85 59.75 44.97 59.72 45.11 59.7 45.26 59.69 45.26 59.69 45.31 59.69 45.34 59.69 45.35 59.69 45.35 59.69 45.53 58.69 45.53 58.69 45.42 58.7 45.31 58.71 45.22 58.73 45.13 58.76 45.04 58.79 44.96 58.83 44.88 58.87 44.81 58.92 44.74 58.97 44.67 59.03 44.61 59.09 44.55 59.15 44.49 59.22 44.43 59.29 44.37 59.36 44.32 59.44 44.44 58.74 43.35 58.74 42.62 62.88 42.62 62.88"/><polygon class="cls-8" points="32.37 62.88 33.46 62.88 33.48 62.88 33.85 60.68 33.87 60.59 33.88 60.51 33.91 60.43 33.93 60.35 33.96 60.28 34 60.2 34.05 60.13 34.1 60.07 34.16 60.01 34.23 59.95 34.32 59.91 34.41 59.86 34.52 59.83 34.64 59.8 34.77 59.78 34.92 59.77 34.94 59.77 34.95 59.77 34.97 59.77 34.99 59.77 35.01 59.78 35.02 59.78 35.04 59.79 35.04 59.79 35.05 59.77 35.05 59.72 35.07 59.65 35.09 59.57 35.12 59.47 35.14 59.36 35.18 59.25 35.21 59.14 35.25 59.07 35.28 58.99 35.32 58.92 35.36 58.86 35.4 58.8 35.42 58.75 35.44 58.72 35.45 58.71 35.45 58.71 35.43 58.71 35.41 58.7 35.38 58.7 35.36 58.7 35.33 58.7 35.3 58.69 35.27 58.69 35.15 58.7 35.05 58.71 34.94 58.73 34.85 58.76 34.76 58.79 34.68 58.83 34.61 58.86 34.54 58.91 34.47 58.96 34.41 59.02 34.35 59.08 34.29 59.14 34.23 59.21 34.18 59.28 34.12 59.36 34.06 59.44 34.2 58.74 33.09 58.74 32.37 62.88 32.37 62.88 32.37 62.88 32.37 62.88"/><polyline class="cls-9" points="32.37 62.88 33.46 62.88 33.48 62.88 33.85 60.68 33.85 60.68 33.87 60.59 33.88 60.51 33.91 60.43 33.93 60.35 33.96 60.28 34 60.2 34.05 60.13 34.1 60.07 34.16 60.01 34.23 59.95 34.32 59.91 34.41 59.86 34.52 59.83 34.64 59.8 34.77 59.78 34.92 59.77 34.92 59.77 34.94 59.77 34.95 59.77 34.97 59.77 34.99 59.77 35.01 59.78 35.02 59.78 35.04 59.79 35.04 59.79 35.04 59.79 35.05 59.77 35.05 59.72 35.07 59.65 35.09 59.57 35.12 59.47 35.14 59.36 35.18 59.25 35.21 59.14 35.21 59.14 35.25 59.07 35.28 58.99 35.32 58.92 35.36 58.86 35.4 58.8 35.42 58.75 35.44 58.72 35.45 58.71 35.45 58.71 35.45 58.71 35.43 58.71 35.41 58.7 35.38 58.7 35.36 58.7 35.33 58.7 35.3 58.69 35.27 58.69 35.27 58.69 35.15 58.7 35.05 58.71 34.94 58.73 34.85 58.76 34.76 58.79 34.68 58.83 34.61 58.86 34.54 58.91 34.47 58.96 34.41 59.02 34.35 59.08 34.29 59.14 34.23 59.21 34.18 59.28 34.12 59.36 34.06 59.44 34.2 58.74 33.09 58.74 32.37 62.88 32.37 62.88"/><polygon class="cls-6" points="49.38 66.96 49.38 66.94 49.41 66.84 49.47 66.75 49.53 66.68 49.61 66.61 49.71 66.57 49.81 66.54 49.92 66.53 50.03 66.54 50.13 66.57 50.22 66.61 50.3 66.68 50.37 66.75 50.42 66.84 50.45 66.94 50.45 66.96 50.34 66.96 50.32 66.88 50.28 66.8 50.23 66.74 50.16 66.68 50.09 66.64 50.01 66.61 49.92 66.61 49.83 66.61 49.74 66.64 49.67 66.68 49.61 66.74 49.56 66.8 49.52 66.88 49.49 66.96 49.38 66.96 49.38 66.96 49.38 66.96"/><polygon class="cls-6" points="49.72 66.96 49.72 66.82 49.94 66.82 49.98 66.82 50.03 66.83 50.06 66.84 50.08 66.85 50.1 66.87 50.12 66.9 50.13 66.92 50.13 66.96 50.05 66.96 50.05 66.94 50.05 66.92 50.04 66.9 50.03 66.9 50.02 66.89 50 66.89 49.98 66.88 49.96 66.88 49.94 66.88 49.82 66.88 49.82 66.96 49.72 66.96 49.72 66.96 49.72 66.96"/><polygon class="cls-6" points="49.37 67.04 49.38 66.96 49.49 66.96 49.49 66.96 49.49 67.04 49.37 67.04 49.37 67.04 49.37 67.04"/><polygon class="cls-6" points="49.72 67.04 49.72 66.96 49.82 66.96 49.82 67.04 49.92 67.04 49.95 67.03 49.98 67.03 50 67.02 50.02 67.01 50.04 67 50.05 66.98 50.05 66.97 50.05 66.96 50.13 66.96 50.13 66.96 50.13 66.98 50.12 67.01 50.11 67.03 50.09 67.04 49.72 67.04 49.72 67.04 49.72 67.04"/><polygon class="cls-6" points="50.35 67.04 50.34 66.96 50.34 66.96 50.45 66.96 50.46 67.04 50.35 67.04 50.35 67.04 50.35 67.04"/><polygon class="cls-6" points="49.37 67.04 49.37 67.06 49.38 67.17 49.41 67.27 49.47 67.36 49.53 67.45 49.61 67.51 49.71 67.56 49.81 67.59 49.92 67.6 50.03 67.59 50.13 67.56 50.22 67.51 50.3 67.45 50.37 67.36 50.42 67.27 50.45 67.17 50.46 67.06 50.46 67.04 50.35 67.04 50.35 67.06 50.34 67.15 50.32 67.23 50.28 67.31 50.23 67.37 50.16 67.43 50.09 67.47 50.01 67.5 49.92 67.5 49.83 67.5 49.74 67.47 49.67 67.43 49.61 67.37 49.56 67.31 49.52 67.23 49.49 67.15 49.49 67.06 49.49 67.04 49.37 67.04 49.37 67.04 49.37 67.04"/><polygon class="cls-6" points="49.72 67.04 49.72 67.27 49.82 67.27 49.82 67.07 49.92 67.07 50.03 67.27 50.11 67.27 49.99 67.07 50.02 67.07 50.05 67.07 50.07 67.06 50.09 67.04 50.09 67.04 49.72 67.04 49.72 67.04 49.72 67.04"/><path class="cls-8" d="M32.49,60l0-.23-.05-.21-.08-.18-.1-.16-.12-.13L32,59l-.14-.09-.15-.07-.16-.06-.16,0-.16,0-.16,0h-.15l-.31,0-.28,0-.25.07-.22.1-.19.12-.17.13-.15.15-.12.16-.11.16-.09.17-.07.17-.06.17,0,.16,0,.15,0,.14,0,.12,0,.32v.29l0,.26.07.23L29,62l.11.18.13.16.15.13.16.11.17.1.18.07.19.06.19,0,.19,0,.19,0h1.09l.06,0,.06,0,.06,0,.06,0,.06,0,.06,0,.16-1-.11.07-.11.06-.11,0-.11,0-.1,0-.11,0-.11,0-.1,0h-.71l-.1,0-.08,0-.08,0-.08,0-.07,0-.07,0-.06-.06-.06-.06L30,61.64l0-.07,0-.07,0-.07,0-.07,0-.07v-.19h2.51l0-.24.06-.33,0-.29Zm-1,.36H30v-.05l0-.08,0-.08,0-.08,0-.07,0-.07,0-.06,0-.06.05-.05,0,0,.06,0,.06,0,.07,0,.07,0,.07,0h.28l.06,0,.06,0,.06,0,.06,0,.05,0,0,0,0,.05,0,.06,0,.07,0,.07v.35Z"/></g><g id="visa"><rect class="cls-10" width="64" height="40" rx="2.13" ry="2.13"/><polygon class="cls-2" points="28.95 26 25.83 26 27.78 14 30.9 14 28.95 26"/><path class="cls-2" d="M23.33,14l-3,8.25L20,20.48h0l-1.05-5.4A1.34,1.34,0,0,0,17.47,14H12.54l-.06.2a11.66,11.66,0,0,1,3.27,1.37L18.47,26h3.26l5-12Z"/><path class="cls-2" d="M47.79,26h2.87l-2.5-12H45.64a1.44,1.44,0,0,0-1.44.89L39.54,26h3.25l.65-2h4Zm-3.44-4.5L46,17l.92,4.49Z"/><path class="cls-2" d="M39.78,16.39l.45-2.58a9,9,0,0,0-2.81-.52c-1.55,0-5.24.68-5.24,4,0,3.1,4.33,3.14,4.33,4.77s-3.88,1.34-5.16.31L30.88,25a8.76,8.76,0,0,0,3.53.68c2.13,0,5.35-1.1,5.35-4.11s-4.36-3.41-4.36-4.77S38.44,15.65,39.78,16.39Z"/><path class="cls-11" d="M19.86,20.48l-1.05-5.4A1.34,1.34,0,0,0,17.33,14H12.4l-.06.2A12.11,12.11,0,0,1,17,16.53,9.37,9.37,0,0,1,19.86,20.48Z"/></g></svg>