<?xml version="1.0" encoding="utf-8"?>
<!DOCTYPE svg PUBLIC "-//W3C//DTD SVG 1.1//EN" "http://www.w3.org/Graphics/SVG/1.1/DTD/svg11.dtd">
<svg version="1.1" id="Layer_1" xmlns="http://www.w3.org/2000/svg" xmlns:xlink="http://www.w3.org/1999/xlink" x="0px" y="0px"
	 viewBox="0 0 95 17" enable-background="new 0 0 95 17" xml:space="preserve">
<g id="Layer_3">
	<g>
		<g enable-background="new    ">
			<path fill="#5AA0FF" d="M0,1.7h5.6c2.8,0,4.4,1.2,4.4,3.9c0,1.5-0.7,2.6-1.8,3.1c1.7,0.4,2.7,1.6,2.7,3.5c0,2.6-1.6,4.1-4.5,4.1
				H0V1.7z M3.2,7.4h1.9c1.2,0,1.7-0.6,1.7-1.6S6.3,4.3,5.2,4.3h-2C3.2,4.3,3.2,7.4,3.2,7.4z M3.2,13.6H6c1.2,0,1.7-0.6,1.7-1.6
				c0-1.1-0.6-1.7-1.9-1.7H3.2V13.6z"/>
			<path fill="#5AA0FF" d="M15.7,11.6c0.1,1.4,0.8,2.4,2.5,2.4c1.1,0,2-0.5,2.6-1l1.1,2.3c-1,0.8-2.4,1.4-4.2,1.4
				c-3.4,0-5-2.5-5-5.9s2-6,5-6s4.3,2,4.3,4.5c0,0.8-0.1,1.6-0.3,2.3L15.7,11.6L15.7,11.6z M19.2,9.3c0-0.2,0.1-0.3,0.1-0.5
				c0-1-0.6-1.5-1.5-1.5c-1.1,0-1.8,0.8-1.8,2H19.2L19.2,9.3z"/>
			<path fill="#5AA0FF" d="M26.8,11.6c0.1,1.4,0.8,2.4,2.5,2.4c1.1,0,2-0.5,2.6-1l1.1,2.3c-1,0.8-2.4,1.4-4.2,1.4
				c-3.4,0-5-2.5-5-5.9s2-6,5-6s4.3,2,4.3,4.5c0,0.8-0.1,1.6-0.3,2.3L26.8,11.6L26.8,11.6z M30.3,9.3c0-0.2,0.1-0.3,0.1-0.5
				c0-1-0.6-1.5-1.5-1.5c-1.1,0-1.8,0.8-1.8,2H30.3L30.3,9.3z"/>
			<path fill="#5AA0FF" d="M35.6,16.3V1h3.1v5c0.6-0.7,1.6-1.2,3-1.2C44,4.9,45,6.5,45,9.3V13c0,0.6,0.2,0.8,0.6,0.8
				c0.3,0,0.6-0.1,0.9-0.3l0.1,2.5c-0.5,0.3-1.2,0.5-2.2,0.5c-1.7,0-2.6-0.8-2.6-2.7v-4c0-1.4-0.6-2.1-1.6-2.1
				c-0.9,0-1.4,0.8-1.7,1.6v7H35.6L35.6,16.3L35.6,16.3z"/>
			<path fill="#5AA0FF" d="M50.1,0.4c1,0,1.7,0.4,1.7,1.5s-0.7,1.5-1.7,1.5S48.4,3,48.4,1.9S49.1,0.4,50.1,0.4z M51.6,5.1v8
				c0,0.6,0.2,0.8,0.6,0.8c0.3,0,0.6-0.1,0.9-0.3l0.1,2.5c-0.5,0.3-1.2,0.5-2.1,0.5c-1.7,0-2.6-0.8-2.6-2.7V5.1H51.6L51.6,5.1z"/>
			<path fill="#5AA0FF" d="M58.9,11.3c0,1.4,0.5,2.3,1.5,2.3s1.7-1,1.7-2.6c0-2.3-0.4-4.6-0.9-6h3.2c0.3,1,0.9,3.8,0.9,6.2
				c0,3.2-1.8,5.3-4.9,5.3c-3.1,0-4.6-1.8-4.6-4.7V8.5c0-0.7-0.2-1-0.6-1c-0.2,0-0.6,0.1-0.9,0.3l-0.1-2.5c0.5-0.3,1.3-0.5,2.3-0.5
				c1.5,0,2.4,0.8,2.4,3L58.9,11.3L58.9,11.3z"/>
			<path fill="#5AA0FF" d="M70.4,11.6c0.1,1.4,0.8,2.4,2.5,2.4c1.1,0,2-0.5,2.6-1l1.1,2.3c-1,0.8-2.4,1.4-4.2,1.4
				c-3.4,0-5-2.5-5-5.9s2-6,5-6s4.3,2,4.3,4.5c0,0.8-0.1,1.6-0.3,2.3L70.4,11.6L70.4,11.6z M73.8,9.3c0-0.2,0.1-0.3,0.1-0.5
				c0-1-0.6-1.5-1.5-1.5c-1.1,0-1.8,0.8-1.8,2H73.8L73.8,9.3z"/>
		</g>
		<g>
			<path fill="#5AA0FF" d="M89.9,4L89.9,4L93,9.3l-3,5.4h-6l-3-5.3l3-5.3L89.9,4 M89.9,1.9h-6c-0.7,0-1.4,0.4-1.7,1l-3,5.2
				c-0.4,0.6-0.4,1.4,0,2l3,5.2c0.4,0.6,1,1,1.7,1H90c0.7,0,1.4-0.4,1.7-1l3-5.2c0.4-0.6,0.4-1.4,0-2l-3-5.2
				C91.4,2.3,90.6,1.9,89.9,1.9L89.9,1.9z"/>
		</g>
	</g>
</g>
</svg>
