<svg xmlns="http://www.w3.org/2000/svg" viewBox="0 0 18 15"><defs><style>.a{fill:#515e70;}</style></defs><path class="a" d="M8.914,11.741l2.328-2.323.008.082A2.253,2.253,0,0,1,9,11.75l-.086-.009ZM14.95,5.717,12.494,8.168A3.714,3.714,0,0,1,12.75,9.5,3.754,3.754,0,0,1,9,13.25a3.714,3.714,0,0,1-1.339-.258L5.878,14.771a7.445,7.445,0,0,0,3.133.729C14.811,15.5,18,9.163,18,9.163A13.571,13.571,0,0,0,14.95,5.717Zm1.073-2.652L2.059,17,1.022,15.934l2.591-2.585A16.927,16.927,0,0,1,0,9.163S3.335,3.5,9.011,3.5a8.8,8.8,0,0,1,3.665.806L14.986,2l1.037,1.065ZM5.71,11.256,6.849,10.12a2.2,2.2,0,0,1-.1-.62A2.253,2.253,0,0,1,9,7.25a2.182,2.182,0,0,1,.625.1l1.138-1.136A3.679,3.679,0,0,0,9,5.75,3.754,3.754,0,0,0,5.25,9.5,3.683,3.683,0,0,0,5.71,11.256Z" transform="translate(0 -2)"/></svg>