<svg xmlns="http://www.w3.org/2000/svg" viewBox="1489.426 4223 33.148 31">
  <defs>
    <style>
      .footer-hex {
        fill: #7f8799;
        stroke: #7f8799;
      }
    </style>
  </defs>
  <path id="footer-hex" data-name="footer-hex" class="footer-hex" d="M100.8,6.508l4.8,8.958a1.959,1.959,0,0,1,0,2.083l-4.8,8.958A2.084,2.084,0,0,1,99,27.55H89.2a2.084,2.084,0,0,1-1.8-1.042l-4.8-9.167a1.958,1.958,0,0,1,0-2.083L87.4,6.3a2.084,2.084,0,0,1,1.8-1.042H99A3.592,3.592,0,0,1,100.8,6.508ZM100.2,1.3h-12a3.85,3.85,0,0,0-3.4,2.083l-6,10.833a3.917,3.917,0,0,0,0,4.167l6,10.833A4.1,4.1,0,0,0,88.2,31.3h12a3.85,3.85,0,0,0,3.4-2.083l6-10.833a3.917,3.917,0,0,0,0-4.167l-6-10.833A4.1,4.1,0,0,0,100.2,1.3Z" transform="translate(1411.8 4222.2)"/>
</svg>
