<?xml version="1.0" encoding="utf-8"?>
<!-- Generator: Adobe Illustrator 19.1.0, SVG Export Plug-In . SVG Version: 6.00 Build 0)  -->
<svg version="1.1" xmlns="http://www.w3.org/2000/svg" xmlns:xlink="http://www.w3.org/1999/xlink" x="0px" y="0px"
	 viewBox="0 0 118 108" style="enable-background:new 0 0 120 108.8;" xml:space="preserve" shape-rendering="crispEdges">
<style type="text/css">
	.st0{fill:#303A3F;}
	.st1{fill:#333D42;}
	.st2{fill:#364247;}
	.st3{fill:#313B3F;}
	.st4{fill:#354144;}
	.st5{fill:#343F45;}
	.st6{fill:#2D3538;}
	.st7{fill:#30373D;}
	.st8{fill:#344044;}
</style>
<g id="Layer_2">
	<rect class="st0" width="120" height="108.8"/>
</g>
<g id="Layer_1">
	<g>
		<polygon class="st1" points="50,36.3 40,18.1 50,0 70,0 80,18.1 70,36.3 		"/>
		<polyline class="st2" points="0,0 10,0 20,18.1 10,36.3 0,36.3 		"/>
		<polyline class="st3" points="50,0 40,18.1 20,18.1 10,0 		"/>
		<polyline class="st3" points="10,108.8 20,90.7 40,90.7 50,108.8 		"/>
		<polygon class="st4" points="20,90.7 10,72.5 20,54.4 40,54.4 50,72.5 40,90.7 		"/>
		<polygon class="st0" points="50,72.5 40,54.4 50,36.3 70,36.3 80,54.4 70,72.5 		"/>
		<polygon class="st5" points="20,54.4 10,36.3 20,18.1 40,18.1 50,36.3 40,54.4 		"/>
		<polygon class="st1" points="80,90.7 70,72.5 80,54.4 100,54.4 110,72.5 100,90.7 		"/>
		<polygon class="st5" points="50,108.8 40,90.7 50,72.5 70,72.5 80,90.7 70,108.8 		"/>
		<polyline class="st2" points="120,36.3 110,36.3 100,18.1 110,0 120,0 		"/>
		<polyline class="st6" points="120,108.8 110,108.8 100,90.7 110,72.5 120,72.5 		"/>
		<polyline class="st7" points="110,0 100,18.1 80,18.1 70,0 		"/>
		<polyline class="st7" points="70,108.8 80,90.7 100,90.7 110,108.8 		"/>
		<polygon class="st8" points="80,54.4 70,36.3 80,18.1 100,18.1 110,36.3 100,54.4 		"/>
		<polyline class="st0" points="120,72.5 110,72.5 100,54.4 110,36.3 120,36.3 		"/>
		<polyline class="st0" points="0,36.3 10,36.3 20,54.4 10,72.5 0,72.5 		"/>
		<polyline class="st6" points="0,72.5 10,72.5 20,90.7 10,108.8 0,108.8 		"/>
	</g>
</g>
</svg>
