<?xml version="1.0" encoding="utf-8"?>
<!-- Generator: Adobe Illustrator 19.1.0, SVG Export Plug-In . SVG Version: 6.00 Build 0)  -->
<svg version="1.1" id="Layer_1" xmlns="http://www.w3.org/2000/svg" xmlns:xlink="http://www.w3.org/1999/xlink" x="0px" y="0px"
	 viewBox="0 0 500 800" style="enable-background:new 0 0 500 800;" xml:space="preserve">
<style type="text/css">
	.st0{fill:#F1BEA0;}
	.st1{fill:#3E4F96;}
	.st2{fill:#EEBB9B;}
	.st3{fill:#482B13;}
	.st4{fill:#5D5477;}
	.st5{fill:none;stroke:#C4C4C6;stroke-width:1.1563;stroke-linecap:round;stroke-miterlimit:10;}
	.st6{fill:#818285;}
	.st7{fill:#766C8A;}
	.st8{fill:#CCCACA;}
	.st9{fill:#E0E1E0;}
	.st10{fill:#C4C4C6;}
	.st11{opacity:0.25;fill:none;stroke:#C4C4C6;stroke-width:2.3126;stroke-linecap:round;stroke-miterlimit:10;}
	.st12{opacity:0.5;fill:none;stroke:#C4C4C6;stroke-width:2.3126;stroke-linecap:round;stroke-miterlimit:10;}
	.st13{opacity:0.75;fill:none;stroke:#C4C4C6;stroke-width:2.3126;stroke-linecap:round;stroke-miterlimit:10;}
	.st14{opacity:0.25;fill:none;stroke:#C4C4C6;stroke-width:3.4689;stroke-linecap:round;stroke-miterlimit:10;}
	.st15{opacity:0.5;fill:none;stroke:#C4C4C6;stroke-width:3.4689;stroke-linecap:round;stroke-miterlimit:10;}
	.st16{opacity:0.75;fill:none;stroke:#C4C4C6;stroke-width:3.4689;stroke-linecap:round;stroke-miterlimit:10;}
	.st17{fill:none;stroke:#818285;stroke-width:2.3126;stroke-linecap:round;stroke-miterlimit:10;}
	.st18{fill:none;stroke:#818285;stroke-width:3.4689;stroke-linecap:round;stroke-miterlimit:10;}
	.st19{clip-path:url(#XMLID_9_);}
	.st20{fill:#D9D9D9;}
	.st21{fill:#F1F6F9;}
	.st22{fill:#787878;}
	.st23{fill:none;stroke:#C4C4C6;stroke-width:1.1563;stroke-miterlimit:10;}
	.st24{fill:#010101;}
	.st25{font-family:'PlutoCondBold';}
	.st26{font-size:41.6266px;}
	.st27{fill:#FFFFFF;}
	.st28{fill:#F5F6F6;}
	.st29{fill:#F1635F;}
	.st30{fill:#E7C42F;}
	.st31{fill:#BDD742;}
	.st32{font-family:'RobotoSlab-Regular';}
	.st33{font-size:13.748px;}
	.st34{fill:#FFFFFF;stroke:#CDCCCC;stroke-width:1.1457;stroke-miterlimit:10;}
	.st35{fill:#EB2C84;}
	.st36{font-family:'RedactedScript-Bold';}
	.st37{font-size:6.0319px;}
	.st38{fill:none;stroke:#146DB6;stroke-width:0.6591;stroke-miterlimit:10;}
	.st39{fill:#146DB6;}
	.st40{font-size:13.183px;}
	.st41{font-size:7.9098px;}
	.st42{font-family:'RedactedScript';}
	.st43{font-size:6.5915px;}
	.st44{font-size:19.7744px;}
	.st45{fill:#3A3896;}
	.st46{font-size:8.0292px;}
	.st47{fill:#F9F7ED;}
	.st48{fill:#808184;}
	.st49{fill:#4A4A4A;}
	.st50{fill:none;stroke:#818285;stroke-width:3.6075;stroke-miterlimit:10;}
	.st51{fill:#1BA7DF;}
	.st52{fill:#F5BA18;}
	.st53{fill:none;stroke:#F5BA18;stroke-width:4.2446;stroke-linecap:round;stroke-miterlimit:10;}
	.st54{fill:#CECCCC;}
	.st55{fill:#F3BA1A;}
</style>
<g>
	<g id="XMLID_8289_">
		<path class="st0" d="M257.4,150.4l20.2-46.2c1.4-3.2-0.1-6.9-3.2-8.2l0,0c-3.2-1.4-6.9,0.1-8.2,3.2l-20.2,46.2"/>
		<path class="st0" d="M259.8,144.8l-36.6-26.3c-2.8-2-6.7-1.4-8.7,1.4l0,0c-2,2.8-1.4,6.7,1.4,8.7l39,27.4"/>
		<path id="XMLID_8290_" class="st1" d="M166.7,197c0,1.7,1.4,3.1,3.1,3.1h55.2c1.7,0,3.1-1.4,3.1-3.1l-0.8-86.5
			c0-1.7-1.4-3.1-3.1-3.1h-53.6c-1.7,0-3.1,1.4-3.1,3.1L166.7,197z"/>
		<path id="XMLID_8291_" class="st2" d="M206.8,105.5c0,6-4.9,10.9-10.9,10.9c-6,0-10.9-4.9-10.9-10.9"/>
		<path class="st0" d="M153,154.7l10-41.5c1.6-3,5.4-4.2,8.5-2.6l0,0c3.1,1.6,4.2,5.4,2.6,8.5l-10.8,41"/>
		<path class="st1" d="M174.5,137.2c-0.8,3-2.9,5-4.8,4.5l-14.1-3.6c-1.9-0.5-2.8-3.3-2.1-6.3l5.3-20.6c0.8-3,2.9-5,4.8-4.5
			l14.1,3.6c1.9,0.5,2.8,3.3,2.1,6.3L174.5,137.2z"/>
		<path class="st1" d="M242.5,125.5c1.9,2.4,2.2,5.4,0.7,6.6l-11.4,9c-1.5,1.2-4.3,0.2-6.3-2.2l-13.1-16.7c-1.9-2.4-2.2-5.4-0.6-6.6
			l11.4-9c1.5-1.2,4.3-0.2,6.3,2.2L242.5,125.5z"/>
		<circle id="XMLID_8292_" class="st0" cx="196" cy="80" r="29.8"/>
		<path id="XMLID_8293_" class="st3" d="M226,79.8c0-0.2,0-0.4,0-0.6c0-3.1-0.5-6.3-1.3-9.2c-1.8-6.3-6.7-12.2-12.5-15.5
			c-3.1-2-6.7-3.5-10.6-4.2c-1.8-0.3-3.7-0.4-5.7-0.4c-1.9-0.1-3.9,0-5.7,0.4c-3.9,0.7-7.5,2.2-10.6,4.2
			c-5.8,3.3-10.7,9.1-12.5,15.5c-0.8,2.9-1.3,6.1-1.3,9.2c0,0.2,0,0.4,0,0.6c0.1,4.4,1.4,8.7,4.3,12.2c-0.1-6.1,1.1-11,5.4-15.2
			c0.1-0.1,0.3-0.3,0.4-0.4c0.5-0.5,1-0.8,1.5-1.1c5,8.3,19.6,5.4,25.8,3.4c2.2-0.7,5.6-2.2,8.3-4.2c2.5,3.7,6.2,5.5,8.1,7.5
			c1.4,1.4,3.9,6.2,2.8,7.6C225.6,86.1,225.9,84.2,226,79.8z"/>
		<polygon class="st4" points="191.4,139.5 185.3,129 197.4,129 191.4,139.5 185.3,129 197.4,129 		"/>
		<polygon class="st4" points="203.6,139.5 197.6,129.1 209.6,129.1 203.6,139.5 197.6,129.1 209.6,129.1 		"/>
		<polygon class="st4" points="215.8,139.5 209.8,129.1 221.9,129.1 215.8,139.5 209.8,129.1 221.9,129.1 		"/>
		<polygon class="st4" points="179.1,139.5 173.1,129 185.1,129 179.1,139.5 173.1,129 185.1,129 		"/>
		<polygon class="st4" points="191.4,150.5 185.3,140.1 197.4,140.1 191.4,150.5 185.3,140.1 197.4,140.1 		"/>
		<polygon class="st4" points="203.6,150.6 197.6,140.1 209.6,140.1 203.6,150.6 197.6,140.1 209.6,140.1 		"/>
		<polygon class="st4" points="215.8,150.6 209.8,140.1 221.9,140.1 215.8,150.6 209.8,140.1 221.9,140.1 		"/>
		<polygon class="st4" points="179.1,150.5 173.1,140.1 185.1,140.1 179.1,150.5 173.1,140.1 185.1,140.1 		"/>
		<path class="st0" d="M153,154.7l-11.9,30.6c-2.2,2.7-1.8,6.6,0.9,8.8l0,0c2.7,2.2,6.6,1.8,8.8-0.9l12.4-33.1"/>
		<g id="XMLID_8294_">
			<path class="st5" d="M254.3,80.2c-2.5-1.3-2.6-5.1-0.1-6.2"/>
			<path class="st5" d="M249.9,83.2c-4.3-3.4-4.2-10.7,0.8-13"/>
			<path class="st5" d="M245.5,85.4c-5.4-4.7-5.1-14.9,1.3-18.2"/>
		</g>
		<g id="XMLID_8508_">
			<g>
				<g>
					<g>
						<path class="st6" d="M265.6,188.3c-0.1,0.1-0.1,0.2,0,0.2l0.3,0.2c0.1,0.1,0.2,0,0.3,0l1-0.9c0.1-0.1,0.1-0.2,0-0.2l-0.3-0.2
							c-0.1-0.1-0.2,0-0.3,0L265.6,188.3z"/>
					</g>
					<g>
						<path class="st6" d="M264.6,187.8c-0.1,0.1-0.1,0.2,0,0.2l0.3,0.2c0.1,0,0.2,0,0.3-0.1l1-0.9c0.1-0.1,0.1-0.2,0-0.2l-0.3-0.2
							c-0.1-0.1-0.2,0-0.3,0L264.6,187.8z"/>
					</g>
					<g>
						<path class="st6" d="M263.7,187.3c-0.1,0.1-0.1,0.2,0,0.2l0.3,0.1c0.1,0,0.2,0,0.3-0.1l0.9-1c0.1-0.1,0.1-0.2,0-0.2l-0.3-0.2
							c-0.1,0-0.2,0-0.3,0.1L263.7,187.3z"/>
					</g>
					<g>
						<path class="st6" d="M262.7,186.8c-0.1,0.1,0,0.2,0,0.2l0.3,0.1c0.1,0,0.2,0,0.3-0.1l0.9-1c0.1-0.1,0.1-0.2,0-0.2l-0.3-0.2
							c-0.1,0-0.2,0-0.3,0.1L262.7,186.8z"/>
					</g>
					<g>
						<path class="st6" d="M261.7,186.4c-0.1,0.1,0,0.2,0,0.2l0.3,0.1c0.1,0,0.2,0,0.3-0.1l0.9-1.1c0.1-0.1,0-0.2-0.1-0.2l-0.3-0.1
							c-0.1,0-0.2,0-0.3,0.1L261.7,186.4z"/>
					</g>
					<g>
						<path class="st6" d="M260.6,186c-0.1,0.1,0,0.2,0.1,0.2l0.3,0.1c0.1,0,0.2,0,0.3-0.1l0.8-1.1c0.1-0.1,0-0.2-0.1-0.2l-0.3-0.1
							c-0.1,0-0.2,0-0.3,0.1L260.6,186z"/>
					</g>
					<g>
						<path class="st6" d="M259.6,185.6c-0.1,0.1,0,0.2,0.1,0.2l0.3,0.1c0.1,0,0.2,0,0.3-0.1l0.8-1.1c0.1-0.1,0-0.2-0.1-0.2
							l-0.3-0.1c-0.1,0-0.2,0-0.3,0.1L259.6,185.6z"/>
					</g>
					<g>
						<path class="st6" d="M258.6,185.3c-0.1,0.1,0,0.2,0.1,0.2l0.3,0.1c0.1,0,0.2,0,0.3-0.1l0.7-1.2c0.1-0.1,0-0.2-0.1-0.2
							l-0.3-0.1c-0.1,0-0.2,0-0.3,0.1L258.6,185.3z"/>
					</g>
					<g>
						<path class="st6" d="M257.5,185c0,0.1,0,0.2,0.1,0.2l0.3,0.1c0.1,0,0.2,0,0.3-0.1l0.7-1.2c0.1-0.1,0-0.2-0.1-0.2l-0.3-0.1
							c-0.1,0-0.2,0-0.3,0.1L257.5,185z"/>
					</g>
					<g>
						<path class="st6" d="M256.4,184.8c0,0.1,0,0.2,0.1,0.2l0.3,0.1c0.1,0,0.2,0,0.3-0.1l0.6-1.2c0.1-0.1,0-0.2-0.1-0.2l-0.3-0.1
							c-0.1,0-0.2,0-0.3,0.1L256.4,184.8z"/>
					</g>
					<g>
						<path class="st6" d="M255.3,184.6c0,0.1,0,0.2,0.1,0.2l0.3,0.1c0.1,0,0.2-0.1,0.3-0.1l0.6-1.2c0-0.1,0-0.2-0.1-0.2l-0.3-0.1
							c-0.1,0-0.2,0-0.3,0.1L255.3,184.6z"/>
					</g>
					<g>
						<path class="st6" d="M254.3,184.5c0,0.1,0,0.2,0.1,0.2l0.3,0c0.1,0,0.2-0.1,0.3-0.2l0.5-1.3c0-0.1,0-0.2-0.1-0.2l-0.3,0
							c-0.1,0-0.2,0.1-0.3,0.2L254.3,184.5z"/>
					</g>
					<g>
						<path class="st6" d="M253.2,184.4c0,0.1,0,0.2,0.1,0.2l0.3,0c0.1,0,0.2-0.1,0.2-0.2l0.5-1.3c0-0.1,0-0.2-0.1-0.2l-0.3,0
							c-0.1,0-0.2,0.1-0.3,0.2L253.2,184.4z"/>
					</g>
					<g>
						<path class="st6" d="M252.1,184.3c0,0.1,0,0.2,0.1,0.2l0.3,0c0.1,0,0.2-0.1,0.2-0.2l0.4-1.3c0-0.1,0-0.2-0.1-0.2l-0.4,0
							c-0.1,0-0.2,0.1-0.2,0.2L252.1,184.3z"/>
					</g>
					<g>
						<path class="st6" d="M251,184.3c0,0.1,0,0.2,0.1,0.2l0.3,0c0.1,0,0.2-0.1,0.2-0.2l0.4-1.3c0-0.1,0-0.2-0.1-0.2l-0.4,0
							c-0.1,0-0.2,0.1-0.2,0.2L251,184.3z"/>
					</g>
					<g>
						<path class="st6" d="M249.9,184.4c0,0.1,0,0.2,0.1,0.2l0.3,0c0.1,0,0.2-0.1,0.2-0.2l0.3-1.3c0-0.1,0-0.2-0.1-0.2l-0.4,0
							c-0.1,0-0.2,0.1-0.2,0.2L249.9,184.4z"/>
					</g>
					<g>
						<path class="st6" d="M248.8,184.4c0,0.1,0,0.2,0.1,0.2l0.3,0c0.1,0,0.2-0.1,0.2-0.2l0.3-1.3c0-0.1,0-0.2-0.1-0.2l-0.4,0
							c-0.1,0-0.2,0.1-0.2,0.2L248.8,184.4z"/>
					</g>
					<g>
						<path class="st6" d="M247.7,184.6c0,0.1,0.1,0.2,0.2,0.2l0.3,0c0.1,0,0.2-0.1,0.2-0.2l0.2-1.3c0-0.1-0.1-0.2-0.2-0.2l-0.3,0
							c-0.1,0-0.2,0.1-0.2,0.2L247.7,184.6z"/>
					</g>
					<g>
						<path class="st6" d="M246.6,184.7c0,0.1,0.1,0.2,0.2,0.2l0.3-0.1c0.1,0,0.2-0.1,0.2-0.2l0.2-1.4c0-0.1-0.1-0.2-0.2-0.2l-0.3,0
							c-0.1,0-0.2,0.1-0.2,0.2L246.6,184.7z"/>
					</g>
					<g>
						<path class="st6" d="M245.5,184.9c0,0.1,0.1,0.2,0.2,0.2l0.3-0.1c0.1,0,0.2-0.1,0.2-0.2l0.1-1.4c0-0.1-0.1-0.2-0.2-0.2
							l-0.3,0.1c-0.1,0-0.2,0.1-0.2,0.2L245.5,184.9z"/>
					</g>
					<g>
						<path class="st6" d="M246.4,183.5c0-0.1-0.1-0.2-0.2-0.2l-0.3,0.1c-0.1,0-0.2,0.1-0.2,0.2l-0.1,1.4c0,0.1,0.1,0.2,0.2,0.2
							l0.3-0.1c0.1,0,0.2-0.1,0.2-0.2L246.4,183.5z"/>
					</g>
					<g>
						<path class="st6" d="M247.5,183.3c0-0.1-0.1-0.2-0.2-0.2l-0.3,0.1c-0.1,0-0.2,0.1-0.2,0.2l-0.1,1.4c0,0.1,0.1,0.2,0.2,0.2
							l0.3-0.1c0.1,0,0.2-0.1,0.2-0.2L247.5,183.3z"/>
					</g>
					<g>
						<path class="st6" d="M248.6,183.1c0-0.1-0.1-0.2-0.2-0.2l-0.3,0.1c-0.1,0-0.2,0.1-0.2,0.2l-0.1,1.4c0,0.1,0.1,0.2,0.2,0.2
							l0.3-0.1c0.1,0,0.2-0.1,0.2-0.2L248.6,183.1z"/>
					</g>
					<g>
						<path class="st6" d="M249.7,182.9c0-0.1-0.1-0.2-0.2-0.2l-0.3,0.1c-0.1,0-0.2,0.1-0.2,0.2l-0.1,1.4c0,0.1,0.1,0.2,0.2,0.2
							l0.3-0.1c0.1,0,0.2-0.1,0.2-0.2L249.7,182.9z"/>
					</g>
					<g>
						<path class="st6" d="M250.8,182.6c0-0.1-0.1-0.2-0.2-0.2l-0.3,0.1c-0.1,0-0.2,0.1-0.2,0.2l-0.1,1.4c0,0.1,0.1,0.2,0.2,0.2
							l0.3-0.1c0.1,0,0.2-0.1,0.2-0.2L250.8,182.6z"/>
					</g>
					<g>
						<path class="st6" d="M252,182.4c0-0.1-0.1-0.2-0.2-0.2l-0.3,0.1c-0.1,0-0.2,0.1-0.2,0.2l-0.1,1.4c0,0.1,0.1,0.2,0.2,0.2
							l0.3-0.1c0.1,0,0.2-0.1,0.2-0.2L252,182.4z"/>
					</g>
					<g>
						<path class="st6" d="M253.1,182.1c0-0.1-0.1-0.2-0.2-0.2l-0.3,0.1c-0.1,0-0.2,0.1-0.2,0.2l-0.1,1.4c0,0.1,0.1,0.2,0.2,0.2
							l0.3-0.1c0.1,0,0.2-0.1,0.2-0.2L253.1,182.1z"/>
					</g>
					<g>
						<path class="st6" d="M254.2,181.9c0-0.1-0.1-0.2-0.2-0.1l-0.3,0.1c-0.1,0-0.2,0.1-0.2,0.2l0,1.4c0,0.1,0.1,0.2,0.2,0.2
							l0.3-0.1c0.1,0,0.2-0.1,0.2-0.2L254.2,181.9z"/>
					</g>
					<g>
						<path class="st6" d="M255.3,181.6c0-0.1-0.1-0.2-0.2-0.1l-0.3,0.1c-0.1,0-0.2,0.1-0.2,0.2l0,1.4c0,0.1,0.1,0.2,0.2,0.1
							l0.3-0.1c0.1,0,0.2-0.1,0.2-0.2L255.3,181.6z"/>
					</g>
					<g>
						<path class="st6" d="M256.4,181.3c0-0.1-0.1-0.2-0.2-0.1l-0.3,0.1c-0.1,0-0.2,0.1-0.2,0.2l0,1.4c0,0.1,0.1,0.2,0.2,0.1
							l0.3-0.1c0.1,0,0.2-0.1,0.2-0.2L256.4,181.3z"/>
					</g>
					<g>
						<path class="st6" d="M257.5,181c0-0.1-0.1-0.2-0.2-0.1l-0.3,0.1c-0.1,0-0.2,0.1-0.2,0.2l0,1.4c0,0.1,0.1,0.2,0.2,0.1l0.3-0.1
							c0.1,0,0.2-0.1,0.2-0.2L257.5,181z"/>
					</g>
					<g>
						<path class="st6" d="M258.6,180.6c0-0.1-0.1-0.2-0.2-0.1l-0.3,0.1c-0.1,0-0.2,0.1-0.2,0.2l0,1.4c0,0.1,0.1,0.2,0.2,0.1
							l0.3-0.1c0.1,0,0.2-0.1,0.2-0.2L258.6,180.6z"/>
					</g>
					<g>
						<path class="st6" d="M259.7,180.3c0-0.1-0.1-0.2-0.2-0.1l-0.3,0.1c-0.1,0-0.2,0.1-0.2,0.2l0,1.4c0,0.1,0.1,0.2,0.2,0.1
							l0.3-0.1c0.1,0,0.2-0.1,0.2-0.3L259.7,180.3z"/>
					</g>
					<g>
						<path class="st6" d="M260.8,180c0-0.1-0.1-0.2-0.2-0.1l-0.3,0.1c-0.1,0-0.2,0.1-0.2,0.3l0.1,1.4c0,0.1,0.1,0.2,0.2,0.1
							l0.3-0.1c0.1,0,0.2-0.1,0.2-0.3L260.8,180z"/>
					</g>
					<g>
						<path class="st6" d="M261.8,179.6c0-0.1-0.1-0.2-0.2-0.1l-0.3,0.1c-0.1,0-0.2,0.1-0.2,0.3l0.1,1.4c0,0.1,0.1,0.2,0.2,0.1
							l0.3-0.1c0.1,0,0.2-0.2,0.2-0.3L261.8,179.6z"/>
					</g>
					<g>
						<path class="st6" d="M262.8,179.1c0-0.1-0.1-0.2-0.2-0.1l-0.3,0.1c-0.1,0-0.2,0.2-0.1,0.3l0.2,1.4c0,0.1,0.1,0.2,0.2,0.1
							l0.3-0.1c0.1,0,0.2-0.2,0.2-0.3c0,0-0.1-0.3-0.1-0.7C262.9,179.5,262.8,179.1,262.8,179.1z"/>
					</g>
					<g>
						<path class="st6" d="M263.8,178.6c0-0.1-0.1-0.1-0.2-0.1l-0.3,0.2c-0.1,0-0.1,0.2-0.1,0.3c0,0,0.1,0.3,0.1,0.7
							c0.1,0.3,0.1,0.7,0.1,0.7c0,0.1,0.1,0.2,0.2,0.1l0.3-0.2c0.1-0.1,0.2-0.2,0.1-0.3c0,0-0.1-0.3-0.2-0.7
							C263.9,179,263.8,178.6,263.8,178.6z"/>
					</g>
					<g>
						<path class="st6" d="M264.7,178.1c0-0.1-0.1-0.1-0.2-0.1l-0.3,0.2c-0.1,0.1-0.1,0.2-0.1,0.3c0,0,0.1,0.3,0.2,0.7
							c0.1,0.3,0.2,0.7,0.2,0.7c0,0.1,0.1,0.1,0.2,0.1l0.3-0.2c0.1-0.1,0.1-0.2,0.1-0.3c0,0-0.1-0.3-0.2-0.6
							C264.8,178.4,264.7,178.1,264.7,178.1z"/>
					</g>
					<g>
						<path class="st6" d="M265.6,177.4c0-0.1-0.1-0.1-0.2-0.1l-0.2,0.2c-0.1,0.1-0.1,0.2-0.1,0.3c0,0,0.1,0.3,0.3,0.6
							c0.1,0.3,0.2,0.6,0.2,0.6c0,0.1,0.1,0.1,0.2,0.1l0.3-0.2c0.1-0.1,0.1-0.2,0.1-0.3c0,0-0.1-0.3-0.3-0.6
							C265.7,177.7,265.6,177.4,265.6,177.4z"/>
					</g>
					<g>
						<path class="st6" d="M266.3,176.6c-0.1-0.1-0.2-0.1-0.2,0c0,0-0.2,0.2-0.2,0.2c-0.1,0.1-0.1,0.2,0,0.3c0,0,0.2,0.3,0.3,0.6
							c0.2,0.3,0.3,0.6,0.3,0.6c0,0.1,0.2,0.1,0.2,0l0.3-0.3c0.1-0.1,0.1-0.2,0-0.3c0,0-0.2-0.3-0.4-0.6
							C266.5,176.9,266.3,176.6,266.3,176.6z"/>
					</g>
					<g>
						<path class="st6" d="M266.9,175.8c-0.1-0.1-0.2-0.1-0.2,0c0,0-0.2,0.3-0.2,0.3c-0.1,0.1,0,0.2,0,0.3c0,0,0.2,0.3,0.4,0.5
							c0.2,0.3,0.4,0.6,0.4,0.6c0.1,0.1,0.2,0.1,0.2,0l0.2-0.3c0.1-0.1,0.1-0.2,0-0.3c0,0-0.2-0.3-0.5-0.5
							C267.1,176,266.9,175.8,266.9,175.8z"/>
					</g>
					<g>
						<path class="st6" d="M267.3,174.9c-0.1-0.1-0.2,0-0.2,0.1c0,0-0.1,0.3-0.1,0.3c0,0.1,0,0.2,0.1,0.3c0,0,0.3,0.2,0.5,0.4
							c0.2,0.2,0.5,0.5,0.5,0.5c0.1,0.1,0.2,0.1,0.2,0c0,0,0.2-0.4,0.2-0.4c0-0.1,0-0.3-0.1-0.3c0,0-0.3-0.2-0.5-0.4
							C267.6,175,267.3,174.9,267.3,174.9z"/>
					</g>
					<g>
						<path class="st6" d="M267.6,173.9c-0.1,0-0.2,0-0.2,0.1l-0.1,0.3c0,0.1,0,0.2,0.1,0.3c0,0,0.3,0.2,0.6,0.3
							c0.3,0.2,0.6,0.4,0.6,0.4c0.1,0.1,0.2,0,0.2-0.1l0.1-0.4c0-0.1,0-0.3-0.1-0.3c0,0-0.3-0.2-0.6-0.3
							C267.9,174,267.6,173.9,267.6,173.9z"/>
					</g>
					<g>
						<path class="st6" d="M267.7,172.8c-0.1,0-0.2,0-0.2,0.1l0,0.3c0,0.1,0.1,0.2,0.2,0.2c0,0,0.3,0.1,0.6,0.2
							c0.3,0.1,0.6,0.3,0.6,0.3c0.1,0,0.2,0,0.2-0.1l0-0.4c0-0.1-0.1-0.2-0.2-0.3c0,0-0.3-0.1-0.6-0.2
							C268,172.9,267.7,172.8,267.7,172.8z"/>
					</g>
					<g>
						<path class="st6" d="M267.6,171.7c-0.1,0-0.2,0-0.2,0.1l0,0.3c0,0.1,0.1,0.2,0.2,0.2c0,0,0.3,0.1,0.7,0.2
							c0.3,0.1,0.7,0.2,0.7,0.2c0.1,0,0.2,0,0.2-0.1l0-0.4c0-0.1-0.1-0.2-0.2-0.2c0,0-0.3-0.1-0.7-0.1
							C268,171.8,267.6,171.7,267.6,171.7z"/>
					</g>
					<g>
						<path class="st6" d="M267.5,170.6c-0.1,0-0.2,0.1-0.2,0.2l0.1,0.3c0,0.1,0.1,0.2,0.2,0.2c0,0,0.3,0.1,0.7,0.1
							c0.3,0.1,0.7,0.1,0.7,0.1c0.1,0,0.2-0.1,0.2-0.2l0-0.4c0-0.1-0.1-0.2-0.2-0.2c0,0-0.3,0-0.7-0.1
							C267.8,170.7,267.5,170.6,267.5,170.6z"/>
					</g>
					<g>
						<path class="st6" d="M267.3,169.5c-0.1,0-0.2,0.1-0.2,0.2l0.1,0.3c0,0.1,0.1,0.2,0.2,0.2c0,0,0.3,0,0.7,0.1
							c0.3,0,0.7,0.1,0.7,0.1c0.1,0,0.2-0.1,0.2-0.2l-0.1-0.4c0-0.1-0.1-0.2-0.2-0.2c0,0-0.3,0-0.7,0
							C267.6,169.6,267.3,169.5,267.3,169.5z"/>
					</g>
					<g>
						<path class="st6" d="M267,168.5c-0.1,0-0.2,0.1-0.1,0.2l0.1,0.3c0,0.1,0.1,0.2,0.2,0.2c0,0,0.3,0,0.7,0c0.3,0,0.7,0,0.7,0
							c0.1,0,0.2-0.1,0.2-0.2l-0.1-0.4c0-0.1-0.1-0.2-0.2-0.2c0,0-0.3,0-0.7,0C267.4,168.5,267,168.5,267,168.5z"/>
					</g>
					<g>
						<path class="st6" d="M266.7,167.4c-0.1,0-0.2,0.1-0.1,0.2l0.1,0.3c0,0.1,0.1,0.2,0.2,0.2c0,0,0.3,0,0.7,0c0.3,0,0.7,0,0.7,0
							c0.1,0,0.2-0.1,0.1-0.2l-0.1-0.3c0-0.1-0.2-0.2-0.3-0.2L266.7,167.4z"/>
					</g>
					<g>
						<path class="st6" d="M266.3,166.4c-0.1,0-0.2,0.1-0.1,0.2l0.1,0.3c0,0.1,0.2,0.2,0.3,0.1l1.4-0.1c0.1,0,0.2-0.1,0.1-0.2
							l-0.1-0.3c0-0.1-0.2-0.2-0.3-0.2L266.3,166.4z"/>
					</g>
					<g>
						<path class="st6" d="M265.8,165.3c-0.1,0-0.2,0.1-0.1,0.2l0.1,0.3c0,0.1,0.2,0.2,0.3,0.1l1.3-0.2c0.1,0,0.2-0.1,0.1-0.2
							l-0.1-0.3c0-0.1-0.2-0.2-0.3-0.1L265.8,165.3z"/>
					</g>
					<g>
						<path class="st6" d="M265.3,164.3c-0.1,0-0.2,0.1-0.1,0.2l0.2,0.3c0,0.1,0.2,0.1,0.3,0.1l1.3-0.2c0.1,0,0.2-0.1,0.1-0.2
							l-0.2-0.3c0-0.1-0.2-0.2-0.3-0.1L265.3,164.3z"/>
					</g>
					<g>
						<path class="st6" d="M264.8,163.4c-0.1,0-0.1,0.1-0.1,0.2l0.2,0.3c0,0.1,0.2,0.1,0.3,0.1l1.3-0.3c0.1,0,0.2-0.1,0.1-0.2
							l-0.2-0.3c-0.1-0.1-0.2-0.1-0.3-0.1L264.8,163.4z"/>
					</g>
					<g>
						<path class="st6" d="M264.2,162.4c-0.1,0-0.1,0.1-0.1,0.2l0.2,0.3c0.1,0.1,0.2,0.1,0.3,0.1l1.3-0.4c0.1,0,0.1-0.1,0.1-0.2
							l-0.2-0.3c-0.1-0.1-0.2-0.1-0.3-0.1L264.2,162.4z"/>
					</g>
					<g>
						<path class="st6" d="M263.6,161.5c-0.1,0-0.1,0.1-0.1,0.2l0.2,0.3c0.1,0.1,0.2,0.1,0.3,0.1l1.3-0.4c0.1,0,0.1-0.1,0.1-0.2
							l-0.2-0.3c-0.1-0.1-0.2-0.1-0.3-0.1L263.6,161.5z"/>
					</g>
					<g>
						<path class="st6" d="M263,160.5c-0.1,0-0.1,0.1-0.1,0.2l0.2,0.3c0.1,0.1,0.2,0.1,0.3,0.1l1.3-0.4c0.1,0,0.1-0.1,0.1-0.2
							l-0.2-0.3c-0.1-0.1-0.2-0.1-0.3-0.1L263,160.5z"/>
					</g>
					<g>
						<path class="st6" d="M262.3,159.6c-0.1,0-0.1,0.1-0.1,0.2l0.2,0.3c0.1,0.1,0.2,0.1,0.3,0.1l1.3-0.5c0.1,0,0.1-0.1,0.1-0.2
							l-0.2-0.3c-0.1-0.1-0.2-0.1-0.3-0.1L262.3,159.6z"/>
					</g>
					<g>
						<path class="st6" d="M261.6,158.7c-0.1,0-0.1,0.1-0.1,0.2l0.2,0.3c0.1,0.1,0.2,0.1,0.3,0.1l1.3-0.5c0.1,0,0.1-0.1,0.1-0.2
							l-0.2-0.3c-0.1-0.1-0.2-0.1-0.3-0.1L261.6,158.7z"/>
					</g>
					<g>
						<path class="st6" d="M260.9,157.8c-0.1,0-0.1,0.1-0.1,0.2l0.2,0.3c0.1,0.1,0.2,0.1,0.3,0.1l1.3-0.5c0.1,0,0.1-0.1,0.1-0.2
							l-0.2-0.3c-0.1-0.1-0.2-0.1-0.3-0.1L260.9,157.8z"/>
					</g>
					<g>
						<path class="st6" d="M260.2,156.9c-0.1,0-0.1,0.1-0.1,0.2l0.2,0.3c0.1,0.1,0.2,0.1,0.3,0.1l1.2-0.6c0.1,0,0.1-0.1,0.1-0.2
							l-0.2-0.3c-0.1-0.1-0.2-0.1-0.3-0.1L260.2,156.9z"/>
					</g>
					<g>
						<path class="st6" d="M259.4,156.1c-0.1,0-0.1,0.1-0.1,0.2l0.2,0.3c0.1,0.1,0.2,0.1,0.3,0.1l1.2-0.6c0.1,0,0.1-0.1,0.1-0.2
							l-0.2-0.3c-0.1-0.1-0.2-0.1-0.3-0.1L259.4,156.1z"/>
					</g>
					<g>
						<path class="st6" d="M258.7,155.2c-0.1,0-0.1,0.1-0.1,0.2l0.2,0.3c0.1,0.1,0.2,0.1,0.3,0.1l1.2-0.6c0.1,0,0.1-0.1,0.1-0.2
							l-0.2-0.3c-0.1-0.1-0.2-0.1-0.3-0.1L258.7,155.2z"/>
					</g>
					<g>
						<path class="st6" d="M258,154.3c-0.1,0-0.1,0.1-0.1,0.2l0.2,0.3c0.1,0.1,0.2,0.1,0.3,0.1l1.2-0.6c0.1,0,0.1-0.1,0.1-0.2
							l-0.2-0.3c-0.1-0.1-0.2-0.1-0.3-0.1L258,154.3z"/>
					</g>
					<g>
						<path class="st6" d="M257.2,153.4c-0.1,0-0.1,0.1-0.1,0.2l0.2,0.3c0.1,0.1,0.2,0.1,0.3,0.1l1.2-0.6c0.1,0,0.1-0.1,0.1-0.2
							l-0.2-0.3c-0.1-0.1-0.2-0.1-0.3-0.1L257.2,153.4z"/>
					</g>
					<g>
						<path class="st6" d="M256.5,152.6c-0.1,0-0.1,0.1-0.1,0.2l0.2,0.3c0.1,0.1,0.2,0.1,0.3,0.1l1.2-0.6c0.1,0,0.1-0.1,0.1-0.2
							L258,152c-0.1-0.1-0.2-0.1-0.3-0.1L256.5,152.6z"/>
					</g>
					<g>
						<path class="st6" d="M255.7,151.7c-0.1,0-0.1,0.1-0.1,0.2l0.2,0.3c0.1,0.1,0.2,0.1,0.3,0.1l1.2-0.6c0.1,0,0.1-0.1,0.1-0.2
							l-0.2-0.3c-0.1-0.1-0.2-0.1-0.3-0.1L255.7,151.7z"/>
					</g>
					<g>
						<path class="st6" d="M255,150.8c-0.1,0-0.1,0.1-0.1,0.2l0.2,0.3c0.1,0.1,0.2,0.1,0.3,0.1l1.2-0.6c0.1,0,0.1-0.1,0.1-0.2
							l-0.2-0.3c-0.1-0.1-0.2-0.1-0.3-0.1L255,150.8z"/>
					</g>
					<g>
						<path class="st6" d="M254.3,149.9c-0.1,0-0.1,0.1-0.1,0.2l0.2,0.3c0.1,0.1,0.2,0.1,0.3,0.1l1.3-0.5c0.1,0,0.1-0.1,0.1-0.2
							l-0.2-0.3c-0.1-0.1-0.2-0.1-0.3-0.1L254.3,149.9z"/>
					</g>
					<g>
						<path class="st6" d="M253.6,148.9c-0.1,0-0.1,0.1-0.1,0.2l0.2,0.3c0.1,0.1,0.2,0.1,0.3,0.1l1.3-0.5c0.1,0,0.1-0.1,0.1-0.2
							l-0.2-0.3c-0.1-0.1-0.2-0.1-0.3-0.1L253.6,148.9z"/>
					</g>
					<g>
						<path class="st6" d="M252.9,148c-0.1,0-0.1,0.1-0.1,0.2l0.2,0.3c0.1,0.1,0.2,0.1,0.3,0.1l1.3-0.5c0.1,0,0.1-0.1,0.1-0.2
							l-0.2-0.3c-0.1-0.1-0.2-0.1-0.3-0.1L252.9,148z"/>
					</g>
					<g>
						<path class="st6" d="M252.3,147c-0.1,0-0.1,0.1-0.1,0.2l0.2,0.3c0.1,0.1,0.2,0.1,0.3,0.1l1.3-0.4c0.1,0,0.1-0.1,0.1-0.2
							l-0.2-0.3c-0.1-0.1-0.2-0.1-0.3-0.1L252.3,147z"/>
					</g>
					<g>
						<path class="st6" d="M251.6,146c-0.1,0-0.1,0.1-0.1,0.2l0.2,0.3c0.1,0.1,0.2,0.1,0.3,0.1l1.3-0.4c0.1,0,0.1-0.1,0.1-0.2
							l-0.2-0.3c-0.1-0.1-0.2-0.1-0.3-0.1L251.6,146z"/>
					</g>
					<g>
						<path class="st6" d="M251.1,145c-0.1,0-0.1,0.1-0.1,0.2l0.2,0.3c0.1,0.1,0.2,0.1,0.3,0.1l1.3-0.4c0.1,0,0.1-0.1,0.1-0.2
							l-0.2-0.3c-0.1-0.1-0.2-0.1-0.3-0.1L251.1,145z"/>
					</g>
					<g>
						<path class="st6" d="M250.5,143.9c-0.1,0-0.2,0.1-0.1,0.2l0.2,0.3c0.1,0.1,0.2,0.2,0.3,0.1l1.3-0.3c0.1,0,0.1-0.1,0.1-0.2
							l-0.2-0.3c0-0.1-0.2-0.1-0.3-0.1L250.5,143.9z"/>
					</g>
					<g>
						<path class="st6" d="M250,142.9c-0.1,0-0.2,0.1-0.1,0.2l0.1,0.3c0,0.1,0.2,0.2,0.3,0.1l1.3-0.2c0.1,0,0.2-0.1,0.1-0.2
							l-0.1-0.3c0-0.1-0.2-0.1-0.3-0.1L250,142.9z"/>
					</g>
					<g>
						<path class="st6" d="M249.6,141.8c-0.1,0-0.2,0.1-0.1,0.2l0.1,0.3c0,0.1,0.2,0.2,0.3,0.2l1.4-0.2c0.1,0,0.2-0.1,0.1-0.2
							l-0.1-0.3c0-0.1-0.2-0.2-0.3-0.1L249.6,141.8z"/>
					</g>
					<g>
						<path class="st6" d="M249.2,140.6c-0.1,0-0.2,0.1-0.1,0.2l0.1,0.3c0,0.1,0.2,0.2,0.3,0.2l1.4-0.1c0.1,0,0.2-0.1,0.1-0.2
							l-0.1-0.3c0-0.1-0.1-0.2-0.3-0.2L249.2,140.6z"/>
					</g>
					<g>
						<path class="st6" d="M248.9,139.5c-0.1,0-0.2,0.1-0.1,0.2l0.1,0.4c0,0.1,0.1,0.2,0.3,0.2l1.4,0c0.1,0,0.2-0.1,0.1-0.2
							l-0.1-0.3c0-0.1-0.1-0.2-0.2-0.2L248.9,139.5z"/>
					</g>
					<g>
						<path class="st6" d="M248.6,138.3c-0.1,0-0.2,0.1-0.2,0.2l0.1,0.4c0,0.1,0.1,0.2,0.2,0.2l1.4,0c0.1,0,0.2-0.1,0.2-0.2
							l-0.1-0.3c0-0.1-0.1-0.2-0.2-0.2L248.6,138.3z"/>
					</g>
					<g>
						<path class="st6" d="M248.4,137.2c-0.1,0-0.2,0.1-0.2,0.2l0,0.4c0,0.1,0.1,0.2,0.2,0.2l1.4,0.1c0.1,0,0.2-0.1,0.2-0.2
							l-0.1-0.3c0-0.1-0.1-0.2-0.2-0.2L248.4,137.2z"/>
					</g>
					<g>
						<path class="st6" d="M248.3,136c-0.1,0-0.2,0-0.2,0.2l0,0.4c0,0.1,0.1,0.2,0.2,0.2l1.4,0.2c0.1,0,0.2-0.1,0.2-0.2l0-0.3
							c0-0.1-0.1-0.2-0.2-0.2L248.3,136z"/>
					</g>
					<g>
						<path class="st6" d="M248.3,134.8c-0.1,0-0.2,0-0.2,0.1l0,0.4c0,0.1,0.1,0.2,0.2,0.2l1.3,0.3c0.1,0,0.2,0,0.2-0.1l0-0.3
							c0-0.1-0.1-0.2-0.2-0.2L248.3,134.8z"/>
					</g>
					<g>
						<path class="st6" d="M248.3,133.6c-0.1,0-0.2,0-0.2,0.1l0,0.4c0,0.1,0.1,0.2,0.2,0.2l1.3,0.3c0.1,0,0.2,0,0.2-0.1l0-0.3
							c0-0.1-0.1-0.2-0.2-0.2L248.3,133.6z"/>
					</g>
					<g>
						<path class="st6" d="M248.4,132.4c-0.1,0-0.2,0-0.2,0.1l0,0.4c0,0.1,0.1,0.2,0.2,0.3c0,0,0.3,0.1,0.6,0.2
							c0.3,0.1,0.7,0.2,0.7,0.2c0.1,0,0.2,0,0.2-0.1l0-0.3c0-0.1-0.1-0.2-0.2-0.2L248.4,132.4z"/>
					</g>
					<g>
						<path class="st6" d="M248.5,131.3c-0.1,0-0.2,0-0.2,0.1l0,0.4c0,0.1,0.1,0.2,0.2,0.3c0,0,0.3,0.1,0.6,0.2
							c0.3,0.1,0.6,0.2,0.6,0.2c0.1,0,0.2,0,0.2-0.1l0-0.3c0-0.1-0.1-0.2-0.2-0.3L248.5,131.3z"/>
					</g>
					<g>
						<path class="st6" d="M248.7,130.1c-0.1,0-0.2,0-0.2,0.1l-0.1,0.4c0,0.1,0,0.2,0.1,0.3c0,0,0.3,0.1,0.6,0.3
							c0.3,0.1,0.6,0.3,0.6,0.3c0.1,0,0.2,0,0.2-0.1l0.1-0.3c0-0.1,0-0.2-0.1-0.3L248.7,130.1z"/>
					</g>
					<g>
						<path class="st6" d="M249,128.9c-0.1-0.1-0.2,0-0.2,0.1l-0.1,0.4c0,0.1,0,0.2,0.1,0.3c0,0,0.3,0.2,0.6,0.3
							c0.3,0.2,0.6,0.3,0.6,0.3c0.1,0,0.2,0,0.2-0.1l0.1-0.3c0-0.1,0-0.2-0.1-0.3L249,128.9z"/>
					</g>
					<g>
						<path class="st6" d="M249.3,127.8c-0.1-0.1-0.2,0-0.2,0.1l-0.1,0.3c0,0.1,0,0.2,0.1,0.3l1.2,0.7c0.1,0.1,0.2,0,0.2-0.1
							l0.1-0.3c0-0.1,0-0.2-0.1-0.3L249.3,127.8z"/>
					</g>
					<g>
						<path class="st6" d="M249.7,126.7c-0.1-0.1-0.2,0-0.2,0.1l-0.1,0.3c0,0.1,0,0.2,0.1,0.3l1.1,0.8c0.1,0.1,0.2,0,0.2-0.1
							l0.1-0.3c0-0.1,0-0.2-0.1-0.3L249.7,126.7z"/>
					</g>
					<g>
						<path class="st6" d="M250.2,125.6c-0.1-0.1-0.2,0-0.2,0.1l-0.1,0.3c0,0.1,0,0.2,0.1,0.3l1.1,0.8c0.1,0.1,0.2,0,0.2-0.1
							l0.1-0.3c0-0.1,0-0.2-0.1-0.3c0,0-0.3-0.2-0.5-0.4C250.4,125.8,250.2,125.6,250.2,125.6z"/>
					</g>
					<g>
						<path class="st6" d="M250.7,124.5c-0.1-0.1-0.2-0.1-0.2,0l-0.2,0.3c0,0.1,0,0.2,0.1,0.3l1,0.9c0.1,0.1,0.2,0,0.2,0l0.1-0.3
							c0-0.1,0-0.2-0.1-0.3c0,0-0.3-0.2-0.5-0.5C250.9,124.7,250.7,124.5,250.7,124.5z"/>
					</g>
					<g>
						<path class="st6" d="M251.2,123.5c-0.1-0.1-0.2-0.1-0.2,0l-0.2,0.3c-0.1,0.1,0,0.2,0,0.3l1,0.9c0.1,0.1,0.2,0.1,0.2,0l0.2-0.3
							c0-0.1,0-0.2-0.1-0.3c0,0-0.2-0.2-0.5-0.5C251.5,123.7,251.2,123.5,251.2,123.5z"/>
					</g>
					<g>
						<path class="st6" d="M251.9,122.5c-0.1-0.1-0.2-0.1-0.2,0l-0.2,0.3c-0.1,0.1,0,0.2,0,0.3l0.9,1c0.1,0.1,0.2,0.1,0.2,0l0.2-0.3
							c0.1-0.1,0-0.2,0-0.3L251.9,122.5z"/>
					</g>
					<g>
						<path class="st6" d="M252.5,121.5c-0.1-0.1-0.2-0.1-0.2,0l-0.2,0.3c-0.1,0.1-0.1,0.2,0,0.3l0.9,1c0.1,0.1,0.2,0.1,0.2,0
							l0.2-0.3c0.1-0.1,0-0.2,0-0.3L252.5,121.5z"/>
					</g>
					<g>
						<path class="st6" d="M253.2,120.6c-0.1-0.1-0.2-0.1-0.2,0l-0.2,0.3c-0.1,0.1-0.1,0.2,0,0.3l0.9,1.1c0.1,0.1,0.2,0.1,0.2,0
							l0.2-0.3c0.1-0.1,0.1-0.2,0-0.3L253.2,120.6z"/>
					</g>
					<g>
						<path class="st6" d="M253.9,119.7c-0.1-0.1-0.2-0.1-0.2,0l-0.2,0.3c-0.1,0.1-0.1,0.2,0,0.3l0.8,1.1c0.1,0.1,0.2,0.1,0.2,0
							l0.2-0.3c0.1-0.1,0.1-0.2,0-0.3L253.9,119.7z"/>
					</g>
					<g>
						<path class="st6" d="M254.6,118.7c-0.1-0.1-0.2-0.1-0.2,0l-0.2,0.3c-0.1,0.1-0.1,0.2,0,0.3l0.8,1.1c0.1,0.1,0.2,0.1,0.2,0
							l0.2-0.3c0.1-0.1,0.1-0.2,0-0.3L254.6,118.7z"/>
					</g>
					<g>
						<path class="st6" d="M255.3,117.8c-0.1-0.1-0.2-0.1-0.2,0l-0.2,0.3c-0.1,0.1-0.1,0.2,0,0.3l0.8,1.1c0.1,0.1,0.2,0.1,0.2,0
							l0.2-0.3c0.1-0.1,0.1-0.2,0-0.3L255.3,117.8z"/>
					</g>
					<g>
						<path class="st6" d="M256,116.9c-0.1-0.1-0.2-0.1-0.2,0l-0.2,0.3c-0.1,0.1-0.1,0.2,0,0.3l0.9,1.1c0.1,0.1,0.2,0.1,0.2,0
							l0.2-0.3c0.1-0.1,0.1-0.2,0-0.3L256,116.9z"/>
					</g>
					<g>
						<path class="st6" d="M256.6,116c-0.1-0.1-0.2-0.1-0.2,0l-0.2,0.3c-0.1,0.1,0,0.2,0,0.3l0.9,1c0.1,0.1,0.2,0.1,0.2,0l0.2-0.3
							c0.1-0.1,0-0.2,0-0.3L256.6,116z"/>
					</g>
					<g>
						<path class="st6" d="M257.2,115c-0.1-0.1-0.2-0.1-0.2,0l-0.2,0.3c-0.1,0.1,0,0.2,0,0.3l0.9,1c0.1,0.1,0.2,0.1,0.2,0l0.2-0.3
							c0.1-0.1,0-0.2,0-0.3L257.2,115z"/>
					</g>
					<g>
						<path class="st6" d="M257.7,114.1c-0.1-0.1-0.2-0.1-0.2,0l-0.2,0.3c0,0.1,0,0.2,0.1,0.3c0,0,0.2,0.2,0.5,0.5
							c0.2,0.2,0.5,0.5,0.5,0.5c0.1,0.1,0.2,0.1,0.2,0l0.2-0.3c0.1-0.1,0-0.2,0-0.3c0,0-0.3-0.2-0.5-0.5
							C257.9,114.3,257.7,114.1,257.7,114.1z"/>
					</g>
					<g>
						<path class="st6" d="M258.1,113c-0.1-0.1-0.2,0-0.2,0.1l-0.1,0.3c0,0.1,0,0.2,0.1,0.3c0,0,0.3,0.2,0.5,0.4
							c0.3,0.2,0.5,0.4,0.5,0.4c0.1,0.1,0.2,0,0.2-0.1l0.2-0.3c0-0.1,0-0.2-0.1-0.3c0,0-0.3-0.2-0.5-0.4
							C258.4,113.2,258.1,113,258.1,113z"/>
					</g>
					<g>
						<path class="st6" d="M258.5,112c-0.1-0.1-0.2,0-0.2,0.1l-0.1,0.3c0,0.1,0,0.2,0.1,0.3c0,0,0.3,0.2,0.6,0.4
							c0.3,0.2,0.5,0.4,0.5,0.4c0.1,0.1,0.2,0,0.2-0.1l0.1-0.4c0-0.1,0-0.2-0.1-0.3c0,0-0.3-0.2-0.6-0.4
							C258.8,112.2,258.5,112,258.5,112z"/>
					</g>
				</g>
			</g>
		</g>
		<g id="XMLID_8730_">
			<g>
				<g>
					<g>
						<path class="st7" d="M258.2,112.9c-0.1,0-0.2-0.1-0.1-0.2c0,0,0.1-0.3,0.1-0.3c0-0.1,0.1-0.2,0.2-0.2c0,0,0.3,0,0.7,0
							c0.3,0,0.7,0,0.7,0c0.1,0,0.2,0.1,0.1,0.2l-0.1,0.4c0,0.1-0.1,0.2-0.3,0.2c0,0-0.3,0-0.7,0C258.5,113,258.2,112.9,258.2,112.9
							z"/>
					</g>
					<g>
						<path class="st7" d="M257.8,113.9c-0.1,0-0.2-0.1-0.1-0.2l0.1-0.3c0-0.1,0.1-0.2,0.3-0.1c0,0,0.3,0,0.7,0.1
							c0.3,0,0.7,0.1,0.7,0.1c0.1,0,0.2,0.1,0.1,0.2l-0.1,0.3c0,0.1-0.2,0.2-0.3,0.2c0,0-0.3-0.1-0.7-0.1
							C258.1,114,257.8,113.9,257.8,113.9z"/>
					</g>
					<g>
						<path class="st7" d="M257.3,114.8c-0.1,0-0.1-0.1-0.1-0.2l0.2-0.3c0-0.1,0.2-0.1,0.3-0.1c0,0,0.3,0.1,0.7,0.1
							c0.3,0.1,0.7,0.1,0.7,0.1c0.1,0,0.2,0.1,0.1,0.2l-0.2,0.3c-0.1,0.1-0.2,0.2-0.3,0.1c0,0-0.3-0.1-0.7-0.2
							C257.6,114.9,257.3,114.8,257.3,114.8z"/>
					</g>
					<g>
						<path class="st7" d="M256.7,115.8c-0.1,0-0.1-0.1-0.1-0.2l0.2-0.3c0.1-0.1,0.2-0.1,0.3-0.1c0,0,0.3,0.1,0.7,0.2
							c0.3,0.1,0.7,0.2,0.7,0.2c0.1,0,0.1,0.1,0.1,0.2l-0.2,0.3c-0.1,0.1-0.2,0.1-0.3,0.1L256.7,115.8z"/>
					</g>
					<g>
						<path class="st7" d="M256.1,116.7c-0.1,0-0.1-0.1-0.1-0.2l0.2-0.3c0.1-0.1,0.2-0.1,0.3-0.1l1.3,0.4c0.1,0,0.1,0.1,0.1,0.2
							l-0.2,0.3c-0.1,0.1-0.2,0.1-0.3,0.1L256.1,116.7z"/>
					</g>
					<g>
						<path class="st7" d="M255.5,117.5c-0.1,0-0.1-0.1-0.1-0.2l0.2-0.3c0.1-0.1,0.2-0.1,0.3-0.1l1.3,0.5c0.1,0,0.1,0.1,0.1,0.2
							l-0.2,0.3c-0.1,0.1-0.2,0.1-0.3,0.1L255.5,117.5z"/>
					</g>
					<g>
						<path class="st7" d="M254.9,118.4c-0.1,0-0.1-0.1-0.1-0.2l0.2-0.3c0.1-0.1,0.2-0.1,0.3-0.1l1.3,0.5c0.1,0,0.1,0.1,0.1,0.2
							l-0.2,0.3c-0.1,0.1-0.2,0.1-0.3,0.1L254.9,118.4z"/>
					</g>
					<g>
						<path class="st7" d="M254.2,119.3c-0.1,0-0.1-0.1-0.1-0.2l0.2-0.3c0.1-0.1,0.2-0.1,0.3-0.1l1.3,0.5c0.1,0,0.1,0.1,0.1,0.2
							l-0.2,0.3c-0.1,0.1-0.2,0.1-0.3,0.1L254.2,119.3z"/>
					</g>
					<g>
						<path class="st7" d="M253.6,120.2c-0.1,0-0.1-0.1-0.1-0.2l0.2-0.3c0.1-0.1,0.2-0.1,0.3-0.1l1.3,0.5c0.1,0,0.1,0.1,0.1,0.2
							l-0.2,0.3c-0.1,0.1-0.2,0.1-0.3,0.1L253.6,120.2z"/>
					</g>
					<g>
						<path class="st7" d="M252.9,121c-0.1,0-0.1-0.1-0.1-0.2l0.2-0.3c0.1-0.1,0.2-0.1,0.3-0.1l1.3,0.5c0.1,0,0.1,0.1,0.1,0.2
							l-0.2,0.3c-0.1,0.1-0.2,0.1-0.3,0.1L252.9,121z"/>
					</g>
					<g>
						<path class="st7" d="M252.2,121.9c-0.1,0-0.1-0.1-0.1-0.2l0.2-0.3c0.1-0.1,0.2-0.1,0.3-0.1l1.3,0.5c0.1,0,0.1,0.1,0.1,0.2
							l-0.2,0.3c-0.1,0.1-0.2,0.1-0.3,0.1L252.2,121.9z"/>
					</g>
					<g>
						<path class="st7" d="M251.6,122.9c-0.1,0-0.1-0.1-0.1-0.2l0.2-0.3c0.1-0.1,0.2-0.1,0.3-0.1l1.3,0.5c0.1,0,0.1,0.1,0.1,0.2
							l-0.2,0.3c-0.1,0.1-0.2,0.1-0.3,0.1L251.6,122.9z"/>
					</g>
					<g>
						<path class="st7" d="M251,123.8c-0.1,0-0.1-0.1-0.1-0.2l0.2-0.3c0.1-0.1,0.2-0.1,0.3-0.1l1.3,0.4c0.1,0,0.1,0.1,0.1,0.2
							l-0.2,0.3c-0.1,0.1-0.2,0.1-0.3,0.1c0,0-0.3-0.1-0.7-0.2C251.4,123.9,251,123.8,251,123.8z"/>
					</g>
					<g>
						<path class="st7" d="M250.5,124.8c-0.1,0-0.2-0.1-0.1-0.2l0.2-0.3c0.1-0.1,0.2-0.2,0.3-0.1l1.3,0.3c0.1,0,0.1,0.1,0.1,0.2
							l-0.2,0.3c0,0.1-0.2,0.1-0.3,0.1c0,0-0.3-0.1-0.7-0.1C250.8,124.9,250.5,124.8,250.5,124.8z"/>
					</g>
					<g>
						<path class="st7" d="M250,125.9c-0.1,0-0.2-0.1-0.1-0.2l0.1-0.3c0-0.1,0.2-0.2,0.3-0.1l1.3,0.3c0.1,0,0.2,0.1,0.1,0.2
							l-0.1,0.3c0,0.1-0.2,0.1-0.3,0.1c0,0-0.3-0.1-0.7-0.1C250.4,125.9,250,125.9,250,125.9z"/>
					</g>
					<g>
						<path class="st7" d="M249.6,126.9c-0.1,0-0.2-0.1-0.1-0.2l0.1-0.3c0-0.1,0.2-0.2,0.3-0.2l1.3,0.2c0.1,0,0.2,0.1,0.1,0.2
							l-0.1,0.3c0,0.1-0.2,0.2-0.3,0.1c0,0-0.3,0-0.7-0.1C249.9,127,249.6,126.9,249.6,126.9z"/>
					</g>
					<g>
						<path class="st7" d="M249.2,128c-0.1,0-0.2-0.1-0.1-0.2l0.1-0.3c0-0.1,0.2-0.2,0.3-0.2l1.4,0.1c0.1,0,0.2,0.1,0.1,0.2
							l-0.1,0.3c0,0.1-0.1,0.2-0.3,0.2c0,0-0.3,0-0.7,0C249.6,128,249.2,128,249.2,128z"/>
					</g>
					<g>
						<path class="st7" d="M248.9,129.1c-0.1,0-0.2-0.1-0.1-0.2l0.1-0.3c0-0.1,0.1-0.2,0.3-0.2l1.4,0c0.1,0,0.2,0.1,0.1,0.2
							l-0.1,0.3c0,0.1-0.1,0.2-0.2,0.2c0,0-0.3,0-0.7,0C249.3,129.1,248.9,129.1,248.9,129.1z"/>
					</g>
					<g>
						<path class="st7" d="M248.7,130.2c-0.1,0-0.2-0.1-0.2-0.2l0.1-0.4c0-0.1,0.1-0.2,0.2-0.2l1.4,0c0.1,0,0.2,0.1,0.2,0.2
							l-0.1,0.3c0,0.1-0.1,0.2-0.2,0.2c0,0-0.3,0-0.7,0C249,130.2,248.7,130.2,248.7,130.2z"/>
					</g>
					<g>
						<path class="st7" d="M248.5,131.3c-0.1,0-0.2-0.1-0.2-0.2l0.1-0.4c0-0.1,0.1-0.2,0.2-0.2l1.4-0.1c0.1,0,0.2,0.1,0.2,0.2
							l-0.1,0.3c0,0.1-0.1,0.2-0.2,0.2c0,0-0.3,0-0.7,0.1C248.8,131.3,248.5,131.3,248.5,131.3z"/>
					</g>
					<g>
						<path class="st7" d="M248.4,132.4c-0.1,0-0.2-0.1-0.2-0.2l0-0.4c0-0.1,0.1-0.2,0.2-0.2l1.3-0.2c0.1,0,0.2,0.1,0.2,0.2l0,0.3
							c0,0.1-0.1,0.2-0.2,0.2c0,0-0.3,0.1-0.7,0.1C248.7,132.4,248.4,132.4,248.4,132.4z"/>
					</g>
					<g>
						<path class="st7" d="M248.3,133.6c-0.1,0-0.2,0-0.2-0.2l0-0.4c0-0.1,0.1-0.2,0.2-0.2l1.3-0.2c0.1,0,0.2,0,0.2,0.1l0,0.3
							c0,0.1-0.1,0.2-0.2,0.2c0,0-0.3,0.1-0.7,0.1C248.6,133.5,248.3,133.6,248.3,133.6z"/>
					</g>
					<g>
						<path class="st7" d="M248.3,134.7c-0.1,0-0.2,0-0.2-0.1l0-0.4c0-0.1,0.1-0.2,0.2-0.2l1.3-0.3c0.1,0,0.2,0,0.2,0.1l0,0.3
							c0,0.1-0.1,0.2-0.2,0.2c0,0-0.3,0.1-0.7,0.2C248.6,134.6,248.3,134.7,248.3,134.7z"/>
					</g>
					<g>
						<path class="st7" d="M248.3,135.8c-0.1,0-0.2,0-0.2-0.1l0-0.4c0-0.1,0.1-0.2,0.2-0.3l1.3-0.4c0.1,0,0.2,0,0.2,0.1l0,0.3
							c0,0.1-0.1,0.2-0.2,0.2c0,0-0.3,0.1-0.6,0.2C248.6,135.7,248.3,135.8,248.3,135.8z"/>
					</g>
					<g>
						<path class="st7" d="M248.4,136.9c-0.1,0-0.2,0-0.2-0.1l0-0.4c0-0.1,0.1-0.2,0.2-0.3l1.3-0.4c0.1,0,0.2,0,0.2,0.1l0,0.3
							c0,0.1-0.1,0.2-0.2,0.2c0,0-0.3,0.1-0.6,0.2C248.7,136.8,248.4,136.9,248.4,136.9z"/>
					</g>
					<g>
						<path class="st7" d="M248.6,138.1c-0.1,0-0.2,0-0.2-0.1l-0.1-0.4c0-0.1,0.1-0.2,0.2-0.3l1.3-0.5c0.1,0,0.2,0,0.2,0.1l0,0.3
							c0,0.1-0.1,0.2-0.2,0.3c0,0-0.3,0.1-0.6,0.3C248.9,137.9,248.6,138.1,248.6,138.1z"/>
					</g>
					<g>
						<path class="st7" d="M248.8,139.2c-0.1,0.1-0.2,0-0.2-0.1l-0.1-0.4c0-0.1,0-0.2,0.1-0.3l1.2-0.6c0.1,0,0.2,0,0.2,0.1l0.1,0.3
							c0,0.1,0,0.2-0.1,0.3c0,0-0.3,0.2-0.6,0.3C249.1,139,248.8,139.2,248.8,139.2z"/>
					</g>
					<g>
						<path class="st7" d="M249.1,140.3c-0.1,0.1-0.2,0-0.2-0.1l-0.1-0.3c0-0.1,0-0.2,0.1-0.3l1.2-0.6c0.1,0,0.2,0,0.2,0.1l0.1,0.3
							c0,0.1,0,0.2-0.1,0.3c0,0-0.3,0.2-0.6,0.3C249.4,140.1,249.1,140.3,249.1,140.3z"/>
					</g>
					<g>
						<path class="st7" d="M249.4,141.4c-0.1,0.1-0.2,0-0.2-0.1l-0.1-0.3c0-0.1,0-0.2,0.1-0.3l1.2-0.7c0.1-0.1,0.2,0,0.2,0.1
							l0.1,0.3c0,0.1,0,0.2-0.1,0.3c0,0-0.3,0.2-0.6,0.4C249.7,141.2,249.4,141.4,249.4,141.4z"/>
					</g>
					<g>
						<path class="st7" d="M249.8,142.4c-0.1,0.1-0.2,0-0.2-0.1l-0.1-0.3c0-0.1,0-0.2,0.1-0.3l1.1-0.8c0.1-0.1,0.2,0,0.2,0.1
							l0.1,0.3c0,0.1,0,0.2-0.1,0.3L249.8,142.4z"/>
					</g>
					<g>
						<path class="st7" d="M250.3,143.4c-0.1,0.1-0.2,0-0.2,0l-0.1-0.3c0-0.1,0-0.2,0.1-0.3l1.1-0.8c0.1-0.1,0.2,0,0.2,0.1l0.1,0.3
							c0,0.1,0,0.2-0.1,0.3L250.3,143.4z"/>
					</g>
					<g>
						<path class="st7" d="M250.8,144.5c-0.1,0.1-0.2,0.1-0.2,0l-0.2-0.3c0-0.1,0-0.2,0.1-0.3l1-0.9c0.1-0.1,0.2,0,0.2,0l0.1,0.3
							c0,0.1,0,0.2-0.1,0.3L250.8,144.5z"/>
					</g>
					<g>
						<path class="st7" d="M251.3,145.4c-0.1,0.1-0.2,0.1-0.2,0l-0.2-0.3c-0.1-0.1,0-0.2,0.1-0.3l1-0.9c0.1-0.1,0.2-0.1,0.2,0
							l0.2,0.3c0,0.1,0,0.2-0.1,0.3L251.3,145.4z"/>
					</g>
					<g>
						<path class="st7" d="M251.9,146.4c-0.1,0.1-0.2,0.1-0.2,0l-0.2-0.3c-0.1-0.1,0-0.2,0-0.3l1-1c0.1-0.1,0.2-0.1,0.2,0l0.2,0.3
							c0.1,0.1,0,0.2,0,0.3L251.9,146.4z"/>
					</g>
					<g>
						<path class="st7" d="M252.5,147.4c-0.1,0.1-0.2,0.1-0.2,0l-0.2-0.3c-0.1-0.1,0-0.2,0-0.3l0.9-1c0.1-0.1,0.2-0.1,0.2,0l0.2,0.3
							c0.1,0.1,0,0.2,0,0.3L252.5,147.4z"/>
					</g>
					<g>
						<path class="st7" d="M253.1,148.3c-0.1,0.1-0.2,0.1-0.2,0l-0.2-0.3c-0.1-0.1-0.1-0.2,0-0.3l0.9-1c0.1-0.1,0.2-0.1,0.2,0
							l0.2,0.3c0.1,0.1,0,0.2,0,0.3L253.1,148.3z"/>
					</g>
					<g>
						<path class="st7" d="M253.8,149.2c-0.1,0.1-0.2,0.1-0.2,0l-0.2-0.3c-0.1-0.1-0.1-0.2,0-0.3l0.9-1c0.1-0.1,0.2-0.1,0.2,0
							l0.2,0.3c0.1,0.1,0.1,0.2,0,0.3L253.8,149.2z"/>
					</g>
					<g>
						<path class="st7" d="M254.4,150.1c-0.1,0.1-0.2,0.1-0.2,0l-0.2-0.3c-0.1-0.1-0.1-0.2,0-0.3l0.8-1.1c0.1-0.1,0.2-0.1,0.2,0
							l0.2,0.3c0.1,0.1,0.1,0.2,0,0.3L254.4,150.1z"/>
					</g>
					<g>
						<path class="st7" d="M255.1,150.9c-0.1,0.1-0.2,0.1-0.2,0l-0.2-0.3c-0.1-0.1-0.1-0.2,0-0.3l0.8-1.1c0.1-0.1,0.2-0.1,0.2,0
							l0.2,0.3c0.1,0.1,0.1,0.2,0,0.3L255.1,150.9z"/>
					</g>
					<g>
						<path class="st7" d="M255.8,151.8c-0.1,0.1-0.2,0.1-0.2,0l-0.2-0.3c-0.1-0.1-0.1-0.2,0-0.3l0.8-1.1c0.1-0.1,0.2-0.1,0.2,0
							l0.2,0.3c0.1,0.1,0.1,0.2,0,0.3L255.8,151.8z"/>
					</g>
					<g>
						<path class="st7" d="M256.5,152.6c-0.1,0.1-0.2,0.1-0.2,0l-0.2-0.3c-0.1-0.1-0.1-0.2,0-0.3l0.8-1.1c0.1-0.1,0.2-0.1,0.2,0
							l0.2,0.3c0.1,0.1,0.1,0.2,0,0.3L256.5,152.6z"/>
					</g>
					<g>
						<path class="st7" d="M257.2,153.5c-0.1,0.1-0.2,0.1-0.2,0l-0.2-0.3c-0.1-0.1-0.1-0.2,0-0.3l0.8-1.1c0.1-0.1,0.2-0.1,0.2,0
							l0.2,0.3c0.1,0.1,0.1,0.2,0,0.3L257.2,153.5z"/>
					</g>
					<g>
						<path class="st7" d="M258,154.3c-0.1,0.1-0.2,0.1-0.2,0l-0.2-0.3c-0.1-0.1-0.1-0.2,0-0.3l0.8-1.1c0.1-0.1,0.2-0.1,0.2,0
							l0.2,0.3c0.1,0.1,0.1,0.2,0,0.3L258,154.3z"/>
					</g>
					<g>
						<path class="st7" d="M258.7,155.2c-0.1,0.1-0.2,0.1-0.2,0l-0.2-0.3c-0.1-0.1-0.1-0.2,0-0.3l0.8-1.1c0.1-0.1,0.2-0.1,0.2,0
							l0.2,0.3c0.1,0.1,0.1,0.2,0,0.3L258.7,155.2z"/>
					</g>
					<g>
						<path class="st7" d="M259.4,156c-0.1,0.1-0.2,0.1-0.2,0l-0.2-0.3c-0.1-0.1-0.1-0.2,0-0.3l0.8-1.1c0.1-0.1,0.2-0.1,0.2,0
							l0.2,0.3c0.1,0.1,0.1,0.2,0,0.3L259.4,156z"/>
					</g>
					<g>
						<path class="st7" d="M260.1,156.8c-0.1,0.1-0.2,0.1-0.2,0l-0.2-0.3c-0.1-0.1-0.1-0.2,0-0.3l0.8-1.1c0.1-0.1,0.2-0.1,0.2,0
							l0.2,0.3c0.1,0.1,0.1,0.2,0,0.3L260.1,156.8z"/>
					</g>
					<g>
						<path class="st7" d="M260.8,157.7c-0.1,0.1-0.2,0.1-0.2,0l-0.2-0.3c-0.1-0.1-0.1-0.2,0-0.3l0.8-1.1c0.1-0.1,0.2-0.1,0.2,0
							l0.2,0.3c0.1,0.1,0.1,0.2,0,0.3L260.8,157.7z"/>
					</g>
					<g>
						<path class="st7" d="M261.5,158.5c-0.1,0.1-0.2,0.1-0.2,0l-0.2-0.3c-0.1-0.1-0.1-0.2,0-0.3l0.8-1.1c0.1-0.1,0.2-0.1,0.2,0
							l0.2,0.3c0.1,0.1,0.1,0.2,0,0.3L261.5,158.5z"/>
					</g>
					<g>
						<path class="st7" d="M262.1,159.4c-0.1,0.1-0.2,0.1-0.2,0l-0.2-0.3c-0.1-0.1-0.1-0.2,0-0.3l0.8-1.1c0.1-0.1,0.2-0.1,0.2,0
							l0.2,0.3c0.1,0.1,0.1,0.2,0,0.3L262.1,159.4z"/>
					</g>
					<g>
						<path class="st7" d="M262.8,160.2c-0.1,0.1-0.2,0.1-0.2,0l-0.2-0.3c-0.1-0.1-0.1-0.2,0-0.3l0.8-1.1c0.1-0.1,0.2-0.1,0.2,0
							l0.2,0.3c0.1,0.1,0.1,0.2,0,0.3L262.8,160.2z"/>
					</g>
					<g>
						<path class="st7" d="M263.4,161.1c-0.1,0.1-0.2,0.1-0.2,0l-0.2-0.3c-0.1-0.1,0-0.2,0-0.3l0.9-1.1c0.1-0.1,0.2-0.1,0.2,0
							l0.2,0.3c0.1,0.1,0.1,0.2,0,0.3L263.4,161.1z"/>
					</g>
					<g>
						<path class="st7" d="M264,162c-0.1,0.1-0.2,0.1-0.2,0l-0.2-0.3c-0.1-0.1,0-0.2,0-0.3l0.9-1c0.1-0.1,0.2-0.1,0.2,0l0.2,0.3
							c0.1,0.1,0,0.2,0,0.3L264,162z"/>
					</g>
					<g>
						<path class="st7" d="M264.6,162.9c-0.1,0.1-0.2,0.1-0.2,0l-0.2-0.3c-0.1-0.1,0-0.2,0-0.3l0.9-1c0.1-0.1,0.2-0.1,0.2,0l0.2,0.3
							c0.1,0.1,0,0.2,0,0.3L264.6,162.9z"/>
					</g>
					<g>
						<path class="st7" d="M265.1,163.9c-0.1,0.1-0.2,0.1-0.2,0l-0.2-0.3c0-0.1,0-0.2,0-0.3l1-1c0.1-0.1,0.2-0.1,0.2,0l0.2,0.3
							c0.1,0.1,0,0.2,0,0.3L265.1,163.9z"/>
					</g>
					<g>
						<path class="st7" d="M265.6,164.8c-0.1,0.1-0.2,0.1-0.2,0l-0.2-0.3c0-0.1,0-0.2,0.1-0.3l1-0.9c0.1-0.1,0.2-0.1,0.2,0l0.2,0.3
							c0,0.1,0,0.2-0.1,0.3L265.6,164.8z"/>
					</g>
					<g>
						<path class="st7" d="M266,165.8c-0.1,0.1-0.2,0-0.2,0l-0.1-0.3c0-0.1,0-0.2,0.1-0.3l1-0.9c0.1-0.1,0.2-0.1,0.2,0l0.2,0.3
							c0,0.1,0,0.2-0.1,0.3L266,165.8z"/>
					</g>
					<g>
						<path class="st7" d="M266.4,166.8c-0.1,0.1-0.2,0-0.2-0.1l-0.1-0.3c0-0.1,0-0.2,0.1-0.3l1.1-0.8c0.1-0.1,0.2,0,0.2,0.1
							l0.1,0.3c0,0.1,0,0.2-0.1,0.3L266.4,166.8z"/>
					</g>
					<g>
						<path class="st7" d="M266.8,167.8c-0.1,0.1-0.2,0-0.2-0.1l-0.1-0.3c0-0.1,0-0.2,0.1-0.3c0,0,0.3-0.2,0.6-0.4
							c0.3-0.2,0.5-0.4,0.5-0.4c0.1-0.1,0.2,0,0.2,0.1l0.1,0.3c0,0.1,0,0.2-0.1,0.3L266.8,167.8z"/>
					</g>
					<g>
						<path class="st7" d="M267.1,168.8c-0.1,0.1-0.2,0-0.2-0.1l-0.1-0.3c0-0.1,0-0.2,0.1-0.3c0,0,0.3-0.2,0.6-0.4
							c0.3-0.2,0.6-0.4,0.6-0.4c0.1-0.1,0.2,0,0.2,0.1l0.1,0.3c0,0.1,0,0.2-0.1,0.3c0,0-0.3,0.2-0.6,0.4
							C267.4,168.6,267.1,168.8,267.1,168.8z"/>
					</g>
					<g>
						<path class="st7" d="M267.4,169.8c-0.1,0-0.2,0-0.2-0.1l-0.1-0.3c0-0.1,0-0.2,0.1-0.3c0,0,0.3-0.2,0.6-0.3
							c0.3-0.2,0.6-0.3,0.6-0.3c0.1-0.1,0.2,0,0.2,0.1l0.1,0.4c0,0.1,0,0.2-0.1,0.3c0,0-0.3,0.2-0.6,0.3
							C267.7,169.7,267.4,169.8,267.4,169.8z"/>
					</g>
					<g>
						<path class="st7" d="M267.5,170.8c-0.1,0-0.2,0-0.2-0.1l-0.1-0.3c0-0.1,0.1-0.2,0.2-0.3c0,0,0.3-0.1,0.6-0.3
							c0.3-0.2,0.6-0.3,0.6-0.3c0.1,0,0.2,0,0.2,0.1l0.1,0.4c0,0.1,0,0.2-0.1,0.3c0,0-0.3,0.1-0.6,0.3
							C267.8,170.7,267.5,170.8,267.5,170.8z"/>
					</g>
					<g>
						<path class="st7" d="M267.6,171.9c-0.1,0-0.2,0-0.2-0.1l0-0.3c0-0.1,0.1-0.2,0.2-0.2c0,0,0.3-0.1,0.6-0.2
							c0.3-0.1,0.6-0.3,0.6-0.3c0.1,0,0.2,0,0.2,0.1l0,0.4c0,0.1-0.1,0.2-0.2,0.3c0,0-0.3,0.1-0.6,0.2
							C268,171.8,267.6,171.9,267.6,171.9z"/>
					</g>
					<g>
						<path class="st7" d="M267.7,172.9c-0.1,0-0.2,0-0.2-0.1l0-0.3c0-0.1,0.1-0.2,0.2-0.2c0,0,0.3-0.1,0.7-0.2
							c0.3-0.1,0.6-0.2,0.6-0.2c0.1,0,0.2,0,0.2,0.1l0,0.4c0,0.1-0.1,0.2-0.2,0.3c0,0-0.3,0.1-0.7,0.2
							C268,172.8,267.7,172.9,267.7,172.9z"/>
					</g>
					<g>
						<path class="st7" d="M267.5,173.9c-0.1,0-0.2-0.1-0.2-0.2l0-0.3c0-0.1,0.1-0.2,0.2-0.2c0,0,0.3-0.1,0.7-0.1
							c0.3-0.1,0.7-0.1,0.7-0.1c0.1,0,0.2,0,0.2,0.2l0,0.4c0,0.1-0.1,0.2-0.2,0.2c0,0-0.3,0-0.7,0.1
							C267.9,173.9,267.5,173.9,267.5,173.9z"/>
					</g>
					<g>
						<path class="st7" d="M267.3,174.9c-0.1,0-0.2-0.1-0.1-0.2l0.1-0.3c0-0.1,0.1-0.2,0.2-0.2c0,0,0.3,0,0.7,0
							c0.3,0,0.7-0.1,0.7-0.1c0.1,0,0.2,0.1,0.2,0.2l-0.1,0.4c0,0.1-0.1,0.2-0.3,0.2c0,0-0.3,0-0.7,0
							C267.6,174.9,267.3,174.9,267.3,174.9z"/>
					</g>
					<g>
						<path class="st7" d="M266.9,175.8c-0.1,0-0.1-0.1-0.1-0.2c0,0,0.1-0.3,0.1-0.3c0-0.1,0.2-0.1,0.3-0.1c0,0,0.3,0.1,0.7,0.1
							c0.3,0,0.7,0.1,0.7,0.1c0.1,0,0.2,0.1,0.1,0.2c0,0-0.2,0.4-0.2,0.4c0,0.1-0.2,0.2-0.3,0.2c0,0-0.3-0.1-0.7-0.1
							C267.2,175.9,266.9,175.8,266.9,175.8z"/>
					</g>
					<g>
						<path class="st7" d="M266.3,176.6c-0.1,0-0.1-0.1-0.1-0.2l0.2-0.2c0.1-0.1,0.2-0.1,0.3-0.1c0,0,0.3,0.1,0.6,0.2
							c0.3,0.1,0.7,0.2,0.7,0.2c0.1,0,0.1,0.1,0.1,0.2c0,0-0.2,0.3-0.2,0.3c-0.1,0.1-0.2,0.1-0.3,0.1c0,0-0.3-0.1-0.6-0.2
							C266.7,176.7,266.3,176.6,266.3,176.6z"/>
					</g>
					<g>
						<path class="st7" d="M265.7,177.3c-0.1-0.1-0.1-0.2,0-0.2l0.2-0.2c0.1-0.1,0.2-0.1,0.3,0c0,0,0.3,0.2,0.6,0.3
							c0.3,0.1,0.6,0.3,0.6,0.3c0.1,0,0.1,0.1,0,0.2l-0.3,0.3c-0.1,0.1-0.2,0.1-0.3,0.1c0,0-0.3-0.2-0.6-0.3
							C265.9,177.5,265.7,177.3,265.7,177.3z"/>
					</g>
					<g>
						<path class="st7" d="M264.9,178c-0.1-0.1-0.1-0.2,0-0.2l0.3-0.2c0.1-0.1,0.2-0.1,0.3,0c0,0,0.3,0.2,0.6,0.4
							c0.3,0.2,0.6,0.4,0.6,0.4c0.1,0.1,0.1,0.2,0,0.2l-0.3,0.2c-0.1,0.1-0.2,0.1-0.3,0c0,0-0.3-0.2-0.5-0.4
							C265.1,178.2,264.9,178,264.9,178z"/>
					</g>
					<g>
						<path class="st7" d="M264,178.5c-0.1-0.1-0.1-0.2,0-0.2l0.3-0.2c0.1-0.1,0.2,0,0.3,0c0,0,0.3,0.2,0.5,0.4
							c0.3,0.2,0.5,0.4,0.5,0.4c0.1,0.1,0.1,0.2,0,0.2l-0.3,0.2c-0.1,0.1-0.2,0.1-0.3,0c0,0-0.2-0.2-0.5-0.5
							C264.2,178.8,264,178.5,264,178.5z"/>
					</g>
					<g>
						<path class="st7" d="M263.1,179c-0.1-0.1-0.1-0.2,0-0.2l0.3-0.2c0.1,0,0.2,0,0.3,0.1c0,0,0.2,0.2,0.5,0.5
							c0.2,0.2,0.5,0.5,0.5,0.5c0.1,0.1,0.1,0.2,0,0.2l-0.3,0.2c-0.1,0.1-0.2,0-0.3,0c0,0-0.2-0.3-0.5-0.5
							C263.3,179.3,263.1,179,263.1,179z"/>
					</g>
					<g>
						<path class="st7" d="M262.1,179.4c-0.1-0.1,0-0.2,0-0.2l0.3-0.1c0.1,0,0.2,0,0.3,0.1c0,0,0.2,0.3,0.4,0.5
							c0.2,0.3,0.4,0.5,0.4,0.5c0.1,0.1,0.1,0.2,0,0.2l-0.3,0.2c-0.1,0-0.2,0-0.3-0.1L262.1,179.4z"/>
					</g>
					<g>
						<path class="st7" d="M261.1,179.8c-0.1-0.1,0-0.2,0.1-0.2l0.3-0.1c0.1,0,0.2,0,0.3,0.1l0.8,1.1c0.1,0.1,0,0.2-0.1,0.2
							l-0.3,0.1c-0.1,0-0.2,0-0.3-0.1L261.1,179.8z"/>
					</g>
					<g>
						<path class="st7" d="M260.1,180.2c-0.1-0.1,0-0.2,0.1-0.2l0.3-0.1c0.1,0,0.2,0,0.3,0.1l0.8,1.1c0.1,0.1,0,0.2-0.1,0.2
							l-0.3,0.1c-0.1,0-0.2,0-0.3-0.1L260.1,180.2z"/>
					</g>
					<g>
						<path class="st7" d="M259.1,180.5c-0.1-0.1,0-0.2,0.1-0.2l0.3-0.1c0.1,0,0.2,0,0.3,0.1l0.7,1.1c0.1,0.1,0,0.2-0.1,0.2
							l-0.3,0.1c-0.1,0-0.2,0-0.3-0.1L259.1,180.5z"/>
					</g>
					<g>
						<path class="st7" d="M258,180.8c-0.1-0.1,0-0.2,0.1-0.2l0.3-0.1c0.1,0,0.2,0,0.3,0.1l0.7,1.2c0.1,0.1,0,0.2-0.1,0.2l-0.3,0.1
							c-0.1,0-0.2,0-0.3-0.1L258,180.8z"/>
					</g>
					<g>
						<path class="st7" d="M257,181.1c-0.1-0.1,0-0.2,0.1-0.2l0.3-0.1c0.1,0,0.2,0,0.3,0.1l0.7,1.2c0.1,0.1,0,0.2-0.1,0.2l-0.3,0.1
							c-0.1,0-0.2,0-0.3-0.1L257,181.1z"/>
					</g>
					<g>
						<path class="st7" d="M255.9,181.4c-0.1-0.1,0-0.2,0.1-0.2l0.3-0.1c0.1,0,0.2,0,0.3,0.1l0.7,1.2c0.1,0.1,0,0.2-0.1,0.2
							l-0.3,0.1c-0.1,0-0.2,0-0.3-0.1L255.9,181.4z"/>
					</g>
					<g>
						<path class="st7" d="M254.9,181.7c-0.1-0.1,0-0.2,0.1-0.2l0.3-0.1c0.1,0,0.2,0,0.3,0.1l0.7,1.2c0.1,0.1,0,0.2-0.1,0.2
							l-0.3,0.1c-0.1,0-0.2,0-0.3-0.1L254.9,181.7z"/>
					</g>
					<g>
						<path class="st7" d="M253.8,182c-0.1-0.1,0-0.2,0.1-0.2l0.3-0.1c0.1,0,0.2,0,0.3,0.1l0.7,1.2c0.1,0.1,0,0.2-0.1,0.2l-0.3,0.1
							c-0.1,0-0.2,0-0.3-0.1L253.8,182z"/>
					</g>
					<g>
						<path class="st7" d="M252.7,182.2c-0.1-0.1,0-0.2,0.1-0.2l0.3-0.1c0.1,0,0.2,0,0.3,0.1l0.7,1.2c0.1,0.1,0,0.2-0.1,0.2
							l-0.3,0.1c-0.1,0-0.2,0-0.3-0.1L252.7,182.2z"/>
					</g>
					<g>
						<path class="st7" d="M251.7,182.5c0-0.1,0-0.2,0.1-0.2l0.3-0.1c0.1,0,0.2,0,0.3,0.1l0.6,1.2c0.1,0.1,0,0.2-0.1,0.2l-0.3,0.1
							c-0.1,0-0.2,0-0.3-0.1L251.7,182.5z"/>
					</g>
					<g>
						<path class="st7" d="M250.6,182.7c0-0.1,0-0.2,0.1-0.2l0.3-0.1c0.1,0,0.2,0,0.3,0.1l0.6,1.2c0,0.1,0,0.2-0.1,0.2l-0.3,0.1
							c-0.1,0-0.2,0-0.3-0.1L250.6,182.7z"/>
					</g>
					<g>
						<path class="st7" d="M249.6,182.9c0-0.1,0-0.2,0.1-0.2l0.3-0.1c0.1,0,0.2,0,0.3,0.1l0.6,1.2c0,0.1,0,0.2-0.1,0.2l-0.3,0.1
							c-0.1,0-0.2,0-0.3-0.1L249.6,182.9z"/>
					</g>
					<g>
						<path class="st7" d="M248.5,183.1c0-0.1,0-0.2,0.1-0.2l0.3-0.1c0.1,0,0.2,0,0.3,0.1l0.6,1.2c0,0.1,0,0.2-0.1,0.2l-0.3,0.1
							c-0.1,0-0.2,0-0.3-0.1L248.5,183.1z"/>
					</g>
					<g>
						<path class="st7" d="M247.4,183.3c0-0.1,0-0.2,0.1-0.2l0.3-0.1c0.1,0,0.2,0,0.3,0.1l0.6,1.2c0,0.1,0,0.2-0.1,0.2l-0.3,0.1
							c-0.1,0-0.2,0-0.3-0.1L247.4,183.3z"/>
					</g>
					<g>
						<path class="st7" d="M246.3,183.5c0-0.1,0-0.2,0.1-0.2l0.3-0.1c0.1,0,0.2,0,0.3,0.1l0.6,1.2c0,0.1,0,0.2-0.1,0.2l-0.3,0.1
							c-0.1,0-0.2,0-0.3-0.1L246.3,183.5z"/>
					</g>
					<g>
						<path class="st7" d="M245.3,183.7c0-0.1,0-0.2,0.1-0.2l0.3-0.1c0.1,0,0.2,0.1,0.3,0.1l0.6,1.2c0,0.1,0,0.2-0.1,0.2l-0.3,0.1
							c-0.1,0-0.2,0-0.3-0.1L245.3,183.7z"/>
					</g>
					<g>
						<path class="st7" d="M246.6,184.7c0,0.1,0,0.2-0.1,0.2l-0.3,0.1c-0.1,0-0.2,0-0.3-0.1l-0.6-1.2c-0.1-0.1,0-0.2,0.1-0.2
							l0.4-0.1c0.1,0,0.2,0,0.3,0.1L246.6,184.7z"/>
					</g>
					<g>
						<path class="st7" d="M247.6,184.6c0,0.1,0,0.2-0.1,0.2l-0.3,0c-0.1,0-0.2-0.1-0.3-0.2l-0.6-1.2c0-0.1,0-0.2,0.1-0.2l0.4-0.1
							c0.1,0,0.2,0.1,0.3,0.2L247.6,184.6z"/>
					</g>
					<g>
						<path class="st7" d="M248.7,184.5c0,0.1,0,0.2-0.1,0.2l-0.3,0c-0.1,0-0.2-0.1-0.3-0.2l-0.5-1.3c0-0.1,0-0.2,0.1-0.2l0.4-0.1
							c0.1,0,0.2,0.1,0.3,0.2L248.7,184.5z"/>
					</g>
					<g>
						<path class="st7" d="M249.8,184.4c0,0.1,0,0.2-0.1,0.2l-0.3,0c-0.1,0-0.2-0.1-0.3-0.2l-0.5-1.3c0-0.1,0-0.2,0.1-0.2l0.4,0
							c0.1,0,0.2,0.1,0.3,0.2L249.8,184.4z"/>
					</g>
					<g>
						<path class="st7" d="M250.9,184.3c0,0.1,0,0.2-0.1,0.2l-0.3,0c-0.1,0-0.2-0.1-0.2-0.2l-0.4-1.3c0-0.1,0-0.2,0.1-0.2l0.4,0
							c0.1,0,0.2,0.1,0.3,0.2L250.9,184.3z"/>
					</g>
					<g>
						<path class="st7" d="M252,184.3c0,0.1,0,0.2-0.1,0.2l-0.3,0c-0.1,0-0.2-0.1-0.2-0.2l-0.4-1.3c0-0.1,0-0.2,0.1-0.2l0.4,0
							c0.1,0,0.2,0.1,0.2,0.2L252,184.3z"/>
					</g>
					<g>
						<path class="st7" d="M253.1,184.4c0,0.1,0,0.2-0.1,0.2l-0.3,0c-0.1,0-0.2-0.1-0.2-0.2l-0.3-1.3c0-0.1,0-0.2,0.2-0.2l0.4,0
							c0.1,0,0.2,0.1,0.2,0.2L253.1,184.4z"/>
					</g>
					<g>
						<path class="st7" d="M254.2,184.5c0,0.1-0.1,0.2-0.2,0.2l-0.3,0c-0.1,0-0.2-0.1-0.2-0.2l-0.3-1.3c0-0.1,0-0.2,0.2-0.2l0.4,0
							c0.1,0,0.2,0.1,0.2,0.2L254.2,184.5z"/>
					</g>
					<g>
						<path class="st7" d="M255.3,184.6c0,0.1-0.1,0.2-0.2,0.2l-0.3,0c-0.1,0-0.2-0.1-0.2-0.2l-0.2-1.3c0-0.1,0.1-0.2,0.2-0.2l0.4,0
							c0.1,0,0.2,0.1,0.2,0.2L255.3,184.6z"/>
					</g>
					<g>
						<path class="st7" d="M256.4,184.8c0,0.1-0.1,0.2-0.2,0.2l-0.3-0.1c-0.1,0-0.2-0.1-0.2-0.2l-0.2-1.4c0-0.1,0.1-0.2,0.2-0.2
							l0.4,0.1c0.1,0,0.2,0.1,0.2,0.2L256.4,184.8z"/>
					</g>
					<g>
						<path class="st7" d="M257.5,185c0,0.1-0.1,0.2-0.2,0.2l-0.3-0.1c-0.1,0-0.2-0.1-0.2-0.2l-0.1-1.4c0-0.1,0.1-0.2,0.2-0.2
							l0.4,0.1c0.1,0,0.2,0.1,0.2,0.2L257.5,185z"/>
					</g>
					<g>
						<path class="st7" d="M258.5,185.3c0,0.1-0.1,0.2-0.2,0.1l-0.3-0.1c-0.1,0-0.2-0.1-0.2-0.2l0-1.4c0-0.1,0.1-0.2,0.2-0.2
							l0.4,0.1c0.1,0,0.2,0.1,0.2,0.2L258.5,185.3z"/>
					</g>
					<g>
						<path class="st7" d="M259.6,185.6c0,0.1-0.1,0.2-0.2,0.1l-0.3-0.1c-0.1,0-0.2-0.1-0.2-0.2l0-1.4c0-0.1,0.1-0.2,0.2-0.1
							l0.4,0.1c0.1,0,0.2,0.1,0.2,0.3L259.6,185.6z"/>
					</g>
					<g>
						<path class="st7" d="M260.6,186c0,0.1-0.1,0.2-0.2,0.1l-0.3-0.1c-0.1,0-0.2-0.1-0.2-0.3l0.1-1.4c0-0.1,0.1-0.2,0.2-0.1
							l0.3,0.1c0.1,0,0.2,0.1,0.2,0.3L260.6,186z"/>
					</g>
					<g>
						<path class="st7" d="M261.6,186.3c0,0.1-0.1,0.2-0.2,0.1l-0.3-0.1c-0.1,0-0.2-0.2-0.2-0.3l0.1-1.4c0-0.1,0.1-0.2,0.2-0.1
							l0.3,0.1c0.1,0,0.2,0.2,0.2,0.3L261.6,186.3z"/>
					</g>
					<g>
						<path class="st7" d="M262.6,186.8c0,0.1-0.1,0.2-0.2,0.1l-0.3-0.1c-0.1,0-0.2-0.2-0.1-0.3l0.2-1.4c0-0.1,0.1-0.2,0.2-0.1
							l0.3,0.1c0.1,0,0.2,0.2,0.2,0.3L262.6,186.8z"/>
					</g>
					<g>
						<path class="st7" d="M263.6,187.3c0,0.1-0.1,0.2-0.2,0.1l-0.3-0.2c-0.1,0-0.2-0.2-0.1-0.3l0.2-1.3c0-0.1,0.1-0.2,0.2-0.1
							l0.3,0.2c0.1,0,0.2,0.2,0.1,0.3L263.6,187.3z"/>
					</g>
					<g>
						<path class="st7" d="M264.6,187.8c0,0.1-0.1,0.1-0.2,0.1l-0.3-0.2c-0.1-0.1-0.1-0.2-0.1-0.3l0.3-1.3c0-0.1,0.1-0.2,0.2-0.1
							l0.3,0.2c0.1,0,0.2,0.2,0.1,0.3L264.6,187.8z"/>
					</g>
					<g>
						<path class="st7" d="M265.6,188.3c0,0.1-0.1,0.1-0.2,0.1l-0.3-0.2c-0.1-0.1-0.1-0.2-0.1-0.3l0.3-1.3c0-0.1,0.1-0.1,0.2-0.1
							l0.3,0.2c0.1,0.1,0.2,0.2,0.1,0.3L265.6,188.3z"/>
					</g>
					<g>
						<path class="st7" d="M266.5,188.9c0,0.1-0.1,0.1-0.2,0.1l-0.3-0.2c-0.1-0.1-0.1-0.2-0.1-0.3l0.4-1.3c0-0.1,0.1-0.1,0.2-0.1
							l0.3,0.2c0.1,0.1,0.1,0.2,0.1,0.3L266.5,188.9z"/>
					</g>
				</g>
			</g>
		</g>
		<path id="XMLID_8731_" class="st4" d="M254.3,112.4c-0.3-0.4-0.3-1.1-0.3-1.5c0.2-2.6,2.3-9.1,2.6-10c0.3-0.9,0.8-1.5,1.3-1.7
			c1.1-0.3,4.1,0.2,4.5,0.3c0.5,0.1,1.2-0.1,1.5-0.7c0.2-0.4,0.7-1.2,1.4-4.9c0.3-2,0.5-6.6,0.4-7.2c0-0.5-0.6-0.7-0.6-0.7
			s-3.2-1-4-1.2c-0.8-0.2-1.2-1-1.3-1.5c-0.4-2.4,0.4-8.8,0.4-9.6c0-0.6,0.5-2.1,1.2-2.4c1.9-0.8,5.6-1.4,8-1.4c0.7,0,2.7,0.6,4,3.6
			c1.3,3,1.4,10.7,0.7,17.9c-0.6,7-4,16.8-4.8,18.3c-0.6,1.2-3.4,5.4-5.4,5.9c-1.8,0.5-3.5-0.4-3.5-0.4S255.3,113.8,254.3,112.4z"/>
		<path id="XMLID_8732_" class="st4" d="M276.6,196.2c0,1.9-1.1,3.5-2.5,3.5h-32.4c-1.4,0-2.5-1.6-2.5-3.5l6.4-7.5
			c0-1.9,1.1-3.5,2.5-3.5h19c1.4,0,2.5,1.6,2.5,3.5L276.6,196.2z"/>
	</g>
	<g id="XMLID_8733_">
		<path id="XMLID_8734_" class="st8" d="M169.2,198.1c0,1.1-0.9,2.1-2.1,2.1H92.4c-1.1,0-2.1-0.9-2.1-2.1v-0.6
			c0-1.1,0.9-2.1,2.1-2.1h74.7c1.1,0,2.1,0.9,2.1,2.1V198.1z"/>
		<path class="st9" d="M122.5,195.4c0.6,1.1,0.2,2.1-0.9,2.1H92.8c-1.1,0-2.6-0.9-3.2-2.1l-25.5-45.9c-0.6-1.1-0.2-2.1,0.9-2.1h28.7
			c1.1,0,2.6,0.9,3.2,2.1L122.5,195.4z"/>
	</g>
	<g id="XMLID_8735_">
		<g id="XMLID_8740_">
			<path class="st6" d="M304.3,22.5c13.9,0,25.1,11.3,25.1,25.1c0,13.9-11.3,25.1-25.1,25.1c-13.9,0-25.1-11.3-25.1-25.1
				C279.2,33.8,290.5,22.5,304.3,22.5 M304.3,21.4c-14.5,0-26.3,11.8-26.3,26.3c0,14.5,11.8,26.3,26.3,26.3
				c14.5,0,26.3-11.8,26.3-26.3C330.6,33.2,318.9,21.4,304.3,21.4L304.3,21.4z"/>
		</g>
		<g id="XMLID_8745_">
			<path class="st10" d="M304.3,21.4c14.5,0,26.3,11.8,26.3,26.3c0,14.5-11.8,26.3-26.3,26.3C289.8,74,278,62.2,278,47.7
				C278,33.2,289.8,21.4,304.3,21.4 M304.3,16.8c-17.1,0-30.9,13.9-30.9,30.9s13.9,30.9,30.9,30.9c17.1,0,30.9-13.9,30.9-30.9
				S321.4,16.8,304.3,16.8L304.3,16.8z"/>
		</g>
		<line class="st11" x1="287.1" y1="42.9" x2="304.5" y2="48.2"/>
		<line class="st12" x1="290.5" y1="36.3" x2="304.3" y2="48.2"/>
		<line class="st13" x1="295.8" y1="31.6" x2="304.3" y2="47.7"/>
		<line class="st14" x1="304.5" y1="48.3" x2="314.8" y2="46.6"/>
		<line class="st15" x1="304.5" y1="47.5" x2="314.8" y2="48.9"/>
		<line class="st16" x1="304.9" y1="47.7" x2="314.4" y2="51.7"/>
		<line id="XMLID_8746_" class="st17" x1="304.3" y1="29.5" x2="304.3" y2="47.7"/>
		<line class="st18" x1="304.3" y1="47.7" x2="312.7" y2="53.9"/>
	</g>
	<g id="XMLID_8747_">
		<defs>
			<path id="XMLID_8762_" d="M115.2,111.2H29c-5.4,0-9.7-5.2-9.7-11.6V34.2c0-6.4,4.3-11.6,9.7-11.6h86.2c5.4,0,9.7,5.2,9.7,11.6
				v65.4C124.9,106,120.6,111.2,115.2,111.2z"/>
		</defs>
		<clipPath id="XMLID_9_">
			<use xlink:href="#XMLID_8762_"  style="overflow:visible;"/>
		</clipPath>
		<g id="XMLID_8748_" class="st19">
			<g id="XMLID_8749_">
				<path class="st20" d="M98.5,97.2c0.3,1.4-0.6,2.8-2,3l-35.8,7.1c-1.4,0.3-2.8-0.6-3-2L47.5,54.1c-0.3-1.4,0.6-2.8,2-3L85.3,44
					c1.4-0.3,2.8,0.6,3,2L98.5,97.2z"/>
				
					<rect x="54.8" y="49.8" transform="matrix(0.981 -0.1938 0.1938 0.981 -13.28 15.5752)" class="st21" width="36.4" height="51.7"/>
				
					<rect x="61.2" y="74.6" transform="matrix(0.9811 -0.1937 0.1937 0.9811 -13.278 15.4846)" class="st22" width="22.7" height="2"/>
				
					<rect x="60.4" y="70.9" transform="matrix(0.981 -0.1938 0.1938 0.981 -12.5625 15.2714)" class="st22" width="22.7" height="2"/>
				
					<rect x="59.7" y="67.1" transform="matrix(0.981 -0.1938 0.1938 0.981 -11.8457 15.0566)" class="st22" width="22.7" height="2"/>
				
					<rect x="58.9" y="63.3" transform="matrix(0.981 -0.1938 0.1938 0.981 -11.129 14.8419)" class="st22" width="22.7" height="2"/>
				
					<rect x="58.2" y="59.5" transform="matrix(0.981 -0.1938 0.1938 0.981 -10.4101 14.6237)" class="st22" width="22.7" height="2"/>
				
					<rect x="61.9" y="78.4" transform="matrix(0.981 -0.1938 0.1938 0.981 -13.9998 15.7065)" class="st22" width="22.7" height="2"/>
				
					<rect x="62.7" y="82.2" transform="matrix(0.9811 -0.1937 0.1937 0.9811 -14.7119 15.9155)" class="st22" width="22.7" height="2"/>
				<rect x="63.4" y="86" transform="matrix(0.981 -0.1938 0.1938 0.981 -15.4363 16.1405)" class="st22" width="22.7" height="2"/>
				
					<rect x="64.2" y="90.4" transform="matrix(0.981 -0.1938 0.1938 0.981 -16.3277 15.7703)" class="st22" width="16.4" height="2"/>
			</g>
			<g id="XMLID_8750_">
				<path class="st20" d="M56.5,139.2c-0.5,1.3-2,2-3.4,1.4l-33.9-13.7c-1.3-0.5-2-2-1.4-3.4l19.6-48.3c0.5-1.3,2-2,3.4-1.4
					l33.9,13.7c1.3,0.5,2,2,1.4,3.4L56.5,139.2z"/>
				
					<rect x="28.7" y="81.3" transform="matrix(0.9268 0.3757 -0.3757 0.9268 43.7095 -9.7778)" class="st21" width="36.4" height="51.7"/>
				
					<rect x="35.2" y="105.9" transform="matrix(0.9267 0.3757 -0.3757 0.9267 43.5918 -9.6674)" class="st22" width="22.7" height="2"/>
				
					<rect x="36.7" y="102.4" transform="matrix(0.9267 0.3757 -0.3757 0.9267 42.3535 -10.4718)" class="st22" width="22.7" height="2"/>
				
					<rect x="38.1" y="98.8" transform="matrix(0.9267 0.3757 -0.3757 0.9267 41.1173 -11.2764)" class="st22" width="22.7" height="2"/>
				
					<rect x="39.6" y="95.2" transform="matrix(0.9268 0.3757 -0.3757 0.9268 39.8814 -12.0809)" class="st22" width="22.7" height="2"/>
				
					<rect x="41" y="91.7" transform="matrix(0.9267 0.3757 -0.3757 0.9267 38.6503 -12.8858)" class="st22" width="22.7" height="2"/>
				
					<rect x="33.8" y="109.5" transform="matrix(0.9268 0.3757 -0.3757 0.9268 44.818 -8.8626)" class="st22" width="22.7" height="2"/>
				
					<rect x="32.3" y="113.1" transform="matrix(0.9267 0.3757 -0.3757 0.9267 46.0621 -8.058)" class="st22" width="22.7" height="2"/>
				
					<rect x="30.9" y="116.6" transform="matrix(0.9268 0.3757 -0.3757 0.9268 47.2839 -7.254)" class="st22" width="22.7" height="2"/>
				
					<rect x="29.7" y="119" transform="matrix(0.9267 0.3757 -0.3757 0.9267 47.8676 -5.4454)" class="st22" width="16.4" height="2"/>
			</g>
			<g id="XMLID_8751_">
				<path class="st20" d="M42.2,67.7c-0.5,1.3-2,2-3.4,1.4L4.9,55.4c-1.3-0.5-2-2-1.4-3.4L23.1,3.7c0.5-1.3,2-2,3.4-1.4L60.3,16
					c1.3,0.5,2,2,1.4,3.4L42.2,67.7z"/>
				
					<rect x="14.4" y="9.8" transform="matrix(0.9268 0.3757 -0.3757 0.9268 15.7982 -9.6429)" class="st21" width="36.4" height="51.7"/>
				
					<rect x="20.9" y="34.4" transform="matrix(0.9267 0.3757 -0.3757 0.9267 15.6758 -9.5334)" class="st22" width="22.7" height="2"/>
				
					<rect x="22.4" y="30.9" transform="matrix(0.9267 0.3757 -0.3757 0.9267 14.44 -10.3373)" class="st22" width="22.7" height="2"/>
				
					<rect x="23.8" y="27.3" transform="matrix(0.9267 0.3757 -0.3757 0.9267 13.2049 -11.1417)" class="st22" width="22.7" height="2"/>
				
					<rect x="25.3" y="23.7" transform="matrix(0.9268 0.3757 -0.3757 0.9268 11.9703 -11.946)" class="st22" width="22.7" height="2"/>
				
					<rect x="26.7" y="20.2" transform="matrix(0.9267 0.3757 -0.3757 0.9267 10.7372 -12.7512)" class="st22" width="22.7" height="2"/>
				
					<rect x="19.5" y="38" transform="matrix(0.9268 0.3757 -0.3757 0.9268 16.9068 -8.7277)" class="st22" width="22.7" height="2"/>
				
					<rect x="18" y="41.6" transform="matrix(0.9267 0.3757 -0.3757 0.9267 18.1452 -7.9242)" class="st22" width="22.7" height="2"/>
				
					<rect x="16.6" y="45.1" transform="matrix(0.9268 0.3757 -0.3757 0.9268 19.3741 -7.1188)" class="st22" width="22.7" height="2"/>
				
					<rect x="15.4" y="47.5" transform="matrix(0.9267 0.3757 -0.3757 0.9267 19.9557 -5.3106)" class="st22" width="16.4" height="2"/>
			</g>
			<g id="XMLID_8752_">
				<path class="st20" d="M151.2,76.4c0.1,1.4-1,2.6-2.4,2.7L112.3,81c-1.4,0.1-2.6-1-2.7-2.4l-2.7-52.1c-0.1-1.4,1-2.6,2.4-2.7
					l36.5-1.9c1.4-0.1,2.6,1,2.7,2.4L151.2,76.4z"/>
				
					<rect x="110.9" y="25.6" transform="matrix(0.9987 -5.137063e-02 5.137063e-02 0.9987 -2.4731 6.6984)" class="st21" width="36.4" height="51.7"/>
				
					<rect x="117.3" y="50.4" transform="matrix(0.9987 -5.130530e-02 5.130530e-02 0.9987 -2.4659 6.6678)" class="st22" width="22.7" height="2"/>
				
					<rect x="117.1" y="46.5" transform="matrix(0.9987 -5.133961e-02 5.133961e-02 0.9987 -2.2703 6.6571)" class="st22" width="22.7" height="2"/>
				
					<rect x="116.9" y="42.7" transform="matrix(0.9987 -5.135570e-02 5.135570e-02 0.9987 -2.0738 6.644)" class="st22" width="22.7" height="2"/>
				
					<rect x="116.7" y="38.8" transform="matrix(0.9987 -5.137301e-02 5.137301e-02 0.9987 -1.8772 6.631)" class="st22" width="22.7" height="2"/>
				
					<rect x="116.5" y="35" transform="matrix(0.9987 -5.134616e-02 5.134616e-02 0.9987 -1.6792 6.6123)" class="st22" width="22.7" height="2"/>
				
					<rect x="117.5" y="54.2" transform="matrix(0.9987 -5.137301e-02 5.137301e-02 0.9987 -2.6661 6.6919)" class="st22" width="22.7" height="2"/>
				
					<rect x="117.7" y="58.1" transform="matrix(0.9987 -5.129162e-02 5.129162e-02 0.9987 -2.8591 6.6964)" class="st22" width="22.7" height="2"/>
				
					<rect x="117.9" y="61.9" transform="matrix(0.9987 -5.139146e-02 5.139146e-02 0.9987 -3.0615 6.7249)" class="st22" width="22.7" height="2"/>
				
					<rect x="118.1" y="65.9" transform="matrix(0.9987 -5.136134e-02 5.136134e-02 0.9987 -3.2694 6.5757)" class="st22" width="16.4" height="2"/>
			</g>
			<g id="XMLID_8753_">
				<path class="st20" d="M102.4,93.8c-0.5,1.3-2,2-3.3,1.5L64.9,82.5c-1.3-0.5-2-2-1.5-3.3l18.4-48.8c0.5-1.3,2-2,3.3-1.5
					l34.2,12.9c1.3,0.5,2,2,1.5,3.3L102.4,93.8z"/>
				
					<rect x="73.8" y="36.2" transform="matrix(0.936 0.3521 -0.3521 0.936 27.753 -28.4259)" class="st21" width="36.4" height="51.7"/>
				
					<rect x="80.3" y="60.8" transform="matrix(0.936 0.3521 -0.3521 0.936 27.6458 -28.3223)" class="st22" width="22.7" height="2"/>
				
					<rect x="81.7" y="57.2" transform="matrix(0.936 0.3521 -0.3521 0.936 26.4609 -29.0279)" class="st22" width="22.7" height="2"/>
				<rect x="83" y="53.6" transform="matrix(0.936 0.3521 -0.3521 0.936 25.2778 -29.7347)" class="st22" width="22.7" height="2"/>
				<rect x="84.4" y="50" transform="matrix(0.936 0.3521 -0.3521 0.936 24.0949 -30.4413)" class="st22" width="22.7" height="2"/>
				
					<rect x="85.8" y="46.4" transform="matrix(0.936 0.3521 -0.3521 0.936 22.9156 -31.1511)" class="st22" width="22.7" height="2"/>
				<rect x="79" y="64.4" transform="matrix(0.936 0.3521 -0.3521 0.936 28.8212 -27.6102)" class="st22" width="22.7" height="2"/>
				
					<rect x="77.6" y="68.1" transform="matrix(0.9359 0.3521 -0.3521 0.9359 30.0106 -26.9074)" class="st22" width="22.7" height="2"/>
				<rect x="76.3" y="71.7" transform="matrix(0.936 0.352 -0.352 0.936 31.1824 -26.194)" class="st22" width="22.7" height="2"/>
				
					<rect x="75.1" y="74.2" transform="matrix(0.936 0.3521 -0.3521 0.936 31.7915 -24.5268)" class="st22" width="16.4" height="2"/>
			</g>
			<g id="XMLID_8754_">
				<path class="st20" d="M60.6,84.1c-0.3,1.4-1.6,2.3-3,2.1l-35.9-6.5c-1.4-0.3-2.3-1.6-2.1-3l9.3-51.3c0.3-1.4,1.6-2.3,3-2.1
					l35.9,6.5c1.4,0.3,2.3,1.6,2.1,3L60.6,84.1z"/>
				
					<rect x="26.5" y="28.9" transform="matrix(0.9839 0.1787 -0.1787 0.9839 10.5009 -7.1124)" class="st21" width="36.4" height="51.7"/>
				
					<rect x="33" y="53.6" transform="matrix(0.9839 0.1788 -0.1788 0.9839 10.4647 -7.0474)" class="st22" width="22.7" height="2"/>
				
					<rect x="33.7" y="49.8" transform="matrix(0.9839 0.1787 -0.1787 0.9839 9.7967 -7.2301)" class="st22" width="22.7" height="2"/>
				<rect x="34.4" y="46" transform="matrix(0.9839 0.1787 -0.1787 0.9839 9.13 -7.4135)" class="st22" width="22.7" height="2"/>
				
					<rect x="35.1" y="42.2" transform="matrix(0.9839 0.1787 -0.1787 0.9839 8.4634 -7.5968)" class="st22" width="22.7" height="2"/>
				
					<rect x="35.7" y="38.4" transform="matrix(0.9839 0.1787 -0.1787 0.9839 7.799 -7.7818)" class="st22" width="22.7" height="2"/>
				
					<rect x="32.3" y="57.3" transform="matrix(0.9839 0.1787 -0.1787 0.9839 11.1262 -6.8612)" class="st22" width="22.7" height="2"/>
				
					<rect x="31.6" y="61.1" transform="matrix(0.9839 0.1788 -0.1788 0.9839 11.7975 -6.6799)" class="st22" width="22.7" height="2"/>
				
					<rect x="30.9" y="64.9" transform="matrix(0.9839 0.1787 -0.1787 0.9839 12.4561 -6.493)" class="st22" width="22.7" height="2"/>
				
					<rect x="30.3" y="68.1" transform="matrix(0.9839 0.1787 -0.1787 0.9839 12.9745 -5.7685)" class="st22" width="16.4" height="2"/>
			</g>
			<g id="XMLID_8755_">
				<path class="st20" d="M72,115.5c-0.1,1.4-1.4,2.5-2.8,2.4L32.8,115c-1.4-0.1-2.5-1.4-2.4-2.8l4.1-52c0.1-1.4,1.4-2.5,2.8-2.4
					l36.4,2.9c1.4,0.1,2.5,1.4,2.4,2.8L72,115.5z"/>
				
					<rect x="35.1" y="62.1" transform="matrix(0.9969 7.901807e-02 -7.901807e-02 0.9969 7.1136 -3.9374)" class="st21" width="36.4" height="51.7"/>
				
					<rect x="41.6" y="86.8" transform="matrix(0.9969 7.908328e-02 -7.908328e-02 0.9969 7.1065 -3.9084)" class="st22" width="22.7" height="2"/>
				
					<rect x="41.9" y="82.9" transform="matrix(0.9969 7.904904e-02 -7.904904e-02 0.9969 6.801 -3.9429)" class="st22" width="22.7" height="2"/>
				
					<rect x="42.2" y="79.1" transform="matrix(0.9969 7.903297e-02 -7.903297e-02 0.9969 6.4972 -3.9782)" class="st22" width="22.7" height="2"/>
				
					<rect x="42.5" y="75.3" transform="matrix(0.9969 7.901569e-02 -7.901569e-02 0.9969 6.1935 -4.0134)" class="st22" width="22.7" height="2"/>
				
					<rect x="42.8" y="71.4" transform="matrix(0.9969 7.904249e-02 -7.904249e-02 0.9969 5.8934 -4.0508)" class="st22" width="22.7" height="2"/>
				
					<rect x="41.3" y="90.6" transform="matrix(0.9969 7.901569e-02 -7.901569e-02 0.9969 7.4025 -3.8693)" class="st22" width="22.7" height="2"/>
				
					<rect x="40.9" y="94.4" transform="matrix(0.9969 7.909694e-02 -7.909694e-02 0.9969 7.7128 -3.8369)" class="st22" width="22.7" height="2"/>
				
					<rect x="40.6" y="98.3" transform="matrix(0.9969 7.899728e-02 -7.899728e-02 0.9969 8.005 -3.7964)" class="st22" width="22.7" height="2"/>
				
					<rect x="40.3" y="101.9" transform="matrix(0.9969 7.902734e-02 -7.902734e-02 0.9969 8.2811 -3.5159)" class="st22" width="16.4" height="2"/>
			</g>
			<g id="XMLID_8756_">
				<path class="st20" d="M60,100c0.4,1.4-0.4,2.8-1.8,3.2l-35.1,10.2c-1.4,0.4-2.8-0.4-3.2-1.8L5.4,61.6c-0.4-1.4,0.4-2.8,1.8-3.2
					l35.1-10.2c1.4-0.4,2.8,0.4,3.2,1.8L60,100z"/>
				
					<rect x="14.5" y="54.9" transform="matrix(0.9604 -0.2787 0.2787 0.9604 -21.224 12.3207)" class="st21" width="36.4" height="51.7"/>
				
					<rect x="20.9" y="79.8" transform="matrix(0.9604 -0.2787 0.2787 0.9604 -21.2383 12.1957)" class="st22" width="22.7" height="2"/>
				
					<rect x="19.9" y="76.1" transform="matrix(0.9604 -0.2787 0.2787 0.9604 -20.2529 11.7519)" class="st22" width="22.7" height="2"/>
				
					<rect x="18.8" y="72.4" transform="matrix(0.9604 -0.2787 0.2787 0.9604 -19.2661 11.3072)" class="st22" width="22.7" height="2"/>
				
					<rect x="17.7" y="68.7" transform="matrix(0.9604 -0.2787 0.2787 0.9604 -18.2793 10.8626)" class="st22" width="22.7" height="2"/>
				<rect x="16.6" y="65" transform="matrix(0.9604 -0.2787 0.2787 0.9604 -17.29 10.416)" class="st22" width="22.7" height="2"/>
				
					<rect x="22" y="83.5" transform="matrix(0.9604 -0.2787 0.2787 0.9604 -22.2308 12.6448)" class="st22" width="22.7" height="2"/>
				
					<rect x="23.1" y="87.2" transform="matrix(0.9604 -0.2787 0.2787 0.9604 -23.2125 13.0857)" class="st22" width="22.7" height="2"/>
				
					<rect x="24.2" y="90.9" transform="matrix(0.9604 -0.2788 0.2788 0.9604 -24.2078 13.5371)" class="st22" width="22.7" height="2"/>
				
					<rect x="25.3" y="95.5" transform="matrix(0.9604 -0.2787 0.2787 0.9604 -25.5557 13.1774)" class="st22" width="16.4" height="2"/>
			</g>
			<g id="XMLID_8757_">
				<path class="st20" d="M151.6,118.4c-0.2,1.4-1.5,2.4-2.9,2.2l-36.2-5.2c-1.4-0.2-2.4-1.5-2.2-2.9l7.4-51.6
					c0.2-1.4,1.5-2.4,2.9-2.2l36.2,5.2c1.4,0.2,2.4,1.5,2.2,2.9L151.6,118.4z"/>
				
					<rect x="116.4" y="63.7" transform="matrix(0.9899 0.142 -0.142 0.9899 14.0828 -18.2088)" class="st21" width="36.4" height="51.7"/>
				
					<rect x="122.9" y="88.4" transform="matrix(0.9899 0.142 -0.142 0.9899 14.061 -18.1616)" class="st22" width="22.7" height="2"/>
				
					<rect x="123.5" y="84.6" transform="matrix(0.9899 0.142 -0.142 0.9899 13.5218 -18.2737)" class="st22" width="22.7" height="2"/>
				
					<rect x="124" y="80.8" transform="matrix(0.9899 0.142 -0.142 0.9899 12.9846 -18.3879)" class="st22" width="22.7" height="2"/>
				<rect x="124.6" y="77" transform="matrix(0.9899 0.142 -0.142 0.9899 12.4476 -18.502)" class="st22" width="22.7" height="2"/>
				
					<rect x="125.1" y="73.2" transform="matrix(0.9899 0.142 -0.142 0.9899 11.9148 -18.6216)" class="st22" width="22.7" height="2"/>
				
					<rect x="122.4" y="92.2" transform="matrix(0.9899 0.142 -0.142 0.9899 14.589 -18.0373)" class="st22" width="22.7" height="2"/>
				
					<rect x="121.8" y="96.1" transform="matrix(0.9899 0.142 -0.142 0.9899 15.1337 -17.9308)" class="st22" width="22.7" height="2"/>
				
					<rect x="121.3" y="99.9" transform="matrix(0.9899 0.1419 -0.1419 0.9899 15.6574 -17.8029)" class="st22" width="22.7" height="2"/>
				
					<rect x="120.8" y="103.2" transform="matrix(0.9899 0.142 -0.142 0.9899 16.102 -17.2548)" class="st22" width="16.4" height="2"/>
			</g>
			<g id="XMLID_8758_">
				<path class="st20" d="M139.2,105.2c0.4,1.4-0.4,2.8-1.8,3.2l-35.1,10.2c-1.4,0.4-2.8-0.4-3.2-1.8L84.6,66.7
					c-0.4-1.4,0.4-2.8,1.8-3.2l35.1-10.2c1.4-0.4,2.8,0.4,3.2,1.8L139.2,105.2z"/>
				
					<rect x="93.7" y="60.1" transform="matrix(0.9604 -0.2787 0.2787 0.9604 -19.5157 34.6028)" class="st21" width="36.4" height="51.7"/>
				
					<rect x="100.1" y="84.9" transform="matrix(0.9604 -0.2787 0.2787 0.9604 -19.5311 34.4727)" class="st22" width="22.7" height="2"/>
				
					<rect x="99.1" y="81.2" transform="matrix(0.9604 -0.2787 0.2787 0.9604 -18.5452 34.0316)" class="st22" width="22.7" height="2"/>
				
					<rect x="98" y="77.5" transform="matrix(0.9604 -0.2787 0.2787 0.9604 -17.558 33.5882)" class="st22" width="22.7" height="2"/>
				
					<rect x="96.9" y="73.9" transform="matrix(0.9604 -0.2787 0.2787 0.9604 -16.5709 33.1449)" class="st22" width="22.7" height="2"/>
				
					<rect x="95.9" y="70.2" transform="matrix(0.9604 -0.2787 0.2787 0.9604 -15.5821 32.6962)" class="st22" width="22.7" height="2"/>
				
					<rect x="101.2" y="88.6" transform="matrix(0.9604 -0.2787 0.2787 0.9604 -20.5225 34.9271)" class="st22" width="22.7" height="2"/>
				
					<rect x="102.3" y="92.3" transform="matrix(0.9604 -0.2787 0.2787 0.9604 -21.5056 35.3617)" class="st22" width="22.7" height="2"/>
				
					<rect x="103.4" y="96" transform="matrix(0.9604 -0.2788 0.2788 0.9604 -22.4991 35.8208)" class="st22" width="22.7" height="2"/>
				
					<rect x="104.6" y="100.6" transform="matrix(0.9604 -0.2787 0.2787 0.9604 -23.8476 35.4588)" class="st22" width="16.4" height="2"/>
			</g>
			<g id="XMLID_8759_">
				<path class="st20" d="M104,150.1c0.1,1.4-1,2.6-2.4,2.7l-36.5,2.1c-1.4,0.1-2.6-1-2.7-2.4l-3-52.1c-0.1-1.4,1-2.6,2.4-2.7
					l36.5-2.1c1.4-0.1,2.6,1,2.7,2.4L104,150.1z"/>
				
					<rect x="63.5" y="99.4" transform="matrix(0.9983 -5.749174e-02 5.749174e-02 0.9983 -7.0657 4.905)" class="st21" width="36.4" height="51.7"/>
				
					<rect x="69.9" y="124.2" transform="matrix(0.9983 -5.742644e-02 5.742644e-02 0.9983 -7.0532 4.8745)" class="st22" width="22.7" height="2"/>
				
					<rect x="69.7" y="120.3" transform="matrix(0.9983 -5.746074e-02 5.746074e-02 0.9983 -6.8369 4.8584)" class="st22" width="22.7" height="2"/>
				
					<rect x="69.5" y="116.5" transform="matrix(0.9983 -5.747682e-02 5.747682e-02 0.9983 -6.6183 4.8408)" class="st22" width="22.7" height="2"/>
				
					<rect x="69.3" y="112.6" transform="matrix(0.9983 -5.749413e-02 5.749413e-02 0.9983 -6.3996 4.8233)" class="st22" width="22.7" height="2"/>
				
					<rect x="69.1" y="108.8" transform="matrix(0.9983 -5.746728e-02 5.746728e-02 0.9983 -6.1763 4.8019)" class="st22" width="22.7" height="2"/>
				
					<rect x="70.2" y="128" transform="matrix(0.9983 -5.749413e-02 5.749413e-02 0.9983 -7.2819 4.8995)" class="st22" width="22.7" height="2"/>
				
					<rect x="70.4" y="131.9" transform="matrix(0.9984 -5.741276e-02 5.741276e-02 0.9984 -7.4921 4.9114)" class="st22" width="22.7" height="2"/>
				
					<rect x="70.6" y="135.7" transform="matrix(0.9983 -5.751256e-02 5.751256e-02 0.9983 -7.7255 4.9394)" class="st22" width="22.7" height="2"/>
				
					<rect x="70.8" y="139.7" transform="matrix(0.9983 -5.748246e-02 5.748246e-02 0.9983 -7.9576 4.7764)" class="st22" width="16.4" height="2"/>
			</g>
			<g id="XMLID_8760_">
				<path class="st20" d="M99.6,70.9c-1,1-2.6,1.1-3.6,0.1L69.3,46c-1-1-1.1-2.6-0.1-3.7l35.7-38c1-1,2.6-1.1,3.7-0.1l26.6,25
					c1,1,1.1,2.6,0.1,3.7L99.6,70.9z"/>
				
					<rect x="84" y="11.7" transform="matrix(0.7282 0.6854 -0.6854 0.7282 53.5647 -59.8552)" class="st21" width="36.4" height="51.7"/>
				
					<rect x="90.7" y="36.2" transform="matrix(0.7282 0.6854 -0.6854 0.7282 53.2536 -59.8045)" class="st22" width="22.7" height="2"/>
				
					<rect x="93.3" y="33.4" transform="matrix(0.7282 0.6854 -0.6854 0.7282 52.0461 -62.3727)" class="st22" width="22.7" height="2"/>
				
					<rect x="96" y="30.6" transform="matrix(0.7282 0.6854 -0.6854 0.7282 50.8404 -64.942)" class="st22" width="22.7" height="2"/>
				
					<rect x="98.6" y="27.8" transform="matrix(0.7282 0.6854 -0.6854 0.7282 49.6351 -67.5109)" class="st22" width="22.7" height="2"/>
				
					<rect x="101.2" y="25" transform="matrix(0.7282 0.6854 -0.6854 0.7282 48.4341 -70.0822)" class="st22" width="22.7" height="2"/>
				<rect x="88" y="39" transform="matrix(0.7282 0.6854 -0.6854 0.7282 54.4508 -57.2314)" class="st22" width="22.7" height="2"/>
				
					<rect x="85.4" y="41.8" transform="matrix(0.7282 0.6854 -0.6854 0.7282 55.663 -54.6651)" class="st22" width="22.7" height="2"/>
				
					<rect x="82.8" y="44.7" transform="matrix(0.7282 0.6853 -0.6853 0.7282 56.8571 -52.0917)" class="st22" width="22.7" height="2"/>
				
					<rect x="81" y="45.3" transform="matrix(0.7282 0.6854 -0.6854 0.7282 55.9741 -48.5434)" class="st22" width="16.4" height="2"/>
			</g>
			<g id="XMLID_8761_">
				<path class="st20" d="M96.3,50c0.1,1.4-1,2.6-2.4,2.7l-36.5,2.1c-1.4,0.1-2.6-1-2.7-2.4l-3-52.1c-0.1-1.4,1-2.6,2.4-2.7
					l36.5-2.1c1.4-0.1,2.6,1,2.7,2.4L96.3,50z"/>
				
					<rect x="55.8" y="-0.7" transform="matrix(0.9983 -5.749174e-02 5.749174e-02 0.9983 -1.3229 4.2966)" class="st21" width="36.4" height="51.7"/>
				
					<rect x="62.2" y="24.1" transform="matrix(0.9983 -5.742644e-02 5.742644e-02 0.9983 -1.3169 4.2671)" class="st22" width="22.7" height="2"/>
				
					<rect x="62" y="20.2" transform="matrix(0.9983 -5.746074e-02 5.746074e-02 0.9983 -1.0972 4.2505)" class="st22" width="22.7" height="2"/>
				
					<rect x="61.8" y="16.4" transform="matrix(0.9983 -5.747682e-02 5.747682e-02 0.9983 -0.8769 4.2327)" class="st22" width="22.7" height="2"/>
				
					<rect x="61.6" y="12.5" transform="matrix(0.9983 -5.749413e-02 5.749413e-02 0.9983 -0.6566 4.2149)" class="st22" width="22.7" height="2"/>
				
					<rect x="61.4" y="8.7" transform="matrix(0.9983 -5.746728e-02 5.746728e-02 0.9983 -0.4359 4.1939)" class="st22" width="22.7" height="2"/>
				
					<rect x="62.5" y="27.9" transform="matrix(0.9983 -5.749413e-02 5.749413e-02 0.9983 -1.5389 4.2912)" class="st22" width="22.7" height="2"/>
				
					<rect x="62.7" y="31.7" transform="matrix(0.9984 -5.741276e-02 5.741276e-02 0.9984 -1.7571 4.3041)" class="st22" width="22.7" height="2"/>
				
					<rect x="62.9" y="35.6" transform="matrix(0.9983 -5.751256e-02 5.751256e-02 0.9983 -1.9806 4.3308)" class="st22" width="22.7" height="2"/>
				
					<rect x="63.1" y="39.6" transform="matrix(0.9983 -5.748246e-02 5.748246e-02 0.9983 -2.2157 4.1682)" class="st22" width="16.4" height="2"/>
			</g>
		</g>
	</g>
	<g id="XMLID_8763_">
		<circle id="XMLID_8764_" class="st23" cx="164.4" cy="55" r="3.5"/>
		<circle id="XMLID_8765_" class="st23" cx="153.4" cy="46.6" r="5"/>
		<circle id="XMLID_8766_" class="st23" cx="137.2" cy="41.4" r="6.2"/>
	</g>
	<path id="XMLID_8767_" class="st23" d="M115.2,111.2H29c-5.4,0-9.7-5.2-9.7-11.6V34.2c0-6.4,4.3-11.6,9.7-11.6h86.2
		c5.4,0,9.7,5.2,9.7,11.6v65.4C124.9,106,120.6,111.2,115.2,111.2z"/>
	<text transform="matrix(1 7.969987e-03 -7.969987e-03 1 182.2287 34.8273)" class="st24 st25 st26">?!</text>
</g>
<g>
	<g id="XMLID_11321_">
		<g id="XMLID_11360_">
			<g id="XMLID_11366_">
				<path class="st27" d="M27.1,399.4c-6,0-10.9-5.3-10.9-11.9V240.1h317.4v147.4c0,6.6-4.9,11.9-10.9,11.9H27.1z"/>
				<g>
					<path class="st28" d="M333,240.7v146.8c0,6.3-4.6,11.3-10.3,11.3H27.1c-5.7,0-10.3-5.1-10.3-11.3V240.7H333 M334.2,239.6H15.6
						v148c0,6.9,5.1,12.5,11.5,12.5h295.7c6.3,0,11.5-5.6,11.5-12.5V239.6L334.2,239.6z"/>
				</g>
			</g>
			<g id="XMLID_11361_">
				<path id="XMLID_11365_" class="st28" d="M322.7,200H27.1c-6.3,0-11.5,5.1-11.5,11.5v29.6h318.6l0.2-29.6
					C334.4,205.1,329.1,200,322.7,200z"/>
				<circle id="XMLID_11364_" class="st29" cx="41.9" cy="221" r="7.1"/>
				<circle id="XMLID_11363_" class="st30" cx="69.1" cy="221" r="7.1"/>
				<circle id="XMLID_11362_" class="st31" cx="96.3" cy="221" r="7.1"/>
			</g>
		</g>
	</g>
	<g>
		<text transform="matrix(1 0 0 1 80.4797 270.7861)" class="st24 st32 st33">Your Recommended Funders</text>
		<g>
			<g>
				<path class="st34" d="M218.3,381.7h-86.5c-1.1,0-2-0.9-2-2v-86.5c0-1.1,0.9-2,2-2h86.5c1.1,0,2,0.9,2,2v86.5
					C220.3,380.8,219.4,381.7,218.3,381.7z"/>
				<g>
					<circle class="st35" cx="175" cy="336.4" r="22.1"/>
					<text transform="matrix(1 0 0 1 163.1256 335.8516)"><tspan x="0" y="0" class="st27 st36 st37">123</tspan><tspan x="0" y="7.2" class="st27 st36 st37">1234567</tspan><tspan x="0" y="14.5" class="st27 st36 st37">1234</tspan></text>
				</g>
			</g>
			<g>
				<path class="st34" d="M316.8,381.7h-86.5c-1.1,0-2-0.9-2-2v-86.5c0-1.1,0.9-2,2-2h86.5c1.1,0,2,0.9,2,2v86.5
					C318.8,380.8,317.9,381.7,316.8,381.7z"/>
				<g>
					<line class="st38" x1="257.4" y1="339.9" x2="288.3" y2="339.9"/>
					<text transform="matrix(1 0 0 1 240.8805 351.7607)"><tspan x="0" y="0" class="st39 st36 st40">1</tspan><tspan x="7.8" y="0" class="st39 st36 st41">2345678 </tspan><tspan x="37.9" y="0" class="st39 st36 st40">1</tspan><tspan x="45.7" y="0" class="st39 st36 st41">23456</tspan></text>
					<text transform="matrix(1 0 0 1 258.8971 359.0127)" class="st39 st42 st43">123456789</text>
					<rect x="264" y="317.7" class="st39" width="18" height="18"/>
					<text transform="matrix(1 0 0 1 267.2457 330.4482)" class="st27 st42 st44">1</text>
				</g>
			</g>
			<g>
				<path class="st34" d="M119.7,381.7H33.2c-1.1,0-2-0.9-2-2v-86.5c0-1.1,0.9-2,2-2h86.5c1.1,0,2,0.9,2,2v86.5
					C121.7,380.8,120.8,381.7,119.7,381.7z"/>
				<g>
					<path class="st45" d="M88.3,336.4c0,8.7-7.1,15.8-15.8,15.8s-15.8-7.1-15.8-15.8s7.1-15.8,15.8-15.8c4.7,0,15.8,0,15.8,0
						S88.3,332.4,88.3,336.4z"/>
					<text transform="matrix(1 -8.201291e-03 8.201291e-03 1 59.6824 339.0728)" class="st27 st36 st46">123456</text>
					<text transform="matrix(1 0 0 1 91.1105 339.0733)" class="st24 st42 st46">12345</text>
					<text transform="matrix(1 0 0 1 39.798 339.0733)" class="st24 st42 st46">123</text>
				</g>
			</g>
		</g>
	</g>
</g>
<g>
	<g id="XMLID_8768_">
		
			<rect x="40.4" y="449.1" transform="matrix(0.9692 -0.2464 0.2464 0.9692 -113.5272 29.3635)" class="st6" width="40.4" height="38.5"/>
		<g id="XMLID_8769_">
			
				<rect x="63.4" y="474.2" transform="matrix(0.9692 -0.2464 0.2464 0.9692 -116.4698 30.5163)" class="st10" width="0.7" height="13.1"/>
			
				<rect x="55.1" y="475.3" transform="matrix(0.9692 -0.2464 0.2464 0.9692 -116.8841 29.4586)" class="st47" width="8.4" height="13.1"/>
			
				<rect x="63.9" y="473.1" transform="matrix(0.9692 -0.2464 0.2464 0.9692 -116.0554 31.574)" class="st47" width="8.4" height="13.1"/>
		</g>
		
			<rect x="41.7" y="487" transform="matrix(0.9692 -0.2464 0.2464 0.9692 -118.4173 31.2793)" class="st10" width="48.2" height="3.8"/>
		<path class="st10" d="M66.9,438.6l-26.6,6.8c-0.2,0-0.3,0.1-0.4,0.3l-6.2,8.6l0.3,1.1l43.8-11.1l-0.3-1.1l-10.1-4.4
			C67.2,438.6,67.1,438.6,66.9,438.6z"/>
		<g id="XMLID_8770_">
			
				<rect x="46.6" y="465.6" transform="matrix(0.9692 -0.2464 0.2464 0.9692 -114.0082 26.8602)" class="st47" width="7.6" height="7"/>
			
				<rect x="56.4" y="463.1" transform="matrix(0.9692 -0.2464 0.2464 0.9692 -113.0874 29.2106)" class="st47" width="7.6" height="7"/>
			
				<rect x="66.1" y="460.6" transform="matrix(0.9692 -0.2464 0.2464 0.9692 -112.1798 31.5274)" class="st47" width="7.6" height="7"/>
		</g>
		<g id="XMLID_8771_">
			
				<rect x="44.3" y="456.7" transform="matrix(0.9692 -0.2464 0.2464 0.9692 -111.9005 26.0344)" class="st47" width="7.6" height="7"/>
			
				<rect x="54.2" y="454.2" transform="matrix(0.9692 -0.2464 0.2464 0.9692 -110.9796 28.3848)" class="st47" width="7.6" height="7"/>
			
				<rect x="63.9" y="451.8" transform="matrix(0.9692 -0.2464 0.2464 0.9692 -110.072 30.7017)" class="st47" width="7.6" height="7"/>
		</g>
	</g>
	<g id="Lg_Institutional_1_">
		<polygon class="st48" points="278.6,581.3 218.3,551.7 255,476.7 321.7,509.4 287.6,579.2 		"/>
		<polygon class="st10" points="273.6,582.9 212.6,553.1 214.3,549.8 275.3,579.6 		"/>
		
			<rect x="250.1" y="490.4" transform="matrix(0.8981 0.4397 -0.4397 0.8981 245.7111 -76.9716)" class="st10" width="77.7" height="2.7"/>
		
			<rect x="269.6" y="479.3" transform="matrix(0.8981 0.4397 -0.4397 0.8981 241.3486 -80.5208)" class="st10" width="49.8" height="2.7"/>
		<g id="XMLID_8773_">
			
				<rect x="254.1" y="555.9" transform="matrix(0.8981 0.4397 -0.4397 0.8981 273.2258 -54.5859)" class="st10" width="0.7" height="13.1"/>
			
				<rect x="246.1" y="553.8" transform="matrix(0.8981 0.4397 -0.4397 0.8981 271.9225 -52.9839)" class="st47" width="8.4" height="13.1"/>
			
				<rect x="254.3" y="557.9" transform="matrix(0.8981 0.4397 -0.4397 0.8981 274.5292 -56.1879)" class="st47" width="8.4" height="13.1"/>
		</g>
		<g id="XMLID_8774_">
			<g id="XMLID_8775_">
				
					<rect x="271.7" y="492.9" transform="matrix(0.8981 0.4397 -0.4397 0.8981 246.3456 -70.5811)" class="st47" width="7.6" height="7"/>
				
					<rect x="280.9" y="497.4" transform="matrix(0.8981 0.4397 -0.4397 0.8981 249.242 -74.1411)" class="st47" width="7.6" height="7"/>
				
					<rect x="289.9" y="501.8" transform="matrix(0.8981 0.4397 -0.4397 0.8981 252.097 -77.6503)" class="st47" width="7.6" height="7"/>
			</g>
			<g id="XMLID_8776_">
				
					<rect x="267.9" y="500.7" transform="matrix(0.8981 0.4397 -0.4397 0.8981 249.3772 -68.1147)" class="st47" width="7.6" height="7"/>
				
					<rect x="277" y="505.1" transform="matrix(0.8981 0.4397 -0.4397 0.8981 252.2735 -71.6747)" class="st47" width="7.6" height="7"/>
				
					<rect x="286.1" y="509.5" transform="matrix(0.8981 0.4397 -0.4397 0.8981 255.1285 -75.1839)" class="st47" width="7.6" height="7"/>
			</g>
			<g id="XMLID_8777_">
				
					<rect x="264" y="508.8" transform="matrix(0.8981 0.4397 -0.4397 0.8981 252.535 -65.5455)" class="st47" width="7.6" height="7"/>
				
					<rect x="273.1" y="513.2" transform="matrix(0.8981 0.4397 -0.4397 0.8981 255.4314 -69.1055)" class="st47" width="7.6" height="7"/>
				
					<rect x="282.1" y="517.6" transform="matrix(0.8981 0.4397 -0.4397 0.8981 258.2863 -72.6147)" class="st47" width="7.6" height="7"/>
			</g>
			<g id="XMLID_8778_">
				
					<rect x="256.3" y="524.3" transform="matrix(0.8981 0.4397 -0.4397 0.8981 258.5981 -60.6127)" class="st47" width="7.6" height="7"/>
				
					<rect x="265.5" y="528.8" transform="matrix(0.8981 0.4397 -0.4397 0.8981 261.4944 -64.1727)" class="st47" width="7.6" height="7"/>
				
					<rect x="274.5" y="533.2" transform="matrix(0.8981 0.4397 -0.4397 0.8981 264.3494 -67.6818)" class="st47" width="7.6" height="7"/>
			</g>
			<g id="XMLID_8779_">
				
					<rect x="252.5" y="532.1" transform="matrix(0.8981 0.4397 -0.4397 0.8981 261.6296 -58.1463)" class="st47" width="7.6" height="7"/>
				
					<rect x="261.7" y="536.6" transform="matrix(0.8981 0.4397 -0.4397 0.8981 264.5259 -61.7063)" class="st47" width="7.6" height="7"/>
				
					<rect x="270.7" y="541" transform="matrix(0.8981 0.4397 -0.4397 0.8981 267.381 -65.2154)" class="st47" width="7.6" height="7"/>
			</g>
			<g id="XMLID_8780_">
				
					<rect x="248.6" y="540.2" transform="matrix(0.8981 0.4397 -0.4397 0.8981 264.7874 -55.5771)" class="st47" width="7.6" height="7"/>
				
					<rect x="257.7" y="544.7" transform="matrix(0.8981 0.4397 -0.4397 0.8981 267.6838 -59.1371)" class="st47" width="7.6" height="7"/>
				
					<rect x="266.7" y="549.1" transform="matrix(0.8981 0.4397 -0.4397 0.8981 270.5388 -62.6463)" class="st47" width="7.6" height="7"/>
			</g>
			<g id="XMLID_8781_">
				
					<rect x="309.5" y="510.2" transform="matrix(0.8981 0.4397 -0.4397 0.8981 257.5413 -84.342)" class="st47" width="2.7" height="7"/>
				
					<rect x="304.3" y="507.7" transform="matrix(0.8981 0.4397 -0.4397 0.8981 255.9177 -82.3464)" class="st47" width="2.7" height="7"/>
			</g>
			<g id="XMLID_8782_">
				
					<rect x="262" y="486.9" transform="matrix(0.8981 0.4397 -0.4397 0.8981 242.4961 -65.8496)" class="st47" width="2.7" height="7"/>
				
					<rect x="256.9" y="484.4" transform="matrix(0.8981 0.4397 -0.4397 0.8981 240.8725 -63.854)" class="st47" width="2.7" height="7"/>
			</g>
			<g id="XMLID_8783_">
				
					<rect x="305.6" y="517.9" transform="matrix(0.8981 0.4397 -0.4397 0.8981 260.5728 -81.8756)" class="st47" width="2.7" height="7"/>
				
					<rect x="300.5" y="515.4" transform="matrix(0.8981 0.4397 -0.4397 0.8981 258.9492 -79.88)" class="st47" width="2.7" height="7"/>
			</g>
			<g id="XMLID_8784_">
				
					<rect x="258.2" y="494.7" transform="matrix(0.8981 0.4397 -0.4397 0.8981 245.5276 -63.3832)" class="st47" width="2.7" height="7"/>
				
					<rect x="253.1" y="492.2" transform="matrix(0.8981 0.4397 -0.4397 0.8981 243.904 -61.3876)" class="st47" width="2.7" height="7"/>
			</g>
			<g id="XMLID_8785_">
				
					<rect x="301.6" y="526.1" transform="matrix(0.8981 0.4397 -0.4397 0.8981 263.7653 -79.2782)" class="st47" width="2.7" height="7"/>
				
					<rect x="296.5" y="523.6" transform="matrix(0.8981 0.4397 -0.4397 0.8981 262.1417 -77.2826)" class="st47" width="2.7" height="7"/>
			</g>
			<g id="XMLID_8786_">
				
					<rect x="254.2" y="502.9" transform="matrix(0.8981 0.4397 -0.4397 0.8981 248.7201 -60.7858)" class="st47" width="2.7" height="7"/>
				
					<rect x="249.1" y="500.4" transform="matrix(0.8981 0.4397 -0.4397 0.8981 247.0965 -58.7902)" class="st47" width="2.7" height="7"/>
			</g>
			<g id="XMLID_8787_">
				
					<rect x="294.1" y="541.6" transform="matrix(0.8981 0.4397 -0.4397 0.8981 269.7937 -74.3736)" class="st47" width="2.7" height="7"/>
				
					<rect x="288.9" y="539.1" transform="matrix(0.8981 0.4397 -0.4397 0.8981 268.1701 -72.378)" class="st47" width="2.7" height="7"/>
			</g>
			<g id="XMLID_8788_">
				
					<rect x="246.6" y="518.4" transform="matrix(0.8981 0.4397 -0.4397 0.8981 254.7485 -55.8812)" class="st47" width="2.7" height="7"/>
				
					<rect x="241.5" y="515.9" transform="matrix(0.8981 0.4397 -0.4397 0.8981 253.1249 -53.8856)" class="st47" width="2.7" height="7"/>
			</g>
			<g id="XMLID_8789_">
				
					<rect x="290.3" y="549.4" transform="matrix(0.8981 0.4397 -0.4397 0.8981 272.8252 -71.9071)" class="st47" width="2.7" height="7"/>
				
					<rect x="285.1" y="546.9" transform="matrix(0.8981 0.4397 -0.4397 0.8981 271.2017 -69.9116)" class="st47" width="2.7" height="7"/>
			</g>
			<g id="XMLID_8790_">
				
					<rect x="275.1" y="566.3" transform="matrix(0.8981 0.4397 -0.4397 0.8981 278.7231 -63.5244)" class="st47" width="2.7" height="7"/>
				
					<rect x="270" y="563.8" transform="matrix(0.8981 0.4397 -0.4397 0.8981 277.0995 -61.5288)" class="st47" width="2.7" height="7"/>
			</g>
			<g id="XMLID_8791_">
				
					<rect x="238.8" y="548.5" transform="matrix(0.8981 0.4397 -0.4397 0.8981 267.2162 -49.3809)" class="st47" width="2.7" height="7"/>
				
					<rect x="233.7" y="546" transform="matrix(0.8981 0.4397 -0.4397 0.8981 265.5926 -47.3853)" class="st47" width="2.7" height="7"/>
			</g>
			<g id="XMLID_8792_">
				
					<rect x="242.8" y="526.2" transform="matrix(0.8981 0.4397 -0.4397 0.8981 257.7801 -53.4147)" class="st47" width="2.7" height="7"/>
				
					<rect x="237.7" y="523.6" transform="matrix(0.8981 0.4397 -0.4397 0.8981 256.1565 -51.4192)" class="st47" width="2.7" height="7"/>
			</g>
		</g>
		
			<rect x="268.7" y="481.4" transform="matrix(0.8981 0.4397 -0.4397 0.8981 243.5298 -78.7462)" class="st6" width="46" height="9.7"/>
		<g id="XMLID_8793_">
			
				<rect x="278.8" y="478.4" transform="matrix(0.8981 0.4397 -0.4397 0.8981 240.69 -75.1825)" class="st47" width="7.6" height="7"/>
			
				<rect x="288" y="482.9" transform="matrix(0.8981 0.4397 -0.4397 0.8981 243.5864 -78.7425)" class="st47" width="7.6" height="7"/>
			
				<rect x="297" y="487.3" transform="matrix(0.8981 0.4397 -0.4397 0.8981 246.4414 -82.2516)" class="st47" width="7.6" height="7"/>
		</g>
		<path class="st6" d="M310.8,484.9l-0.9,1.8l-29.8-14.6l0.9-1.8c0.1-0.2,0.3-0.4,0.5-0.4l19.1-3c0.3,0,0.6,0.1,0.7,0.4l9.3,16.9
			C310.9,484.4,310.9,484.6,310.8,484.9z"/>
	</g>
	<g id="XMLID_8772_">
		<path id="XMLID_8795_" class="st49" d="M25.5,483.5c0,9.8,18.5,17.7,41.3,17.7s41.3-7.9,41.3-17.7H25.5z"/>
		<path id="XMLID_8796_" class="st49" d="M225,566.3c0,9.8,18.5,17.7,41.3,17.7s41.3-7.9,41.3-17.7H225z"/>
		<line class="st50" x1="266.3" y1="464.2" x2="66.9" y2="402.6"/>
		<line id="XMLID_8797_" class="st50" x1="166.6" y1="594.1" x2="166.6" y2="433.4"/>
		<rect id="XMLID_8798_" x="51" y="592.1" class="st6" width="237.4" height="7.9"/>
		<g id="XMLID_8803_">
			<path class="st49" d="M266.3,473.8l36,88.9h-72L266.3,473.8 M266.3,464.2L225,566.3h82.7L266.3,464.2L266.3,464.2z"/>
		</g>
		<g id="XMLID_8808_">
			<path class="st49" d="M66.9,410.5l35.4,69.4H31.4L66.9,410.5 M66.9,402.6l-41.3,80.9h82.7L66.9,402.6L66.9,402.6z"/>
		</g>
		<circle id="XMLID_8809_" class="st10" cx="66.9" cy="403.8" r="3.8"/>
		<circle id="XMLID_8810_" class="st10" cx="266.3" cy="464.2" r="3.8"/>
		<circle id="XMLID_8811_" class="st6" cx="166.6" cy="433.4" r="3.8"/>
	</g>
</g>
<g>
	<path class="st51" d="M453,341.7l6.5-5.7v-4.9l0,0H370v89.5h89.5v-56.6l-6.5,6.7v43.3h-76.5v-76.5H453V341.7z"/>
	<polygon class="st52" points="399.5,398 411.4,409.8 480,341.2 468.1,329.4 410.9,386.6 392.8,368.6 381.5,379.9 	"/>
</g>
<g>
	<path class="st52" d="M427.1,173.9l15.2,30.8c0.3,0.7,1,1.2,1.7,1.3l34,4.9c1.9,0.3,2.6,2.6,1.3,3.9l-24.6,24
		c-0.5,0.5-0.8,1.3-0.7,2l5.8,33.9c0.3,1.9-1.7,3.3-3.3,2.4l-30.4-16c-0.7-0.4-1.5-0.4-2.1,0l-30.4,16c-1.7,0.9-3.7-0.5-3.3-2.4
		l5.8-33.9c0.1-0.7-0.1-1.5-0.7-2l-24.6-24c-1.4-1.3-0.6-3.7,1.3-3.9l34-4.9c0.8-0.1,1.4-0.6,1.7-1.3l15.2-30.8
		C423.8,172.2,426.2,172.2,427.1,173.9z"/>
</g>
<g>
	<g>
		<path class="st53" d="M373.4,52.5c12.1-18.3,28.9-26.3,40-29.4"/>
		<path class="st53" d="M372.3,71.8c13.2-27,32.2-41.2,64.2-44"/>
		<path class="st53" d="M452.3,39c-34.4-7.1-63.9,9.1-75.6,48.6"/>
		<path class="st53" d="M384.8,100.5c4.8-53.4,51-64,80.3-47.1"/>
		<path class="st53" d="M395.9,111.6c-8-61.4,53.2-71.2,77.9-38.7"/>
		<path class="st53" d="M411,121.1c-30.7-51.1,41-82.4,64-31.8"/>
		<path class="st53" d="M472.3,102.2c-15.4-32.4-36.3-33.3-47.5-26.7c-11.8,7-17,23.6-11.5,33.1c4.1,7.1,11.1,13.5,12.6,18.2"/>
		<path class="st53" d="M467.1,111.6c-11.5-29.7-27.3-35.1-37.8-28.8c-14.6,8.8-7.9,22.9-6.5,24.9c1.4,2,12.3,13.9,13.1,20.3"/>
		<path class="st53" d="M460.3,119c-8.8-22.8-21.2-34.4-27.9-27.7c-7.8,7.8-0.7,13,4.8,20.2c3.6,4.8,6.6,10.4,7.4,15.2"/>
		<path class="st53" d="M438,98.7c3.4,3.8,11.6,13.4,14.8,24.6"/>
	</g>
	<polygon class="st51" points="473.5,26.2 464.5,26.2 464.5,22 477.7,22 477.7,35.2 473.5,35.2 	"/>
	<polygon class="st51" points="376.6,26.2 385.6,26.2 385.6,22 372.3,22 372.3,35.2 376.6,35.2 	"/>
	<polygon class="st51" points="473.5,122.8 464.5,122.8 464.5,127.1 477.7,127.1 477.7,113.8 473.5,113.8 	"/>
	<polygon class="st51" points="376.6,122.8 385.6,122.8 385.6,127.1 372.3,127.1 372.3,113.8 376.6,113.8 	"/>
</g>
<g>
	<path id="grey" class="st54" d="M74.8,711.3c-0.2-1.3,0.7-2.3,1.6-3.2c1-0.8,4-1.2,3.5-7c-0.5-6.1-6.8-10.5-14.8-9.8
		s-9.7,6.8-9.1,11.2c0.5,4,4.7,2.8,5.2,8c0.5,5.2-3,4.6-3,4.6l-26.5-1.4c0,0-1.4,9.4-1.6,12.7s-0.2,8.4,0,12.4
		c0.9,0.9,3.3,3.2,5.2,0.2c1.7-2.7,3.5-5,9.1-3.7c7.1,1.6,5.8,10.6,5,12.6c-0.9,2.9-6.7,6.7-9.7,6.1c-3.7-0.7-3.3-4-6.1-4.2
		c-2.8-0.2-3.4,1.8-3.5,3.3c0,5.7,0,22.5,0,22.5s22.9-2.5,25.5-1.9c1.7,1,2.5,4,1.9,5.9c-1.1,3.5-7,2.1-6.3,10.5
		c0.5,6.4,6.7,8.9,10.9,9.1c4.2,0.2,9.3-0.4,12-3.9c1.1-1.4,2.1-4.4,1.9-6.6c-0.2-1.9-2.1-4.8-3.3-6.3c-3.4-4.6-0.4-8,1.6-7.9
		c4.5,0.3,11.3,3.3,17.8,2.4c0.6-3.6,0.9-6,1.6-9.3c1.8-9.1,2.9-20.3-2-16.9c-5.9,4.1-10.2,1.5-11.8-0.3c-1.4-1.5-6.4-6.9-3.6-15.3
		c2.8-8.4,7.7-9.4,11-9.5c3.6-0.1,6.4,4.6,8.2,3.5c3.2-1.9-1.4-15.4-1.4-15.4s-16.7,0.7-18-0.4C75.5,713.1,75,712.2,74.8,711.3z
		 M141.9,716.7l22.2,0.9c0,0-1,13.8-0.6,18.5c0.1,1.3,0.7,3.9,3.4,4.1c2.7,0.2,3.3-4,7.4-4.2c4.6-0.2,9.3,4.6,9.4,8.8
		c0.2,5.2-2.4,9.6-6.8,10.1c-4.2,0.5-7.1-5.7-10.5-5.1c-2.7,0.5-3.2,1.3-3.2,2.3c-0.2,8.2,1.6,23.3,1.6,23.3s-21.3-0.5-28.4,0
		c-1.8,0.1-5.3,0.7-7,1.8c-1.8,1-2.2,2.6-1.9,4.2c0.2,1.5,3.7,4.3,3.4,7.6s-3.1,6.5-10.1,6.2c-7-0.3-8.1-5-7.9-7.7
		c0.2-2.6,3-4.3,2.9-8.3s-4.6-4.2-9.1-4.2c-4.5,0.1-7.7,1.2-10.2,1.6c0.2-4.1,2.9-17.3,2.3-23.7c-0.2-2.1-0.4-7.6-4.3-7.8
		s-4.6,3.8-9,3.6c-4.4-0.2-6.2-6.1-5.6-9.8c0.6-3.7,2.2-8.3,7-8.5s4.8,4.4,9.4,3.4s4.1-7.5,3.9-9.3c-0.2-1.8-1.7-6.6-1.7-6.6
		l16.6-0.7c0,0-3,4.6-1.7,11.5c1,5.3,8.1,11.3,16.2,11.2c7.4-0.1,15.2-4.4,15.9-11.1C146.3,721.7,141.9,716.7,141.9,716.7z
		 M121.2,712.9c-0.8,0-22.9,0.8-22.9,0.8s-1.4-12.2-1.5-15c-0.1-1.5,0.8-4.5,3.7-4.7c2.6-0.2,5,3.3,8.4,3.2c3.1-0.1,7.7-3.5,7.7-9.4
		c0-5.9-2.8-9.4-6.5-9.4c-3.3,0-6.5,3.8-9.3,2.5c-3.2-1.4-3.1-10.6-2.9-13.4c0.2-2.4,2.7-16.6,2.7-16.6s16.2,1.8,19.6,1.6
		c2.3-0.1,5.6-1.1,5.8-4.1c0.3-4.7-6.1-6.9-5.2-12.4c0.8-5.5,7.2-9.1,13-8.8c5.9,0.3,12.6,5.3,12,10.8c-0.7,6-5.2,5.4-6,9.9
		c-0.5,2.8,1.2,4.7,3.2,5c2.2,0.3,23.8-1.1,23.8-1.1s0.3,14.6,0.3,19.4c0,2.2,0,5-2.9,5.2c-2.9,0.3-4.1-4-9.9-3.6
		c-5.8,0.4-7.8,7.2-7.6,11.6c0.3,4.5,3.3,7.6,7.4,7.8c4.7,0.2,5.5-5.1,9.2-5.1s3.7,1.5,3.7,2.4c0,0.9-2.7,23.1-2.7,23.1l-29.4-0.6
		c0,0,7,9.7,6.5,14.8c-0.5,5.1-5.6,8.5-11.6,8.5c-7,0-12.6-5.4-12.3-11.4C117.7,719,121.2,712.9,121.2,712.9z"/>
	<path id="yellow_path" class="st55" d="M1.9,638.9c0,0,9,10.4,13.4,18.5c1.6,3,0.1,4.4-1.6,5.2c-2,0.9-8.4-1.3-11.4,1
		c-2.7,2.1-3.6,9.1,0.7,13.2c3,2.9,9.7,3.8,12.4,0.8c2.4-2.7,1.5-6.1,4.6-7s3.9,1.7,4.1,1.9c0.4,0.6,9,16,10.3,18.5
		c3.8-1,15.5-6.4,16.4-6.8c1-0.5,6.4-2.5,4.3-6.6c-2.1-4.1-9.3-2.5-11.3-8.5s3-11.3,7.3-13.8s13.4-3.1,16.3,2.9
		c3.1,6.4-1,7.6,0.3,11.7c1,3,3.1,2.7,4.3,2.3c2.3-0.7,16.2-8.5,19.7-12.7c-4.6-5-8-10.1-8.8-12.6c-0.4-1.4-1-4.4,1-5.9
		c1.6-1.1,7.2-0.3,9.8-2.5c2.6-2.2,3.1-7.3,0.5-11.2c-2.6-3.9-6.7-5.4-9.7-3.6c-2.3,1.3-2.3,5.5-5.1,6.5c-2.6,0.9-8.2-2.8-10.9-9.9
		c-2.8-7.1-4.4-12.4-6.2-16.7c-3.7,3.8-8.4,7.1-9.5,7.7c-1.8,1-5.7,3.2-8.2,0.8c-2.2-2.2-0.2-6-2.2-9.1c-1.8-2.8-8.5-4.1-12.3-1.8
		c-3.3,2.1-6.6,6.7-3.7,10.3c2.5,3.2,5.8,0.8,7,5.8c0.7,3.1-5.1,7.7-11.3,10.9C18.2,630.3,1.9,638.9,1.9,638.9z"/>
</g>
</svg>
