<?xml version="1.0" encoding="utf-8"?>
<!-- Generator: Adobe Illustrator 21.0.0, SVG Export Plug-In . SVG Version: 6.00 Build 0)  -->
<svg version="1.1" id="Layer_1" xmlns="http://www.w3.org/2000/svg" xmlns:xlink="http://www.w3.org/1999/xlink" x="0px" y="0px"
	 viewBox="0 0 817 144" style="enable-background:new 0 0 817 144;" xml:space="preserve">
<style type="text/css">
	.st0{fill:#E6007E;}
	.st1{fill:#FFFFFF;}
	.st2{fill:#D7005A;}
	.st3{fill:#9DC5C9;}
	.st4{fill:#3D6F90;}
</style>
<g id="blf">
	<g>
		<g>
			<circle class="st0" cx="23.1" cy="122.2" r="0.3"/>
			<circle class="st0" cx="26.5" cy="118.8" r="1.3"/>
			<path class="st0" d="M26.5,122.7c-0.3,0-0.6-0.3-0.6-0.6c0-0.3,0.3-0.6,0.6-0.6c0.3,0,0.6,0.3,0.6,0.6
				C27,122.5,26.8,122.7,26.5,122.7z"/>
			
				<ellipse transform="matrix(4.947925e-03 -1 1 4.947925e-03 -99.1483 151.305)" class="st0" cx="26.5" cy="125.5" rx="0.3" ry="0.3"/>
			<ellipse class="st0" cx="29.8" cy="122.2" rx="1.2" ry="1.2"/>
			<ellipse class="st0" cx="29.8" cy="125.5" rx="0.5" ry="0.5"/>
			<path class="st0" d="M29.8,129.1c-0.1,0-0.2-0.1-0.2-0.2c0-0.1,0.1-0.2,0.2-0.2s0.2,0.1,0.2,0.2S29.9,129.1,29.8,129.1z"/>
			<ellipse class="st0" cx="33.2" cy="125.5" rx="1" ry="1"/>
			<ellipse class="st0" cx="33.2" cy="128.9" rx="0.4" ry="0.4"/>
			<circle class="st0" cx="33.2" cy="132.2" r="0.1"/>
			<circle class="st0" cx="36.5" cy="128.9" r="0.8"/>
			<circle class="st0" cx="36.5" cy="132.2" r="0.3"/>
			<ellipse class="st0" cx="56.6" cy="135.5" rx="1.3" ry="1.3"/>
			<path class="st0" d="M52.1,135.5c0,0.6,0.5,1.1,1.1,1.1s1.1-0.5,1.1-1.1s-0.5-1.1-1.1-1.1S52.1,134.9,52.1,135.5z"/>
			<circle class="st0" cx="49.9" cy="135.5" r="0.8"/>
			<circle class="st0" cx="46.5" cy="135.5" r="0.5"/>
			<ellipse class="st0" cx="49.9" cy="138.9" rx="0.3" ry="0.3"/>
			<path class="st0" d="M56.4,142.2c0,0.1,0.1,0.1,0.1,0.1c0.1,0,0.1-0.1,0.1-0.1c0-0.1-0.1-0.1-0.1-0.1
				C56.5,142.1,56.4,142.2,56.4,142.2z"/>
			<circle class="st0" cx="46.5" cy="138.9" r="0.2"/>
			<circle class="st0" cx="39.8" cy="135.5" r="0.2"/>
			<circle class="st0" cx="53.2" cy="138.9" r="0.3"/>
			<ellipse class="st0" cx="56.6" cy="138.9" rx="0.5" ry="0.5"/>
			<circle class="st0" cx="59.9" cy="138.9" r="0.7"/>
			<path class="st0" d="M59.7,142.2c0,0.1,0.1,0.2,0.2,0.2c0.1,0,0.2-0.1,0.2-0.2c0-0.1-0.1-0.2-0.2-0.2S59.7,142.1,59.7,142.2z"/>
			<ellipse class="st0" cx="43.2" cy="135.5" rx="0.3" ry="0.3"/>
			<ellipse class="st0" cx="46.5" cy="132.2" rx="1.3" ry="1.3"/>
			<circle class="st0" cx="43.2" cy="132.2" r="0.9"/>
			<circle class="st0" cx="39.8" cy="132.2" r="0.5"/>
			<path class="st0" d="M38.6,128.9c0,0.7,0.6,1.3,1.2,1.2c0.7,0,1.2-0.6,1.2-1.2c0-0.7-0.6-1.2-1.2-1.2
				C39.2,127.6,38.6,128.2,38.6,128.9z"/>
			<circle class="st0" cx="23.1" cy="118.8" r="0.6"/>
			<circle class="st0" cx="19.8" cy="118.8" r="0.3"/>
			<circle class="st0" cx="23.1" cy="115.5" r="1.2"/>
			<circle class="st0" cx="19.8" cy="115.5" r="0.5"/>
			<ellipse class="st0" cx="16.4" cy="115.5" rx="0.2" ry="0.2"/>
			<circle class="st0" cx="19.8" cy="112.1" r="1"/>
			<ellipse class="st0" cx="16.4" cy="112.1" rx="0.4" ry="0.4"/>
			<ellipse class="st0" cx="13.1" cy="112.1" rx="0.1" ry="0.1"/>
			<ellipse class="st0" cx="16.4" cy="108.8" rx="0.8" ry="0.8"/>
			<path class="st0" d="M12.8,108.8c0,0.2,0.1,0.3,0.3,0.3s0.3-0.1,0.3-0.3c0-0.2-0.1-0.3-0.3-0.3C12.9,108.5,12.8,108.6,12.8,108.8
				z"/>
			<circle class="st0" cx="9.7" cy="88.7" r="1.3"/>
			<circle class="st0" cx="9.7" cy="92.1" r="1.1"/>
			<circle class="st0" cx="9.7" cy="95.4" r="0.8"/>
			<ellipse class="st0" cx="9.7" cy="98.8" rx="0.5" ry="0.5"/>
			<circle class="st0" cx="6.4" cy="95.4" r="0.3"/>
			<ellipse class="st0" cx="3.1" cy="88.7" rx="0.1" ry="0.1"/>
			<circle class="st0" cx="6.4" cy="98.8" r="0.2"/>
			<path class="st0" d="M9.7,105.6c-0.1,0-0.2-0.1-0.2-0.2s0.1-0.2,0.2-0.2c0.1,0,0.2,0.1,0.2,0.2S9.8,105.6,9.7,105.6z"/>
			<circle class="st0" cx="6.4" cy="92.1" r="0.3"/>
			<ellipse class="st0" cx="6.4" cy="88.7" rx="0.5" ry="0.5"/>
			<circle class="st0" cx="6.4" cy="85.4" r="0.7"/>
			<ellipse class="st0" cx="3" cy="85.4" rx="0.2" ry="0.2"/>
			<circle class="st0" cx="9.7" cy="102.1" r="0.3"/>
			<circle class="st0" cx="13.1" cy="98.8" r="1.3"/>
			<ellipse class="st0" cx="13.1" cy="102.1" rx="0.9" ry="0.9"/>
			<path class="st0" d="M13.1,105.9c-0.3,0-0.5-0.2-0.5-0.5s0.2-0.5,0.5-0.5s0.5,0.2,0.5,0.5C13.5,105.7,13.3,105.9,13.1,105.9z"/>
			<path class="st0" d="M16.4,106.7c-0.7,0-1.2-0.6-1.2-1.2c0-0.7,0.6-1.2,1.2-1.2c0.7,0,1.2,0.6,1.2,1.2
				C17.7,106.1,17.1,106.7,16.4,106.7z"/>
			<circle class="st0" cx="23.1" cy="21.8" r="0.3"/>
			<circle class="st0" cx="26.5" cy="25.2" r="1.3"/>
			<ellipse class="st0" cx="26.5" cy="21.8" rx="0.6" ry="0.6"/>
			<circle class="st0" cx="26.5" cy="18.5" r="0.3"/>
			<ellipse class="st0" cx="29.8" cy="21.8" rx="1.2" ry="1.2"/>
			<circle class="st0" cx="29.8" cy="18.5" r="0.5"/>
			<ellipse class="st0" cx="29.8" cy="15.1" rx="0.2" ry="0.2"/>
			<circle class="st0" cx="33.2" cy="18.5" r="1"/>
			<circle class="st0" cx="33.2" cy="15.1" r="0.4"/>
			<ellipse class="st0" cx="33.2" cy="11.8" rx="0.1" ry="0.1"/>
			<circle class="st0" cx="36.5" cy="15.1" r="0.8"/>
			<circle class="st0" cx="36.5" cy="11.8" r="0.3"/>
			<circle class="st0" cx="56.6" cy="8.4" r="1.3"/>
			<circle class="st0" cx="53.2" cy="8.4" r="1.1"/>
			<circle class="st0" cx="49.9" cy="8.4" r="0.8"/>
			<circle class="st0" cx="46.5" cy="8.4" r="0.5"/>
			<circle class="st0" cx="49.9" cy="5.1" r="0.3"/>
			<circle class="st0" cx="56.6" cy="1.8" r="0.1"/>
			<circle class="st0" cx="46.5" cy="5.1" r="0.2"/>
			<circle class="st0" cx="39.8" cy="8.5" r="0.2"/>
			<circle class="st0" cx="53.2" cy="5.1" r="0.3"/>
			<ellipse class="st0" cx="56.6" cy="5.1" rx="0.5" ry="0.5"/>
			<ellipse class="st0" cx="59.9" cy="5.1" rx="0.7" ry="0.7"/>
			<path class="st0" d="M62.3,5.1L62.3,5.1c0,0.5,0.4,0.9,1,0.9c0.5,0,0.9-0.4,0.9-0.9s-0.4-0.9-0.9-0.9C62.7,4.2,62.3,4.6,62.3,5.1
				z"/>
			<path class="st0" d="M65.9,4.4c-0.2,0.2-0.3,0.4-0.3,0.7l0,0c0,0.3,0.1,0.5,0.3,0.7c0.2,0.2,0.4,0.3,0.7,0.3c0.6,0,1-0.5,1-1
				c0-0.6-0.5-1-1-1C66.3,4.1,66.1,4.2,65.9,4.4z"/>
			<path class="st0" d="M69.1,4.3c-0.2,0.2-0.3,0.5-0.3,0.8s0.1,0.6,0.3,0.8c0.2,0.2,0.5,0.3,0.8,0.3c0.6,0,1.1-0.5,1.1-1.1
				S70.5,4,69.9,4C69.6,4,69.4,4.1,69.1,4.3z"/>
			<circle class="st0" cx="59.9" cy="1.8" r="0.2"/>
			<path class="st0" d="M62.9,1.8L62.9,1.8c0,0.2,0.2,0.4,0.4,0.4s0.4-0.2,0.4-0.4s-0.2-0.4-0.4-0.4C63,1.4,62.9,1.5,62.9,1.8z"/>
			<path class="st0" d="M66.6,1.3c-0.2,0-0.4,0.2-0.4,0.4l0,0c0,0.2,0.2,0.4,0.4,0.4C66.8,2.2,67,2,67,1.8c0-0.1,0-0.2-0.1-0.3
				C66.8,1.4,66.7,1.3,66.6,1.3z"/>
			<path class="st0" d="M69.5,1.8L69.5,1.8c0,0.2,0.2,0.5,0.5,0.5c0.1,0,0.2,0,0.3-0.1c0.1-0.1,0.1-0.2,0.1-0.3c0-0.1,0-0.2-0.1-0.3
				c-0.1-0.1-0.2-0.1-0.3-0.1C69.7,1.3,69.5,1.5,69.5,1.8z"/>
			<circle class="st0" cx="43.2" cy="8.4" r="0.3"/>
			<circle class="st0" cx="46.5" cy="11.8" r="1.3"/>
			<circle class="st0" cx="43.2" cy="11.8" r="0.9"/>
			<circle class="st0" cx="39.8" cy="11.8" r="0.5"/>
			<ellipse class="st0" cx="39.8" cy="15.1" rx="1.2" ry="1.2"/>
			<path class="st0" d="M72.4,4.3c-0.2,0.2-0.3,0.5-0.3,0.8c0,0.7,0.5,1.2,1.2,1.2s1.2-0.5,1.2-1.2S74,3.9,73.3,3.9
				C73,3.9,72.7,4,72.4,4.3z"/>
			<path class="st0" d="M73.3,1.3c-0.1,0-0.2,0-0.3,0.1c-0.1,0.1-0.1,0.2-0.1,0.3s0,0.2,0.1,0.3s0.2,0.1,0.3,0.1s0.2,0,0.3-0.1
				c0.1-0.1,0.1-0.2,0.1-0.3l0,0C73.8,1.5,73.5,1.3,73.3,1.3z"/>
			<circle class="st0" cx="23.1" cy="25.2" r="0.6"/>
			<ellipse class="st0" cx="19.8" cy="25.2" rx="0.2" ry="0.3"/>
			<path class="st0" d="M21.9,28.5c0-0.6,0.5-1.2,1.2-1.2c0.6,0,1.2,0.5,1.2,1.2s-0.5,1.2-1.2,1.2C22.5,29.7,21.9,29.2,21.9,28.5z"
				/>
			<ellipse class="st0" cx="19.8" cy="28.5" rx="0.5" ry="0.5"/>
			<circle class="st0" cx="16.4" cy="28.5" r="0.2"/>
			<circle class="st0" cx="19.8" cy="31.9" r="1"/>
			<ellipse class="st0" cx="16.4" cy="31.9" rx="0.4" ry="0.4"/>
			<ellipse class="st0" cx="13.1" cy="31.9" rx="0.1" ry="0.1"/>
			<ellipse class="st0" cx="16.4" cy="35.2" rx="0.8" ry="0.8"/>
			<circle class="st0" cx="13.1" cy="35.2" r="0.3"/>
			<circle class="st0" cx="9.7" cy="55.3" r="1.3"/>
			<circle class="st0" cx="9.7" cy="51.9" r="1.1"/>
			<circle class="st0" cx="9.7" cy="48.6" r="0.8"/>
			<circle class="st0" cx="9.7" cy="45.2" r="0.5"/>
			<circle class="st0" cx="6.4" cy="48.6" r="0.3"/>
			<circle class="st0" cx="3.1" cy="55.3" r="0.1"/>
			<circle class="st0" cx="113.4" cy="132.2" r="0.1"/>
			<path class="st0" d="M90.2,142.2c0,0.1-0.1,0.1-0.1,0.1c-0.1,0-0.2-0.1-0.2-0.1c0-0.1,0.1-0.1,0.2-0.1
				C90.1,142.1,90.2,142.2,90.2,142.2z"/>
			<circle class="st0" cx="133.5" cy="112.1" r="0.1"/>
			<circle class="st0" cx="143.5" cy="88.7" r="0.1"/>
			<ellipse class="st0" cx="113.4" cy="11.8" rx="0.1" ry="0.1"/>
			<circle class="st0" cx="90" cy="1.8" r="0.1"/>
			<circle class="st0" cx="133.5" cy="31.9" r="0.1"/>
			<ellipse class="st0" cx="143.5" cy="55.3" rx="0.1" ry="0.1"/>
			<circle class="st0" cx="6.4" cy="45.2" r="0.2"/>
			<circle class="st0" cx="9.7" cy="38.6" r="0.2"/>
			<circle class="st0" cx="6.4" cy="51.9" r="0.3"/>
			<circle class="st0" cx="6.4" cy="55.3" r="0.5"/>
			<path class="st0" d="M6.4,57.9c-0.4,0-0.7,0.3-0.7,0.7s0.3,0.7,0.7,0.7s0.7-0.3,0.7-0.7S6.8,57.9,6.4,57.9z"/>
			<ellipse class="st0" cx="3" cy="58.6" rx="0.2" ry="0.2"/>
			<ellipse class="st0" cx="9.7" cy="41.9" rx="0.3" ry="0.3"/>
			<circle class="st0" cx="13.1" cy="45.2" r="1.3"/>
			<circle class="st0" cx="13.1" cy="41.9" r="0.9"/>
			
				<ellipse transform="matrix(1 -2.399986e-03 2.399986e-03 1 -9.260190e-02 3.155136e-02)" class="st0" cx="13.1" cy="38.6" rx="0.5" ry="0.5"/>
			<circle class="st0" cx="16.4" cy="38.6" r="1.2"/>
			<circle class="st0" cx="123.5" cy="122.2" r="0.3"/>
			<path class="st0" d="M120.1,120.1c0.7,0,1.3-0.6,1.3-1.3c0-0.7-0.6-1.3-1.3-1.3c-0.7,0-1.3,0.6-1.3,1.3
				C118.9,119.5,119.4,120.1,120.1,120.1z"/>
			<path class="st0" d="M120.1,122.7c0.3,0,0.6-0.3,0.6-0.6c0-0.3-0.3-0.6-0.6-0.6c-0.3,0-0.6,0.3-0.6,0.6
				C119.5,122.5,119.8,122.7,120.1,122.7z"/>
			<path class="st0" d="M120.1,125.8c0.1,0,0.2-0.1,0.2-0.2s-0.1-0.3-0.2-0.3s-0.3,0.1-0.3,0.3C119.9,125.7,120,125.8,120.1,125.8z"
				/>
			<circle class="st0" cx="116.8" cy="122.2" r="1.2"/>
			<circle class="st0" cx="116.8" cy="125.5" r="0.5"/>
			<path class="st0" d="M116.8,129.1c0.1,0,0.2-0.1,0.2-0.2c0-0.1-0.1-0.2-0.2-0.2s-0.2,0.1-0.2,0.2
				C116.5,129,116.6,129.1,116.8,129.1z"/>
			<ellipse class="st0" cx="113.4" cy="125.5" rx="1" ry="1"/>
			<ellipse class="st0" cx="113.4" cy="128.9" rx="0.4" ry="0.4"/>
			<circle class="st0" cx="110.1" cy="128.9" r="0.8"/>
			<circle class="st0" cx="110.1" cy="132.2" r="0.3"/>
			<circle class="st0" cx="90" cy="135.5" r="1.3"/>
			<circle class="st0" cx="93.4" cy="135.5" r="1.1"/>
			<circle class="st0" cx="96.7" cy="135.5" r="0.8"/>
			<circle class="st0" cx="100" cy="135.5" r="0.5"/>
			<ellipse class="st0" cx="96.7" cy="138.9" rx="0.3" ry="0.3"/>
			<ellipse class="st0" cx="100" cy="138.9" rx="0.2" ry="0.2"/>
			<path class="st0" d="M106.9,135.5c0,0.1-0.1,0.2-0.2,0.2s-0.2-0.1-0.2-0.2c0-0.1,0.1-0.2,0.2-0.2
				C106.8,135.4,106.9,135.5,106.9,135.5z"/>
			<circle class="st0" cx="93.4" cy="138.9" r="0.3"/>
			<ellipse class="st0" cx="90" cy="138.9" rx="0.5" ry="0.5"/>
			<circle class="st0" cx="86.7" cy="138.9" r="0.7"/>
			<path class="st0" d="M86.9,142.2c0,0.1-0.1,0.2-0.2,0.2s-0.2-0.1-0.2-0.2c0-0.1,0.1-0.2,0.2-0.2S86.9,142.1,86.9,142.2z"/>
			<ellipse class="st0" cx="103.4" cy="135.5" rx="0.3" ry="0.3"/>
			<ellipse class="st0" cx="100" cy="132.2" rx="1.3" ry="1.3"/>
			<ellipse class="st0" cx="103.4" cy="132.2" rx="0.9" ry="0.9"/>
			<path class="st0" d="M107.2,132.2c0,0.3-0.2,0.5-0.5,0.5s-0.5-0.2-0.5-0.5s0.2-0.5,0.5-0.5S107.2,131.9,107.2,132.2z"/>
			<path class="st0" d="M108,128.9c0,0.7-0.6,1.2-1.2,1.3c-0.7,0-1.2-0.6-1.2-1.3s0.6-1.2,1.2-1.2C107.4,127.6,108,128.2,108,128.9z
				"/>
			<ellipse class="st0" cx="123.5" cy="118.8" rx="0.6" ry="0.6"/>
			<path class="st0" d="M127.1,118.8c0,0.1-0.1,0.3-0.3,0.3c-0.1,0-0.2-0.1-0.2-0.3c0-0.1,0.1-0.3,0.2-0.3
				C126.9,118.6,127.1,118.7,127.1,118.8z"/>
			<circle class="st0" cx="123.5" cy="115.5" r="1.2"/>
			<path class="st0" d="M127.3,115.5c0,0.3-0.2,0.5-0.5,0.5s-0.5-0.2-0.5-0.5s0.2-0.5,0.5-0.5C127.1,115,127.3,115.2,127.3,115.5z"
				/>
			<ellipse class="st0" cx="130.1" cy="115.5" rx="0.2" ry="0.2"/>
			<circle class="st0" cx="126.8" cy="112.1" r="1"/>
			<circle class="st0" cx="130.1" cy="112.1" r="0.4"/>
			<circle class="st0" cx="130.1" cy="108.8" r="0.8"/>
			<circle class="st0" cx="133.5" cy="108.8" r="0.3"/>
			<circle class="st0" cx="136.8" cy="88.7" r="1.3"/>
			<ellipse class="st0" cx="136.8" cy="92.1" rx="1.1" ry="1.1"/>
			<circle class="st0" cx="136.8" cy="95.4" r="0.8"/>
			<ellipse class="st0" cx="136.8" cy="98.8" rx="0.5" ry="0.5"/>
			<circle class="st0" cx="140.2" cy="95.4" r="0.3"/>
			<circle class="st0" cx="140.2" cy="98.8" r="0.2"/>
			<path class="st0" d="M136.8,105.6c0.1,0,0.2-0.1,0.2-0.2s-0.1-0.2-0.2-0.2c-0.1,0-0.2,0.1-0.2,0.2
				C136.7,105.5,136.7,105.6,136.8,105.6z"/>
			<circle class="st0" cx="140.2" cy="92.1" r="0.3"/>
			<path class="st0" d="M140.2,89.2c0.3,0,0.5-0.2,0.5-0.5s-0.2-0.5-0.5-0.5s-0.5,0.2-0.5,0.5S139.9,89.2,140.2,89.2z"/>
			<circle class="st0" cx="140.2" cy="85.4" r="0.7"/>
			<path class="st0" d="M143.5,85.6c0.1,0,0.2-0.1,0.2-0.2s-0.1-0.2-0.2-0.2c-0.1,0-0.2,0.1-0.2,0.2S143.4,85.6,143.5,85.6z"/>
			<circle class="st0" cx="136.8" cy="102.1" r="0.3"/>
			<circle class="st0" cx="133.5" cy="98.8" r="1.3"/>
			<ellipse class="st0" cx="133.5" cy="102.1" rx="0.9" ry="0.9"/>
			<ellipse class="st0" cx="133.5" cy="105.4" rx="0.5" ry="0.5"/>
			<circle class="st0" cx="130.1" cy="105.4" r="1.2"/>
			<circle class="st0" cx="123.5" cy="21.8" r="0.3"/>
			<path class="st0" d="M120.1,23.9c0.7,0,1.3,0.6,1.3,1.3c0,0.7-0.6,1.3-1.3,1.3c-0.7,0-1.3-0.6-1.3-1.3
				C118.9,24.5,119.4,23.9,120.1,23.9z"/>
			<circle class="st0" cx="120.1" cy="21.8" r="0.6"/>
			<path class="st0" d="M120.1,18.2c0.1,0,0.2,0.1,0.2,0.3c0,0.1-0.1,0.3-0.2,0.3s-0.3-0.1-0.3-0.3C119.9,18.3,120,18.2,120.1,18.2z
				"/>
			<circle class="st0" cx="116.8" cy="21.8" r="1.2"/>
			<circle class="st0" cx="116.8" cy="18.5" r="0.5"/>
			<ellipse class="st0" cx="116.8" cy="15.1" rx="0.2" ry="0.2"/>
			<circle class="st0" cx="113.4" cy="18.5" r="1"/>
			<circle class="st0" cx="113.4" cy="15.1" r="0.4"/>
			<ellipse class="st0" cx="110.1" cy="15.1" rx="0.8" ry="0.8"/>
			<circle class="st0" cx="110.1" cy="11.8" r="0.3"/>
			<circle class="st0" cx="90" cy="8.4" r="1.3"/>
			<circle class="st0" cx="93.4" cy="8.4" r="1.1"/>
			<circle class="st0" cx="96.7" cy="8.4" r="0.8"/>
			<ellipse class="st0" cx="100" cy="8.4" rx="0.5" ry="0.5"/>
			<circle class="st0" cx="96.7" cy="5.1" r="0.3"/>
			<ellipse class="st0" cx="100" cy="5.1" rx="0.2" ry="0.2"/>
			<path class="st0" d="M106.9,8.5c0-0.1-0.1-0.2-0.2-0.2s-0.2,0.1-0.2,0.2c0,0.1,0.1,0.2,0.2,0.2C106.8,8.6,106.9,8.5,106.9,8.5z"
				/>
			<circle class="st0" cx="93.4" cy="5.1" r="0.3"/>
			<circle class="st0" cx="90" cy="5.1" r="0.5"/>
			<circle class="st0" cx="86.7" cy="5.1" r="0.7"/>
			<path class="st0" d="M83.3,4.2c-0.5,0-0.9,0.4-0.9,0.9S82.8,6,83.3,6s0.9-0.4,0.9-0.9l0,0c0-0.3-0.1-0.5-0.3-0.7
				C83.8,4.3,83.6,4.2,83.3,4.2z M84.3,5.1L84.3,5.1L84.3,5.1L84.3,5.1z"/>
			<path class="st0" d="M79,5.1c0,0.3,0.1,0.5,0.3,0.7C79.4,6,79.7,6.1,80,6.1l0,0c0.3,0,0.5-0.1,0.7-0.3C80.9,5.6,81,5.4,81,5.1
				l0,0c0-0.6-0.5-1-1-1C79.4,4.1,79,4.5,79,5.1z M81,5.1L81,5.1L81,5.1L81,5.1z"/>
			<path class="st0" d="M75.5,5.1c0,0.6,0.5,1.1,1.1,1.1s1.1-0.5,1.1-1.1l0,0c0-0.6-0.5-1.1-1.1-1.1S75.5,4.5,75.5,5.1z"/>
			<ellipse class="st0" cx="86.7" cy="1.8" rx="0.2" ry="0.2"/>
			<path class="st0" d="M82.9,1.8c0,0.2,0.2,0.4,0.4,0.4c0.2,0,0.4-0.2,0.4-0.4s-0.2-0.4-0.4-0.4C83.1,1.4,82.9,1.5,82.9,1.8z"/>
			<path class="st0" d="M79.5,1.8c0,0.1,0,0.2,0.1,0.3s0.2,0.1,0.3,0.1c0.2,0,0.4-0.2,0.4-0.4s-0.2-0.4-0.4-0.4
				C79.7,1.3,79.5,1.5,79.5,1.8z"/>
			<path class="st0" d="M76.2,1.8c0,0.2,0.2,0.5,0.5,0.5c0.2,0,0.4-0.2,0.4-0.5s-0.2-0.4-0.4-0.4C76.4,1.3,76.2,1.5,76.2,1.8z"/>
			<ellipse class="st0" cx="103.4" cy="8.4" rx="0.3" ry="0.3"/>
			<path class="st0" d="M6.4,83L6.4,83c0.5,0,0.9-0.4,0.9-0.9s-0.4-0.9-0.9-0.9s-1,0.3-1,0.8C5.4,82.6,5.9,83,6.4,83z"/>
			<path class="st0" d="M5.7,79.4c0.2,0.2,0.4,0.3,0.7,0.3l0,0c0.3,0,0.5-0.1,0.7-0.3c0.2-0.2,0.3-0.5,0.3-0.7c0-0.6-0.5-1-1-1
				c-0.6,0-1,0.5-1,1C5.4,79,5.5,79.2,5.7,79.4z"/>
			<path class="st0" d="M5.6,76.1c0.2,0.2,0.5,0.3,0.8,0.3s0.6-0.1,0.8-0.3c0.2-0.2,0.3-0.5,0.3-0.8c0-0.6-0.5-1.1-1.1-1.1
				s-1.1,0.5-1.1,1.1C5.3,75.6,5.4,75.9,5.6,76.1z"/>
			<path class="st0" d="M3,82.4L3,82.4c0.2,0,0.4-0.2,0.4-0.4c0-0.2-0.2-0.4-0.4-0.4S2.6,81.8,2.6,82C2.7,82.2,2.8,82.4,3,82.4z"/>
			<path class="st0" d="M2.6,78.7c0,0.2,0.2,0.4,0.4,0.4l0,0c0.2,0,0.4-0.2,0.4-0.4c0-0.2-0.2-0.4-0.4-0.4c-0.1,0-0.2,0-0.3,0.1
				C2.7,78.5,2.6,78.6,2.6,78.7z"/>
			<path class="st0" d="M3,75.8L3,75.8c0.2,0,0.5-0.2,0.5-0.4c0-0.1,0-0.2-0.1-0.3C3.3,75,3.2,75,3.1,75s-0.2,0-0.3,0.1
				s-0.1,0.2-0.1,0.3C2.6,75.6,2.8,75.8,3,75.8z"/>
			<path class="st0" d="M5.6,72.8c0.2,0.2,0.5,0.3,0.8,0.3c0.7,0,1.2-0.5,1.2-1.2s-0.5-1.2-1.2-1.2s-1.2,0.5-1.2,1.2
				C5.2,72.3,5.3,72.6,5.6,72.8z"/>
			<path class="st0" d="M2.6,72c0,0.1,0,0.2,0.1,0.3c0.1,0.1,0.2,0.1,0.3,0.1s0.2,0,0.3-0.1s0.1-0.2,0.1-0.3c0-0.1,0-0.2-0.1-0.3
				c-0.1-0.1-0.2-0.1-0.3-0.1l0,0C2.8,71.5,2.6,71.7,2.6,72z"/>
			<path class="st0" d="M5.4,62c0,0.5,0.4,0.9,0.9,1c0.5,0,0.9-0.4,0.9-1c0-0.5-0.4-1-0.9-1l0,0c-0.3,0-0.5,0.1-0.7,0.3
				C5.5,61.5,5.4,61.7,5.4,62z"/>
			<path class="st0" d="M6.4,66.3c0.3,0,0.5-0.1,0.7-0.3c0.2-0.2,0.3-0.5,0.3-0.7l0,0c0-0.3-0.1-0.5-0.3-0.7
				c-0.2-0.2-0.4-0.3-0.7-0.3l0,0c-0.6,0-1,0.5-1,1C5.4,65.9,5.8,66.3,6.4,66.3z M6.4,64.3L6.4,64.3L6.4,64.3L6.4,64.3z"/>
			<path class="st0" d="M6.4,69.8c0.6,0,1.1-0.5,1.1-1.1S7,67.6,6.4,67.6l0,0c-0.6,0-1.1,0.5-1.1,1.1S5.8,69.8,6.4,69.8z"/>
			<path class="st0" d="M3,62.4c0.2,0,0.4-0.2,0.4-0.4S3.2,61.6,3,61.6S2.6,61.8,2.6,62C2.7,62.2,2.8,62.4,3,62.4z"/>
			<path class="st0" d="M3,65.7c0.1,0,0.2,0,0.3-0.1s0.1-0.2,0.1-0.3c0-0.2-0.2-0.4-0.4-0.4s-0.4,0.2-0.4,0.4
				C2.6,65.6,2.8,65.7,3,65.7z"/>
			<path class="st0" d="M3,69.1c0.2,0,0.5-0.2,0.5-0.4c0-0.2-0.2-0.5-0.5-0.5s-0.4,0.2-0.4,0.5C2.6,68.9,2.8,69.1,3,69.1z"/>
			<path class="st0" d="M84.3,138.9L84.3,138.9c0-0.5-0.4-0.9-0.9-0.9s-0.9,0.4-0.9,0.9s0.4,0.9,0.9,0.9S84.3,139.4,84.3,138.9z"/>
			<path class="st0" d="M80.7,139.6c0.2-0.2,0.3-0.5,0.3-0.7l0,0c0-0.3-0.1-0.5-0.3-0.7c-0.2-0.2-0.5-0.3-0.7-0.3c-0.6,0-1,0.5-1,1
				c0,0.6,0.5,1,1,1C80.3,139.9,80.5,139.8,80.7,139.6z"/>
			<path class="st0" d="M77.4,139.7c0.2-0.2,0.3-0.5,0.3-0.8s-0.1-0.6-0.3-0.8c-0.2-0.2-0.5-0.3-0.8-0.3c-0.6,0-1.1,0.5-1.1,1.1
				s0.5,1.1,1.1,1.1C76.9,140,77.2,139.9,77.4,139.7z"/>
			<path class="st0" d="M83.7,142.2L83.7,142.2c0-0.2-0.2-0.4-0.4-0.4c-0.2,0-0.4,0.2-0.4,0.4s0.2,0.4,0.4,0.4
				C83.5,142.6,83.7,142.5,83.7,142.2z"/>
			<path class="st0" d="M80,142.7c0.2,0,0.4-0.2,0.4-0.4l0,0c0-0.2-0.2-0.4-0.4-0.4c-0.2,0-0.4,0.2-0.4,0.4c0,0.1,0,0.2,0.1,0.3
				C79.8,142.6,79.9,142.7,80,142.7z"/>
			<path class="st0" d="M77.1,142.2L77.1,142.2c0-0.3-0.2-0.5-0.4-0.5c-0.1,0-0.2,0-0.3,0.1c-0.1,0.1-0.1,0.2-0.1,0.3s0,0.2,0.1,0.3
				s0.2,0.1,0.3,0.1C76.9,142.7,77.1,142.5,77.1,142.2z"/>
			<path class="st0" d="M74.1,139.7c0.2-0.2,0.3-0.5,0.3-0.8c0-0.7-0.5-1.2-1.2-1.2s-1.2,0.5-1.2,1.2s0.5,1.2,1.2,1.2
				C73.6,140.1,73.9,140,74.1,139.7z"/>
			<path class="st0" d="M73.3,142.7c0.1,0,0.2-0.1,0.3-0.1c0.1-0.1,0.1-0.2,0.1-0.3s0-0.2-0.1-0.3s-0.2-0.1-0.3-0.1s-0.2,0-0.3,0.1
				c-0.1,0.1-0.1,0.2-0.1,0.3l0,0C72.8,142.5,73,142.7,73.3,142.7z"/>
			<path class="st0" d="M63.3,139.8c0.5,0,0.9-0.4,0.9-0.9s-0.4-0.9-0.9-0.9s-1,0.4-1,0.9l0,0c0,0.3,0.1,0.5,0.3,0.7
				C62.8,139.7,63,139.8,63.3,139.8z"/>
			<path class="st0" d="M67.6,138.9c0-0.3-0.1-0.5-0.3-0.7c-0.2-0.2-0.5-0.3-0.7-0.3l0,0c-0.3,0-0.5,0.1-0.7,0.3s-0.3,0.4-0.3,0.7
				l0,0c0,0.6,0.5,1,1,1C67.2,139.9,67.6,139.4,67.6,138.9z M65.6,138.9L65.6,138.9L65.6,138.9L65.6,138.9z"/>
			<path class="st0" d="M71.1,138.9c0-0.6-0.5-1.1-1.1-1.1s-1.1,0.5-1.1,1.1l0,0c0,0.6,0.5,1.1,1.1,1.1S71.1,139.5,71.1,138.9z"/>
			<path class="st0" d="M63.7,142.2c0-0.2-0.2-0.4-0.4-0.4s-0.4,0.2-0.4,0.4s0.2,0.4,0.4,0.4C63.5,142.6,63.7,142.5,63.7,142.2z"/>
			<path class="st0" d="M67,142.2c0-0.1,0-0.2-0.1-0.3s-0.2-0.1-0.3-0.1c-0.2,0-0.4,0.2-0.4,0.4s0.2,0.4,0.4,0.4
				C66.8,142.7,67,142.5,67,142.2z"/>
			<path class="st0" d="M70.4,142.2c0-0.3-0.2-0.5-0.4-0.5c-0.2,0-0.5,0.2-0.5,0.5c0,0.2,0.2,0.4,0.5,0.4
				C70.2,142.7,70.4,142.5,70.4,142.2z"/>
			<path class="st0" d="M140.2,61L140.2,61c-0.5,0-1,0.4-1,1c0,0.5,0.4,0.9,1,0.9c0.5,0,0.9-0.4,0.9-0.9
				C141.1,61.4,140.7,61,140.2,61z"/>
			<path class="st0" d="M140.9,64.6c-0.2-0.2-0.4-0.3-0.7-0.3l0,0c-0.3,0-0.5,0.1-0.7,0.3c-0.2,0.2-0.3,0.4-0.3,0.7c0,0.6,0.5,1,1,1
				c0.6,0,1-0.5,1-1C141.2,65,141.1,64.8,140.9,64.6z"/>
			<path class="st0" d="M141,67.9c-0.2-0.2-0.5-0.3-0.8-0.3s-0.6,0.1-0.8,0.3c-0.2,0.2-0.3,0.5-0.3,0.8c0,0.6,0.5,1.1,1.1,1.1
				s1.1-0.5,1.1-1.1C141.3,68.4,141.2,68.1,141,67.9z"/>
			<path class="st0" d="M143.5,61.6L143.5,61.6c-0.2,0-0.4,0.2-0.4,0.4s0.2,0.4,0.4,0.4s0.4-0.2,0.4-0.4
				C143.9,61.7,143.7,61.6,143.5,61.6z"/>
			<path class="st0" d="M144,65.3c0-0.2-0.2-0.4-0.4-0.4l0,0c-0.2,0-0.4,0.2-0.4,0.4c0,0.2,0.2,0.4,0.4,0.4c0.1,0,0.2,0,0.3-0.1
				C143.9,65.5,144,65.4,144,65.3z"/>
			<path class="st0" d="M143.5,68.2L143.5,68.2c-0.3,0-0.5,0.2-0.5,0.5c0,0.1,0,0.2,0.1,0.3c0.1,0.1,0.2,0.1,0.3,0.1s0.2,0,0.3-0.1
				s0.1-0.2,0.1-0.3C144,68.4,143.8,68.2,143.5,68.2z"/>
			<path class="st0" d="M141,71.2c-0.2-0.2-0.5-0.3-0.8-0.3c-0.7,0-1.2,0.5-1.2,1.2s0.5,1.2,1.2,1.2s1.2-0.5,1.2-1.2
				C141.4,71.7,141.2,71.4,141,71.2z"/>
			<path class="st0" d="M144,72c0-0.1-0.1-0.2-0.1-0.3c-0.1-0.1-0.2-0.1-0.3-0.1s-0.2,0-0.3,0.1s-0.1,0.2-0.1,0.3
				c0,0.1,0,0.2,0.1,0.3c0.1,0.1,0.2,0.1,0.3,0.1l0,0C143.8,72.5,144,72.3,144,72z"/>
			<path class="st0" d="M141.1,82c0-0.5-0.4-0.9-0.9-0.9s-1,0.4-1,0.9s0.4,0.9,1,0.9l0,0c0.3,0,0.5-0.1,0.7-0.3
				C141,82.5,141.1,82.3,141.1,82z"/>
			<path class="st0" d="M140.2,77.7c-0.3,0-0.5,0.1-0.7,0.3c-0.2,0.2-0.3,0.4-0.3,0.7l0,0c0,0.3,0.1,0.5,0.3,0.7s0.5,0.3,0.7,0.3
				l0,0c0.6,0,1-0.5,1-1C141.2,78.1,140.7,77.7,140.2,77.7z M140.2,79.7L140.2,79.7L140.2,79.7L140.2,79.7z"/>
			<path class="st0" d="M140.2,74.2c-0.6,0-1.1,0.5-1.1,1.1s0.5,1.1,1.1,1.1l0,0c0.6,0,1.1-0.5,1.1-1.1S140.8,74.2,140.2,74.2z"/>
			<path class="st0" d="M143.5,81.6c-0.2,0-0.4,0.2-0.4,0.4c0,0.2,0.2,0.4,0.4,0.4s0.4-0.2,0.4-0.4
				C143.9,81.8,143.7,81.6,143.5,81.6z"/>
			<path class="st0" d="M143.5,78.3c-0.1,0-0.2,0-0.3,0.1s-0.1,0.2-0.1,0.3c0,0.2,0.2,0.4,0.4,0.4s0.4-0.2,0.4-0.4
				C144,78.4,143.8,78.3,143.5,78.3z"/>
			<path class="st0" d="M143.5,74.9c-0.3,0-0.5,0.2-0.5,0.5c0,0.2,0.2,0.4,0.5,0.4c0.2,0,0.4-0.2,0.4-0.4
				C144,75.1,143.8,74.9,143.5,74.9z"/>
			<circle class="st0" cx="100" cy="11.8" r="1.3"/>
			<ellipse class="st0" cx="103.4" cy="11.8" rx="0.9" ry="0.9"/>
			<path class="st0" d="M107.2,11.8c0-0.3-0.2-0.5-0.5-0.5s-0.5,0.2-0.5,0.5s0.2,0.5,0.5,0.5S107.2,12.1,107.2,11.8z"/>
			<ellipse class="st0" cx="106.7" cy="15.1" rx="1.2" ry="1.2"/>
			<circle class="st0" cx="123.5" cy="25.2" r="0.6"/>
			<path class="st0" d="M127.1,25.2c0-0.1-0.1-0.3-0.3-0.3c-0.1,0-0.2,0.1-0.2,0.3c0,0.1,0.1,0.3,0.2,0.3
				C126.9,25.4,127.1,25.3,127.1,25.2z"/>
			<path class="st0" d="M124.6,28.5c0-0.6-0.5-1.2-1.2-1.2s-1.2,0.5-1.2,1.2s0.5,1.2,1.2,1.2S124.6,29.2,124.6,28.5z"/>
			<path class="st0" d="M127.3,28.5c0-0.3-0.2-0.5-0.5-0.5s-0.5,0.2-0.5,0.5s0.2,0.5,0.5,0.5C127.1,29,127.3,28.8,127.3,28.5z"/>
			<ellipse class="st0" cx="130.1" cy="28.5" rx="0.2" ry="0.2"/>
			<ellipse class="st0" cx="126.8" cy="31.9" rx="1" ry="1"/>
			<circle class="st0" cx="130.1" cy="31.9" r="0.4"/>
			<circle class="st0" cx="130.1" cy="35.2" r="0.8"/>
			<circle class="st0" cx="133.5" cy="35.2" r="0.3"/>
			<circle class="st0" cx="136.8" cy="55.3" r="1.3"/>
			<ellipse class="st0" cx="136.8" cy="51.9" rx="1.1" ry="1.1"/>
			<circle class="st0" cx="136.8" cy="48.6" r="0.8"/>
			<circle class="st0" cx="136.8" cy="45.2" r="0.5"/>
			<ellipse class="st0" cx="140.2" cy="48.6" rx="0.3" ry="0.3"/>
			<circle class="st0" cx="140.2" cy="45.2" r="0.2"/>
			<circle class="st0" cx="136.8" cy="38.6" r="0.2"/>
			<circle class="st0" cx="140.2" cy="51.9" r="0.3"/>
			<path class="st0" d="M140.2,54.8c0.3,0,0.5,0.2,0.5,0.5s-0.2,0.5-0.5,0.5s-0.5-0.2-0.5-0.5S139.9,54.8,140.2,54.8z"/>
			<path class="st0" d="M140.2,57.9c0.4,0,0.7,0.3,0.7,0.7s-0.3,0.7-0.7,0.7s-0.7-0.3-0.7-0.7S139.8,57.9,140.2,57.9z"/>
			<path class="st0" d="M143.5,58.4c0.1,0,0.2,0.1,0.2,0.2c0,0.1-0.1,0.2-0.2,0.2c-0.1,0-0.2-0.1-0.2-0.2S143.4,58.4,143.5,58.4z"/>
			<circle class="st0" cx="136.8" cy="41.9" r="0.3"/>
			<circle class="st0" cx="133.5" cy="45.2" r="1.3"/>
			<circle class="st0" cx="133.5" cy="41.9" r="0.9"/>
			<circle class="st0" cx="133.5" cy="38.6" r="0.5"/>
			<circle class="st0" cx="130.1" cy="38.6" r="1.2"/>
		</g>
		<g>
			<g>
				<g>
					<g>
						<path class="st0" d="M138.8,75.3c0-0.7-0.3-1.3-0.9-1.6c0.1-0.1,0.3-0.2,0.4-0.3c0.4-0.4,0.6-0.9,0.6-1.4c0-0.7-0.4-1.4-1-1.7
							c0.5-0.3,0.9-0.9,0.9-1.6c0-0.8-0.4-1.4-1-1.7c0.6-0.3,1-0.9,1-1.6c0-0.8-0.5-1.4-1.1-1.7c0.6-0.3,1.1-0.9,1.1-1.6
							c0-1-0.8-1.8-1.8-1.8c-0.5,0-0.9,0.2-1.3,0.5c-0.1,0.1-0.1,0.1-0.2,0.2c-0.2-0.3-0.4-0.6-0.7-0.8c0.3-0.3,0.6-0.6,0.7-1
							c0.2,0.6,0.8,1,1.5,1c0.9,0,1.5-0.7,1.5-1.5s-0.7-1.5-1.5-1.5c-0.7,0-1.2,0.4-1.5,1c-0.1-0.5-0.5-0.9-0.9-1.2
							c0.6-0.3,0.9-0.9,0.9-1.6c0-0.7-0.4-1.4-1.1-1.7c0.6-0.3,1-0.9,1-1.6c0-0.9-0.7-1.7-1.6-1.8c0.7-0.1,1.3-0.8,1.3-1.5
							c0-0.9-0.7-1.6-1.6-1.6c-0.6,0-1.2,0.4-1.4,0.9c-0.2-0.5-0.5-0.9-0.9-1.1c0.5-0.3,0.8-0.9,0.8-1.6c0-0.8-0.5-1.5-1.3-1.8
							c0.6-0.2,1-0.8,1-1.5c0-0.9-0.7-1.7-1.7-1.7c-0.6,0-1.2,0.3-1.5,0.9c-0.2-0.4-0.5-0.8-0.9-1c0.5-0.3,0.9-0.9,0.9-1.5
							c0-1-0.8-1.8-1.8-1.8c0.8,0,1.5-0.7,1.5-1.5s-0.7-1.5-1.5-1.5c-0.7,0-1.3,0.5-1.5,1.2c-0.1-0.7-0.6-1.2-1.3-1.5
							c0.6-0.2,1.1-0.8,1.1-1.5c0-0.9-0.7-1.7-1.7-1.7c-0.7,0-1.2,0.4-1.5,0.9c-0.2-0.5-0.6-0.9-1.1-1.1c0.6-0.3,0.9-0.8,0.9-1.5
							c0-0.9-0.8-1.7-1.7-1.7c-0.6,0-1.1,0.3-1.4,0.8c-0.2-0.4-0.6-0.8-1-1c0.5-0.3,0.8-0.8,0.8-1.4c0-0.9-0.8-1.7-1.7-1.7
							c-0.7,0-1.2,0.4-1.5,0.9c-0.2-0.5-0.6-0.9-1.1-1.1c0.6-0.3,0.9-0.8,0.9-1.5c0-0.9-0.7-1.7-1.7-1.7c-0.7,0-1.3,0.4-1.5,1.1
							c-0.2-0.6-0.8-1.1-1.4-1.3c0.7-0.2,1.2-0.8,1.2-1.5c0-0.8-0.7-1.5-1.5-1.5s-1.5,0.7-1.5,1.5c0-1-0.8-1.8-1.8-1.8
							c-0.7,0-1.2,0.3-1.5,0.9c-0.2-0.4-0.6-0.7-1-0.9c0.5-0.3,0.9-0.8,0.9-1.5c0-0.9-0.7-1.7-1.7-1.7c-0.7,0-1.3,0.4-1.5,1
							c-0.3-0.7-1-1.3-1.8-1.3c-0.7,0-1.2,0.3-1.6,0.9c-0.3-0.4-0.6-0.7-1.1-0.9c0.5-0.2,0.9-0.8,0.9-1.4c0-0.9-0.7-1.5-1.5-1.5
							s-1.4,0.6-1.5,1.3c-0.3-1.2-1-1.8-1.9-1.8c-0.7,0-1.3,0.4-1.6,1c-0.3-0.6-1-1.1-1.7-1.1s-1.3,0.4-1.6,0.9
							c-0.3-0.4-0.7-0.8-1.2-0.9c0.6-0.2,1-0.8,1-1.5c0-0.9-0.7-1.5-1.6-1.5s-1.5,0.7-1.5,1.5c0,0.7,0.4,1.2,1,1.5
							c-0.4,0.1-0.8,0.4-1,0.7c-0.2-0.3-0.4-0.5-0.7-0.7c0.4-0.3,0.7-0.8,0.7-1.4c0-1-0.8-1.8-1.8-1.8c-0.7,0-1.4,0.4-1.6,1.1
							c-0.3-0.7-0.9-1.1-1.7-1.1c-0.7,0-1.3,0.4-1.6,0.9c-0.3-0.6-1-1-1.7-1S75.5,7,75.2,7.5c-0.1-0.1-0.2-0.3-0.3-0.4
							c-0.4-0.4-0.9-0.6-1.4-0.6c-0.7,0-1.4,0.4-1.7,1c-0.3-0.5-0.9-0.9-1.6-0.9c-0.8,0-1.4,0.4-1.7,1c-0.3-0.6-0.9-1-1.6-1
							c-0.8,0-1.4,0.5-1.7,1.1c-0.3-0.6-0.9-1.1-1.6-1.1c-1,0-1.8,0.8-1.8,1.8c0,0.5,0.2,0.9,0.5,1.3c0.1,0.1,0.1,0.1,0.2,0.2
							c-0.3,0.2-0.6,0.4-0.7,0.7c-0.3-0.3-0.6-0.6-1-0.7c0.6-0.2,1-0.8,1-1.5c0-0.9-0.7-1.5-1.5-1.5s-1.6,0.7-1.6,1.5
							c0,0.7,0.4,1.2,1,1.5c-0.5,0.1-0.9,0.5-1.2,0.9c-0.3-0.6-0.9-0.9-1.6-0.9c-0.7,0-1.4,0.4-1.7,1.1c-0.3-0.6-0.9-1-1.6-1
							c-0.9,0-1.7,0.7-1.8,1.6c-0.1-0.7-0.8-1.3-1.5-1.3c-0.9,0-1.5,0.7-1.5,1.5c0,0.6,0.4,1.2,0.9,1.4c-0.5,0.2-0.9,0.5-1.1,0.9
							c-0.3-0.5-0.9-0.9-1.6-0.9c-0.8,0-1.5,0.5-1.8,1.3c-0.2-0.6-0.8-1-1.5-1c-0.9,0-1.7,0.7-1.7,1.7c0,0.6,0.3,1.2,0.9,1.5
							c-0.4,0.2-0.8,0.5-1,0.9c-0.3-0.5-0.9-0.8-1.5-0.8c-1,0-1.8,0.8-1.8,1.8c0-0.8-0.7-1.5-1.5-1.5s-1.5,0.7-1.5,1.5
							c0,0.7,0.5,1.3,1.2,1.5c-0.7,0.1-1.2,0.6-1.5,1.3c-0.2-0.6-0.8-1.1-1.5-1.1c-0.9,0-1.7,0.7-1.7,1.7c0,0.7,0.4,1.2,0.9,1.5
							c-0.5,0.2-0.9,0.6-1.1,1.1c-0.3-0.5-0.9-0.9-1.5-0.9c-0.9,0-1.7,0.8-1.7,1.7c0,0.6,0.3,1.1,0.8,1.4c-0.4,0.2-0.8,0.6-1,1
							c-0.3-0.5-0.8-0.8-1.4-0.8c-0.9,0-1.7,0.8-1.7,1.7c0,0.7,0.4,1.2,0.9,1.5c-0.5,0.2-0.9,0.6-1.1,1.1c-0.3-0.6-0.8-0.9-1.5-0.9
							c-0.9,0-1.7,0.7-1.7,1.7c0,0.7,0.4,1.3,1.1,1.5c-0.6,0.2-1.1,0.8-1.3,1.5c-0.2-0.7-0.8-1.2-1.5-1.2c-0.8,0-1.5,0.7-1.5,1.5
							s0.7,1.5,1.5,1.5c-1,0-1.8,0.8-1.8,1.8c0,0.6,0.3,1.2,0.8,1.5c-0.4,0.2-0.7,0.6-0.9,1c-0.3-0.5-0.8-0.9-1.5-0.9
							c-0.9,0-1.7,0.7-1.7,1.7c0,0.7,0.4,1.3,1,1.5c-0.7,0.3-1.3,1-1.3,1.8c0,0.7,0.3,1.2,0.9,1.6c-0.4,0.2-0.7,0.6-0.9,1.1
							c-0.2-0.5-0.8-0.9-1.4-0.9c-0.9,0-1.5,0.7-1.5,1.6c0,0.8,0.6,1.4,1.3,1.5c-0.9,0.1-1.6,0.9-1.6,1.8c0,0.7,0.4,1.3,1,1.6
							c-0.6,0.3-1.1,1-1.1,1.7s0.4,1.3,0.9,1.6c-0.5,0.3-0.8,0.7-0.9,1.2c-0.2-0.6-0.8-1-1.5-1c-0.9,0-1.5,0.7-1.5,1.5
							s0.7,1.5,1.5,1.5c0.7,0,1.2-0.4,1.5-1c0.1,0.4,0.3,0.8,0.7,1c-0.3,0.2-0.5,0.4-0.7,0.8c-0.3-0.4-0.8-0.7-1.4-0.7
							C8.8,60.2,8,61,8,62c0,0.7,0.4,1.4,1.1,1.6C8.4,63.9,8,64.5,8,65.3c0,0.7,0.4,1.3,1,1.6c-0.6,0.3-1,1-1,1.7s0.4,1.3,0.9,1.6
							c-0.1,0.1-0.3,0.2-0.4,0.3c-0.4,0.4-0.6,0.9-0.6,1.4c0,0.7,0.4,1.4,1,1.7c-0.5,0.3-0.9,1-0.9,1.6c0,0.7,0.4,1.4,1,1.7
							c-0.6,0.3-1,0.9-1,1.6c0,0.8,0.5,1.4,1.1,1.7C8.4,80.7,8,81.3,8,82c0,1,0.8,1.8,1.8,1.8c0.5,0,0.9-0.2,1.3-0.5
							c0.1-0.1,0.1-0.1,0.2-0.2c0.2,0.3,0.4,0.6,0.7,0.7c-0.3,0.3-0.6,0.6-0.7,1c-0.2-0.6-0.8-1-1.5-1c-0.9,0-1.5,0.7-1.5,1.5
							c0,0.9,0.7,1.6,1.5,1.6c0.7,0,1.2-0.4,1.5-1c0.1,0.5,0.5,0.9,0.9,1.2c-0.6,0.3-0.9,0.9-0.9,1.6s0.4,1.4,1.1,1.7
							c-0.6,0.3-1,0.9-1,1.6c0,0.9,0.7,1.7,1.6,1.8c-0.7,0.1-1.3,0.8-1.3,1.5c0,0.8,0.7,1.5,1.5,1.5c0.6,0,1.2-0.4,1.4-0.9
							c0.2,0.5,0.5,0.9,0.9,1.1c-0.5,0.3-0.9,0.9-0.9,1.6c0,0.8,0.5,1.5,1.3,1.8c-0.6,0.2-1,0.8-1,1.5c0,0.9,0.7,1.7,1.7,1.7
							c0.6,0,1.2-0.3,1.5-0.9c0.2,0.4,0.5,0.8,0.9,1c-0.5,0.3-0.8,0.9-0.8,1.5c0,1,0.8,1.8,1.8,1.8c-0.8,0-1.5,0.7-1.5,1.5
							s0.7,1.5,1.5,1.5c0.7,0,1.3-0.5,1.5-1.2c0.1,0.7,0.6,1.2,1.3,1.4c-0.6,0.2-1.1,0.8-1.1,1.5c0,0.9,0.7,1.7,1.7,1.7
							c0.7,0,1.2-0.4,1.5-0.9c0.2,0.5,0.6,0.9,1.1,1.1c-0.5,0.3-0.9,0.9-0.9,1.5c0,0.9,0.8,1.7,1.7,1.7c0.6,0,1.1-0.3,1.4-0.8
							c0.2,0.4,0.6,0.8,1,1c-0.5,0.3-0.8,0.8-0.8,1.4c0,0.9,0.8,1.7,1.7,1.7c0.7,0,1.2-0.4,1.5-0.9c0.2,0.5,0.6,0.9,1.1,1.1
							c-0.6,0.3-0.9,0.8-0.9,1.5c0,0.9,0.7,1.7,1.7,1.7c0.7,0,1.3-0.4,1.5-1.1c0.2,0.6,0.8,1.1,1.5,1.3c-0.7,0.2-1.2,0.8-1.2,1.5
							c0,0.8,0.7,1.5,1.5,1.5s1.5-0.7,1.5-1.5c0,1,0.8,1.8,1.8,1.8c0.6,0,1.2-0.3,1.5-0.9c0.2,0.4,0.6,0.7,1,0.9
							c-0.5,0.3-0.9,0.8-0.9,1.5c0,0.9,0.7,1.7,1.7,1.7c0.7,0,1.3-0.4,1.5-1c0.3,0.7,1,1.3,1.8,1.3c0.7,0,1.2-0.3,1.6-0.9
							c0.3,0.4,0.6,0.7,1.1,0.9c-0.5,0.2-0.9,0.8-0.9,1.4c0,0.9,0.7,1.5,1.5,1.5s1.4-0.6,1.5-1.3c0.1,0.9,0.9,1.6,1.8,1.6
							c0.7,0,1.3-0.4,1.6-1c0.3,0.6,1,1.1,1.7,1.1s1.3-0.4,1.6-0.9c0.3,0.5,0.7,0.8,1.2,0.9c-0.6,0.2-1,0.8-1,1.5
							c0,0.9,0.7,1.5,1.6,1.5s1.5-0.7,1.5-1.5c0-0.7-0.4-1.2-1-1.5c0.4-0.1,0.8-0.4,1-0.7c0.2,0.3,0.5,0.5,0.8,0.7
							c-0.4,0.3-0.7,0.9-0.7,1.4c0,1,0.8,1.8,1.8,1.8c0.7,0,1.4-0.4,1.6-1.1c0.3,0.7,0.9,1.1,1.7,1.1c0.7,0,1.3-0.4,1.6-1
							c0.3,0.6,1,1,1.7,1s1.3-0.3,1.6-0.9c0.1,0.1,0.2,0.3,0.3,0.4c0.4,0.4,0.9,0.6,1.4,0.6c0.7,0,1.4-0.4,1.7-1
							c0.3,0.5,0.9,0.9,1.6,0.9c0.8,0,1.4-0.4,1.7-1c0.3,0.6,0.9,1,1.6,1c0.8,0,1.4-0.5,1.7-1.1c0.3,0.6,0.9,1.1,1.6,1.1
							c1,0,1.8-0.8,1.8-1.8c0-0.5-0.2-0.9-0.5-1.3c-0.1-0.1-0.1-0.1-0.2-0.2c0.3-0.2,0.6-0.4,0.7-0.7c0.3,0.3,0.6,0.6,1,0.7
							c-0.6,0.2-1,0.8-1,1.5c0,0.9,0.7,1.5,1.5,1.5c0.9,0,1.6-0.7,1.6-1.5c0-0.7-0.4-1.2-1-1.5c0.5-0.1,0.9-0.5,1.2-0.9
							c0.3,0.6,0.9,0.9,1.6,0.9s1.4-0.4,1.7-1.1c0.3,0.6,0.9,1,1.6,1c0.9,0,1.7-0.7,1.8-1.6c0.1,0.7,0.8,1.3,1.5,1.3
							c0.9,0,1.5-0.7,1.5-1.5c0-0.6-0.4-1.2-0.9-1.4c0.5-0.2,0.9-0.5,1.1-0.9c0.3,0.5,0.9,0.9,1.6,0.9c0.8,0,1.5-0.5,1.8-1.3
							c0.2,0.6,0.8,1,1.5,1c0.9,0,1.7-0.7,1.7-1.7c0-0.6-0.4-1.2-0.9-1.5c0.4-0.2,0.8-0.5,1-0.9c0.3,0.5,0.9,0.9,1.5,0.9
							c1,0,1.8-0.8,1.8-1.8c0,0.8,0.7,1.5,1.5,1.5s1.5-0.7,1.5-1.5c0-0.7-0.5-1.3-1.2-1.5c0.7-0.1,1.2-0.6,1.4-1.3
							c0.2,0.6,0.8,1.1,1.5,1.1c0.9,0,1.7-0.7,1.7-1.7c0-0.7-0.4-1.2-0.9-1.5c0.5-0.2,0.9-0.6,1.1-1.1c0.3,0.5,0.9,0.9,1.5,0.9
							c0.9,0,1.7-0.8,1.7-1.7c0-0.6-0.3-1.1-0.8-1.4c0.4-0.2,0.8-0.6,1-1c0.3,0.5,0.8,0.8,1.4,0.8c0.9,0,1.7-0.8,1.7-1.7
							c0-0.7-0.4-1.2-0.9-1.5c0.5-0.2,0.9-0.6,1.1-1.1c0.3,0.6,0.8,0.9,1.5,0.9c0.9,0,1.7-0.7,1.7-1.7c0-0.7-0.4-1.3-1.1-1.5
							c0.7-0.2,1.1-0.8,1.3-1.4c0.2,0.7,0.8,1.2,1.5,1.2c0.8,0,1.5-0.7,1.5-1.5s-0.7-1.5-1.5-1.5c1,0,1.8-0.8,1.8-1.8
							c0-0.7-0.3-1.2-0.9-1.5c0.4-0.2,0.7-0.6,0.9-1c0.3,0.5,0.8,0.9,1.5,0.9c0.9,0,1.7-0.7,1.7-1.7c0-0.7-0.4-1.3-1-1.5
							c0.7-0.3,1.3-1,1.3-1.8c0-0.7-0.3-1.2-0.9-1.6c0.4-0.3,0.7-0.6,0.9-1.1c0.2,0.5,0.8,0.9,1.4,0.9c0.9,0,1.6-0.7,1.6-1.5
							s-0.6-1.4-1.3-1.5c0.9-0.1,1.6-0.9,1.6-1.8c0-0.7-0.4-1.3-1-1.6c0.6-0.3,1.1-0.9,1.1-1.7c0-0.7-0.4-1.3-0.9-1.6
							c0.5-0.3,0.8-0.7,0.9-1.2c0.2,0.6,0.8,1,1.5,1c0.9,0,1.5-0.7,1.5-1.6s-0.7-1.5-1.5-1.5c-0.7,0-1.2,0.4-1.5,1
							c-0.1-0.4-0.4-0.8-0.7-1c0.3-0.2,0.5-0.5,0.7-0.7c0.3,0.4,0.8,0.7,1.4,0.7c1,0,1.8-0.8,1.8-1.8c0-0.7-0.4-1.4-1.1-1.6
							c0.7-0.3,1.1-0.9,1.1-1.7c0-0.7-0.4-1.3-1-1.6C138.4,76.7,138.8,76.1,138.8,75.3z M11.2,63c0.1,0.2,0.3,0.4,0.5,0.6l-0.1,0.1
							c-0.1,0.1-0.2,0.3-0.3,0.4c-0.2-0.3-0.5-0.5-0.8-0.6C10.7,63.5,11,63.3,11.2,63z M11.2,70.6c-0.1-0.1-0.3-0.2-0.4-0.3
							c0.2-0.1,0.3-0.2,0.4-0.4c0.1,0.1,0.2,0.2,0.3,0.3l0,0C11.4,70.4,11.3,70.5,11.2,70.6z M11.6,73.7
							C11.5,73.7,11.5,73.8,11.6,73.7c-0.1,0.1-0.2,0.2-0.3,0.4c-0.1-0.2-0.3-0.3-0.4-0.4c0.2-0.1,0.3-0.2,0.4-0.3
							C11.3,73.5,11.4,73.6,11.6,73.7z M11.2,67.4c-0.2-0.2-0.4-0.4-0.6-0.5c0.2-0.1,0.4-0.3,0.6-0.5c0.1,0.2,0.3,0.4,0.4,0.5
							C11.5,67.1,11.4,67.2,11.2,67.4z M11.1,76.7l0.1-0.1c0.1,0.2,0.3,0.3,0.4,0.5c-0.2,0.1-0.3,0.3-0.4,0.5
							c-0.2-0.2-0.4-0.4-0.6-0.5C10.8,77,11,76.9,11.1,76.7z M11.2,81c-0.1-0.1-0.1-0.1-0.2-0.2c-0.2-0.2-0.3-0.3-0.5-0.4
							c0.3-0.1,0.6-0.3,0.8-0.6c0.1,0.2,0.3,0.4,0.5,0.6C11.5,80.5,11.3,80.7,11.2,81z M14.5,94.8c-0.2-0.5-0.6-0.8-1.1-0.9
							c0.5-0.1,0.9-0.3,1.1-0.6c0.2,0.2,0.3,0.5,0.6,0.6C14.8,94.1,14.6,94.4,14.5,94.8z M14.2,87c0,0.1,0,0.2,0.1,0.3
							c-0.1-0.1-0.1-0.1-0.2-0.2C14.1,87.1,14.1,87,14.2,87z M14,56.9c0.1,0,0.1-0.1,0.2-0.2C14.2,56.8,14.2,56.9,14,56.9
							C14.1,57,14.1,56.9,14,56.9z M13.9,53.6c0.2-0.1,0.4-0.3,0.6-0.4c0.1,0.1,0.1,0.2,0.2,0.3c-0.1,0.1-0.3,0.3-0.4,0.4
							C14.2,53.7,14.1,53.6,13.9,53.6z M14.3,90.2c0.1,0.2,0.2,0.3,0.4,0.4c-0.1,0.1-0.2,0.2-0.2,0.3c-0.2-0.2-0.4-0.3-0.6-0.5
							C14.1,90.3,14.2,90.3,14.3,90.2z M14.5,50.7c-0.3-0.3-0.7-0.6-1.1-0.6c0.5-0.1,0.9-0.4,1.1-0.9c0.1,0.3,0.3,0.6,0.6,0.9
							C14.8,50.3,14.6,50.5,14.5,50.7z M17.9,101.3c-0.2-0.3-0.5-0.6-0.8-0.7c0.2-0.1,0.4-0.2,0.6-0.4c0.2,0.2,0.3,0.4,0.5,0.6
							C18.1,100.9,18,101.1,17.9,101.3z M17.7,97c0,0.1,0.1,0.1,0.1,0.2l-0.1,0.1c-0.1-0.1-0.1-0.1-0.2-0.1
							C17.6,97.1,17.6,97.1,17.7,97z M17.5,46.8c0.1,0,0.1-0.1,0.2-0.1l0.1,0.1c0,0.1-0.1,0.1-0.1,0.2
							C17.6,46.9,17.6,46.9,17.5,46.8z M17.7,43.8c-0.2-0.2-0.4-0.3-0.6-0.4c0.4-0.1,0.7-0.4,0.8-0.7c0.1,0.2,0.2,0.4,0.3,0.5
							C18,43.4,17.8,43.6,17.7,43.8z M21.3,108.4c-0.2-0.7-0.8-1.2-1.5-1.2c0.6,0,1.1-0.3,1.4-0.7c0.2,0.3,0.4,0.6,0.7,0.8
							C21.6,107.6,21.3,108,21.3,108.4z M21,103.7c0.1,0.1,0.2,0.3,0.4,0.4c-0.1,0.1-0.1,0.2-0.2,0.2c-0.1-0.2-0.3-0.3-0.5-0.4
							C20.8,103.9,20.9,103.8,21,103.7z M20.7,40.1c0.2-0.1,0.3-0.3,0.5-0.4c0,0.1,0.1,0.2,0.2,0.2c-0.1,0.1-0.3,0.2-0.4,0.4
							C20.9,40.2,20.8,40.1,20.7,40.1z M21.2,37.4c-0.3-0.4-0.9-0.7-1.4-0.7c0.7,0,1.3-0.5,1.5-1.2c0.1,0.5,0.3,0.9,0.7,1.1
							C21.7,36.9,21.4,37.1,21.2,37.4z M24.6,32.6c0.1,0.3,0.3,0.6,0.6,0.8c-0.2,0.2-0.4,0.4-0.6,0.6c-0.2-0.3-0.5-0.5-0.9-0.6
							C24.1,33.3,24.4,33,24.6,32.6z M24.6,111.4c-0.2-0.4-0.5-0.7-0.9-0.8c0.3-0.1,0.6-0.3,0.9-0.6c0.2,0.2,0.4,0.5,0.6,0.6
							C24.9,110.8,24.7,111.1,24.6,111.4z M27.9,114.6c-0.2-0.3-0.4-0.5-0.7-0.6c0.2-0.1,0.4-0.2,0.6-0.4c0.1,0.2,0.3,0.3,0.4,0.5
							C28.1,114.2,28,114.4,27.9,114.6z M27.9,30.4c-0.2-0.2-0.4-0.3-0.6-0.4c0.3-0.1,0.5-0.3,0.7-0.6c0.1,0.2,0.2,0.4,0.4,0.6
							C28.1,30.1,28,30.3,27.9,30.4z M31.3,118.1c-0.1-0.3-0.3-0.5-0.6-0.7c0.2-0.1,0.4-0.2,0.6-0.4c0.1,0.2,0.3,0.3,0.5,0.4
							C31.6,117.6,31.4,117.8,31.3,118.1z M31.3,27c-0.2-0.2-0.4-0.3-0.6-0.4c0.3-0.2,0.5-0.4,0.6-0.7c0.1,0.2,0.2,0.4,0.4,0.6
							C31.6,26.7,31.4,26.8,31.3,27z M91.7,12.6c0.1,0.2,0.3,0.4,0.5,0.6c-0.1,0.1-0.2,0.1-0.3,0.2c-0.1-0.1-0.3-0.3-0.4-0.4
							C91.5,12.9,91.6,12.8,91.7,12.6z M88.4,12.8c0,0.1,0.1,0.1,0.2,0.2c-0.1,0-0.2,0-0.3-0.1C88.3,12.9,88.3,12.8,88.4,12.8z
							 M81.7,9.2c0.1,0.3,0.3,0.5,0.6,0.7c-0.2,0.1-0.4,0.3-0.6,0.5c0-0.1-0.1-0.1-0.1-0.2c-0.1-0.1-0.3-0.2-0.4-0.3
							C81.4,9.7,81.6,9.5,81.7,9.2z M78.4,9.3c0.1,0.2,0.3,0.4,0.5,0.6c-0.2,0.1-0.4,0.3-0.5,0.4c-0.1-0.2-0.3-0.3-0.5-0.4
							C78.1,9.8,78.2,9.6,78.4,9.3z M75,9.5c0.1,0.2,0.2,0.3,0.4,0.4c-0.1,0.1-0.2,0.2-0.3,0.3l0,0c-0.1-0.1-0.2-0.2-0.4-0.3
							C74.8,9.8,74.9,9.7,75,9.5z M71.6,9.5c0.1,0.2,0.2,0.3,0.3,0.4c-0.1,0.1-0.3,0.2-0.4,0.3l0,0c-0.1-0.1-0.2-0.2-0.3-0.3
							C71.3,9.8,71.5,9.7,71.6,9.5z M68.2,9.3c0.1,0.2,0.2,0.3,0.4,0.5l0.1,0.1c-0.2,0.1-0.3,0.3-0.5,0.4c-0.1-0.2-0.3-0.3-0.5-0.4
							C67.9,9.8,68.1,9.6,68.2,9.3z M64.5,9.7c0.2-0.2,0.3-0.3,0.4-0.5c0.1,0.3,0.3,0.6,0.6,0.8c-0.2,0.1-0.4,0.3-0.6,0.5
							c-0.2-0.2-0.4-0.4-0.6-0.5C64.4,9.8,64.5,9.8,64.5,9.7z M58.2,12.8c0,0.1,0.1,0.1,0.1,0.2c-0.1,0-0.2,0-0.3,0.1
							C58.1,12.9,58.2,12.8,58.2,12.8z M54.9,12.6c0.1,0.1,0.2,0.3,0.3,0.4c-0.2,0.1-0.3,0.2-0.4,0.4c-0.1-0.1-0.2-0.2-0.3-0.2
							C54.6,13,54.8,12.8,54.9,12.6z M51.4,12.1c0.1,0.5,0.3,0.9,0.6,1.1c-0.2,0.1-0.5,0.3-0.6,0.6c-0.2-0.3-0.5-0.5-0.9-0.6
							C51,13,51.3,12.6,51.4,12.1z M48.1,16.2c0,0.1,0.1,0.1,0.1,0.2c-0.1,0-0.1,0.1-0.2,0.1l-0.1-0.1C48,16.3,48.1,16.3,48.1,16.2z
							 M44.7,15.8c0.1,0.2,0.2,0.4,0.4,0.6c-0.2,0.1-0.4,0.3-0.6,0.5c-0.2-0.1-0.3-0.2-0.5-0.3C44.3,16.4,44.6,16.1,44.7,15.8z
							 M41.4,19.5c0.1,0.1,0.1,0.2,0.2,0.3c-0.1,0.1-0.3,0.2-0.4,0.4C41.1,20,41,20,40.9,19.9C41.1,19.8,41.3,19.6,41.4,19.5z
							 M38,18.5c0,0.6,0.3,1.1,0.7,1.4c-0.3,0.2-0.6,0.4-0.7,0.7c-0.3-0.4-0.7-0.6-1.1-0.7C37.5,19.8,38,19.2,38,18.5z M34.7,22.4
							c0.1,0.3,0.3,0.6,0.6,0.9c-0.2,0.2-0.5,0.4-0.6,0.6c-0.2-0.2-0.5-0.4-0.8-0.6C34.3,23.1,34.5,22.8,34.7,22.4z M34.7,121.6
							c-0.2-0.4-0.4-0.7-0.8-0.9c0.3-0.1,0.6-0.3,0.8-0.6c0.2,0.2,0.4,0.4,0.6,0.6C35,120.9,34.8,121.2,34.7,121.6z M38,125.5
							c0-0.7-0.5-1.3-1.2-1.5c0.5-0.1,0.9-0.3,1.1-0.7c0.2,0.3,0.4,0.5,0.7,0.7C38.3,124.4,38,124.9,38,125.5z M41.4,124.5
							c-0.1-0.2-0.3-0.3-0.4-0.5c0.1,0,0.2-0.1,0.2-0.2c0.1,0.1,0.2,0.2,0.4,0.4C41.5,124.4,41.4,124.4,41.4,124.5z M44.7,128.2
							c-0.1-0.4-0.4-0.7-0.7-0.8c0.2-0.1,0.4-0.2,0.5-0.3c0.2,0.2,0.4,0.4,0.6,0.5C44.9,127.8,44.8,128,44.7,128.2z M48.1,127.8
							c0-0.1-0.1-0.1-0.1-0.2l0.1-0.1c0.1,0,0.1,0.1,0.2,0.1C48.2,127.7,48.2,127.7,48.1,127.8z M51.4,131.9
							c-0.1-0.5-0.4-0.9-0.9-1.1c0.3-0.1,0.6-0.3,0.9-0.6c0.2,0.2,0.4,0.4,0.6,0.6C51.7,131.1,51.5,131.5,51.4,131.9z M54.9,131.4
							c-0.1-0.2-0.3-0.4-0.4-0.6c0.1-0.1,0.2-0.1,0.3-0.2c0.1,0.1,0.3,0.3,0.4,0.4C55,131.1,54.9,131.2,54.9,131.4z M58.2,131.2
							c0-0.1-0.1-0.1-0.2-0.2C58.1,131,58.2,131,58.2,131.2L58.2,131.2z M64.9,134.8c-0.1-0.3-0.3-0.5-0.6-0.7
							c0.2-0.1,0.4-0.3,0.6-0.5c0,0.1,0.1,0.1,0.1,0.2c0.1,0.1,0.3,0.2,0.4,0.3C65.2,134.3,65,134.5,64.9,134.8z M68.2,134.6
							c-0.1-0.2-0.3-0.4-0.5-0.6c0.2-0.1,0.4-0.3,0.5-0.4c0.1,0.2,0.3,0.3,0.5,0.4C68.5,134.2,68.3,134.4,68.2,134.6z M71.6,134.5
							c-0.1-0.2-0.2-0.3-0.4-0.4c0.1-0.1,0.2-0.2,0.3-0.3l0,0c0.1,0.1,0.2,0.2,0.4,0.3C71.8,134.2,71.7,134.3,71.6,134.5z M75,134.5
							c-0.1-0.2-0.2-0.3-0.3-0.4c0.1-0.1,0.3-0.2,0.4-0.3l0,0c0.1,0.1,0.2,0.2,0.3,0.3C75.2,134.2,75.1,134.3,75,134.5z M78.4,134.6
							c-0.1-0.2-0.2-0.3-0.3-0.5L78,134c0.2-0.1,0.3-0.3,0.5-0.4c0.1,0.2,0.3,0.3,0.5,0.4C78.7,134.2,78.5,134.4,78.4,134.6z
							 M82.1,134.3c-0.2,0.2-0.3,0.3-0.4,0.5c-0.1-0.3-0.3-0.6-0.6-0.8c0.2-0.1,0.4-0.3,0.6-0.5c0.2,0.2,0.4,0.4,0.6,0.5
							C82.2,134.2,82.1,134.2,82.1,134.3z M88.4,131.2c0-0.1-0.1-0.1-0.1-0.2c0.1,0,0.2,0,0.3-0.1C88.5,131.1,88.4,131.2,88.4,131.2
							z M91.7,131.4c-0.1-0.2-0.2-0.3-0.3-0.4c0.2-0.1,0.3-0.2,0.4-0.4c0.1,0.1,0.2,0.1,0.3,0.2C92,131,91.8,131.2,91.7,131.4z
							 M95.2,131.9c-0.1-0.5-0.3-0.9-0.6-1.1c0.2-0.1,0.5-0.3,0.6-0.6c0.2,0.3,0.5,0.5,0.9,0.6C95.6,131,95.3,131.4,95.2,131.9z
							 M95.2,13.8c-0.2-0.2-0.4-0.4-0.6-0.6c0.3-0.3,0.6-0.7,0.6-1.1c0.1,0.5,0.4,0.9,0.9,1.1C95.7,13.3,95.4,13.5,95.2,13.8z
							 M98.5,127.8c0-0.1-0.1-0.1-0.1-0.2c0.1,0,0.1,0,0.2-0.1l0.1,0.1C98.6,127.7,98.5,127.7,98.5,127.8z M98.5,16.5
							c-0.1,0-0.1,0-0.2-0.1c0-0.1,0.1-0.1,0.1-0.2c0,0.1,0.1,0.1,0.1,0.2C98.6,16.4,98.5,16.5,98.5,16.5z M101.8,128.2
							c-0.1-0.2-0.2-0.4-0.4-0.6c0.2-0.1,0.4-0.3,0.6-0.5c0.2,0.1,0.3,0.3,0.5,0.3C102.2,127.6,102,127.9,101.8,128.2z M102.1,16.9
							c-0.2-0.2-0.4-0.4-0.6-0.5c0.2-0.2,0.3-0.4,0.4-0.6c0.1,0.4,0.4,0.6,0.7,0.8C102.4,16.7,102.2,16.8,102.1,16.9z M105.2,124.5
							c0-0.1-0.1-0.2-0.2-0.3c0.1-0.1,0.3-0.2,0.4-0.4c0.1,0.1,0.2,0.1,0.2,0.2C105.5,124.2,105.3,124.4,105.2,124.5z M105.4,20.1
							c-0.1-0.1-0.2-0.3-0.4-0.4c0.1-0.1,0.1-0.2,0.2-0.3c0.1,0.2,0.3,0.3,0.4,0.5C105.5,20,105.5,20,105.4,20.1z M108.6,125.5
							c0-0.6-0.3-1.1-0.7-1.4c0.3-0.2,0.6-0.4,0.8-0.7c0.3,0.4,0.7,0.6,1.1,0.7C109.1,124.2,108.6,124.8,108.6,125.5z M108.6,20.7
							c-0.2-0.3-0.4-0.5-0.8-0.7c0.4-0.3,0.7-0.8,0.7-1.4c0,0.7,0.5,1.3,1.2,1.5C109.3,20,108.9,20.3,108.6,20.7z M111.9,121.6
							c-0.1-0.3-0.3-0.7-0.6-0.9c0.2-0.2,0.5-0.4,0.6-0.6c0.2,0.3,0.5,0.4,0.8,0.6C112.3,120.9,112,121.2,111.9,121.6z M111.9,23.9
							c-0.2-0.2-0.4-0.4-0.6-0.6c0.3-0.2,0.5-0.5,0.6-0.9c0.2,0.4,0.4,0.7,0.8,0.9C112.4,23.4,112.1,23.6,111.9,23.9z M115.3,118.1
							c-0.1-0.2-0.2-0.4-0.4-0.6c0.2-0.1,0.3-0.3,0.5-0.4c0.2,0.2,0.4,0.3,0.6,0.4C115.6,117.6,115.4,117.8,115.3,118.1z M115.3,27
							c-0.1-0.2-0.3-0.3-0.4-0.4c0.2-0.2,0.3-0.4,0.4-0.6c0.1,0.3,0.3,0.5,0.6,0.7C115.7,26.7,115.5,26.8,115.3,27z M118.7,29.4
							c0.2,0.3,0.4,0.5,0.7,0.6c-0.2,0.1-0.4,0.2-0.6,0.4c-0.1-0.2-0.3-0.3-0.4-0.4C118.5,29.8,118.6,29.6,118.7,29.4z M118.7,114.6
							c-0.1-0.2-0.2-0.4-0.4-0.6c0.2-0.1,0.3-0.3,0.4-0.5c0.2,0.2,0.4,0.3,0.6,0.4C119.1,114.1,118.8,114.3,118.7,114.6z M122,111.4
							c-0.1-0.3-0.3-0.6-0.6-0.8c0.2-0.2,0.4-0.4,0.6-0.6c0.2,0.3,0.5,0.5,0.9,0.6C122.5,110.7,122.1,111,122,111.4z M122,34
							c-0.2-0.2-0.4-0.5-0.6-0.6c0.2-0.2,0.4-0.5,0.6-0.8c0.2,0.4,0.5,0.7,0.9,0.8C122.5,33.5,122.2,33.7,122,34z M125.3,108.4
							c-0.1-0.5-0.3-0.9-0.7-1.1c0.3-0.2,0.6-0.4,0.7-0.8c0.3,0.4,0.8,0.7,1.4,0.7C126.1,107.3,125.5,107.8,125.3,108.4z
							 M125.6,103.7c0.1,0.1,0.2,0.1,0.3,0.2c-0.2,0.1-0.3,0.3-0.5,0.4c-0.1-0.1-0.1-0.2-0.2-0.2C125.3,104,125.4,103.9,125.6,103.7
							z M125.2,39.9c0.1-0.1,0.1-0.2,0.2-0.2c0.1,0.2,0.3,0.3,0.5,0.4c-0.1,0.1-0.2,0.1-0.3,0.2C125.4,40.1,125.3,40,125.2,39.9z
							 M125.4,37.4c-0.2-0.3-0.4-0.6-0.7-0.8c0.4-0.3,0.6-0.7,0.7-1.1c0.2,0.7,0.8,1.2,1.5,1.2C126.2,36.7,125.7,37,125.4,37.4z
							 M128.7,101.3c-0.1-0.2-0.2-0.4-0.3-0.5c0.2-0.2,0.4-0.4,0.5-0.6c0.2,0.2,0.4,0.3,0.6,0.4C129.2,100.7,128.9,101,128.7,101.3z
							 M128.9,97c0.1,0.1,0.1,0.1,0.2,0.1c-0.1,0-0.1,0.1-0.2,0.1l-0.1-0.1C128.8,97.1,128.9,97.1,128.9,97z M128.8,46.8l0.1-0.1
							c0.1,0,0.1,0.1,0.2,0.1c-0.1,0-0.1,0.1-0.2,0.1C128.9,46.9,128.8,46.9,128.8,46.8z M128.9,43.8c-0.2-0.2-0.3-0.4-0.5-0.6
							c0.1-0.2,0.3-0.3,0.3-0.5c0.2,0.3,0.5,0.6,0.8,0.7C129.3,43.5,129.1,43.6,128.9,43.8z M132.1,94.8c-0.1-0.3-0.3-0.6-0.6-0.9
							c0.2-0.2,0.4-0.4,0.6-0.6c0.3,0.3,0.7,0.6,1.1,0.6C132.7,94,132.3,94.3,132.1,94.8z M132.4,57c0-0.1,0-0.2-0.1-0.3
							c0.1,0.1,0.1,0.1,0.2,0.1C132.5,56.9,132.4,57,132.4,57z M132.5,87.1c-0.1,0.1-0.1,0.1-0.2,0.2c0-0.1,0-0.2,0.1-0.3
							C132.4,87,132.5,87.1,132.5,87.1z M132.2,53.8c-0.1-0.2-0.2-0.3-0.4-0.4c0.1-0.1,0.2-0.2,0.2-0.3c0.2,0.2,0.4,0.3,0.6,0.4
							C132.5,53.6,132.4,53.7,132.2,53.8z M132.2,90.2c0.1,0.1,0.3,0.2,0.4,0.3c-0.2,0.1-0.4,0.3-0.6,0.5c-0.1-0.1-0.1-0.2-0.2-0.3
							C132,90.4,132.1,90.3,132.2,90.2z M132.1,50.7c-0.1-0.2-0.3-0.5-0.6-0.6c0.3-0.2,0.5-0.5,0.6-0.9c0.2,0.4,0.6,0.8,1.1,0.9
							C132.8,50.2,132.4,50.4,132.1,50.7z M135.4,63c0.1,0.1,0.1,0.1,0.2,0.2c0.2,0.2,0.3,0.3,0.5,0.4c-0.3,0.1-0.6,0.3-0.8,0.6
							c-0.1-0.2-0.3-0.4-0.5-0.6C135.1,63.5,135.3,63.3,135.4,63z M135.4,73.4c0.1,0.1,0.3,0.2,0.4,0.3c-0.2,0.1-0.3,0.2-0.4,0.4
							c-0.1-0.1-0.2-0.2-0.3-0.3l0,0C135.2,73.6,135.3,73.5,135.4,73.4z M135,70.3C135,70.2,135.1,70.2,135,70.3
							c0.1-0.1,0.2-0.3,0.3-0.4c0.1,0.1,0.3,0.3,0.4,0.4c-0.2,0.1-0.3,0.2-0.4,0.3C135.3,70.5,135.2,70.4,135,70.3z M135.5,67.3
							l-0.1,0.1c-0.1-0.2-0.3-0.3-0.4-0.5c0.2-0.2,0.3-0.3,0.4-0.5c0.2,0.2,0.3,0.4,0.6,0.5C135.8,67,135.6,67.1,135.5,67.3z
							 M135.3,76.6c0.2,0.2,0.4,0.4,0.6,0.5c-0.2,0.1-0.4,0.3-0.6,0.5c-0.1-0.2-0.3-0.4-0.4-0.5C135.1,76.9,135.2,76.8,135.3,76.6z
							 M135.4,81c-0.1-0.2-0.3-0.4-0.5-0.6c0.1,0,0.1-0.1,0.2-0.1c0.1-0.1,0.2-0.3,0.3-0.4c0.2,0.3,0.5,0.5,0.8,0.6
							C135.8,80.5,135.6,80.7,135.4,81z"/>
					</g>
				</g>
			</g>
		</g>
	</g>
	<path class="st1" d="M56.7,78c-0.5,0-1-0.4-1-1c0-0.5,0.4-1,1-1h7c0.5,0,1,0.4,1,1c0,0.5-0.4,1-1,1c0,0-1.9,0-2.4,0
		c0,0.6,0,12.5,0,12.5c0,0.6-0.5,1.1-1.1,1.1s-1.1-0.5-1.1-1.1c0,0,0-12,0-12.5C58.7,78,56.7,78,56.7,78z"/>
	<path class="st1" d="M46.1,58.4v13.5c0,0.6-0.5,1.1-1.1,1.1s-1.1-0.5-1.1-1.1V58.4c0-0.6,0.5-1.1,1.1-1.1
		C45.6,57.3,46.1,57.8,46.1,58.4z"/>
	<path class="st1" d="M39.4,89.6c0.5,0,1,0.4,1,1c0,0.5-0.4,1-1,1h-6.3c-0.6,0-1.1-0.5-1.1-1.1V77.1c0-0.6,0.5-1.1,1.1-1.1
		s1.1,0.5,1.1,1.1c0,0,0,12,0,12.6C34.8,89.6,39.4,89.6,39.4,89.6z"/>
	<path class="st1" d="M34.2,103.5c0,0.6,0,5.8,0,5.8c0,0.6-0.5,1.1-1.1,1.1s-1.1-0.5-1.1-1.1V95.7c0-0.5,0.4-1,1-1h6.2
		c0.6,0,1,0.4,1,1c0,0.5-0.4,1-1,1c0,0-4.5,0-5.1,0c0,0.5,0,4.2,0,4.8c0.5,0,4.9,0,4.9,0c0.5,0,1,0.4,1,1c0,0.5-0.4,1-1,1
		C39.1,103.5,34.8,103.5,34.2,103.5z"/>
	<path class="st1" d="M52.6,104.4c0,1.3-0.2,2.4-0.6,3.2c-1.3,2.8-4,3-4.8,3s-3.6-0.2-4.8-3c-0.4-0.8-0.6-2-0.6-3.2v-8.6
		c0-0.6,0.5-1.1,1.1-1.1s1.1,0.5,1.1,1.1v8.6c0,1.1,0.2,2,0.5,2.6c0.7,1.4,1.9,1.7,2.8,1.7c0.9,0,2.1-0.3,2.8-1.7
		c0.3-0.5,0.5-1.5,0.5-2.6v-8.6c0-0.6,0.5-1.1,1.1-1.1s1.1,0.5,1.1,1.1v8.6H52.6z"/>
	<path class="st1" d="M67,109c0,0.7-0.6,1.3-1.3,1.3c-0.4,0-0.8-0.2-1.1-0.6c0,0-7.1-10.6-8.1-12c0,1.6,0,11.5,0,11.5
		c0,0.6-0.5,1.1-1.1,1.1s-1.1-0.5-1.1-1.1V96.4c0-0.9,0.7-1.6,1.6-1.6c0.5,0,1,0.3,1.3,0.7c0,0,6.5,9.7,7.4,11.1
		c0-1.6,0-10.7,0-10.7c0-0.6,0.5-1.1,1.1-1.1s1.1,0.5,1.1,1.1V109H67z"/>
	<path class="st1" d="M67,78c-0.5,0-1-0.4-1-1c0-0.5,0.4-1,1-1h7c0.5,0,1,0.4,1,1c0,0.5-0.4,1-1,1c0,0-1.9,0-2.4,0
		c0,0.6,0,12.5,0,12.5c0,0.6-0.5,1.1-1.1,1.1s-1.1-0.5-1.1-1.1c0,0,0-12,0-12.5C69,78,67,78,67,78z"/>
	<path class="st1" d="M83.8,82.7c0.5,0,1,0.4,1,1c0,0.5-0.4,1-1,1c0,0-4.9,0-5.5,0c0,0.5,0,4.4,0,4.9c0.6,0,5.7,0,5.7,0
		c0.5,0,1,0.4,1,1c0,0.5-0.4,1-1,1h-6.8c-0.5,0-1-0.4-1-1V77c0-0.5,0.4-1,1-1H84c0.5,0,1,0.4,1,1c0,0.5-0.4,1-1,1c0,0-5.1,0-5.7,0
		c0,0.5,0,4.2,0,4.8C78.9,82.7,83.8,82.7,83.8,82.7z"/>
	<path class="st1" d="M109.6,77.5c0,0-4.6,8.8-4.7,8.8v4.2c0,0.6-0.5,1.1-1.1,1.1s-1.1-0.5-1.1-1.1c0,0,0-4,0-4.2
		c-0.2-0.4-4.6-8.8-4.6-8.8L98,77.1c0-0.6,0.5-1.1,1-1.1c0.4,0,0.8,0.2,0.9,0.6c0,0,3.3,6.5,3.8,7.5c0.9-1.7,3.9-7.4,3.9-7.4
		c0.2-0.4,0.5-0.6,0.9-0.6c0.6,0,1.1,0.5,1.1,1.1L109.6,77.5z"/>
	<path class="st1" d="M78.7,109c-1.2,0.8-3.1,1.3-5,1.3h-3.6c-0.6,0-1.1-0.5-1.1-1.1V95.8c0-0.6,0.5-1.1,1.1-1.1h3.6
		c1.9,0,3.8,0.5,5,1.3c2.6,1.6,3.5,4.4,3.5,6.6C82.3,103.3,82.1,106.9,78.7,109z M77.7,97.8c-1.2-0.8-2.5-1.1-4.8-1.1
		c0,0-1.4,0-1.9,0c0,0.6,0,11.1,0,11.6c0.5,0,1.9,0,1.9,0c1.3,0,3.3,0,4.9-1.1c1.5-1.3,2.2-2.8,2.2-4.7
		C80.1,100.7,79.2,98.9,77.7,97.8z"/>
	<path class="st1" d="M93.6,85.9c0.8,1,3,4,3,4l0.2,0.6c0,0.6-0.5,1.1-1.1,1.1c-0.3,0-0.6-0.1-0.8-0.4c0,0-3.7-4.9-3.9-5.2
		c-0.2,0-1.5,0-1.9,0c0,0.5,0,4.5,0,4.5c0,0.6-0.5,1.1-1.1,1.1s-1.1-0.5-1.1-1.1V77.1c0-0.6,0.5-1.1,1.1-1.1h3.1
		c2.3,0,3.2,0.3,3.8,0.6c1.8,0.8,2.9,2.6,2.9,4.6C97.8,83.3,96.3,85.5,93.6,85.9z M94.2,78.5c-0.9-0.4-1.6-0.5-2.8-0.5
		c0,0-1.8,0-2.3,0c0,0.5,0,5.7,0,6.2c0.4,0,1.5,0,1.5,0c1.6,0,2.2,0,2.8-0.2c1.6-0.5,2.2-1.8,2.2-2.9C95.7,80,95.1,78.9,94.2,78.5z"
		/>
	<path class="st1" d="M48.2,91.9c-4.5,0-8.2-3.7-8.2-8c0-5,4.3-8.1,8.2-8.1c4.5,0,8.3,3.6,8.3,8.1C56.5,88.2,52.8,91.9,48.2,91.9z
		 M48.2,77.7c-3.4,0-6.1,2.8-6.1,6.2c0,3.3,2.8,6,6.1,6c3.4,0,6.1-2.7,6.1-6.1C54.4,80.5,51.6,77.7,48.2,77.7z"/>
	<path class="st1" d="M36.2,72.9h-3c-0.6,0-1.1-0.5-1.1-1.1V58.4c0-0.6,0.5-1.1,1.1-1.1h3c5,0,5.2,3.6,5.2,4.3c0,1.6-0.8,2.5-1.4,3
		c1.4,0.7,2.3,2.1,2.3,3.7c0,1.5-0.7,2.9-1.9,3.7C39.1,72.8,38,72.9,36.2,72.9z M38.2,63.4c0.6-0.3,1-1.1,1-1.8c0-0.5-0.2-1-0.6-1.4
		c-0.5-0.6-1.3-0.8-2.8-0.8c0,0-1.2,0-1.7,0c0,0.5,0,4,0,4.5c0.4,0,1.6,0,1.6,0C36.9,63.7,37.6,63.7,38.2,63.4z M38.6,66.1
		c-0.7-0.3-1.2-0.3-2.8-0.3c0,0-1.1,0-1.5,0c0,0.5,0,4.7,0,5.2c0.5,0,1.8,0,1.8,0c1.2,0,2-0.1,2.7-0.4c0.8-0.3,1.4-1.3,1.4-2.3
		C40.1,67.3,39.5,66.4,38.6,66.1z"/>
	<path class="st1" d="M56.8,65.8H62c-0.1,1.3-0.7,2.6-1.8,3.7c-2.4,2.4-6.4,2.4-8.8,0c-2.4-2.4-2.4-6.2,0-8.6c2.4-2.4,6.4-2.4,8.8,0
		c0.4,0.4,1,0.4,1.4,0s0.4-1,0-1.4c-3.2-3.2-8.5-3.2-11.7,0c-3.2,3.1-3.2,8.2,0,11.4c3.2,3.1,8.5,3.1,11.7,0
		c1.6-1.6,2.4-3.7,2.4-5.7v-0.3c0-0.6-0.5-1-1-1h-6.2h-0.2c-0.5,0-1,0.4-1,1c0,0.5,0.5,1,1,1L56.8,65.8L56.8,65.8z"/>
</g>
<g id="esmee">
	<path class="st1" d="M166.1,49.5c0-15.6,12.6-28.2,28.2-28.2s28.2,12.6,28.2,28.2S210,77.7,194.4,77.7S166.1,65.1,166.1,49.5
		L166.1,49.5z"/>
	<path class="st2" d="M192.6,62.4l2.2-6c-13.6,11.3-26.4-4.7-17.4-13.8c4.4-4.4,12.7-2.2,13.1,4.5h-11.9l-1.7,3.8h16.8l1.4-3.8
		c0,0,0-4.6-3.8-8c-4.8-4.3-12.9-4-17.7,0.9C162.6,51.3,176.6,70.8,192.6,62.4L192.6,62.4z M165.9,49.2c0-15.6,12.7-28.3,28.3-28.3
		c15.6,0,28.3,12.7,28.3,28.3c0,11.6-7,21.6-17,26V50.9h4.1l1.4-3.8h-5.5v-3.5c0-4.9,2-7.1,6.3-7.1c0.9,0,1.5,0.1,2.2,0.4v-4.7
		c-4.3-1.1-7.5-0.5-10.1,2.1c-2.1,2.1-3.5,4.5-3.5,10v2.9h-2.2l-1.4,3.8h3.6v26c-2,0.4-4.1,0.7-6.2,0.7
		C178.6,77.5,165.9,64.9,165.9,49.2L165.9,49.2z"/>
	<path d="M326.1,91.1c0.9,0.6,0.9,1.5,1,3v12c0,1.6,0,3.6-0.8,4.8h4.9c-0.8-1.2-0.8-3.2-0.8-4.8V90.3L326.1,91.1L326.1,91.1
		L326.1,91.1z"/>
	<path d="M267.6,85.8c0-1.1,0.8-1.9,1.9-1.9c1,0,1.9,0.9,1.9,1.9c0,1.1-0.8,1.9-1.9,1.9C268.4,87.7,267.6,86.9,267.6,85.8
		L267.6,85.8L267.6,85.8z"/>
	<path d="M326.8,85.8c0-1.1,0.8-1.9,1.9-1.9c1,0,1.9,0.9,1.9,1.9c0,1.1-0.8,1.9-1.9,1.9C327.6,87.7,326.8,86.9,326.8,85.8
		L326.8,85.8L326.8,85.8z"/>
	<path d="M267.1,91.1c0.9,0.6,0.9,1.5,1,3v12c0,1.6,0,3.6-0.8,4.8h4.9c-0.8-1.2-0.8-3.2-0.8-4.8V90.3L267.1,91.1L267.1,91.1
		L267.1,91.1z"/>
	<path d="M299.1,63.5h4.6c2.2,0,3.3,0,3.3-1.7c0-1.6-1.2-3.4-3.4-3.4C300.8,58.5,299.6,61.2,299.1,63.5L299.1,63.5L299.1,63.5z
		 M306.8,64.9h-8c-0.1,0.8-0.2,1.6-0.2,2.5c0,4.1,1.9,8.1,6.5,8.1c2.2,0,4.3-0.9,5.4-2.1v0.5c0,2.4-3.7,4.5-7,4.5
		c-5.8,0-8.6-5.2-8.6-10.6c0-5.8,3.2-10.6,9.3-10.6c4.3,0,6.8,2.8,6.8,5.7C311,64.9,309.5,64.9,306.8,64.9L306.8,64.9L306.8,64.9z"
		/>
	<path d="M237,63.9h1.1c2.8,0,7.8,0,9.3-2.5c-3.4,0.3-7,0.3-10.4,0.3V51.1h4.1c2.6,0,5,0.3,6.6,1.6l-0.2-3.4H232c1,1.5,1,3.8,1,5.8
		v16.7c0,2-0.1,4.3-1.1,5.8h12.8c1.6,0,3.1-0.1,4.3-0.2l0.8-4.1c-2.1,1.9-4.9,2.5-7.7,2.5h-5.1L237,63.9L237,63.9L237,63.9z"/>
	<path d="M255.6,61.2c0-1.9,1.6-2.7,3.3-2.7c2,0,2.9,0.4,4.7,2.6c0-0.9,0.1-2.2,0.1-3c0-0.3-0.4-0.4-0.6-0.4c-1.3-0.3-2.7-0.5-4-0.5
		c-4.2,0-6.8,1.4-6.8,4.8c0,6.6,8.8,5.7,8.8,11.1c0,2.5-1.6,3.8-4.2,3.8c-2.9,0-4-1.4-5.4-3.6c0,1.1-0.2,2.2-0.2,3.2
		c0,0.6,0.3,0.8,0.8,1c1.6,0.6,3.2,1,4.9,1c3.8,0,7.9-2.1,7.9-6.4C264.8,65.8,255.6,66.5,255.6,61.2L255.6,61.2L255.6,61.2z"/>
	<path d="M267.6,72.9c0,1.6,0,3.6-0.8,4.8h4.9c-0.8-1.2-0.8-3.2-0.8-4.8V66c0-3.4,0.5-6.4,4-6.4c3,0,3.4,3.1,3.4,6V73
		c0,1.6,0,3.6-0.8,4.8h4.9c-0.8-1.2-0.8-3.2-0.8-4.8v-6.9c0-3.4,0.5-6.4,4-6.4c3,0,3.4,3.1,3.4,6v12.9l4.1-0.6
		c-0.7-1.2-0.8-3.2-0.8-4.9v-10c0-4.1-2.1-5.8-5.1-5.8c-3.2,0-5,3.5-5.6,3.5s-0.9-3.5-4.8-3.5c-2.8,0-5.2,2.7-5.5,2.7
		s-0.3-0.4-0.3-0.7v-1.6l-4.5,0.3c0.9,0.9,0.9,2.6,0.9,4.4v10.5H267.6L267.6,72.9z"/>
	<path d="M324.1,64.9c2.8,0,4.2,0,4.2-2c0-2.9-2.5-5.7-6.8-5.7c-6.1,0-9.3,4.8-9.3,10.6c0,5.4,2.8,10.6,8.6,10.6c3.3,0,7-2.2,7-4.5
		v-0.5c-1.1,1.2-3.2,2.1-5.4,2.1c-4.6,0-6.5-4-6.5-8.1c0-0.9,0.1-1.6,0.2-2.5H324.1L324.1,64.9L324.1,64.9z M316.5,63.5
		c0.5-2.4,1.7-5.1,4.5-5.1c2.2,0,3.4,1.7,3.4,3.4s-1.2,1.7-3.3,1.7L316.5,63.5L316.5,63.5L316.5,63.5z"/>
	<path d="M237.1,97.9h1.1c2.8,0,7.8,0,9.3-2.5c-3.4,0.3-7,0.3-10.4,0.3V84.3h4.6c2.1,0,4.9,0,6.1,2.1h0.2v-3.5c0-0.4-0.9-0.4-2-0.4
		h-13.8c1,1.5,0.9,3.8,0.9,5.8V105c0,2,0,4.3-1,5.8h6c-1-1.5-1-3.8-1-5.8L237.1,97.9L237.1,97.9L237.1,97.9z"/>
	<path d="M252.5,105.8c0-2.5,1.7-3.4,5-5.1l2.4-1.2v4.5c0,2.5-1.3,4.9-4,4.9C254,108.9,252.5,107.9,252.5,105.8L252.5,105.8
		L252.5,105.8z M264.5,110.7c-1.4-1.8-1.2-4.5-1.2-7.2v-9.8c0-2.9-2.7-3.6-5.9-3.6c-3.4,0-7.9,1-7.9,4c0,1.1,0.7,1.6,1.6,1.6
		c2.9,0,1.2-4.3,5.4-4.3c2.6,0,3.5,1.7,3.5,3.9c0,2.9-0.6,3-3.2,4.2c-3,1.4-8,3-8,6.9c0,3.2,2.4,4.9,5.5,4.9s4-1.4,5.2-3.1
		c0,0,0.1-0.1,0.3-0.1c0.4,0,0.3,1.1,0.7,2.8L264.5,110.7L264.5,110.7L264.5,110.7z"/>
	<path d="M276.6,106c0,1.6,0,3.6-0.8,4.8h4.9c-0.8-1.3-0.8-3.2-0.8-4.8v-9.2c0-2,0.3-3.5,2.5-3.5c1.1,0,2,0.1,2.8,0.1
		c1.1,0,1.6-0.6,1.6-1.5c0-1.1-0.9-1.7-2.4-1.7c-2.6,0-4.1,2.7-4.3,2.7c-0.5,0,0-2.2-0.8-2.2c-0.5,0-2.1,0.2-3.7,0.2
		c1.2,0.9,1.2,4,1.2,7.2v7.9H276.6L276.6,106z"/>
	<path d="M302.5,101.4c0-3.8-1.4-8.3-5.2-8.3c-3.1,0-4.9,2.7-4.9,6.9v3.4c0,3.6,0.4,6.6,4.5,6.6C301.6,110,302.5,105.1,302.5,101.4
		L302.5,101.4L302.5,101.4z M289.1,99.7V87.1c0-1.8-0.3-3.6-1.5-4.4l4.8-0.7v11.6c0,0.1,0,0.2,0.2,0.2c0.4,0,2.6-3.5,6.2-3.5
		c5.3,0,7.2,5.6,7.2,10.2c0,6-2.8,11-9.4,11c-2.9,0-4.5-0.7-7.7-0.7C289.1,107.2,289.1,103.4,289.1,99.7L289.1,99.7L289.1,99.7z"/>
	<path d="M311.4,105.8c0-2.5,1.7-3.4,5-5.1l2.4-1.2v4.5c0,2.5-1.3,4.9-4,4.9C312.8,108.9,311.4,107.9,311.4,105.8L311.4,105.8
		L311.4,105.8z M323.4,110.7c-1.4-1.8-1.2-4.5-1.2-7.2v-9.8c0-2.9-2.7-3.6-5.9-3.6c-3.4,0-7.9,1-7.9,4c0,1.1,0.7,1.6,1.6,1.6
		c2.9,0,1.2-4.3,5.4-4.3c2.6,0,3.5,1.7,3.5,3.9c0,2.9-0.6,3-3.2,4.2c-3,1.4-8,3-8,6.9c0,3.2,2.4,4.9,5.5,4.9s4-1.4,5.2-3.1
		c0,0,0.1-0.1,0.3-0.1c0.4,0,0.3,1.1,0.7,2.8L323.4,110.7L323.4,110.7L323.4,110.7z"/>
	<path d="M335.6,106c0,1.6,0,3.6-0.8,4.8h4.9c-0.8-1.3-0.8-3.2-0.8-4.8v-9.2c0-2,0.3-3.5,2.5-3.5c1.1,0,2,0.1,2.8,0.1
		c1.1,0,1.6-0.6,1.6-1.5c0-1.1-0.9-1.7-2.4-1.7c-2.6,0-4.1,2.7-4.3,2.7c-0.5,0,0-2.2-0.8-2.2c-0.5,0-2.1,0.2-3.7,0.2
		c1.2,0.9,1.2,4,1.2,7.2v7.9H335.6L335.6,106z"/>
	<path d="M347.8,91.1c0.9,0.9,0.9,2.6,0.9,4.4v10.6c0,1.6,0,3.6-0.8,4.8h4.9c-0.8-1.2-0.8-3.2-0.8-4.8v-7.2c0-3,0.7-6.2,4.2-6.2
		c3.6,0,4,3.1,4,6v12.2h4c-0.7-1.2-0.7-3.2-0.7-4.8v-10c0-4.1-2.1-5.8-5.4-5.8c-3.5,0-5.4,2.7-5.8,2.7c-0.3,0-0.3-0.4-0.3-0.7v-1.6
		L347.8,91.1L347.8,91.1L347.8,91.1z"/>
	<polygon points="294.1,116.2 289.5,116.2 289.5,123 291.1,123 291.1,120.2 294.1,120.2 294.1,119 291.1,119 291.1,117.5 
		294.1,117.5 	"/>
	<path d="M303.4,119.6c0-1.6-1.3-3.5-3.9-3.5s-3.9,1.8-3.9,3.5s1.4,3.5,3.9,3.5S303.4,121.4,303.4,119.6L303.4,119.6z M301.6,119.6
		c0,1.2-0.9,2.1-2.1,2.1c-1.3,0-2.2-0.8-2.2-2.1c0-1.2,0.9-2.1,2.2-2.1C300.8,117.5,301.6,118.4,301.6,119.6L301.6,119.6z"/>
	<path d="M310,116.2v3.8c0,1.2-0.8,1.7-1.7,1.7c-1,0-1.7-0.6-1.7-1.6v-3.9h-1.7v3.9c0,2.1,1.4,3,3.4,3c1.9,0,3.4-0.8,3.4-3v-3.9H310
		L310,116.2z"/>
	<polygon points="320.4,116.2 318.6,116.2 318.6,120.4 315.1,116.2 313.5,116.2 313.5,123 315.1,123 315.1,118.7 319,123 320.4,123 
			"/>
	<path d="M322.2,116.2v6.8h2.8c2.7,0,4-1.4,4-3.4c0-1.9-1.3-3.4-3.8-3.4H322.2L322.2,116.2z M324,117.5h1.1c1.6,0,2.2,1,2.2,2.2
		c0,1-0.5,2.2-2.2,2.2H324V117.5L324,117.5z"/>
	<path d="M334.1,116.2h-2l-2.7,6.8h1.8l0.5-1.3h3l0.6,1.3h1.8L334.1,116.2L334.1,116.2z M334.4,120.5h-2.1l1-2.6L334.4,120.5
		L334.4,120.5z"/>
	<polygon points="343.1,116.2 336.5,116.2 336.5,117.5 339,117.5 339,123 340.6,123 340.6,117.5 343.1,117.5 	"/>
	<polygon points="345.9,116.2 344.4,116.2 344.4,123 345.9,123 	"/>
	<path d="M355.4,119.6c0-1.6-1.3-3.5-3.9-3.5c-2.6,0-3.9,1.8-3.9,3.5s1.4,3.5,3.9,3.5S355.4,121.4,355.4,119.6L355.4,119.6z
		 M353.6,119.6c0,1.2-0.9,2.1-2.1,2.1c-1.3,0-2.2-0.8-2.2-2.1c0-1.2,0.9-2.1,2.2-2.1C352.8,117.5,353.6,118.4,353.6,119.6
		L353.6,119.6z"/>
	<polygon points="363.9,116.2 362.1,116.2 362.1,120.4 358.6,116.2 356.9,116.2 356.9,123 358.6,123 358.6,118.7 362.4,123 
		363.9,123 	"/>
	<polygon points="294.1,116.2 289.5,116.2 289.5,123 291.1,123 291.1,120.2 294.1,120.2 294.1,119 291.1,119 291.1,117.5 
		294.1,117.5 	"/>
	<path d="M303.4,119.6c0-1.6-1.3-3.5-3.9-3.5s-3.9,1.8-3.9,3.5s1.4,3.5,3.9,3.5S303.4,121.4,303.4,119.6L303.4,119.6z M301.6,119.6
		c0,1.2-0.9,2.1-2.1,2.1c-1.3,0-2.2-0.8-2.2-2.1c0-1.2,0.9-2.1,2.2-2.1C300.8,117.5,301.6,118.4,301.6,119.6L301.6,119.6z"/>
	<path d="M310,116.2v3.8c0,1.2-0.8,1.7-1.7,1.7c-1,0-1.7-0.6-1.7-1.6v-3.9h-1.7v3.9c0,2.1,1.4,3,3.4,3c1.9,0,3.4-0.8,3.4-3v-3.9H310
		L310,116.2z"/>
	<polygon points="320.4,116.2 318.6,116.2 318.6,120.4 315.1,116.2 313.5,116.2 313.5,123 315.1,123 315.1,118.7 319,123 320.4,123 
			"/>
	<path d="M322.2,116.2v6.8h2.8c2.7,0,4-1.4,4-3.4c0-1.9-1.3-3.4-3.8-3.4H322.2L322.2,116.2z M324,117.5h1.1c1.6,0,2.2,1,2.2,2.2
		c0,1-0.5,2.2-2.2,2.2H324V117.5L324,117.5z"/>
	<path d="M334.1,116.2h-2l-2.7,6.8h1.8l0.5-1.3h3l0.6,1.3h1.8L334.1,116.2L334.1,116.2z M334.4,120.5h-2.1l1-2.6L334.4,120.5
		L334.4,120.5z"/>
	<polygon points="343.1,116.2 336.5,116.2 336.5,117.5 339,117.5 339,123 340.6,123 340.6,117.5 343.1,117.5 	"/>
	<polygon points="345.9,116.2 344.4,116.2 344.4,123 345.9,123 	"/>
	<path d="M355.4,119.6c0-1.6-1.3-3.5-3.9-3.5c-2.6,0-3.9,1.8-3.9,3.5s1.4,3.5,3.9,3.5S355.4,121.4,355.4,119.6L355.4,119.6z
		 M353.6,119.6c0,1.2-0.9,2.1-2.1,2.1c-1.3,0-2.2-0.8-2.2-2.1c0-1.2,0.9-2.1,2.2-2.1C352.8,117.5,353.6,118.4,353.6,119.6
		L353.6,119.6z"/>
	<polygon points="363.9,116.2 362.1,116.2 362.1,120.4 358.6,116.2 356.9,116.2 356.9,123 358.6,123 358.6,118.7 362.4,123 
		363.9,123 	"/>
	<path d="M302.4,55c2.6-0.8,5.2-1.6,7.7-3.2c2.2-1.4,0.4-4.6-2.3-2.1c-2,1.8-3.3,2.7-6.8,4.7C300.1,54.8,300.4,55.6,302.4,55
		L302.4,55z"/>
</g>
<g id="phf">
	<path class="st3" d="M465.4,46.4c1.6,0,3.2-0.1,4.9-0.1c6.1,0,9.3,2.1,9.3,6.1c0,3.8-3.2,6.2-9,6.2c-0.6,0-1.4-0.1-2.3-0.1v7
		c0,2.4,0.4,3.1,3.3,3.1v0.8c-1.6-0.1-3.3-0.1-5.1-0.1s-3.5,0-5.1,0.1v-0.8c2.9-0.1,3.3-0.8,3.3-3.1V50.3c0-2.4-0.4-3.1-3.3-3.1
		v-0.8C462.6,46.4,463.9,46.4,465.4,46.4 M470.4,57.9c3.4,0,5.1-1.7,5.1-5.3c0-3.7-1.8-5.5-5.4-5.5c-1.3,0-1.9,0.3-1.9,1.2v9.5
		C469.1,57.8,469.9,57.9,470.4,57.9z"/>
	<path class="st3" d="M492.8,66.6c0,1.2,0.4,1.9,1.1,1.9c0.5,0,0.8-0.3,1.3-0.7l0.4,0.5c-0.7,1.1-1.7,1.7-3,1.7s-2.6-1-2.9-2.4
		c-1.7,1.6-3.8,2.4-5.7,2.4c-2.4,0-3.7-1.2-3.7-3.1c0-2.3,1.9-3.8,5.7-5.2l1.8-0.7c1.6-0.6,2.1-0.6,2.1-1.8V58
		c0-2.2-0.8-3.2-3.4-3.2c-1.7,0-2.8,0.6-2.9,1.7c-0.2,1-0.2,1.8-1.6,1.8c-0.7,0-1.1-0.6-1.1-1.3c0-1.5,2-2.9,6-2.9s5.9,1.3,5.9,4
		L492.8,66.6 M483.6,66c0,1.6,0.9,2.6,2.4,2.6c1.3,0,3.9-1.1,3.9-3.3v-4.5C485.6,62.4,483.6,63.9,483.6,66z"/>
	<path class="st3" d="M497.6,54.3c0.7,0,1.7,0,2.7-0.1v10.9c0,0,0,0,0,0.1c0,2.3,1.1,3.6,3.2,3.6c2.3,0,4.3-2.1,4.3-5v-6.6
		c0-0.3,0-0.6,0-0.6c0-1.1-0.7-1.6-2.2-1.6c-0.1,0-0.2,0-0.3,0v-0.8c1.1,0,2,0.1,2.9,0.1c0.7,0,1.6,0,2.7-0.1v11.3c0,0,0,0,0,0.1
		c0,1.9,0.3,2.5,2.1,2.5c0.1,0,0.3,0,0.4,0v0.7c-1.3,0-2.9,0.5-4.9,1.3l-0.6-3.5c-1.3,2.1-3.2,3.1-5.6,3.1c-4,0-5.1-1.9-5.1-5.4
		v-7.2c0-0.3,0-0.6,0-0.6c0-1.1-0.7-1.6-2.2-1.6c-0.1,0-0.2,0-0.3,0v-0.8C495.9,54.3,496.8,54.3,497.6,54.3"/>
	<path class="st3" d="M520.4,66.5c0,0.2,0,0.4,0,0.5c0,1.4,0.7,1.8,2.5,1.8v0.7c-1.6-0.1-2.9-0.2-4-0.2c-1,0-2.4,0-4,0.2v-0.7
		c1.8,0,2.4-0.4,2.4-1.7c0,0,0-0.2,0-0.6V48.3c0-1.5-0.7-2.1-2.5-2.1v-0.6c1.1-0.1,2.9-0.4,5.6-1V66.5"/>
	<path class="st3" d="M538.4,46.5c1.8,0,3.5,0,5.1-0.1v0.8c-2.9,0.1-3.3,0.8-3.3,3.1V57h12.5v-6.7c0-2.4-0.4-3.1-3.3-3.1v-0.8
		c1.6,0.1,3.3,0.1,5.1,0.1c1.8,0,3.5,0,5.1-0.1v0.8c-2.9,0.1-3.3,0.8-3.3,3.1v15.3c0,2.4,0.4,3.1,3.3,3.1v0.8
		c-1.6-0.1-3.3-0.1-5.1-0.1c-1.8,0-3.5,0-5.1,0.1v-0.8c2.9-0.1,3.3-0.8,3.3-3.1V58h-12.5v7.6c0,2.4,0.4,3.1,3.3,3.1v0.8
		c-1.6-0.1-3.3-0.1-5.1-0.1c-1.8,0-3.5,0-5.1,0.1v-0.8c2.9-0.1,3.3-0.8,3.3-3.1V50.3c0-2.4-0.4-3.1-3.3-3.1v-0.8
		C534.9,46.4,536.7,46.5,538.4,46.5"/>
	<path class="st3" d="M573.4,66.6c0,1.2,0.4,1.9,1.1,1.9c0.5,0,0.8-0.3,1.3-0.7l0.4,0.5c-0.7,1.1-1.7,1.7-3,1.7
		c-1.3,0-2.6-1-2.9-2.4c-1.7,1.6-3.8,2.4-5.7,2.4c-2.4,0-3.7-1.2-3.7-3.1c0-2.3,1.9-3.8,5.7-5.2l1.8-0.7c1.6-0.6,2.1-0.6,2.1-1.8V58
		c0-2.2-0.8-3.2-3.4-3.2c-1.7,0-2.8,0.6-2.9,1.7c-0.2,1-0.2,1.8-1.6,1.8c-0.7,0-1.1-0.6-1.1-1.3c0-1.5,2-2.9,6-2.9s5.9,1.3,5.9,4
		V66.6 M564.2,66c0,1.6,0.9,2.6,2.4,2.6c1.3,0,3.9-1.1,3.9-3.3v-4.5C566.2,62.4,564.2,63.9,564.2,66z"/>
	<path class="st3" d="M582.8,56.6c0,0.1,0,0.2,0,0.3c1.2-2.1,3-3.1,5.4-3.1c2.6,0,4.2,1.1,4.6,3.1c1.2-1.9,3.2-3,5.5-3
		c3.5,0,4.9,1.7,4.9,5v7.6c0,0.2,0,0.3,0,0.5c0,1.4,0.7,1.8,2.5,1.8v0.7c-1.6-0.1-2.9-0.2-4-0.2c-1,0-2.4,0-4,0.2v-0.7
		c1.8,0,2.4-0.4,2.4-1.7c0,0,0-0.2,0-0.6v-8.1c0-2.2-1-3.4-3-3.4c-2.5,0-4.1,1.9-4.1,5v6.5c0,0.2,0,0.4,0,0.5c0,1.3,0.7,1.8,2.4,1.8
		v0.7c-1.5-0.1-2.8-0.2-3.9-0.2c-1.2,0-2.5,0.1-3.8,0.2v-0.7c1.6-0.1,2.3-0.5,2.3-1.7c0,0,0-0.2,0-0.6v-8.1c0-2.2-1-3.4-3-3.4
		c-2.4,0-4.1,1.9-4.1,5v6.5c0,0.2,0,0.4,0,0.5c0,1.4,0.7,1.8,2.5,1.8v0.7c-1.6-0.1-2.9-0.2-4-0.2c-1,0-2.4,0-4,0.2v-0.7
		c1.8,0,2.5-0.4,2.5-1.7c0,0,0-0.2,0-0.6v-8.3c0-2-0.3-2.7-2.2-2.7c-0.1,0-0.2,0-0.3,0v-0.7c1.3,0,2.9-0.5,4.9-1.3
		C582.7,54.6,582.8,55.6,582.8,56.6"/>
	<path class="st3" d="M612.8,66.5c0,0.2,0,0.4,0,0.5c0,1.4,0.7,1.8,2.5,1.8v0.7c-1.6-0.1-2.9-0.2-4-0.2c-1,0-2.4,0-4,0.2v-0.7
		c1.8,0,2.4-0.4,2.4-1.7c0,0,0-0.2,0-0.6V48.3c0-1.5-0.7-2.1-2.5-2.1v-0.6c1.1-0.1,2.9-0.4,5.6-1V66.5"/>
	<path class="st3" d="M618.4,54.4c0.5,0,1.9,0,4-0.1V55c-1.4,0-2,0.2-2,1.1c0,0.2,0.1,0.6,0.2,0.9l3.4,8.9l3.3-7.9
		c0.2-0.6,0.3-1.2,0.3-1.7c0-0.9-0.5-1.3-1.8-1.3v-0.8c1,0.1,1.9,0.1,2.4,0.1c0.7,0,1.4-0.1,2.3-0.1V55h-0.1c-0.8,0-1.3,0.8-2,2.4
		L624,68.1c-3.2,7.7-4.5,11-6.1,11c-0.6,0-0.9-0.4-0.9-1c0-1.3,1.2-1.6,1.9-1.9c0.7-0.3,2.1-2.7,3.1-5.4l0.6-1.7l-4.9-11.7
		c-0.6-1.5-0.7-2.3-2.6-2.5v-0.8C616.4,54.3,617.6,54.4,618.4,54.4"/>
	<path class="st3" d="M637.7,57.1c1.4-2.2,3.2-3.2,5.7-3.2c3.2,0,5.1,1.6,5.1,4.5c0,0.1,0,0.4,0,0.9v7.2c0,0.2,0,0.4,0,0.5
		c0,1.4,0.7,1.8,2.5,1.8v0.7c-1.6-0.1-2.9-0.2-4-0.2c-1,0-2.4,0-4,0.2v-0.7c1.8,0,2.5-0.4,2.5-1.7c0,0,0-0.2,0-0.6v-7.8
		c0-2.4-1.1-3.7-3.2-3.7c-2.3,0-4.3,2.1-4.3,5v6.5c0,0.2,0,0.4,0,0.5c0,1.4,0.7,1.8,2.5,1.8v0.7c-1.6-0.1-2.9-0.2-4-0.2
		c-1,0-2.4,0-4,0.2v-0.7c1.8,0,2.4-0.4,2.4-1.7c0,0,0-0.2,0-0.6v-8.3c0-2-0.3-2.7-2.2-2.7c-0.1,0-0.2,0-0.3,0v-0.7
		c1.3,0,2.9-0.5,4.9-1.3C637.4,54.6,637.7,55.8,637.7,57.1"/>
	<path class="st3" d="M467.3,79c3.9,0,7.8-0.1,11.5-0.2l0.4,5.1h-0.6c-0.9-3.4-3-4.1-7.6-4.1c-0.2,0-0.4,0-0.7,0
		c-2.1,0-2.2,0.1-2.2,2.6c0,0.1,0,0.2,0,0.4V90c0.2,0,0.5,0,0.7,0c3.6,0,5-1.1,5.3-4.3h0.8c-0.1,1.6-0.2,3.1-0.2,4.6s0.1,3,0.2,4.5
		h-0.8c-0.2-2.9-1.7-3.9-4.9-3.9c-0.3,0-0.7,0-1.1,0v7.4c0,2.4,0.6,3,3.6,3.1v0.8c-1.7-0.1-3.5-0.1-5.3-0.1s-3.5,0-5.1,0.1v-0.8
		c2.9-0.1,3.3-0.8,3.3-3.1V82.8c0-2-0.4-3.1-2.8-3.1c0,0-0.2,0-0.5,0v-0.8C463.1,79,465.1,79,467.3,79"/>
	<path class="st3" d="M485.6,86.4c4.6,0,8.1,3.9,8.1,7.9c0,4.3-3.4,8.2-8.1,8.2c-4.7,0-8.3-3.3-8.3-8
		C477.3,89.8,481.1,86.4,485.6,86.4 M480.6,94.5c0,4.7,1.8,7.3,4.8,7.3c3.2,0,5-2.5,5-7.4c0-4.7-1.9-7.2-4.9-7.2
		C482.6,87.1,480.6,89.8,480.6,94.5z"/>
	<path class="st3" d="M497.1,86.8c0.7,0,1.7,0,2.7-0.1v10.9c0,0,0,0,0,0.1c0,2.3,1.1,3.6,3.2,3.6c2.3,0,4.3-2.1,4.3-5v-6.6
		c0-0.3,0-0.6,0-0.6c0-1.1-0.7-1.6-2.2-1.6c-0.1,0-0.2,0-0.3,0v-0.8c1.1,0,2,0.1,2.9,0.1c0.7,0,1.6,0,2.7-0.1V98c0,0,0,0,0,0.1
		c0,1.9,0.3,2.5,2.1,2.5c0.1,0,0.3,0,0.4,0v0.7c-1.3,0-2.9,0.5-4.9,1.3l-0.6-3.5c-1.3,2.1-3.2,3.1-5.6,3.1c-4,0-5.1-1.9-5.1-5.4
		v-7.2c0-0.3,0-0.6,0-0.6c0-1.1-0.7-1.6-2.2-1.6c-0.1,0-0.2,0-0.3,0v-0.8C495.4,86.8,496.3,86.8,497.1,86.8"/>
	<path class="st3" d="M519.8,89.7c1.4-2.2,3.2-3.2,5.7-3.2c3.2,0,5.1,1.6,5.1,4.5c0,0.1,0,0.4,0,0.9V99c0,0.2,0,0.4,0,0.5
		c0,1.4,0.7,1.8,2.5,1.8v0.7c-1.6-0.1-2.9-0.2-4-0.2c-1,0-2.4,0-4,0.2v-0.7c1.8,0,2.5-0.4,2.5-1.7c0,0,0-0.2,0-0.6v-7.8
		c0-2.4-1.1-3.7-3.2-3.7c-2.3,0-4.3,2.1-4.3,5V99c0,0.2,0,0.4,0,0.5c0,1.4,0.7,1.8,2.5,1.8v0.7c-1.6-0.1-2.9-0.2-4-0.2
		c-1,0-2.4,0-4,0.2v-0.7c1.8,0,2.4-0.4,2.4-1.7c0,0,0-0.2,0-0.6v-8.3c0-2-0.3-2.7-2.2-2.7c-0.1,0-0.2,0-0.3,0v-0.7
		c1.3,0,2.9-0.5,4.9-1.3C519.6,87.1,519.7,88.3,519.8,89.7"/>
	<path class="st3" d="M548.9,97.9c0,0,0,0.1,0,0.2c0,1.8,0.8,2.5,2.4,2.5c0.1,0,0.1,0,0.2,0v0.5c-1.7,0.4-3.2,0.8-4.6,1.3
		c-0.3-0.9-0.6-1.8-0.7-2.7c-1.7,1.9-3.2,2.7-5.4,2.7c-4.3,0-7.6-3.3-7.6-7.8c0-4.7,3.3-8.2,7.5-8.2c2,0,3.8,0.7,5.2,2.2V81
		c0-2-0.1-2.4-2.4-2.4c-0.1,0-0.2,0-0.3,0v-0.7c1.9-0.1,3.8-0.4,5.7-0.8L548.9,97.9 M545.9,91.3c0-2.2-1.9-3.9-4.4-3.9
		c-2.9,0-4.9,2.6-4.9,7.1c0,4.3,1.8,6.8,4.8,6.8c2.8,0,4.6-1.8,4.6-4.9v-4.7C545.9,91.6,545.9,91.4,545.9,91.3z"/>
	<path class="st3" d="M565.7,99.1c0,1.2,0.4,1.9,1.1,1.9c0.5,0,0.8-0.3,1.3-0.7l0.4,0.5c-0.7,1.1-1.7,1.7-3,1.7
		c-1.3,0-2.6-1-2.9-2.4c-1.7,1.6-3.8,2.4-5.7,2.4c-2.4,0-3.7-1.2-3.7-3.1c0-2.3,1.9-3.8,5.7-5.2l1.8-0.7c1.6-0.6,2.1-0.6,2.1-1.8
		v-1.2c0-2.2-0.8-3.2-3.4-3.2c-1.7,0-2.8,0.6-2.9,1.7c-0.2,1-0.2,1.8-1.6,1.8c-0.7,0-1.1-0.6-1.1-1.3c0-1.5,2-2.9,6-2.9
		s5.9,1.3,5.9,4L565.7,99.1 M556.3,98.6c0,1.6,0.9,2.6,2.4,2.6c1.3,0,3.9-1.1,3.9-3.3v-4.5C558.4,95,556.3,96.4,556.3,98.6z"/>
	<path class="st3" d="M573.6,83v3.8h4v1h-4v10.4c0,2.1,0.6,3.1,2.2,3.1c0.9,0,1.7-0.6,2.4-1.6l0.6,0.6c-0.8,1.5-2.1,2.1-4.1,2.1
		c-3.4,0-4.1-1.4-4.1-4.3V87.8H569v-0.6c1.5-0.9,2.9-2.3,3.9-4.3L573.6,83"/>
	<path class="st3" d="M585.2,99c0,0.2,0,0.4,0,0.5c0,1.3,0.7,1.7,2.3,1.8v0.7c-1.3-0.1-2.6-0.2-3.9-0.2c-1.2,0-2.5,0.1-3.8,0.2v-0.7
		c1.6-0.1,2.3-0.5,2.3-1.7c0,0,0-0.2,0-0.6v-7.8c0-0.3,0-0.6,0-0.9c0-1.7-0.1-2.3-1.9-2.3c-0.1,0-0.2,0-0.3,0v-0.7
		c1.5-0.1,3.2-0.6,5.2-1.3L585.2,99 M585.2,79.2c0,1-0.8,1.8-1.8,1.8s-1.8-0.8-1.8-1.8s0.8-1.8,1.8-1.8
		C584.3,77.4,585.2,78.2,585.2,79.2z"/>
	<path class="st3" d="M596.6,86.4c4.6,0,8.1,3.9,8.1,7.9c0,4.3-3.4,8.2-8.1,8.2s-8.3-3.3-8.3-8C588.2,89.8,591.9,86.4,596.6,86.4
		 M591.6,94.5c0,4.7,1.8,7.3,4.8,7.3c3.2,0,5-2.5,5-7.4c0-4.7-1.9-7.2-4.9-7.2C593.6,87.1,591.6,89.8,591.6,94.5z"/>
	<path class="st3" d="M611.1,89.7c1.4-2.2,3.2-3.2,5.7-3.2c3.2,0,5.1,1.6,5.1,4.5c0,0.1,0,0.4,0,0.9V99c0,0.2,0,0.4,0,0.5
		c0,1.4,0.7,1.8,2.5,1.8v0.7c-1.6-0.1-2.9-0.2-4-0.2c-1,0-2.4,0-4,0.2v-0.7c1.8,0,2.5-0.4,2.5-1.7c0,0,0-0.2,0-0.6v-7.8
		c0-2.4-1.1-3.7-3.2-3.7c-2.3,0-4.3,2.1-4.3,5V99c0,0.2,0,0.4,0,0.5c0,1.4,0.7,1.8,2.5,1.8v0.7c-1.6-0.1-2.9-0.2-4-0.2
		c-1,0-2.4,0-4,0.2v-0.7c1.8,0,2.4-0.4,2.4-1.7c0,0,0-0.2,0-0.6v-8.3c0-2-0.3-2.7-2.2-2.7c-0.1,0-0.2,0-0.3,0v-0.7
		c1.3,0,2.9-0.5,4.9-1.3C610.8,87.1,611.1,88.3,611.1,89.7"/>
	<rect x="392.1" y="40.6" class="st4" width="62.9" height="62.9"/>
	<path class="st1" d="M402.6,53.2c-1.9,0.8-3.4,1.3-4.7,1.3v0.7c0.1,0,0.2,0,0.3,0c1.8,0,2.1,0.6,2.1,2.6v17.3c0,0.3,0,0.5,0,0.5
		c0,1.2-0.7,1.6-2.4,1.7V78c1.4-0.1,2.7-0.2,3.9-0.2s2.4,0.1,3.9,0.2v-0.7c-1.7,0-2.4-0.4-2.4-1.7c0-0.2,0-0.4,0-0.4V67
		c1.3,1.4,2.7,2,4.6,2c4.2,0,7.5-3.1,7.5-7.8c0-4.6-3.1-7.7-7.3-7.7c-2.2,0-3.8,0.8-5,2.5C403.1,54.9,402.9,53.9,402.6,53.2
		 M403.4,62.8v-2.9c0-1.4,0-2.6,0.6-3.6c0.7-1.1,2.1-1.8,3.4-1.8c3.1,0,4.8,2.3,4.8,6.8c0,4.4-2,6.7-4.8,6.7
		C404.6,68,403.4,66.3,403.4,62.8z M421.4,44.6c-2.5,0.6-4.3,0.9-5.4,1v0.6c1.7,0,2.4,0.6,2.4,2v17.6c0,0.3,0,0.5,0,0.5
		c0,1.2-0.7,1.6-2.4,1.7v0.7c1.6-0.1,2.9-0.2,3.9-0.2c1.1,0,2.4,0.1,3.9,0.2V68c-1.7,0-2.4-0.4-2.4-1.7c0-0.1,0-0.2,0-0.5v-6.3
		c0-2.8,2-4.8,4.3-4.8c2.1,0,3.1,1.2,3.1,3.5v7.6c0,0.3,0,0.5,0,0.5c0,1.2-0.7,1.6-2.4,1.7v0.7c1.6-0.1,2.9-0.2,3.9-0.2
		c1.1,0,2.4,0.1,3.9,0.2V68c-1.7,0-2.4-0.4-2.4-1.7c0-0.1,0-0.2,0-0.5v-7c0-0.4,0-0.7,0-0.8c0-2.9-1.8-4.4-5-4.4
		c-2.3,0-3.8,0.8-5.4,2.8L421.4,44.6L421.4,44.6z M441.4,49.5c0-2.6,1.1-4,2.9-4c1.2,0,2.1,0.5,2.4,1.3c0.2,0.5,0.2,1.4,1.3,1.4
		c0.7,0,1.1-0.4,1.1-1c0-1.4-1.6-2.3-4.4-2.3c-4.8,0-6.3,2.5-6.3,7.5v2.1h-2.5v0.9h2.5v10.4c0,0.3,0,0.5,0,0.5
		c0,1.3-0.8,1.7-2.6,1.7v0.7c1.9-0.1,3.3-0.2,4.1-0.2c1.6,0,3.1,0.1,4.8,0.2V68c-2.5-0.1-3.3-0.2-3.3-1.7c0-0.2,0-0.4,0-0.5V55.4
		h3.8v-0.9h-3.8V49.5z"/>
</g>
<g id="ace">
	<path d="M690.2,71.4l-0.1-4.1l-16.7,6l0.2,4.4l17.1,5l-0.1-3.8l-3.8-1.1l-0.2-5.3L690.2,71.4z M683.7,73.4l0.1,3.9l-7.1-1.8l0,0
		L683.7,73.4z"/>
	<path d="M691.1,62.6l1.2-3.8l-6.5-2.1c0.4-1.4,0.6-1.9,3-1.8l4.7,0.1l1.3-4H689c-2.1,0-2.9,0.2-3.4,1.3l0,0
		c0.4-3.3-2.2-4.3-2.9-4.5c-3-1-4.9,0.9-5.7,3.6l-1.9,5.9L691.1,62.6z M678.8,54.6l0.4-1.2c0.7-2,2.1-1.8,2.8-1.6
		c1.2,0.4,1.9,1.5,1.4,2.9l-0.4,1.2L678.8,54.6z"/>
	<polygon points="698.1,45.9 700.3,42.7 688.9,34.7 691.1,31.7 688.6,29.9 682.1,39.2 684.6,41 686.7,38 	"/>
	<path d="M701.3,18.4c-1.3,0.7-2.2,1.1-3.4,2.1c-4.3,3.6-1.7,7.1-1.4,7.5c3.9,4.6,8-0.9,10.1,1.6c0.9,1.1,0.4,2.3-0.6,3.1
		c-1.1,1-2.3,1.2-3.5,1.6l2,2.7c0.7-0.3,2.4-1.1,4-2.4c2.6-2.2,3.3-5.3,1.2-7.8c-3.9-4.6-8.1,0.8-10-1.6c-0.8-1-0.4-2,0.6-2.9
		c0.8-0.7,2.1-1.2,3.1-1.5L701.3,18.4z"/>
	<path d="M731.9,6.3c-0.7-0.1-2.1-0.4-4.5,0.2c-3.4,0.8-6.9,4.1-5.5,10.2c1.2,5.2,5.2,7.9,9.7,6.8c2.1-0.5,3.4-1.2,4-1.5l-0.9-3.4
		c-0.3,0.3-1.3,1.2-3.2,1.7c-2.5,0.6-4.8-1.2-5.6-4.4c-0.8-3.3,0.4-5.8,3-6.4c1.8-0.4,2.9,0,3.6,0.2L731.9,6.3z"/>
	<path d="M740.9,13.4c-0.6,4.9,1.2,9,6.1,9.6c4.8,0.6,7.6-2.9,8.2-7.8c0.6-4.9-1.2-9-6.1-9.6C744.2,4.9,741.6,8.4,740.9,13.4
		 M744.9,13.9c0.4-3.2,1.5-5.8,3.8-5.5c2.3,0.3,2.8,3,2.4,6.2c-0.4,3.2-1.5,5.8-3.8,5.5C745.1,19.8,744.6,17.1,744.9,13.9"/>
	<path d="M760.8,19.3c-1.9,3.7-0.8,6.8,2.6,8.6c3.4,1.7,6.6,0.8,8.5-2.9l4.9-9.6l-3.5-1.8l-5.2,10.2c-0.8,1.5-1.8,2.2-3.2,1.4
		c-1.4-0.7-1.5-1.9-0.7-3.5l5.2-10.2l-3.5-1.8L760.8,19.3z"/>
	<polygon points="773.2,33.1 775.7,35.6 784.4,27.1 784.4,27.2 779.1,39.2 782.3,42.6 794.6,30.8 792.1,28.3 783.7,36.5 783.7,36.4 
		788.7,24.7 785.4,21.4 	"/>
	<path d="M804.6,49.7c0-0.7-0.1-2.1-1.2-4.4c-1.5-3.1-5.6-5.8-11.2-3c-4.8,2.3-6.5,6.8-4.5,11c1,1.9,1.9,3,2.4,3.6l3.1-1.7
		c-0.3-0.3-1.5-1-2.3-2.7c-1.1-2.3,0.1-5,3-6.4c3.1-1.5,5.8-0.9,6.9,1.5c0.8,1.6,0.7,2.8,0.6,3.5L804.6,49.7z"/>
	<polygon points="790.8,62.5 791.6,66.4 808.2,63.5 807.6,59.6 	"/>
	<polygon points="792.1,72.5 791.3,82.1 794.4,82.3 794.8,76.7 808.7,77.7 808.9,73.7 	"/>
	<polygon points="688.6,112.1 693.3,117.8 694.4,116.8 690.6,112.3 695.8,108 699.2,112.2 700.2,111.2 696.8,107.1 701.4,103.2 
		705.1,107.6 706.2,106.6 701.6,101.1 	"/>
	<polygon points="700.6,124.7 701.8,125.4 710.1,113 710.2,113 707.7,129.4 709.2,130.5 718.8,116.4 717.6,115.7 709.2,128.2 
		709.2,128.2 711.7,111.7 710.1,110.6 	"/>
	<path d="M726.8,129l2.9,0.8l-1.6,5.7c-0.9,0.2-1.5,0.1-2.4-0.1c-4.3-1.2-4.5-5.6-3.7-8.6c1.5-5.1,5.1-6,7.4-5.3
		c1.2,0.4,2.7,1.3,3.1,2l0.5-1.6c-0.4-0.4-1.9-1.4-3.2-1.8c-4.6-1.3-8.2,2-9.4,6.1c-0.9,3.1-1,8.9,4.7,10.5c1.3,0.4,2.7,0.5,4,0.2
		l2.3-8.1l-4.4-1.2L726.8,129z"/>
	<polygon points="739.2,138.5 746.2,138.5 746.2,137.1 740.7,137.1 740.7,121.6 739.2,121.6 	"/>
	<path d="M753.1,137.8l1.4-0.4l0.2-5l6.5-1.8l2.7,4.1l1.5-0.4l-10.1-14.8l-1.5,0.5L753.1,137.8z M754.9,121.3L754.9,121.3l5.4,8.1
		l-5.6,1.7L754.9,121.3z"/>
	<polygon points="772.7,130.6 773.8,129.8 765.7,117.3 765.7,117.2 779.8,125.9 781.4,124.9 772.2,110.6 771.1,111.4 779.2,124 
		779.2,124.1 765.1,115.3 763.3,116.3 	"/>
	<path d="M789.8,116.9l1.6-2c3.3-4.3,1.8-8.6-2-11.6c-4.3-3.4-8.1-3-11.6,1.5l-1.4,1.7L789.8,116.9z M778.6,106.2l0.8-1
		c3.5-4.5,7.2-2.2,9.3-0.5c3.3,2.6,4.3,6,2,8.9l-1,1.3L778.6,106.2z"/>
</g>
</svg>
