<?xml version="1.0" encoding="utf-8"?>
<!-- Generator: Adobe Illustrator 18.0.0, SVG Export Plug-In . SVG Version: 6.00 Build 0)  -->
<!DOCTYPE svg PUBLIC "-//W3C//DTD SVG 1.1//EN" "http://www.w3.org/Graphics/SVG/1.1/DTD/svg11.dtd">
<svg version="1.1" xmlns="http://www.w3.org/2000/svg" xmlns:xlink="http://www.w3.org/1999/xlink" x="0px" y="0px"
	 viewBox="0 0 95 17" enable-background="new 0 0 95 17" xml:space="preserve">
<g id="bg" display="none">
	<rect x="0.3" y="-25.3" display="inline" width="841.9" height="595.3"/>
</g>
<g id="Layer_1" display="none">
	<g display="inline">
		<text transform="matrix(1 0 0 1 155.81 268.9456)" fill="#F6F6F6" font-family="'PlutoCondBold'" font-size="60">Beehive</text>
		<g>
			<path fill="#F6F6F6" d="M413.3,232.1c0.6,0,1.1,0.3,1.4,0.8l8.5,14.7c0.3,0.5,0.3,1.2,0,1.7l-8.5,14.7c-0.3,0.5-0.9,0.8-1.4,0.8
				h-17c-0.6,0-1.1-0.3-1.4-0.8l-8.5-14.7c-0.3-0.5-0.3-1.2,0-1.7l8.5-14.7c0.3-0.5,0.9-0.8,1.4-0.8H413.3 M413.3,228.1h-17
				c-2,0-3.9,1.1-4.9,2.8l-8.5,14.7c-1,1.8-1,3.9,0,5.7l8.5,14.7c1,1.8,2.9,2.8,4.9,2.8h17c2,0,3.9-1.1,4.9-2.8l8.5-14.7
				c1-1.8,1-3.9,0-5.7l-8.5-14.7C417.2,229.2,415.3,228.1,413.3,228.1L413.3,228.1z"/>
		</g>
	</g>
</g>
<g id="Layer_3">
	<g>
		<text transform="matrix(0.9922 0 0 1 -1.7916 16.3495)" fill="#010202" font-family="'PlutoCondBold'" font-size="21.3711">Beehive</text>
		<g>
			<path fill="#010202" d="M89.2,3.8L89.2,3.8l3,5.3l-3,5.3l-6,0l-3-5.3l3-5.3H89.2 M89.2,1.8h-6c-0.7,0-1.4,0.4-1.7,1l-3,5.2
				c-0.4,0.6-0.4,1.4,0,2l3,5.2c0.4,0.6,1,1,1.7,1h6c0.7,0,1.4-0.4,1.7-1l3-5.2c0.4-0.6,0.4-1.4,0-2l-3-5.2
				C90.6,2.2,89.9,1.8,89.2,1.8L89.2,1.8z"/>
		</g>
	</g>
</g>
</svg>
