<svg id="Layer_1" xmlns="http://www.w3.org/2000/svg" viewBox="0 0 145 55"><style>.st0{fill:url(#SVGID_1_);} .st1{fill:#B12020;} .st2{fill:#D11418;} .st3{fill:#E20613;} .st4{fill:#B7B8C7;} .st5{fill:url(#SVGID_2_);}</style><linearGradient id="SVGID_1_" gradientUnits="userSpaceOnUse" x1="2.663" y1="27.491" x2="50.845" y2="27.491"><stop offset="0" stop-color="#B7B8C7"/><stop offset=".135" stop-color="#E7F1F8"/><stop offset=".252" stop-color="#FFF"/><stop offset=".387" stop-color="#E1D6DD"/><stop offset=".62" stop-color="#FFF"/><stop offset=".822" stop-color="#FFF"/><stop offset=".963" stop-color="#B7B8C7"/></linearGradient><path class="st0" d="M2.7 3.4h48.2v48.2H2.7z"/><path class="st1" d="M3.1 3.8v15.9h47.4V3.8H3.1zm25.5 1.5c.9 0 1.5.6 1.5 1.4 0 .8-.6 1.4-1.5 1.4-.8 0-1.5-.6-1.5-1.4 0-.8.7-1.4 1.5-1.4zM15.1 9.9h-1.9L13 7.6h-1.5v7.7c0 .2.3.5.5.5h.7v1.7H7.1v-1.7h.7c.2 0 .5-.3.5-.5V7.6H6.8l-.2 2.3h-2V5.8h10.5v4.1zm10.7 7.6h-4.6v-1.7h.8v-4c0-.8-.3-1-1.1-1-.5 0-.9.1-1.4.2v4.8h.9v1.7h-4.8v-1.7h.5c.2 0 .4-.3.4-.4V7.9c0-.2-.2-.4-.4-.4h-.6V5.8H19c.3 0 .5.2.5.6v3.4c.8-.8 1.9-1.3 3.2-1.3 1.2 0 2.3.5 2.3 2.2v4.7c0 .2.2.4.4.4h.4v1.7zm5.3 0h-4.9v-1.7h.6c.2 0 .4-.2.4-.4v-4.5c0-.2-.2-.4-.4-.4h-.6V8.7h3.6c.3 0 .5.3.5.9v5.8c0 .2.2.4.4.4h.5v1.7zm7.2-6.6h-.4c-1.2 0-2 .2-2.5.4v4.5h1.1v1.7h-5v-1.7h.5c.2 0 .4-.2.4-.4v-4.5c0-.2-.2-.4-.4-.4h-.6V8.7h3.4c.3 0 .5.3.6 1.2.6-.7 1.2-1.3 2.4-1.3.2 0 .3 0 .5.1v2.2zm10.3 6.6h-3.4c-.3 0-.4-.4-.5-.9-.5.6-1.4 1.1-2.6 1.1-1.9 0-3.7-1.1-3.7-4.5 0-3.3 1.9-4.6 3.7-4.6 1.2 0 1.9.5 2.5 1.1V7.5h-1V5.8h3.5c.3 0 .5.3.5.6v9c0 .2.2.4.4.4h.5v1.7z"/><path class="st1" d="M41.5 13.1c0 2.1.8 2.7 1.7 2.7.6 0 1-.2 1.4-.5v-4.4c-.4-.1-.8-.3-1.3-.3-.9 0-1.8.5-1.8 2.5z"/><path class="st2" d="M3.1 19.7v15.9h47.4V19.7H3.1zm5.1 13.6c-1.6 0-2.7-.4-3.5-.9v-2.2h1.1c.4.5 1.2.9 2.3.9 1.1 0 1.7-.4 1.7-1.1 0-1-.9-1.1-2.1-1.4-2-.5-3-1.4-3-3.6 0-2.4 1.7-3.5 4.1-3.5 1.4 0 2.4.3 3.2.8v2.1h-1.1c-.5-.4-1.2-.7-2-.7-1.1 0-1.6.3-1.6 1.1s.6 1 1.8 1.3c2.6.6 3.5 1.5 3.5 3.7-.1 2.2-1.6 3.5-4.4 3.5zm12.6-3.8h-5.2c.1 1.5.8 1.8 1.9 1.8.9 0 1.6-.3 2.1-.6h.9v1.8c-.7.4-1.7.9-3.4.9-2.8 0-4.3-1.7-4.3-4.4 0-2.8 1.7-4.5 4.2-4.5s3.8 1.4 3.8 4.4c.1.2 0 .5 0 .6zm7.6 3c-.5.4-1.5.8-2.8.8-2.7 0-4.3-1.6-4.3-4.4 0-2.8 1.9-4.5 4.5-4.5 1.2 0 2 .3 2.6.6v2h-1c-.3-.3-.8-.5-1.5-.5-1.1 0-1.8.8-1.8 2.4 0 1.6.7 2.4 1.7 2.4.8 0 1.3-.3 1.6-.6h.9v1.8zm5.6.6c-.4.1-.9.2-1.6.2-1.7 0-2.7-.6-2.7-2.5v-4.4h-.9v-1.9h.9v-2.2h2.8v2.2H34v1.9h-1.5v3.9c0 .8.3 1 1 1h.5v1.8zm4.3.2c-2.5 0-4.3-1.7-4.3-4.4 0-2.8 1.9-4.5 4.3-4.5s4.3 1.7 4.3 4.5c0 2.7-1.9 4.4-4.3 4.4zm10.3-6.4h-.4c-1.1 0-1.9.2-2.3.4v5.9h-2.8v-8.7H45c.4 0 .7.2.8 1.2.5-.7 1.3-1.3 2.2-1.3.2 0 .3 0 .5.1v2.4z"/><path class="st2" d="M38.3 26.4c-.9 0-1.5.8-1.5 2.5s.6 2.5 1.5 2.5 1.5-.7 1.5-2.5c0-1.7-.6-2.5-1.5-2.5zM17 26.2c-.6 0-1.2.3-1.3 1.8h2.5c0-1.4-.4-1.8-1.2-1.8z"/><path class="st3" d="M37.1 44.8c0 2.2.9 2.7 1.9 2.7.9 0 1.4-.4 1.9-.9v-3.8c-.4-.4-1-.6-1.7-.6-1.1 0-2.1.6-2.1 2.6zm-11.9 1.5c0 .9.5 1.2 1.3 1.2.7 0 1.2-.3 1.7-.8v-1.5c-.4-.1-.9-.1-1.3-.1-1.1-.1-1.7.3-1.7 1.2z"/><path class="st3" d="M3.1 35.5v15.7h47.4V35.5H3.1zm11 12.8h-3.7v-.9h1.3l-.7-2.1H7.3l-.4 1c-.2.7-.2 1.1.4 1.1H8v.9H4.6v-.9H5c.3 0 .5-.2.6-.5L8 40.2c.1-.3 0-.5-.3-.5H7v-.9h3.4l2.8 8.2c.1.2.3.4.5.4h.4v.9zm8.9-5.7l-1.7 5.7h-1.4l-1.5-5.2-1.5 5.2h-1.4l-1.6-5.7c-.1-.3-.3-.4-.5-.4h-.3v-.9H16v.9h-.8l1.2 4.4 1.5-5.3h1.3l1.5 5.3 1-3.6c.1-.5 0-.8-.4-.8H21v-.9h2.8v.9h-.3c-.2 0-.4.1-.5.4zm7.4 5.6c-.2.1-.5.2-.9.2-.8 0-1.2-.3-1.3-1-.5.6-1.2 1-2.2 1-1.4 0-2.3-.7-2.3-2.1 0-1.5 1.2-2.2 2.8-2.2.6 0 1.1.1 1.6.2v-.9c0-.9-.5-1.2-1.4-1.2-.9 0-1.5.3-1.8.7h-.7v-1.1c.6-.3 1.5-.6 2.8-.6 1.7 0 2.6.5 2.6 2.1V47c0 .3.2.4.4.4h.4v.8zm5.1-5.8h-.3c-1.1 0-1.7.3-2.2.7v4.3h1.1v.9h-3.5v-.9h.5c.2 0 .4-.2.4-.4v-4.6c0-.2-.2-.4-.4-.4h-.6v-.9h2.1c.2 0 .3.2.3.9v.2c.5-.6 1.1-1.2 2.1-1.2.2 0 .3 0 .4.1v1.3zm7.7 5.9h-2c-.2 0-.3-.2-.3-1-.5.6-1.3 1.1-2.4 1.1-1.4 0-2.9-.8-2.9-3.5s1.7-3.7 3.1-3.7c1.1 0 1.7.4 2.2.8v-2.2h-1v-.9H42c.2 0 .3.1.3.4v7.9c0 .2.2.4.4.4h.5v.7zm2.8.1c-1.3 0-1.9-.2-2.5-.4v-1.5h.9c.2.7.6.9 1.6.9s1.6-.4 1.6-1.1c0-.7-.5-.9-1.7-1-1.5-.2-2.2-.7-2.2-2.1 0-1.3 1-2.1 2.7-2.1 1.1 0 1.8.2 2.3.4v1.4h-.9c-.1-.5-.5-.8-1.5-.8-.9 0-1.4.4-1.4.9 0 .6.4.8 1.6 1 1.6.2 2.4.7 2.4 2.1 0 1.4-1 2.3-2.9 2.3z"/><path class="st3" d="M9.2 40l-1.6 4.4h3.1L9.2 40z"/><path class="st4" d="M51 3.2H2.5v48.5H51V3.2zM3 3.8h47.5v47.5H3V3.8z"/><linearGradient id="SVGID_2_" gradientUnits="userSpaceOnUse" x1="61.315" y1="53.499" x2="123.863" y2="-9.048"><stop offset="0" stop-color="#9FA1AD"/><stop offset=".172" stop-color="#BFC0CF"/><stop offset=".38" stop-color="#9699A7"/><stop offset=".564" stop-color="#C6C6D3"/><stop offset=".742" stop-color="#9699A7"/><stop offset=".877" stop-color="#BFC0CF"/></linearGradient><path class="st5" d="M97.7 32.2h9.7v.1l-7.5 13.9v1.7h4l6.5-15.4v-3.6H97.7v3.3zm-9.9-.5v2.8h1.1l2.3-1.2v14.6h4.2v-19h-2.8l-4.8 2.8zm-9.3-3c-4.3 0-8.2 3.1-8.2 9.7s3.9 9.7 8.2 9.7c4.3 0 8.2-3.1 8.2-9.7s-3.8-9.7-8.2-9.7zm0 16.5c-2.4 0-3.9-1.8-3.9-6.7 0-5 1.5-6.8 3.9-6.8s3.9 1.8 3.9 6.8c0 4.9-1.5 6.7-3.9 6.7zM64 41.4c3-2.7 4.7-4.6 4.7-7.4 0-3.7-2.5-5.4-6.7-5.4-2.3 0-4.4 1-5.6 1.8v2.9h1.3c.9-.7 2.3-1.4 4-1.4 1.8 0 2.7.9 2.7 2.3 0 1.5-.9 2.9-3.4 5.2l-5.3 5.1v3.3h13.1v-3.3h-8.3l3.5-3.1zm34-16.6c1.7 0 3.1-.4 4.1-1.6.3 1.1.8 1.4 2.1 1.4h1.6v-9.8c0-3.3-2-4.6-5.9-4.6-2.4 0-4.1.6-5.4 1.2v2.8h1.1c.9-.6 2.2-1.1 3.7-1.1 1.9 0 2.6.7 2.6 2v1.4c-.9-.2-1.7-.3-2.8-.3-3.3 0-5.6 1.5-5.6 4.4-.1 2.7 1.9 4.2 4.5 4.2zm1.9-6.4c.7 0 1.4.1 2 .2v2.7c-.6.6-1.5 1.1-2.4 1.1-1.3 0-2.2-.6-2.2-2 0-1.5 1-2 2.6-2zM74 10.5h-2.5v14.2h3.9V13c.1-2.1-.1-2.5-1.4-2.5zM56.9 24.6h4.2v-7.7h6.5V14h-6.5V8.8h8.4V5.7H56.9v18.9zM73.5 9.3c1.2 0 2.1-.9 2.1-2.1 0-1.2-.9-2.1-2.1-2.1s-2.2.9-2.2 2.1c.1 1.2 1 2.1 2.2 2.1zm54.6 6.5c-1.9-.2-2.6-.6-2.6-1.4 0-.8.6-1.3 2.1-1.3s2.6.5 3.2.9h1.2v-2.9c-1.1-.6-2.4-1-4.5-1-3.5 0-5.6 1.6-5.6 4.5 0 2.8 1.6 3.9 4.8 4.3 2 .2 2.5.6 2.5 1.5s-.8 1.3-2.4 1.3c-1.6 0-2.8-.6-3.5-1.2h-1.2v2.9c1.1.6 2.6 1.2 4.9 1.2 4.1 0 5.9-1.8 5.9-4.6 0-2.7-1.4-3.8-4.8-4.2zm-36.8 8.8V14.2c0-3.2-1.8-4-3.8-4-1.9 0-3.8.8-5.2 1.7-.2-1.2-.5-1.5-1.2-1.5h-2.7v14.2h3.9V14c.9-.3 2-.6 3.2-.6 1.2 0 1.8.4 1.8 1.8v9.4h4zm50.1-2.5c-1.3 0-1.8-.4-1.8-1.7v-7.3h2.9v-2.6h-2.9V6.7h-3.9v3.8H134v2.6h1.7v7.7c0 2.9 1.6 4 4.4 4 1.1 0 1.9-.2 2.5-.4V22h-1.2zM117.8 5.2c-1.2 0-2.2.9-2.2 2.1 0 1.2 1 2.1 2.2 2.1 1.2 0 2.1-.9 2.1-2.1 0-1.2-.9-2.1-2.1-2.1zm-6.6.5h-2.4v18.9h3.9V7.9c0-1.8-.2-2.2-1.5-2.2zm7.1 4.8h-2.5v14.2h3.9V13c0-2.1-.2-2.5-1.4-2.5z"/></svg>
