<?xml version="1.0" encoding="utf-8"?>
<!-- Generator: Adobe Illustrator 18.1.1, SVG Export Plug-In . SVG Version: 6.00 Build 0)  -->
<!DOCTYPE svg PUBLIC "-//W3C//DTD SVG 1.1//EN" "http://www.w3.org/Graphics/SVG/1.1/DTD/svg11.dtd">
<svg version="1.1" id="Layer_1" xmlns="http://www.w3.org/2000/svg" xmlns:xlink="http://www.w3.org/1999/xlink" x="0px" y="0px"
	 viewBox="0 0 100 100" enable-background="new 0 0 100 100" xml:space="preserve">
<g>
	<path fill="#F5BA99" d="M99.7,51.2C99,78.7,76.1,100.4,48.6,99.7C21,99-0.7,76.1,0,48.6C0.7,21,23.6-0.7,51.2,0
		C78.7,0.7,100.4,23.6,99.7,51.2z"/>
	<g>
		<defs>
			<path id="SVGID_3_" d="M99.7,51.2C99,78.7,76.1,100.4,48.6,99.7C21.1,99-0.7,76.1,0,48.6C0.7,21,23.6-0.7,51.2,0
				C78.7,0.7,100.5,23.6,99.7,51.2z"/>
		</defs>
		<clipPath id="SVGID_1_">
			<use xlink:href="#SVGID_3_"  overflow="visible"/>
		</clipPath>
		<g clip-path="url(#SVGID_1_)">
			<line fill="none" stroke="#000000" stroke-width="0.2235" stroke-miterlimit="10" x1="-2.6" y1="71.5" x2="-2.6" y2="153.5"/>
			<line fill="none" stroke="#000000" stroke-width="0.2235" stroke-miterlimit="10" x1="0.8" y1="71.5" x2="0.8" y2="153.5"/>
			<line fill="none" stroke="#000000" stroke-width="0.2235" stroke-miterlimit="10" x1="4.2" y1="71.5" x2="4.2" y2="153.5"/>
			<line fill="none" stroke="#000000" stroke-width="0.2235" stroke-miterlimit="10" x1="7.6" y1="71.5" x2="7.6" y2="153.5"/>
			<line fill="none" stroke="#000000" stroke-width="0.2235" stroke-miterlimit="10" x1="11" y1="71.5" x2="11" y2="153.5"/>
			<line fill="none" stroke="#000000" stroke-width="0.2235" stroke-miterlimit="10" x1="14.3" y1="71.5" x2="14.3" y2="153.5"/>
			<line fill="none" stroke="#000000" stroke-width="0.2235" stroke-miterlimit="10" x1="17.7" y1="71.5" x2="17.7" y2="153.5"/>
			<line fill="none" stroke="#000000" stroke-width="0.2235" stroke-miterlimit="10" x1="21.1" y1="71.5" x2="21.1" y2="153.5"/>
			<line fill="none" stroke="#000000" stroke-width="0.2235" stroke-miterlimit="10" x1="24.5" y1="71.5" x2="24.5" y2="153.5"/>
			<line fill="none" stroke="#000000" stroke-width="0.2235" stroke-miterlimit="10" x1="27.9" y1="71.5" x2="27.9" y2="153.5"/>
			<line fill="none" stroke="#000000" stroke-width="0.2235" stroke-miterlimit="10" x1="31.3" y1="71.5" x2="31.3" y2="153.5"/>
			<line fill="none" stroke="#000000" stroke-width="0.2235" stroke-miterlimit="10" x1="34.7" y1="71.5" x2="34.7" y2="153.5"/>
			<line fill="none" stroke="#000000" stroke-width="0.2235" stroke-miterlimit="10" x1="38" y1="71.5" x2="38" y2="153.5"/>
			<line fill="none" stroke="#000000" stroke-width="0.2235" stroke-miterlimit="10" x1="41.4" y1="71.5" x2="41.4" y2="153.5"/>
			<line fill="none" stroke="#000000" stroke-width="0.2235" stroke-miterlimit="10" x1="44.8" y1="71.5" x2="44.8" y2="153.5"/>
			<line fill="none" stroke="#000000" stroke-width="0.2235" stroke-miterlimit="10" x1="48.2" y1="71.5" x2="48.2" y2="153.5"/>
			<line fill="none" stroke="#000000" stroke-width="0.2235" stroke-miterlimit="10" x1="51.6" y1="71.5" x2="51.6" y2="153.5"/>
			<line fill="none" stroke="#000000" stroke-width="0.2235" stroke-miterlimit="10" x1="55" y1="71.5" x2="55" y2="153.5"/>
			<line fill="none" stroke="#000000" stroke-width="0.2235" stroke-miterlimit="10" x1="58.3" y1="71.5" x2="58.3" y2="153.5"/>
			<line fill="none" stroke="#000000" stroke-width="0.2235" stroke-miterlimit="10" x1="61.7" y1="71.5" x2="61.7" y2="153.5"/>
			<line fill="none" stroke="#000000" stroke-width="0.2235" stroke-miterlimit="10" x1="65.1" y1="71.5" x2="65.1" y2="153.5"/>
			<line fill="none" stroke="#000000" stroke-width="0.2235" stroke-miterlimit="10" x1="68.5" y1="71.5" x2="68.5" y2="153.5"/>
			<line fill="none" stroke="#000000" stroke-width="0.2235" stroke-miterlimit="10" x1="71.9" y1="71.5" x2="71.9" y2="153.5"/>
			<line fill="none" stroke="#000000" stroke-width="0.2235" stroke-miterlimit="10" x1="75.3" y1="71.5" x2="75.3" y2="153.5"/>
			<line fill="none" stroke="#000000" stroke-width="0.2235" stroke-miterlimit="10" x1="78.7" y1="71.5" x2="78.7" y2="153.5"/>
			<line fill="none" stroke="#000000" stroke-width="0.2235" stroke-miterlimit="10" x1="82" y1="71.5" x2="82" y2="153.5"/>
			<line fill="none" stroke="#000000" stroke-width="0.2235" stroke-miterlimit="10" x1="85.4" y1="71.5" x2="85.4" y2="153.5"/>
			<line fill="none" stroke="#000000" stroke-width="0.2235" stroke-miterlimit="10" x1="88.8" y1="71.5" x2="88.8" y2="153.5"/>
			<line fill="none" stroke="#000000" stroke-width="0.2235" stroke-miterlimit="10" x1="92.2" y1="71.5" x2="92.2" y2="153.5"/>
			<line fill="none" stroke="#000000" stroke-width="0.2235" stroke-miterlimit="10" x1="95.6" y1="71.5" x2="95.6" y2="153.5"/>
			<line fill="none" stroke="#000000" stroke-width="0.2235" stroke-miterlimit="10" x1="99" y1="71.5" x2="99" y2="153.5"/>
			<line fill="none" stroke="#000000" stroke-width="0.2235" stroke-miterlimit="10" x1="102.4" y1="71.5" x2="102.4" y2="153.5"/>
		</g>
	</g>
	<path d="M35.4,70.5c0.2,7.9,6.6,14.2,14.5,14.2s14.3-6.3,14.5-14.2H35.4z"/>
	<path d="M99.7,51.2c0.7-27.5-21-50.4-48.6-51.1C23.6-0.7,0.7,21,0,48.6L49.5,26L99.7,51.2z"/>
</g>
</svg>
