<?xml version="1.0" encoding="utf-8"?>
<!-- Generator: Adobe Illustrator 18.1.1, SVG Export Plug-In . SVG Version: 6.00 Build 0)  -->
<!DOCTYPE svg PUBLIC "-//W3C//DTD SVG 1.1//EN" "http://www.w3.org/Graphics/SVG/1.1/DTD/svg11.dtd">
<svg version="1.1" id="Layer_1" xmlns="http://www.w3.org/2000/svg" xmlns:xlink="http://www.w3.org/1999/xlink" x="0px" y="0px"
	 viewBox="0 0 100 122" enable-background="new 0 0 100 122" xml:space="preserve">
<g>
	<g>
		<path fill="#C28364" d="M49.9,121.7c-0.4,0-0.9,0-1.3,0c-13.2-0.3-25.5-5.8-34.6-15.4C5,96.8,0.2,84.2,0.5,71
			c0.3-13,5.6-25.1,14.9-34.1c9.3-9,21.5-14,34.4-14c0.4,0,0.9,0,1.3,0c27.2,0.7,48.8,23.4,48.1,50.7c-0.3,13-5.6,25.1-14.9,34.1
			C75.1,116.8,62.9,121.7,49.9,121.7z"/>
		<path d="M49.9,22.4v1c0.4,0,0.9,0,1.3,0c27,0.7,48.3,23.2,47.6,50.2c-0.3,12.8-5.6,24.8-14.8,33.8c-9.2,8.9-21.3,13.9-34.1,13.9
			c-0.4,0-0.9,0-1.3,0c-13.1-0.3-25.2-5.7-34.2-15.2C5.4,96.5,0.7,84.1,1,71c0.3-12.8,5.6-24.8,14.8-33.8
			c9.2-8.9,21.3-13.9,34.1-13.9L49.9,22.4 M49.9,22.4C22.9,22.4,0.7,43.9,0,71c-0.7,27.6,21,50.5,48.6,51.2c0.4,0,0.9,0,1.3,0
			c27,0,49.2-21.5,49.9-48.6c0.7-27.6-21.1-50.5-48.6-51.2C50.8,22.4,50.3,22.4,49.9,22.4L49.9,22.4z"/>
	</g>
	<path d="M35.4,92.9c0.2,7.9,6.6,14.2,14.5,14.2s14.4-6.3,14.5-14.2H35.4z"/>
	<path d="M99.8,73.6c0.3-10-3.3-18.9-7.3-27.3C89.5,40,65,12.2,65,12.2s0.1,5-0.1,6.8c-0.4,2.5-1.6,4.6-1.6,4.6s-3.7-2.6-6.8-8.6
		C52.4,7.2,44,0,44,0s0.5,9.3-1.9,16.2c-1,2.8-4.1,6.1-4.1,6.1s-2.3-4.6-3.3-6c-1.4-2.1-6.6-7.6-6.6-7.6S28,12.7,26,17.1
		c-3.2,6.9-9.3,16.7-15.3,24.3C4.3,49.6,0.3,59.8,0,71l49.6-22.6L99.8,73.6z"/>
	<polyline fill="none" stroke="#000000" stroke-miterlimit="10" points="30,117.8 30,88.5 69.9,88.5 69.9,115.7 	"/>
	<polygon stroke="#000000" stroke-miterlimit="10" points="30,116.4 40.3,119.7 30,100 	"/>
	<polygon stroke="#000000" stroke-miterlimit="10" points="69.6,116.4 59.3,119.7 69.6,100 	"/>
	<rect x="47" y="116.4" stroke="#000000" stroke-miterlimit="10" width="5.4" height="4.4"/>
</g>
</svg>
