<?xml version="1.0" encoding="utf-8"?>
<svg version="1.1" id="Layer_1" xmlns="http://www.w3.org/2000/svg" xmlns:xlink="http://www.w3.org/1999/xlink" x="0px" y="0px"
	 viewBox="0 0 16 14.5" style="enable-background:new 0 0 16 14.5;" xml:space="preserve">
<style type="text/css">
	.st0{fill:#FFFFFF;}
</style>
<path class="st0" d="M11.3,2.5l2.4,4.3c0.2,0.3,0.2,0.7,0,1L11.3,12c-0.2,0.3-0.5,0.5-0.9,0.5l-4.9,0c-0.4,0-0.7-0.2-0.9-0.5
	L2.3,7.7c-0.2-0.3-0.2-0.7,0-1l2.4-4.3C4.9,2.2,5.2,2,5.6,2l4.9,0C10.8,2,11.1,2.2,11.3,2.5z M11,0H5C4.3,0,3.6,0.4,3.3,1l-3,5.2
	c-0.4,0.6-0.4,1.4,0,2l3,5.2c0.4,0.6,1,1,1.7,1h6c0.7,0,1.4-0.4,1.7-1l3-5.2c0.4-0.6,0.4-1.4,0-2l-3-5.2C12.4,0.4,11.7,0,11,0L11,0z
	"/>
</svg>
