<?xml version="1.0" encoding="utf-8"?>
<svg version="1.1" id="puzzle" xmlns="http://www.w3.org/2000/svg" xmlns:xlink="http://www.w3.org/1999/xlink" x="0px" y="0px"
	 viewBox="73 -75 184 200" style="enable-background:new 73 -75 184 200;" xml:space="preserve">
<style type="text/css">
	.st0{fill:#CDCCCC;}
	.st1{fill:#F5BA18;}
</style>
<path id="grey" class="st0" d="M147.9,36.3c-0.2-1.3,0.7-2.3,1.6-3.2c1-0.8,4-1.2,3.5-7c-0.5-6.1-6.8-10.5-14.8-9.8
	s-9.7,6.8-9.1,11.2c0.5,4,4.7,2.8,5.2,8s-3,4.6-3,4.6l-26.5-1.4c0,0-1.4,9.4-1.6,12.7c-0.2,3.3-0.2,8.4,0,12.4
	c0.9,0.9,3.3,3.2,5.2,0.2c1.7-2.7,3.5-5,9.1-3.7c7.1,1.6,5.8,10.6,5,12.6c-0.9,2.9-6.7,6.7-9.7,6.1c-3.7-0.7-3.3-4-6.1-4.2
	c-2.8-0.2-3.4,1.8-3.5,3.3c0,5.7,0,22.5,0,22.5s22.9-2.5,25.5-1.9c1.7,1,2.5,4,1.9,5.9c-1.1,3.5-7,2.1-6.3,10.5
	c0.5,6.4,6.7,8.9,10.9,9.1c4.2,0.2,9.3-0.4,12-3.9c1.1-1.4,2.1-4.4,1.9-6.6c-0.2-1.9-2.1-4.8-3.3-6.3c-3.4-4.6-0.4-8,1.6-7.9
	c4.5,0.3,11.3,3.3,17.8,2.4c0.6-3.6,0.9-6,1.6-9.3c1.8-9.1,2.9-20.3-2-16.9c-5.9,4.1-10.2,1.5-11.8-0.3c-1.4-1.5-6.4-6.9-3.6-15.3
	s7.7-9.4,11-9.5c3.6-0.1,6.4,4.6,8.2,3.5c3.2-1.9-1.4-15.4-1.4-15.4s-16.7,0.7-18-0.4C148.6,38.1,148.1,37.2,147.9,36.3z M215,41.7
	l22.2,0.9c0,0-1,13.8-0.6,18.5c0.1,1.3,0.7,3.9,3.4,4.1c2.7,0.2,3.3-4,7.4-4.2c4.6-0.2,9.3,4.6,9.4,8.8c0.2,5.2-2.4,9.6-6.8,10.1
	c-4.2,0.5-7.1-5.7-10.5-5.1c-2.7,0.5-3.2,1.3-3.2,2.3c-0.2,8.2,1.6,23.3,1.6,23.3s-21.3-0.5-28.4,0c-1.8,0.1-5.3,0.7-7,1.8
	c-1.8,1-2.2,2.6-1.9,4.2c0.2,1.5,3.7,4.3,3.4,7.6s-3.1,6.5-10.1,6.2s-8.1-5-7.9-7.7c0.2-2.6,3-4.3,2.9-8.3c-0.1-4-4.6-4.2-9.1-4.2
	c-4.5,0.1-7.7,1.2-10.2,1.6c0.2-4.1,2.9-17.3,2.3-23.7c-0.2-2.1-0.4-7.6-4.3-7.8s-4.6,3.8-9,3.6s-6.2-6.1-5.6-9.8
	c0.6-3.7,2.2-8.3,7-8.5c4.8-0.2,4.8,4.4,9.4,3.4s4.1-7.5,3.9-9.3c-0.2-1.8-1.7-6.6-1.7-6.6l16.6-0.7c0,0-3,4.6-1.7,11.5
	c1,5.3,8.1,11.3,16.2,11.2c7.4-0.1,15.2-4.4,15.9-11.1C219.4,46.7,215,41.7,215,41.7z M194.3,37.9c-0.8,0-22.9,0.8-22.9,0.8
	s-1.4-12.2-1.5-15c-0.1-1.5,0.8-4.5,3.7-4.7c2.6-0.2,5,3.3,8.4,3.2c3.1-0.1,7.7-3.5,7.7-9.4s-2.8-9.4-6.5-9.4
	c-3.3,0-6.5,3.8-9.3,2.5c-3.2-1.4-3.1-10.6-2.9-13.4c0.2-2.4,2.7-16.6,2.7-16.6s16.2,1.8,19.6,1.6c2.3-0.1,5.6-1.1,5.8-4.1
	c0.3-4.7-6.1-6.9-5.2-12.4c0.8-5.5,7.2-9.1,13-8.8c5.9,0.3,12.6,5.3,12,10.8c-0.7,6-5.2,5.4-6,9.9c-0.5,2.8,1.2,4.7,3.2,5
	c2.2,0.3,23.8-1.1,23.8-1.1s0.3,14.6,0.3,19.4c0,2.2,0,5-2.9,5.2c-2.9,0.3-4.1-4-9.9-3.6c-5.8,0.4-7.8,7.2-7.6,11.6
	c0.3,4.5,3.3,7.6,7.4,7.8c4.7,0.2,5.5-5.1,9.2-5.1s3.7,1.5,3.7,2.4s-2.7,23.1-2.7,23.1L208,37c0,0,7,9.7,6.5,14.8s-5.6,8.5-11.6,8.5
	c-7,0-12.6-5.4-12.3-11.4C190.8,44,194.3,37.9,194.3,37.9z"/>
<path id="yellow_path" class="st1" d="M75-36.1c0,0,9,10.4,13.4,18.5c1.6,3,0.1,4.4-1.6,5.2c-2,0.9-8.4-1.3-11.4,1
	c-2.7,2.1-3.6,9.1,0.7,13.2c3,2.9,9.7,3.8,12.4,0.8c2.4-2.7,1.5-6.1,4.6-7s3.9,1.7,4.1,1.9c0.4,0.6,9,16,10.3,18.5
	c3.8-1,15.5-6.4,16.4-6.8c1-0.5,6.4-2.5,4.3-6.6c-2.1-4.1-9.3-2.5-11.3-8.5s3-11.3,7.3-13.8c4.3-2.5,13.4-3.1,16.3,2.9
	c3.1,6.4-1,7.6,0.3,11.7c1,3,3.1,2.7,4.3,2.3c2.3-0.7,16.2-8.5,19.7-12.7c-4.6-5-8-10.1-8.8-12.6c-0.4-1.4-1-4.4,1-5.9
	c1.6-1.1,7.2-0.3,9.8-2.5c2.6-2.2,3.1-7.3,0.5-11.2s-6.7-5.4-9.7-3.6c-2.3,1.3-2.3,5.5-5.1,6.5c-2.6,0.9-8.2-2.8-10.9-9.9
	c-2.8-7.1-4.4-12.4-6.2-16.7c-3.7,3.8-8.4,7.1-9.5,7.7c-1.8,1-5.7,3.2-8.2,0.8c-2.2-2.2-0.2-6-2.2-9.1c-1.8-2.8-8.5-4.1-12.3-1.8
	c-3.3,2.1-6.6,6.7-3.7,10.3c2.5,3.2,5.8,0.8,7,5.8c0.7,3.1-5.1,7.7-11.3,10.9C91.3-44.7,75-36.1,75-36.1z"/>
</svg>
